<mxfile host="app.diagrams.net" modified="2023-10-01T03:40:00.648Z" agent="Mozilla/5.0 (Windows NT 10.0; Win64; x64) AppleWebKit/537.36 (KHTML, like Gecko) Chrome/117.0.0.0 Safari/537.36" etag="MNyLMwIyFP0Vd80uKuS8" version="22.0.0" type="github">
  <diagram name="Page-1" id="ID-JMgCpnEqi5fDgTNxf">
    <mxGraphModel dx="1235" dy="666" grid="1" gridSize="10" guides="1" tooltips="1" connect="1" arrows="1" fold="1" page="1" pageScale="1" pageWidth="850" pageHeight="1100" math="0" shadow="0">
      <root>
        <mxCell id="0" />
        <mxCell id="1" parent="0" />
        <mxCell id="U-XytJ5qrg8WCUu48aZu-2" value="" style="shape=image;verticalLabelPosition=bottom;labelBackgroundColor=default;verticalAlign=top;aspect=fixed;imageAspect=0;image=data:image/jpeg,/9j/4AAQSkZJRgABAQIALwAvAAD/2wBDAAEBAQEBAQEBAQEBAQEBAQIBAQEBAQIBAQECAgICAgICAgIDAwQDAwMDAwICAwQDAwQEBAQEAgMFBQQEBQQEBAT/2wBDAQEBAQEBAQIBAQIEAwIDBAQEBAQEBAQEBAQEBAQEBAQEBAQEBAQEBAQEBAQEBAQEBAQEBAQEBAQEBAQEBAQEBAT/wAARCAF3AfADAREAAhEBAxEB/8QAHwAAAAYCAwEAAAAAAAAAAAAABAUGBwgJAwoAAgsB/8QAXxAAAQMEAQMCBAMFBAcCBwUZAQIDBAUGBxEIABIhEzEJFCJBFVFhCiMycYEWQpGhFxgkM1KxwWLwGRolJkPR4Sc0NURZcoKYxNTxVFeSk5S0wtU2NzhFSVNkaIiXxv/EAB0BAAIDAQEBAQEAAAAAAAAAAAAEAQIDBQYHCAn/xABQEQACAQMDAgMFBAYHBgMGBQUBAgMABBEFEiETMQYiQQcUMlFhI3GB8AgVM5GhsRckQlLB0dMJFleW4fFipdQlJjRDU3VEcpKU1VVkdoOE/9oADAMBAAIRAxEAPwDf46KK50VBIHeuinEIH1HW9j2PnQ31G4ZxRnjNQQ5GfE14M8TLuRYXIDkPZWP7xVDRMXb0sTKpUYyXBtIkIisO+kpQOwlzR1511p032hscGsxKpJC8kVH6N8dz4T0lv1BzNxix9XaUSYtZjqT4J87g+PAP+HUiJ2+EVBlI7rR3G+N98KKUGvS5vYcIeWENqVIqiEKUfYdxhgf4nqrIyHa3eqi4jz9aMj8av4VqUOOK5t4ZQlk6dC5tQQts715SYu/f9OjY+cYrYNkZFY0fGv8AhWrcQ0jm1htTiyUpSJlRJJHuN/Ka/wAep6b/ACqN9HjfxjvhfuBBRzWwmQs6SfxuQAf8Wf8An0dN/lQXAGTRk38Xf4Z7qQpvmfhFaSdbFxr8flv919/b9eqhSe1VMyYzWZr4t/w1HlIQ1zTwKVOK7Wwu8UtdxA2R5QPP6dWEbnsKtvAGTWNz4uvwz2nlR3ObHH9LqVdpR/bdskH+fZrqelJ2xVDPEvc0awfis/DhqBIi80uPStaBK8hxI+9+38fb/l1Xa3yqPeYP7wpSMfEs4CSfDHL3j87+XbkunjuHjyNrH59G1vlUG6g9GH76HD4jXBIoDg5a4DKCSO4ZJpykAj7Ehegf0PQqMx2qOahbu3Ztitz8q6j4jnBAhR/1tsCaQdKP+keBpJ/X6+peN4xlxj8a3LqBkmhDPxEuC0htbrPLXj+ttsbcV/pOpiQj3Pnbnj2Pg9UT7ThOatkAZqI3Nv41XEPiFi2h5Dty56ByRqlw3e3asKzMOZFoUyqU7cV6W5NqLjjx+XjpQz2pV6a+9xxCRrZIu0boMsKzMqg7R3qpxX7W/wAdGX1x5HFHL7S0LLSgMi24vZT7gfQAf5dUo6n0o6p37WbxqqXf6HF7M37sbWP7a28SP5fn0AKSM1BkwM4o1f8A2sLizFITL445mZdKAv0v7V28pZBJGwO8dX2D51XrE/2aNad+1ccRprjSF4FzW0XVhsBFZoMjRP28OgnqQm47QeajrEf2aP1/tUfDNgpXKw1nFiOpzsL4dob3nQP0oTI2fcdS8WwZY1ImOcbaUVP/AGpvgBJX2S7Hz7T1b2UrtSFKPnX/AASSeqhVJABq+/6Uuo/7Td8O1ba3JVMz1FKO1RQrG3rKCT/fOnvCf16t0jjOanqCjiD+0yfDOlOtNyqnm6Alz++9iWU+hI/khwkn9B1AQH4TUdQfKjuH+0hfDil1FpAquYGKC+0pbNfcxq86FLSBtKoba1PoG/7zgT7ede3Q0ZQZap384pVv/tE/wvmGw4cn5DcUohKGWsQVtTrhP91O29bH8+s6N4pf0f49/wALSsQ1TU8k41OQhSEPtVWx67EkRluDYQtPyp8jyDrfkHq6xsw3L2qDKi96VsL44Pwt5qApPLaymN+6ZlErMVxP5bSYmwD9j0FGHJFR1oycZpbwPjB/DQqVObqsTmFif5Rx/wCVCpEifFc9QeO1SFRgoH+Y6qFZjgCrCRPU0at/Fo+HC6hTrfMHC62kILrjgrz+m0jwVK/ceNa+/Vmjde4o6ifOjeB8U74eNSW23E5f4OW48lK2UuXgmOFhX8J2tCfB/PqArN2FHUT50vYfxAeEU9S0xuV2ASW1+moO5QpcY92t6He6N+Py6kRS4zto3qexpUweZ3EapLaRB5O4CkqfWENBvLdCAWo+wBMkDZ9vJ6jY/fFWyPnSpb5MccXv91n/AAm79Pf+7ytQV+B5J8Svb9eo2t8qMj50PZ5B4Dkjuj5vxA+kjYUzkqiugj89iT0YI70ZHzozbzTh10BTOV8aupJ0lTd90pYO/wAiH+gKx7CoLKO5owZynjOSQI+Q7Gf7vb0bvpzu/wCWnuowR3qN4Pb+dDm7/sZ5QSzedqOqP91u44S1f4B3qQpPYVHUGcHH76PzUIaowmokx3Imu75puS2Y5Gid+p3dvnwN7+46CpBwanqL861wMvftLnGDEOQLusGpYPzJVH7Qu2daMupMVWhRI8h+C+ph1SEF8/SVJPb9R2B79adEqOay6+WwFpFUz9qd4dTZEdidhvMtJbeeDTsyVOor8SIk+7jpQ6VBI+5CT0LGGON1WMrAbivH30sLj/aduFNInJZpeOMyV+A20VTKlHYpcBptfalQDTTr4W4nS/8AeEIHt4PV+gP71V94/wDDRdSf2o/gvNlxo1Sx5m2hoek/LvSplNpklmEAdFxwNSFK1/8AMgnx7dVaIr61ZZQw7U7NR/aV/hwQpDLMObmWtsLZ736hSMbuSIDKh7tpUp1KlkDySE6/U9V6f1q3U+lC2P2ln4Yvan56481U5Sk9yA/h6e8HP0SULO9dQUA9aneKPKT+0hfC6rLyGG8h5VgLW4Ed1RwrW2Wkb9ipSUKGuqso9SKN4pS079oi+FVOkqiys8V+hqC+xLlcxbcFPacO9HtV8ufA9/5dRV6cymfHY+FTVloajcurMQ65soZk2/XIy169/wCKH49j0UUr4XxpPhcz0oW1zMxOyXN9omO1OEPHv5VEA+3RVdy/OlDD+L78M2eSI3NLBitEJJeudyKCT7aK2R1IBPajctLWn/E9+HvU/wD3nzDwE557fqyDEY8/YfWU9TtYelG5T60q6R8Qfg3XZ7VNpfLbj2/LeCyhDuVqRCR9CC4rbjryUJ0lJP1KG/YbPjqMH5VOR86XLXL/AImPgehyf47vDWx6ObLZcGvz8TfbowflRkfOssLlvxYqBbELkjgeQp4hLaW8t0LvWT7AD5ne/wBOp2PjOKMj50cwuSnHepSHIdOzzhioS2gVLjQso0SS8nR0fpEn7dGx/kaNy/OlRGy5iqYEKi5KsCR6n+79C9KY/wB+/wAu187/AKdRg/KjcPnRyzfdkyVJRHvC1pC1b7Es3DDdUvXvoBzoII70ZB7UpGZLEltD0d5p9lz/AHbrLiXml/yUCQf/AGdRU1n6KK50UVzoor4obBHtv+vQDg5NUkUsuBWB4+EJCQSHEqIV5AAIUo6+50Dr9eq7QG3VUNxg15gmdeOed/iJ82eWt543l0pK4/IyuUipt1+uLYqKPWqVQTFQ22pK+9tDEZOg32pSG+k9X1FhHEkR7H0rWxtVR3Z+xpHZX+BX8Q7FNru3ZXLcsqVbkVn/AMqz6XeTSpcPuPej1I5+tW1Ep+hJAA64w1yaMZ3GuibMOOKitijjzZ9MtM1jkNTrxtusfiU1EmnzDULcMeJHkLjNqMVxpDr6ZBZdU04lISpKNpURvXcsbtr2HrMec1zrm0jhfFDrksLjW27GZsagyLniSJyyhcq7qrSqzTCE6UzJQlYQQNEpWka8p8b312U7GubJI8YZY6RTllYtjpC2bAkkbUS0q9ax68xtJIBSe/3AHk9acGl2mm7kfzoE7R8EBTpp+OnErW02Fsz72rCEuuA/XpXrkp8/kOoIFVEzscHt+NOgzYXEmlUOO7etrVxmsyQpxUSiXRUXIUdK0kgPuuv92inySkEpGz79YsuymU7HFNTkvi/W7sqVks8ZrenXhTriizF1X5KU7OdovypT3euVK/dx1KWksL0VBAIXrrj6nftZwdSM85rqWkSzy9NqcMfCC+I+Y0Z5GCg+uZH+ciQo99UKTNfZKAtKy2mWTspUk9v8XnyAfHXNttakkOHam5dLUjOKrwypa+Q8K31XsZZIo7Nt3tbD7cau0MuIekUx1ae8MvLBUnvAI7kpJ7T4J67VvdiZeMUg+nRxsMAUk4lzS1pADyQgHu0gBaySfb23rphpcHnFV9zj+QqwTgpw7zFzgyrT8cY3prj0dLza63WVxjJiUpgkd5SlJAU5oggqHjry+ta61uzW9tnqD5V3LDTtOSITzAZP0rdCxD+zG4SplpU5jIVZlVm43ISfn506uSBJbdKE9yktMNhsDZO0k+Pz683a2/iXUX3mQqv1J/Oa1nl0v4VjyfpVX/xJf2e+8+PFnVnLWEFVG8LQocVybXqXDeVKqVOaR9SnWRoEoSkFSkr2ohs667lle3ts22XuOK5kkcRyUrV+o65sCDk6nVN6PBn0tdHkx4jYcUipq+clNlCSNnu7Feoe/wCnSCB5A69TFcvcL5zmk5YkHnHeovXHXp5qNTfaK/WcqbikNEKCmhon2HsdJPn8utKypybSqso0wzAh35dhrsflobUlrvUNgKV79XRN9FJW97jksz2lsuEuCEkjuR6mh3K9ietBD99FGWNLrMmv0p2oJZf7agO9JQUhaAk/YeO4a9vc9ZQgrc7RRR5fVZXFprKUq9LtfWEpQvY7k78a3/Lpi9+Cim6t65ZEqSPmi46FA9h2tKT2+f8Ap0rF6UU+dbrLrUCe0072v/hbbijtWkAJCgd/yUP8enW+DFFMvAvOb+IR2XHitpUkJHdtZVrZ8gn9Ol4QM8UVIKkV1xVJgpKlqIkOoBQOz6fqJ/5f59Mum9dtFNJULzqbM2SyHnvpf20hTxPYkq8b8+CddLiL55op26Dcjpps9bMl5SVCKsNoeUT3dzgJI/Q76cgXahFZyDkUiLmvKoQaiQ1MkKSttABDjiwCEjY2PHWcnbJrOjyy7xlypCH0zH3HENuhSVklGinye0nalD8/cdRA2Xor5cV7VaDDiuM1Sa0JKFRZSWXlMKfR/wAPt46vcEhciiiS27zqlQnsh2S4UsENhCnSvvRvwO5Q2N/nvqiE5I9KKcK8btqbbdWQX0pEZ8KBbbQrs7gNfWTs+xHg/c9Mf2M1ZMbhTQwMi1afMEZUyW33r8lDgQgISRs+Ffp7dZ5rapBi7qq1Q6c5GnzVrboZEhwOKJCklWlD6hs+R5+2uoopp2ctXEiQmL+LTNLIbBMhbhJ3/e2o66Wn+VFSHtW/Kg5RFiZVpT7yJBWhXzTqXW9JCjpQUPAHt1pb5MeB88VUxB8tSDqOYbrp0ycmPdFWYcRMKI5RU5DI1sfdKvf7f06wkOTR0vvpxbPzBfEoVZxy7aw4BTCt1Zrctn0lFXag9wcB89yfJ/Pz0xbYOSRWfRGak1jLmPlu2alKt+Rn7N1Oh0qix6Xbtl0PJlXasRTEhtS35ElgSfoeS52pSlCCgg7J11eY5IH1FVaEDmoc5vuOoy61V6hKde+cn3BInP8AqyTNkh1ZK1uvOL/j2pZOwT7+Ook5GavH3pg4dz1RxUhPcHGmR3qBAC1+Uj6dbO9KPSkXJref4Kdi557MChpfi1ASHZttpdnNaJUxIUtP0AH/ALKU78/frX1pWmUi3PUZEkxo6UynXHC5tSUqcQnfdtRV7ePv+nRWkfY040CrPyaNGeS8rvcdebLQ22koDY0oa/UKH9OitKZ1+8ZsWWptLfzIWsoCHNlwEnx2g+T489YuMOaKXdCuCpiDOHY60Ww05IQnZLZV50oj2I+6fcdVopE3jek2BW5C/VW2lLSCx9SghXcjvH32dge2uimB2o5s+8aoJsfaJTDxYccW8pSwXE9hVsA+PYjyfz6Kq3wmsd7X5UoKKO4t99AdaUr01LKXXfKvYD3A/wCvRWNENEvqZJksPlyYytclKGXHX3UxlK2lS0g6AKgFDY6vH3NFORe13yUUyoBUxbJStDq1tBKS/rZICvcjrWimkj5FXMeS1txKSrThWj90gkaHf51514/p0UU8sS4imhsPMuphLTSHHGnUMp/dHuPuCfJJ8j+XRRTT03NdViOemms1mNKaUSy7GlKbQvt2O/3Oh9t/brTqhRiinltm9qxJoLtTerMhT0mqhtKnqi4/KdSvsUfy8Hv39/fo69A70hp2drjg1KoRxdtyNNRpimIzLFaksIQlBAP1Jc7f6ffpXrfLFa9MmntxRme9pVRkOKuq5pqEQHkxW13JMjuI71hOtB4BPg/xf3d799dZzSjpmrBCvmr0v/gKX/cF+8IGv7QViZXFWxk2q0anS5+1yGmXWYsxbZcUS4vTsl7RWT9JTrrCGQEZqau36YBBGRRXOpornRRXxR0P8vbfVJFLLgUUCmFSWXHQe1SWVqQSPIPpq/w/PrQkbdvrWG1lk3E8Vo6/BSuWxJWaviM0+/L1t6zapdmRJqbUrF3enCpX4i3VKySDJJ2ydPpAWPfSt+w64cluXYmXsO1NLcCRQkXcVI26OYcXjnadw21eOLbxzFfNn3+urTJ9NvG36/a9UpiKcY5Wub80t1Mb1kJfDYaUv6tnR6SksVIwv8aajlYct3rX65Z83aZy8ybWc8W1Y8+zrWvumuUGm2fW7hi3FIt6dbzgjR5TawlKUtJcXIKWEjwl1X3PXotKsylrgH1rj39y5uto7VASxrEbpVWuS9rruNb0RCnH1oDXo7JV3IbShJ0XFbSTvwCdddgRFec1EfSI8wzWSoZWmznYzFv0m3aPBYaW3DFTpLFddnoUdrDgkJcShayQdJAAOwARvrMtg4qjLFuOAaTKLnhVZ9w16iQqRMaUI0OtW1HRSpMFBOil6OjUVTY/vFLYVreujqDOahgpH1pqr6YuQ1iVS01SOilqLctLS0l9uSpSD6MlhXuUqAUCg+Nb6JnV+FqqjaMVLDAHJyocZ52HLnotvs3bMjTbppbkR2pKoSg+4hgF0LShaVoBI7UOJOu5Wtded1OzeS2IY55rq6dKqXAPyFWLWHzVu/L0Sy2qJg++GH7dqEmp3AKbczCKLEekrQlAQfoV2kpKikpHd2j264PuMoPl7V12uAy7cVr/APNx2arkrkFqq1dVdrMZyKxWqzLdU3MnyUsAurdaVshZ7vKv72v067GmQSRqysa5t2WZgVNRrpsjtdbbSFKBO1BHkHQ3ofqf+nXV6ZpTDgYBr0pv2Vnj7aFq8IarnmPTKe7c+Rb8qNINWdaS5UI7dOdLbjAX7p2Fte2vY9ecisYW1l5p+e319a6puozYpAoO4Zyf8vpW1ElJS2nXuNe/vv8AX9R16CXdHGFhHH+Fc04LEiiyp0anVqm1Gj1WHHn0yrQnKdUoMloOxpbLwLbra0HwQpKlA7/Pq0lvBL3XmoLMOxryTvihWZjLi3zJ5e4e/FjGptrZW/ArGbYmtxXpMdp6Y++2tKiAUsJkspPbsp9RHtsdbCNYkwPWlVMjSlf7IzUJsb/6tt8rroqtYx7ak6lx2/RN25CTbyK2tYCFusyFHsUU+ooqTvet68jrRYwwyWAqWLKOFJonyFdmFbImVK07crltVd1mUhS6/aV6ouC15qCgaWwskbUPPdsDz0woWFT5gfuNVjd5PiQj8KT1j1jBl7VGPSbkr1Ct+pLSoNXHcd2Cl0haU+Q26tO0oUTvSlkAA9CSq5wePvq7llXIBJpW3yrj3i2p0uLQb9tu7Kq5B/FX59l3m3c1AhPrKkojLe7AnvCB9RH0gq1s9ZuqxzdbcCPpzWccjyHBQj7xTd068cM3NKZgV243WUSZSfl5EqqMUqPEccdQ2VPu6OkDvUpSh7JTv26iWUXI2KMffTBQgZp0K1bXH6yXp1T/ANK1jT26e8uJHTaV9U26VTN9yfVRHQgOLQrwe4efv7dSkKKR5xWAkYnGw/upCvZLxDWZEpNSu8xoLyURimK0huWtCENob8lQT/c878eerl1xtzzWi7jyQRS2Fj4EdjOVmLmuy4rTEMy2mZt80hNQcOv4ExA8XS4fI7CkEe/URRqBuLj99Vy2cFTj7qT6r2xG3HZiQMgUNEaISlTstaUSlL2AVoCSQQQT539+tDIgOM1psIHFDqfauDK80/U4mZ7SggyiHGK1dVLpExZI2VJaedCij319+rAof7Q/fWe84yFP7qzyKriSgwHGKfliz6qpT6A7DVWGkgFvvAUHG9pUPqB2Drx1feiDBYfgao25xkKaBtUrFFzvJlSM12HT32mG0vsz6/Ejso+ntAQpbyO/9QkbH3PWf2TYBYVRg6jO01kaOJ7RTMaazDYVXeUhTZbhVlt5H1jwG3EKUjQGifqPnfnqIxHGc7hQiu4yVI++iVlWO7mbjty8uY+paYjncWqjXW2+9P3IV4B0Pt7n7dTJskHxD99WdGXsCaOYlBxNRpUqbGzjix4egt1iM1cCi44ptQ2ju12hSiT2930qA2OpCxpnzj99VAcj4TRRUK1ZdeeqkRnJNgQES5SXESp10sNsqSjuIAPv58bJ6kSpt25GauA4OdppPItizojiZYy7iZ30Tv5dq+GCt3f3HjQ/lv8Ap1QugzyK0BJONppcTrtsJqIxAYyFYzkwwPlSuPc7HyCVK0Btzfjz7kjx0b0PY1LErztJpunKNbpleurJmL3HUALCU5AgltH8lbAUR+XWbhX9RVCz4zsNOlTL3x/RoDcWffFkOPrUR/sF1RJzf+7CQVKSvQ3+vV4wqLt3CrpIwHKmkHVana9RnyHU33j9tgSVPMhV4wSSgjvHn1PJJ8efIJPWTRKTneKnqtnAQ0sqLeNhUdFRU/eNhM+vCRD3EvGHMD6wtC1OFAVvR7Pt42fHWkQWL+0D+NGCeQKLZmQLDYvELYvm2HYcmnRhJmt1hkxe4NlZT3hXgp/hOvO+iZ1Y5B7UFWweKdCTeuAbxrqqdPylb8aBIkLkMVKt1H5SHTnO1CikuI7nCglJAV2/fz1HUV+O1VVDGMkZNE11T+OVsVJumwci25ciUdglVa17s9WEUqAVttS0oKin2I/P36zCKhLhhVmzIAmCKx0q6cKXXXI1AcyZQaLTqrJRAYnXBXYlOp1OSBv1pUvuPanxrZGhvq42MO4BrExOOcUX3VFwTastiOzlWyq0+EnVRtO+/wAYSyQrRbWsNJRog7BR3b17+OhgoHDA1eNWAOR8qJmci4ppUilOUy8qM/BhoW5KiT6mh59ewpJSlWtEHu2E6379Vyvzq+0/Kh060MNN09y4U5gx0+j5dFSXFg5Hp/400p0d5jtwVKDilo7iCB4GvPVGQHzAioAYnGKSSbwxohCo9LvK30uynvWkyarWkNJdH931VDu+r7nt2N+3WR4OKtsJFZLoo+IqzJeuBWRrLioktMoUzSLwpjoAaa9NXpw3HEvpJ17KSN761MWBncP31dWPYigMOpYjtpqPcFPy5ErNe27EcocyLHbissuI7UkPBwo8aPgA9ZkEAmrEZ4pP1ZePL6jMuO3/AG1R/wANR6cpiRVITAkqUSUllDjyFrAOiSk/T5/LqyqG7nFYsGBAAoppyLHpSmqZIynbiotPqDlTQ2iQ3KacdfDfqBDrbi2yAEeNHx3H26hGwxBq4jYjNLGZIsG6rdrKl5OsSjvtzWmYzE+roE6WhYXtxDYV/CntG/P94eOmFCnuwqCpApvWKTZVKhvRqdl6yHHJMhsyG5ZeU2sNkkKStIOvPvs9BChsBhipWMsOeKVMy4bXXTxRUXzZj0gQBENSRWUNQFE/UT50sJG/sCd+46lQh7sKGjx2Oabak2tS4ri5bOQ8XiQ0VI9GVdbaUqQ8PrUkqTokePp999LPjeQKptNL2k1e2aFSIsOZedlSXzVQ/wB0K5GppaQkNj6gAAB9HVT8qkA5BxSNl0+G3U41wKuzHE2KqpPS4sX+2sB2WoJI+l+OFFSAoKOu/wB9HrJo2BwOacLgU6uL7hs2iyqqbgvS1IzUqmlqChNzxFID63kL+ohXhCQD56XkEhG0Kaoz54Fem7+zc1ek17g3c1Ut+bHqlDl5ikPUupw5ImQKk2KLSEOPMPA9q0+sl9JUP7zah7g9Zxg7Sp4OR/jVK2Fen1BCgNRXOrUVzoornVWbaM0UDn7+Uk6Oj8u5o/kfTV56lDuGRWUn+B/lXjH8nK7VY+bMvGJPmU9ErJ9elSWoM1+Ky8fxeaBtCVhOwklIJB9+oe339hWcDBCajBVb8u8svIk3dcSmFodU8HKvILb6Qg94cIWO7SBsJV4OtE9Z+6nsaY6o+dWFyMVXvhbGuGLfv2PFgVS5rSTlGkxIdTjzUGj3OW59JVICEhTbq2Cla2ztSe8bPXVtI+nDtrl3ZDXIIPpXS5GpEqzp04vNR4cetU6jPehsMqVKhuTC6sn+8NFIHtoJPTJOBmtohyBTcUyfHjxJ8NEP5xVQcjutKcaDbkYNLUs9p8+VhWj7e3SL/Eaj1P40fykIZda9anuhTh9JSAPTacQrwdkb8fmeq0UhriqDLlHQ1MlgzKYHPlirRUptLoS02pQHsgEjx776KKZHPFUmwsfY1kQ562nk3RXZDciG6qM6kuGOVI2n7ePfqGVSvm7VtbtslzTA29mTLFsNyWrbyTfVupnuIcqJo91TIPzzjRUpJc7V6UATsD7a6w2W3yFdHqkdzQadc8q5XaxWrsqFw3LeNVfbfFx1CruSn3QlvscMpTncXFKISU6KdAHYV79GxE4QVk7l+9BaZMcZdBWUDTiVr7fp8hJSfP8AX/Loqtbs/wCy/fFWxng3+0/C/Pt2x7StXINxN3BiG565OTEtumVhwATKdKeWQGfmtoWl0nsJbSn365giC3bSfP8Awq45Tit/xiWiSyh6P/tLDzaXmH2lBxqSlQBSttwbQUqBBB3rX8+unsV18xrEkhqhvzd514N4G4SufMmbbkptDMKA81ZtpOy0IuO+6mllao8GDG36jiS76aVvJSUNpUpR9gDoEXjBqhYnk144nOHMty8ks1XNle5XpVQvTJ2QKxdtXOy66/Iqb7TjbYQCdH6kpSB+YHRIQBk9hn88VeNMN9/z/PFWsfD1/Z++Y17cvMX2lzq4Y8o8XcWpsK7ZmU7/AGqV/Yli3U0uybmqtIccq5S+3Hbcq0CksFam1JdD/pJIU6jfmG1WHWF/VunyXMEsmAH90mXH9rvPB0uQCvn+eAQ2K9Zc+Hr7QLZ9Y1I2csMQJZRqFo5I+EnbBcGUhSQ3kHABZvIGI1yHE/vEpG9qQhXn81JSo/5k9ejA9K8t3NWYfDg4QYW5kXDkiJlvlXZWDJNgwabNtLEbtRtuiZl5GvzVTPWpFmzrorVDtaO8x8q2HnqrVW1IEtssxZa/3Krto/inU4Xfw3AsgUHftV7i5GQdht9OhIuL85BDxxPHjgFwWGKtrHhfSFabxHI48rMi8wwPtHKT3xinjstxKBHeCbcSfIFVmD7fGu4aYk4GchqJxvwvx15C4+sqx4dQapPJrPF8uXg3zNjPppUxm57cbjUmDRY1MgmU9CbbpSpPeHUGS6h9JbCNnavYySWd5eyy34OJ45IY7dIJACjJDGC83Tco75nkkcsSoIC89G7uI9Qit9Rs4IUspEBheGV5zKvcPJIZChkKMmVjiiRSSQCrqFZj4S2KMGZg5CZetzkVS3ZuLaLwaz3f1Zq9PtSPfNy2Q9b2Kbkq0O5KHR35cRiZVaS7GTPgsPSY6FyYrIL7P+9RvJpy6m0dq03R86ESEzBEIYEPIICJHiU4MkYz1FyhVt2042d9Hp9wJ5o+ohBVk+y3OrAhljMqOqSFc9OTaTG2JBgrmm9zzYXw3aBjKZVONnJXmBkvKqKpT2qfamYOJdr4msiXCcWoVB92tQb1qr6HWkALabEVYcUAkqAJcT17vw5PpsYuv94bG8GcdKC3v4pDnPmVp4liKqR5lJDHcCoJBBautW8M3cYt9J0e8t5cg757y2mQAZyOnFbxuWbjaQwAAOc8CoAgfvVeCCnuUB7aIBI/5dcztxXMbGSMYrfkqvweKhROaNA+H7b3wXbAvD4cb9ZoOK6/8RORV7ja5bTxULTh/ieUo16ivCnRn4tVlPVD8HTQl0ncNcP5TStp8qx8MR3As501M64FMZnBvls+uWLKwthA1mLdEIjw0rOSpLXIclR6eK41y40ttStbnTDpTAMkTfqxpulldytIJBftM+H2sjx+VlZYWxufQZUokg61sDYHgbHjf+XXqj3zXmO45/P5/j3q/wB+ENfvwY7SxllWH8TG07br14y8w264pN72XkK8qlWcefgVaMyHj561p0VFNr7N0NWzLqEqsuNMvUITY8b5h51TIG8K/r8pdPfrBFG2JM3L2zxoVbEiJHBObpmfZEY+lJ01LTZh29Sth4iutDtrpLeyMzuilQtvaztI4kRemz3UsQt1WNnmEkTBnZDE4YMi1GD4tt1cM7ry9iKdxNb47PXE1hNhjkpWuHeOrxxLxTrV5Cv1swl2db9zurqcYNW//ZyPPcQlqNInMSHkNhbj3WUHhqbwtCmm3Eql8bmjW+bUViJJBAvHG6XfjqbS8nSDiLeShArPrkevzG7tw7QrhUlks4rCSUYyWe1hVUj2sWQEorPgtjZsJ7fCir3CqgZMyzM5XjAjN7DFUdzjBVeX9mXpkPiDSrsbuClLq6r4olquoq0suUAVtmnJWl2Cic82t9slLO5uPDV34ohawtJ1WTBxE942nrN8wb1VLQ9MfagCSEzFBD1AXCm0WvW/h9xd3SuIjkNLFaR38kOVYArZyhkm3NhM7ZGiyJAmAzI+HxhMtfCvzG1b918CrIx7YV4N8hchUKLSMMY1ufFNtP4opqKLBsafd9Mqq/kFXBPqLNyz4r9CbZKqJNpyaqxHqKVsIxtfDC+HQ6xXW6MsVCG5lus7OGm6k8k8ibzlCnWMb7BNDFDG4UzN4ivdbCR3tqEdVyXENtABud2WJVtVRZdiFS0skaurHoiSdU6lR4+EvaWFL2z7lChZZ481vlPeSuL17VbjLg+Hja+cs2zfOS6c1An0in3DRrRksVz5KZTY9wwGp0dfo0+o1CmS5XZGjvOozv5dAgSO48S3fRtFZS6i6Fm8wzgxJcGCcrIATMiBQZjF0d+HKM3pj6mkkjaRbrJOEfDPAtxHCceWWSKSWKMoXIhLOSE6vUC71Vllz8R1/hlevAvGt74d4WROK+drK5gV3Ds61McYsyBTGcEWPTqdXY8Cx853zX3TCr2SqlMpCK5HRAR60elx5vzCY3c3HGNlp2gWk5vtG1MzpcKskfUvfepbqI+Rrt4FVoLHEySBbe3lWMxzRsI3UJLVby81+XOn6zpvRaHbvPuyW6wSOgZbWF9sdxexmHpzPdXKO4lJRZAS6VQTT6dUKtLiU6lxJdRqM+Y3Ag0+DHXMmzXnlpbZZZaQCta3FrShKEglSlAAEkDrpO6RoZJDhQCSTwABySSeOBzzSKozkKgyxOAByT/37CpKv8JOYsTG1/ZkmcWeRkPEuK7iqFo5MyZLwrckaxMfVSkzFU6q06tVRcMMQpEKUkxpLUhSFR3iG3Q2s9vXHj8S+HZbiO1jvoi7hNoDg56gVowCMrukVg6KSC68qDXWbQNYSJpZLdlwHODgPiMkSMEzvZUKuHZVKqUfJ8jYjOynsdSl1XYlSkpWSCVIHcNnWvtr/Lrt4XGCf+/31yUJyOM9vl8v8fT/ACrZh41Y++B7T8e8ELWuewqVyF5E5wxg3V8k3PnHm9K4w8abAu16vVOLe1GyyIccVS14FvUumQ5Ns1KkmUquO1p4yoy0tRg9h/u7qEk8t5cXl3JvTfDFZHT0DklkaPfcK8sDWygT3PXU+8gAWpVHrC48QyLC0Om21tAYxiSe5gvbmZCm1spDG6W92lyjNHCsZR7V8CYu2StCnKajYNt3kXnmg8ZLrrl78dKNmK4qXgu8LjbeZrt0WkxVZTdvz5iXY8d31noaWFqLsdhwlW1MtKJQNzbTWf8AVLiQO6ZUsCpDY9QV8p+rJ5GPKeXFam4ivCbqGIxq3IQ7vKDyAAxLAfIMSwHDksDU7/hmcbuF+Zsc8wsn8tJ2T7nlce7Ttu77dwxhrPdiYDyZctqSl3AvIV5Ud66GHY9bl2tEplJcYtyH2yai/XGG0kgEdaR6HqOrK89tNPFbwjMjW9sl26MT9nJNE0sbrZKQyXU0SM0XUiYyQLliNrdlpELpJBBLcyjbEtzNPBGxJCssbwxsGuSWVoUldUZEmwkrhQFH8SfhLw+4r8cOEOSOLfJmi8pKhyIq2Wqvdt+WzcbYprFv0KuWuiwmKjabsVmpW3XU02sym6vTZpeQJkdQYecbbKjQ6Fr2jyG51Zy8UwHSdB/V3VQAZIH27mDE/aRSOz28gMT7WBDXk1vQtVc2+ixGLpfGkrf1lGfnpTqrmM9MgrFNGkaXCDrKu1gBTZs++zv899VqlODi65LVs/I2PLtvuxIOU7Hte96Tcd54xqtdm2xS8k0mDUWJVRoEmpxCJcRqoR2noi5MUh5pMkrbIUkdXVbdwI7sOYicN02CSbTwQjlXCMRna5RwrYJUgYMSG4ETNaFRKAdpdd6Bu6lkyu9QcblDqWGRuGeNmnO3JP4DFwfDs5O3Dxj4R4DsDOeTI1i2dj/EGRb8yVVuT+Erhcj3gxcNz0245MuVS6hSKU+9RpsL8HlQ0VVCyzXqW38rARIcXwhodnaJqUd5cXIjLhZDqEcchZwOmJbA2oICbW6wSW9hkjaNobm0uN6KgfEmvXEws7hIoZWwCgsA8QjQIZGS8SZcvJu2xmWC1lhkR8Q3ULB61YUq/jPt9CtaPkfSdbP89f4dK5bGfnz3/iD+H+Ga6JI9SOP4n/p93+dbXPOTA3wscycoZttWdwl5/wDF2zs2XRAp/A/O/C7jfWrxwry+or1OozgmxMV3emlT3pyC8+181as9uPKQWJBpylOl6RwrKw8Mx3Q0XQ/FsNvNAcXK3bHU7dEUvukhuraU3ke6QhCki38asjLHOg8i90zeIIpzqHirw601oxwrQFNMuVdlAjgmimhkswSEkkBcWcrJIGdNqZbU/cUSlB2Tvez+f28ddojGDn8/n61wfQDHFbFnwlOLnwveQGGKXWuSuRePVMzZYOYr0ubI1g8nOYdR4kUq9rehY+e/0XW1RJDcQxpNIrt1S5X9oqrElmsUlqg08MRFMS3VLWn0PX75hc6Ql1OpVtyWklirosY3kbbrEomnO2OGdRLbR+ZJkR3WWPL9fW9lJ7hIkMTbWImnt72dS8m2OMn3Ushjtjume3ZYpJyQRLIsYgkrv+KdY/DjHnKyr25wjr9tVbGaMeWrPvmlY5v+pZcw1ZF9yKQ25eNBsa7qghE+t0CFOPZDqcsFx7vd+pSUJPW4srmyQJcu53edUlkhlngV/MsNxLbBbaWaMHa8kChDwp+0D0W9+NRiE+wBwArukUsEczqMPNFBN9tDHI2WWKXzKclcRlBSs+Hjlfg9iTFPNyv8vsJY/wCRFyzMWWTSsE4lvCp1yz7iuea9kq3m7uVbN1U1tTtCqsa3F1aWxUHCWgqGhDseayt+DIDoFprINzfTyxRwBmDwXCwyq7gxo6xSExXQjd1kaCSKVWVST0xmVN01q40qVYLWON2mO0iW3M8ZUed1ZlAaAugZFmWWJlYjazPtQsxyyp3w710m17k4Q3ly2bqVXnutXtiPk/ZtpyXbEaTDZcS5Tb0oc1LdXQuUXmk+tSoCw0lK1JKjo6HSriyVro6tBdQs7iONbaa3uI4wRsM4LzW7lwSCYZRhlJ6aIwrQ6la31ukbaU9rdAs0jC6W4tm3HyrCrQQzptHfqtIcYG9iCTIn4MmOeKGZeUt2Ye5dYkzZmCysjYkTT7PonH3DFwZ1ydSKvSb4si5apIhUaiPIqbIl2zRLxoyqnFQ+qD+Ph8x3EoVpO4g0edQNY1iHTVB8k07zIm8grtXowz75Nhd0jkiaIsgL4IUiEvdVsIZZ9K0x77hRJGiW7FYzInnL3DxLEgfYryJIku1jGjecgzP+Lc9w2uzjFT7twxx7xdZOY8fc7r3we1e3FniLkPi/iSxsb0luuMW1auU1XGlDcrIFW/DYtdjxWUrnQ6ZGmpnrS6pKOufpNhodpi4027QdZFkijTUpdSE0Hwe8lpnl6LCVXVRE6pPHIs3RjXpgdDUn1wXFxb6nbS4WQs0k1na2TQyTAutpFHbJH1Y1h2SGSVG6bMI45XPUNUbcYKbg+s8jcEUjkzcFftTjpVMwW3Ts7XPayHXbity0H6xEauKdCS0w+8XmIS5LifRYfd+jaGXVhKFdpYJLk+7xSiNm4DnHlJ4zkgqCPQsCoPLAgGuT7ytmfe2g6wTzGPn7QDnp8Mhw+NvDoeeGU81s08oeE3wgcT8Ks3Vk3NxOVnSZja88tY0uDi/zzunkxmq076mX3PlY/wAbQbEepsdlyxI9nGlLn3ZcDEep+tJeLgadQ2p3l22n6lsF5eS3EEQIKzT3eky2chV2gazC2byy3N9KwWRJrWXoLy0kccfUhi0ivbyZjYtbq7rHiWCPTNTguIpsq73Us10qRWttCrG3e2mBO5VVGlkKTSalAS3812BavS9fsC1jR7e7QJH8vPXSBI5H5/dVOfTvW1bxP+Elwzyhxi455LpOO8581p+UsWQ705F5Zwp8QzAvFa2+LNfmVOpx6hZTtk3ck1VdRoUJuBJfl1J1EScuS04wpthwoR07LwTreqtFcXDaqrSv9iNO0dtQtWjIQIJrrIHV37xPGj24t0O1mJQy1yr72g6Bok66V09NDMvnk1HUJrSZXLFGKQRBvsFAVo32zPLuLbPMkY1u+TFgY7xRyJzpjHEWTIWZ8WY7y/cdk45y1TEsop2S6HSqtKhUuuxyytbJbmx2WpCVsLW0oOhTalIKSeb0bqA9C8ZWlXhmQjYWHBKkFhgnkYZx8nYeY9UT211/WbNXWJ/MocEOA3IDAqpDDODlEOe6IcqLSfhISOH9u2zyVvfkrbXHFjIVPq9jWrgXJ/OLB+Ss4cMbV/ERdj91UWuxLQdSuPcdSi0+BKozlTbdjqZt6shJacAX0hf+H08S/wDsi2uI/e2BMdtJqT6WJApUyTm4jUSMsI+zMQngBa5RiJdoUP2+rSaNbT30scqQbcPcw2EOotCTgLGLe43oDKeRKIJ3HTKjpqXah/xhKFxOkUXiBlTjPjXHNGuXI1rXrDzZmPijhjIOEeAmW6tQ7kiw6THxnT7v1PeqNHp0iO3cL0Efh4lVOChn96mT1npml2mhvJoguka7gCLPbpfNqSwMw6iE3rku7SxSIxhZnMKqpLEyMAXd/d6tFFfzQP7o6jo3EtrFYS3KqqrIxtIAkarHKHjEnTjeVxKCgCJW8/8AsjdcdrPwrKY285Ieco2VqrQwXVhTTTbTMd1oIT/dAS6AfzI31qR9ox+opCtpDp2iudFFc6KK4f566q6Bxg1BIAyaK6o6punzVgjaITzgKvsQys9SiiPtWRO+vF55SL3mrLBT5IyPXU+xAANWmE/8+tHnkA8oqI41yaiZVBtqSjSnP9meWE9wQQQ0vs8nwApX0lXkJ7fO+tonZ+GWtNgz3q5C7avXb0tvF1Trd0Wbez0vFVAFKuWz20N00QINKgRo9PdaVtbUuEWno0lonw40ojwoAMq20YpC5QCbP0rvbTVtxrbuGhXHMcjW9d7EeAmuz4hdpVtVun+oaYuQpIJTGnMKehF9X0ofSwlSkBe+rb88YqqyFccVHStW/LtmSy3NYdHqJWtZSO8FSD/ccRtKgfzGwfsekXk8x4rfZuGc0QVi8WobaHY6XQPke171XUlLKlAgpUT7H8j9t9V3k8AVIjGeTSUgUWq1ykS63IacZjv9zcZiY38s7IbCu4uDewFdw0En+JPnrWMM3xCiRVXG2mg5HRDExhjXtC+1V214OKcaDSm9Fjwn8x+vV7iJRETWcTNv7VDhDqykJPbpCt7A0r3Hv519z1zGjbGFp8E+tGjLgKUBf1A72PIB14Ht+XUxBhkNU0aoUO1Ke9f6a0dD3GutqMrnBNKmjVuXTnGXmVuMutKStDwWELT2K70fz7VfUPyPnrIoS5OKsZFAIFWXYr+Lz8QTD1ssWrYHLPNtuW+wwIUWlRrzdmR47aQEpDRe71J7QAAN6A10zG/TXApc+Y/Sor5w5YZv5BV125svZQvTIdefQWXqpelxSa3PQCSQgKWspSCSfpbCRs+3UdQ4xihIFQ5FRDvZ+NKct9MtXbHVOeM59khTyWymOHVJ+knYQFEbBOx7HoyzEYwD8+ePrxzx3rbPGK2zWvhl4vjc5c4ZmyLw4xbj/wCCEvi5c1HszmLR84VGs2VS7ViWgtywsu27cSqwpydf9YqcSgMOUJNOlBcmtzGF0l15Ls49z/eLxnPqj+CP1jrvv6hpRLJdXrRiVlE8t3JcRp7rLYSxPJMsXV93WOROSkXQDM2sWFvYJ4qMumyWk32KwLHbhyACRZpbMReR3cfSKSzOBcsySHqfaqx02FhJcAB1sJ7vHb2kgdw19tHfj9OuDnzZJpbvWwf8GrineeXcGcwM8YJ4I4n+ILyaxFkbF+OMbYkz9NbqmHLJod3Qr+qFz3ZPt12p01mry2F2tQ6fHZky0tMisuvFl30ynrlasNKWBpdehvJoBwqWZulYSEja8ps1a4aMKGUqjRruYMz/AA7WYLydN1pZXtpazyA/aXRtAdgBBWH34+7rJuZHLPHKxWMqijJNGvxxONVy4UxB8Oi/soYDoHDzPOYrCyjJzRxHxVcs1/jzjOfQb+bg0qt2lbkir1VqhuV+lS6bInxadM+Sedp8d5thlxT/AHdG1vLq70+2SKa8Onxp04Ib57qSWHGessbXe2YRPIS8UbpmNGBEsqsjBINpb3k0sL2ct++zrz2gs8TsEVI2k9xVYGkVE2s4A7GPamwoK4Phft8V3eXdot8vDjP/AEaOWNeTVsDOkm4oXH43wu1KsjH4v96gEVhFu/j6qV8+qCe4Na9T9z6oLtlYSancLYpcNEr+V9lwLRpEY4eL3kgrCJEJVpGwFUnn0NzqY0nF6Yt+COeiLnZk4MnQJAm2Dnp929MEBls8511f4SELgnfGGeM1M4/XDknjhknFmIMI8hrEp9fo/JHldW02/V6lne/bojTV9qLOfmSqJBoDLoUWZNPl/Lq9BxpKVR4TbS5jqT3JacBRMwuhLA8z7i0FvAJG+zt02FrhIIkZvKLiYk79G8TS6kwtEt9ts37FTarFLHCgws004iRjLOSytC88rqNrNbwkEjW90S4rY3/ETvyfY7P9Pf8Ap1OBnBqlehXbnw/834+wrT7vy78Az4f2dc8X7Zvz2POPfGS2p9pWvi51SorUKpZHybXL+fgvSNJlu/2dtmBUVPoS2qRWYBcSkrS6rpVtOLzUH8RWsGAUjXUNcurmUhm3bhBGsFhFjaEM8kt0rEg2SqrNXcPia7ureG00PU9FnuAQskssehW8CkqpGxJAtzeSA+V+mttbZZnjuJwojPnpKHnQ/wA/HTGMHFcPtWx38ErMnNPCGHOYt2Y75AceOLPEOrUum2LfGc+U1TNDtqzMn1lhw2PMsFMah1ep1S54sODVJMqjxYb0B+iNzvn1RFKgTGcV0XTfEF+NPfQra+u1jd0kuUsVitxwP6zNewyx+7SuBGIijOZWVoSjkua3UslhZ+9S6pc2lvI4icW3vjyyIcMwijtJ7dg6kIesZF2DBKyxq8ZhV8Xasc567mTEdX5q8gMccqotcwdCuTjjyFwv+CS8Q5NsaoVeqviRRZVPpdNc741YFbhS4tUhsT4suG8042GwyVUis7bTbq409NHg06ZHxJFBb28COSoKTIbYdGeOWMq8U8bMroRyHDqJSK1EK3en6hPeW83nV557iWQf2Cjrcu8kEibAksBPkdTywwxeH4EGTOWOGuUN+ZQ493NhKyMS2ThefXuYN4cnLjRZHH+h2AJcaK0uqVtEGdPiVddak0dFBNFiS6g5VlRk/Jy4nzrC7SaZpes3ltpeoaQuoGR/IjJbExlVO6fq3UckMEUSbnnklVojGpV1ckLUTPcWlrLqcGpPZGEZ6iGck7sp0xFbyRSTtIGKJEsiMxP2ckcm1wa/FxvT4hd94r48XZyK5r4V59cVrhuu5/8AQfnHjxBpDVj0i6qaxTodz29XI6KBSKzTa0zBXRJnyVWj+k/EqLMiI6+C+pFTpkOi6g+nz6DZafdFEffZQWawzod3miuLNFjnRJN6OMK0cilXjXCUQRabJAb/AEfVLy7hJCEXk140sZQZAeC6mm6RO5mRldupGwfID4pE/AwuzMFs8pcuU7G1p49uHHl88SbytLlXcGUs53LxjsjFmMm51v1mqXRNyFQCqrUJMWrUm2GQ/Ejy1S/njB+WX853J6thfXVneRHTYblrxjthazlS3nhkALi5W4mBt4BAFMjyXA6PTVlPnZAUdWsba+0yYXz24tkVmkS6gN1BMmNvQa2UiWZ5WYJEsDLKJum4dVVyJs/FRzfybuv4XOGLKyNfvFPnJi+u8t6TVKt8THjPXa07fd9XTY+Pq5bFIsfMkOp0eBOk3QzQKwy7CrtRT81UKRQo/e5Mcafk9TqKyWt20Gs2At9RmPVL21xHc2EyqFVzEYiyQTqzIZY1ECP1MrD9mXLEAs5lMuh37Taeh2rFcWz213EzebO13Ja2fD9IfaGORZBvjV0jrXDxLX7stXJePrnsKmuVm97dvqj160KQ1T36s7VapCqUWVTYyIjJDzynZLUdoNNELWXAlJBIIT3xxqZJhlF5IPbHrk+g+Z+RNbmJ5x0IyQzcDGOCeB3BB7+oI45Brea5HZ55NVebnGs0qn/DnqHP7DHDXM9rZR4Pccub2Ups+xZWQ6lMvPLlck45kMqsy67poMe5siSqjQIlbnKRMcW/qouUGBEY7V7NqNnoMV5Z2OoReH7gh5rOTULWcEymQRXN7ZJBHdQW7s8O2QnKo9uCLeNi1efj0/Sr7XQ9xeWcmtQFliuV0yaEhERt0FrfPcOkku0kleiuXFxncwcHQwJUHEEgKISgNpKN9w7UhGx99pCft537dchgQCRwvpyOfvwcev8A1r0QJP5/z/Poa2veG8Hl/kDgJxotfHPAn4TFPyrcF51C3uOGUuXFl8ebXynzjtppxikR6HSbUumOzVqzW6bWj8tGuNh9mPUkS1MSEvy2W5MiLOLTZFl1rT/CE2pwoXinkj9/NvEYk6ks5lh1S2dpUBKzRQQXCr5QghMTo1dQ0/VHj6V34zGlsAssUOUNwUkVliXadOu40hlMZMJnlt33kkGaGZGi1meQdQvaq5uzBUMlY9omJciScnVtV+YstzH7OJqHjispqMhup0KNa7TbbdKRBkJejCnpQj5b0S32jXVRd2N+g1DSoUjtZfNGsZdo1RvMqxtK8khQAgLvdmx3Y96hLa8s0FrqMzzToNrySdPe7LgF26Som5u7FEVCewAq0X4KFu0LJWXM34eqnw0qH8Rar3jhap3HZIlRam7UuP1fosOemg1+ouN3DRKf/ZmbUanAgVpudPhvdq4L0OYl6MYNQ5Wqp4beBf14LtpsjpJaSXSvIP7aGO0SSVi3kCTbHWEnmNhISvTsJ9Vt981g9rHCo3TSXYthGiKrciS6KxqRyxTcDIqMOCAytD8Uum5BsLKFmYdy78NbDXw3sj2VbkqvzbXxLEutLeWaXW3o4p1YcnVavVaJUIUdyl1CPFm0l70S47UGnHHFMhDLNkfCEqNN4TivYuSsyXlzNPIrLgqvTnhgkgO1gWVl84Mb4AxlaafXpVT9c3FnOjKrxSWcUEcbK4znqW80yTA4BRg3lGR68VY9N0vTycfVZeRnTCjvH1ityM9t5btteD41rw2ajc8q8BWoRtlunR3UqbdlKqPyQabcSpKl9oKVAkdZzyQQwPNdxLJCoJZGhFwrqASUaBkdZlYeUxMjiQEoVYHadI4GuXFsjlGfChhJ0iCeAwlDIYyCciQMuzG7cMAjbl+IPnb4seX8Z8sKLZHPvhDkSRi/juug88eCXE2fT70u+x6LT6FDtfJVxU9U+zIqFw2nfmpddYoNWmijvzZa2ZHoAFit34X03QY7fUI/BthbQHYNyw6Vc3lnK52kzCCM3lsBKyrE7PcSWzFFlmTpqwWhvLXV7yQz+KL+6vlMhy0mpWtpcJGdiiEvP7tcl4QZGUwW0dygkKQksFfTE7SO4BW9JWkqHnY0dkf4/r7dNBR+Hr/h8u/r9M+ua3LEdv8AIfXntj8OeBXoF25yT5+M8urAyLfs7gPefLOtYss3PWXPgx5Uz/e945juzJdsUOoVSk3xj+PVqLLpONchv2/Ip0dm06PUSDDbLcll5chDDPRS4u9S0hNTn0iaTQUUSQxC8gN5aRjEhksLNSLsWHmluGtp+tO0UlwpjOVlTj2ltY6bqFza2WsJDrU7dKSVbCRbG6QxxgRX9wHWCa7DosSzosUaXUcTJKqmQP59jgAQ0Ae7wTv2/wC//wBfrl+n5/d/jXXPy/P5/PBzWxr8JyVnF7hdyKaonEH4cVw2JHytR6Tizm58QCg4as+yccXw8mLVazYjlYvaIpVxt1KgU6S4ml010SqO+/ElKeZjynUO6WZ0m6umgg8MzavqMCmTp25uPPFKyRAXOy/sUjSN8yQOknUL9SNorgSAwHu2qSkW6+KF0i3mwAzcvuRgWeALZ3rHcGCziWLplFDxyRSRMJau/iRR+RFI5SXfaPKTAWGON2YrJotJtmu45wHiW2MQY0cioifOU2rQIdvj8KmoqMea3KRVIi3W5bK2VIcKEJCYmn0ue4lGmactgY2McluGuiYpUwrBxdzzzK5wGYb9hyHQEPubK3tNQtLWMX+pPqCuN8dy3QIliclkZWt4YEZOSFJj6gwUc7kKrNP4DmTeWmHOTWR8ncfLownY2ILIwzOrnMS8eTlxosjj7QrE+bYixV1OtpgTp8SsqrcujigfgsSXUHKr8un5OXE+eYWo2n6XrF5a6RqOkLqBkk8kZjtiYyqsTOZbuOWCCKFMvPJKhiMYKurkqptO9xaWkupQak9kYh+0Q3BLb/J0xFbyRSTPIrMiRrJGxY/ZyRybWox+LlefxCL6xlx4uvkbzWwvz54tXDctzrwTnPjzAo7VjU254DNNh3Rb9bYboNIrNNrTMJVDlqhVaP6bsWosPxXXgp9SKfqqHRb97GbQrLT7oojF7O3s0hnjO7zRXFoiRzokm+NhhWjkUq8a4TMwx6ZJAb7R9UvLuInpkXk940sZTnbJBdTTGEkOWRldupGwbIDYCJ+BhdmXba5R5mpuO7Ux5XsdXtxEvG1uU1y5Tzvc3GCy8UY2aqFu1qoXTKyDb5VV6L8rWaRazAchx5i5gnmD8sv5zvR1bC8vbS9i/VcVy1452wtaSpbzwuAX94WeYG3hWBVaSSS4HSCKwOWKg87VrK2vdOmF+9uLZFLSJdQG6hmTG3oG3UiWZ5WYLCsLLKJjG4ZVViJw/FQznyeuv4XuELHyNffFfnDi6u8tIFWqfxMeMtwVt+88g3TZGPaxa1LsnMsKp0iBNkXYxb9WjOw67UU/NVCj0SL3OTFtSJRL9GtL2SDV7AW+ozESlre5iubCZQoWQxdJmWGVXKGVEEEbmTKw5QsW4RZzl59EvXnsY22iO4tpLa6iZsPnDOd9s2H6XMux0k86Iyx1QrwqyFdGJeX/ABcyhZGLBnG9MechLOvS0MMJhPVGRlmqU24IEqBbcdlll95b9SfbaiNBph5fqyGyGnCO0826OlC2kOuoHstp6ykgBosfaAlldQCuQdyMvzVhkFuEagZVGkvsusjpt/dfPlPDIeDgnDKcdmU8jb75OZ15Y4nwT8Smq53wbbHJVscbr24qw8wRub+M+S/xD+AlEyPVKUip2PnI2u423WbbRc9GD1PclQlyLfLkmI3NCX3Gm+peR2sE0+ra7pN5arM0S2+oyada2UOoM8aG394trecrbzNCqrHOxj3MoVbZjOiplCt2+mw2mhata3ERZ55dOW6vZ3tMbRPJaz3dvvkSPckdxDG8gfYjvIogaWTRz7i5P70gIUuX3JDnkIJX4CvH2+/jpIEdx+f3VPr5q2z8U3t8LXEeHeAzHxEcUYJrvLmr8c6PfWEstW7xIvVrjhY1qvRJDdizORVDh1WlKyS8lyIqM9LtynukN0txmdJrAbU2rkp4Zttaiu5bO4itZ90ipbx386Q3LiJWU3kqQTNpck0zu6m1lLSMytdraw7WOtzrmpaZNHYOJLi2kWMm5mt7Zp7VZXaGSOxjaZVvY4IkQr72idLO62Ms5ZBrccxaleFX5XcjKrkDImKstXpUM1XJMuXJ2C5MSXhe/ZblUkKdq1pLjMMMfg8rYdhBpllCY62gGm9do63u8VofdYLNLSNPKsEWBHCo4EceGfyIPKuWZsAbiWzVXumvpGvWupbhpCXM04ZZpCx3F5VblZGJJdeysSBwBVw3wKLszjbFO5pJwDxW5Hc7LvrOPaJT61xHtyi0eu8IckUpce6GHJ+bYU2NIeqK6a+/GkUCj0v5SfMf/Ew3NabS826rqN54Zjs5NP8AFshe1lAYW8Np172SSN45FlguFimksI4BuEtzBGZjLJbRoU3bgzaaXq964udAUJdRHAnmujb20SOjo0ckXWt0u5JgdscEsvS6azs0cuAAgvjHZGr/ACbtLhvzTm25yuxLa+fLbvK2bF455y/BnsCYSp1nTrdiNQsGu09mD22ctursRWo0mkxH471FUhUuqeZSdre/sbhPcPD9ykmkwnbBHHaG2EJ/+dFJNEi2d5Msgw9xCTMyrGl2qTAA5XWmXmn3bT6/bGPV5/tJ3a5aeSQFn2SNDMzXVoHxJKIZWMWZWa2JiJNbtX7H/wCn/wCC4qPYTv8A031X1AdaCvk4Pt/TXSrE9Uj6j/GsK2sunqK50UVzoornRVH7UUVw9tJqi0pK1pp0ghGyEqIYc0Dr8+isx3ryWKJwym8sMpZuVRrrqNMuVrOcmz6BRKZRG6misvT6hOdXKfeWtKWG2FJSlxW9JCvOuqPKsXJHNWTvUqcn/s7eWLEtmk1tzOto3FWarIZhxbModqvVepy57n1CmtqZdW0VuFIbSpSkJJP1aHnpaTUAhzxWtMnC41ZL46WJjqwss2Wuz8m2iiuP3Bal8vMxagw3U6soQ1yAytaO70Ox5SQT2p7dnz11LSf3mASE81z7n9rUIBle84mRLiTGVFkUVbD1Jn28xHQ/RlIVpt9so7SlbSh7pJ0fp+46Z5pfBofVqpTKrCVGjz7soTDSO1mBTgit0qMhX/o2y9pxpA9g2lXagJSB1QorMWPetllIAyaSj9Es+HAj1dmoz69NcmiPNgV1aI/yiWiFBaorYSChR/8A5i1b/LoESk81JmPYU51w1GtWLSLbyLLfo8miV+AIdOtiRGb+US0j1ESHlslPataO1I0CO1K9gE9XKhPuoVi5x60WXLx9vnl3SMR21jemUKkVup1O4K5CiyqiuE3VmVqR2fJsr7u/t9PfaFJ32nXt1y9QuxDFkds107K3V5Rn61IbG37PxnbIluQ69Dz3gqgOyVutTKLVajUXJ1FWkoJbkrbjqbQ4hKk/SVnej+XXPg1AMcCmLiLpAA1UPyRwLcvGfNF8YSuyqUev16xJ6KdMrNtPKl27U1LaQ+l2E8dFxspcR9RG9nXXREiyHK0qvm5WptfDF4yYE5D3Rnuq8j3ciqsHDWIIl8s03GlSZo9xVWZULiptBa7nlMvK9Nj5/wBXsQ2Sop1o+3VqTuJjGKu85AfB6+HvhZum02rSs7NVC+aLV4uPLgTlyG/Fl1aBbdQriHZNOk0mO4qKyIaUvhKgf3o7dgjrpRQBrcPXPW6LnBrUTZ9P1koeQ6h3fcVKPYpPgkgpST537aJ9/brnT+RiBXUh8y5NbT2Tvh/cNsF8E8LZQyFia/a5nO+8UTLzNxU3KYkYpgQlUtUlmpvU+Mn5lclDiwx8mt8IDzalLUEgoVUZ9aYrU4ul+K7LppfS4mKmY4p1MVSQ76Pc2D6e/p7+xKgk+xOupHJxQCAcn+Nbe9Ny/wDs/GPr/v8AtWJbXEjLeGeRz17ZEu6fFxlfUSocVsQWlitNv4zsCxE1xCJzeWLnuBiBWaxXIctvcpqoJccKXIjiWz4PvjZQaHe6tI0MZd7fbq0kkMaYMsuoSqTbp15nGItOktbqWONjbrAowZMbrxO5mTULS2PKjrKdPhieWbY0UdkpXr/YQqxd7xZraOSYLcCTJZRpjq7Q4ntOgAnuPvo6Hd/nvpUHJyTW2T39auf+FXC+GlcdmcgLU57XzjzGU+fkXFl0Qb1v20Lzuu5pGNbarNYuDJ9t46NBCmod2XA7AtCjNTKmghul1KsfLqCytKnLTTNV1Fll0rUDbPEQxBvns0VWBR7goIpFvXt42dYrU+ctKJolcwkC6axBpYdJ7curLldttHcF5EKtHCWeRDbLIw3NOAybUaKXasgIzfFvzVwWz9ReH+T+KuG8H4LyzdOPLyrvIHF/HGgOWzjPH1KkXvPGLLfqbQS1FkXVAtplCa7OjR20yZMhlZUsdiWsRosWjQotrcytbybmjimu3u5FVW2dVi89y1u9wE3tbmclWUydGLqDetb6nd6gvSvVBmQnfIsIgUuzGVokCwwCSODPTjlEXmTavVk2ZDZfBoZxkeZwqGRazxtt6q0Pjzlat4XrnLesW/SMBUfJLFgVwY7lV41xX4S4hmurprjbc1DqPUQlSW1LQjWcejT664soNNfUCPObVA5M6x+domCPGxjcLtkHURShIdlTcact72WxmWWC791c+UT7SxhLDHVXEcpDJ8SlY3YEDYrOVBt4+Mu9ZFB4nWkvj1e3wkpE/L1i4mvL4htzcV86WJd3IXN2X4FKXT6qxQbUpT64dHtemTYjVQlIt2NDjzJtSemOBQdfQmE8JX+iFr288G3VosnmSeYL7tYo5yLG1T3h3jYuW67nrmUCOJJligUFm71K8v0kafxGLlQ5VouncLLdSKMe9zytaxLLGEXFujNH0y8jvEZpht1LtAuLBGv4iBv7gHX+euowQcUjxnAre+tfhZxoszlFfuELE+FhQ8hfD4ypZ2Il0T4j+RbEqd0YboWA6Zie8qtlDNrGXZs1qmUK95kuuW5Oaap8ViGf7Nqacp6ZyGVv8+UWU+rQ+G9R1PUJddiYbUXULlG60zq3vcao7wtp4IQAPJLajJRZI1zBG82vXPuX+8cYsk01Yy5Hu8LHpITF7s6GMXXvRYsrbeneB1R2V1VpG0QXCSpJUnR7BsAa348H+o0f69Pkk8mkT3rYB+F1HtXMHEbPvF3kQxxoufjNcmfbVy9SaXevxGLB4B8jscX1QqHUqWm5LXeuNiVGrFMk0SszqTMiTobrAcfSuO8w+0tfXUs9E1HXUWC10rU5YUfc1xp0FvdbSUbbBLDdXFurbjtkUxyxuoV8mQFVV/TY7dJZ7qS+sVcJtFvfC/RHYkkSJNY20zJjBVw+8fAAigkvHX4ulRiU+8uMmJbEo3GmzsDYK43tY3whYfHbmBb/ADen0OE7dNw1+4Khe18UkIjPXBWK7WazVXYzEaHFYjzorceKhCFLWpcaZqGjKun6hp17a7S5V79Io57hC7ES9OCSWKNf7HTV22MrLuYBSKalFAt/JPDf21yJDuC2kdwkMC/CsIN1DFK5ULkyNvZy29my2KNvhF1Rio1TlVhi/aZxruzj5n3j9GsDOFhcgOZducGq9WGol00i4LYqtjXrVwthFcotbpECpiI/GmQ5EeO83KirQ4gp0ttM1DVwbDT9NvrncULvYJFLNbqHBMhiuJIopFYZQoXUszDDp5szpkcDX6Tz39tbCPJK3cdy8M4ICmPNrDLLG3myJF27QCwyy8O38U+BaGIuMPHLjPx5p/Gi1+N1pZkvTKUunWD8Q+xufnIfIt73DS6HT5dzXfMt1qNDo8BqjUOj0qDBgQmWCqC+4+7JkOpWL3mi6loQeC70vUoYXfclxqMFtbb/ACKGiihtri4RQjZZi8sjsGUgp5lNtTS3eSG7jvrF2KBTb2K3zJEVwWd5722gaUuT5SNuBlRGFUbY7/CCuF2n5zzbZNapPHC58TZn4qXNiPPdj8leU1C4aUa97VqFatiY1Gte/qt3RYNxQ61Trcq8RHoSi4zRpgVHU0HVIxttP1DV1k07TdNu7xnXze4qj3Nuu4f1lElljicRsFBjlJjkDmNgN29K6bDDLfwy3F/b2qRsGb3pJ5IZlzteBxbxSTKXRmZJIjG8TqJA+VEby6+JpTrQwbwWx3xj43NcZqDx2l8qf9NGQmbf+JXjbn9yiydextOp0ah1aqM2xEgt0eg0ilGtQEJjxSy5JqjCpDxdcYBbvvD9/oMcgn0nVY4pHBF1qVvbWg4XAt4YLW6uUHPUlkkkkkkkO1QYkjCybaokEvu93FfWGQrK1tYi/fDFsmaW4vrWFnwojjjjRkVCZG2SFmdKIsWVG4qPkWxKraVVotAuqnXtSJ9tVy5JkOm2/R6ixUYzsGXOky/9lajMvoZceckfuktoWXCEBXXPhZlcNHEZTnhBnLH0UYKkljgYDA88EHkcpwjIVd9gP9rBO0erYAYnA5wFYk9lPY7fWUYuJbXv/lPznxjY3w7rV515mxnkpy4r1b+OZi7K3H2x7iv23KhS8g3jYeN0MIrsuqVyPVbsTAolWqsyFDk3GntakJZjtM9P/dHxFZMmrf7va/1A7u9vNaWCW8SnqcyXcV2Z5Y4BsYqLaFyFbL5UE+hu4bRtObT/ANdaQCipm4ij1Y3E3T3FkWCSy93iaTCL1VZmc+ih3LaaySv12HEJSpSS16fka8BASDrxvwN/qD7dcry5Bx+fwHrz+H1rgAgd/wB4/wAOe/17Z+tbnWGuAVY+Inxe+HTnPlBwv52TK/x44x0DCOP5nFTJeDFYk5J41tuuVmu2ZMkSbiu6n3BadVd/GKnAqDiY8wOIjsSWGoy1/Lp5N9csNSgbSbq9s1Qx9Ux6Lqd3JvDDdJY3EK+7lyh6qGcrCrlcF1U7l7fW9At4Ly11t9NmlXmFZtZs7QsWB3QXlvIGfpIQqgw7ZmUyq+1trLrBfEPuvK1+c6eYt55xx9BxRmG6+TV63FkzGNMr8a66fjytzK/NfqFEZqrDrjMxEJ1ZjiSytTb3pFaTogDqtNBcf1i1jdI25VZFZZFX+yHV1Rg2Piyic/2B2E2zl7aMvMkpKgl4yDG5wMshVnGw/wBnDvx3du9WN/CBx1P5Ncduf/Ceo2vzJothZ+qeJL2r/IXilxuunlbbOLqrYdQvObRreyLZlAb+fl0W4EVmqPsOMPByPUbWgviPJQ04Wl5ruOwilu4L+C1ugjgG46qRyxMMSwi4himkgZ26R3GJo3RXRyMjNnhkJW7eya5hjIyIpLdZ45G8qSxx3M0CTKqdYOofPmUAjdkGHxlaDWMF4J+Hbwli4t5VN484r2Zkr+zHJ3lPxnuTipUOQVUvO6aVcNbplo2rWkqmsUC2UCjsNfMPesZNemrVGjtuMLf1N5aXxinlvorvUOlGJHhMjxrEoK28CSTQxTyrBiSNZHGxgMRrEqlBeNLiOAMts1taMWZIXkgeXqE/bTSJbTSwwtcOA4RfMFALyStkigfsV+X+fU1NSG4mXbfmPuUfGm+8W12wrVyfZPIGzLuxvdOVqxDt3F1tV+m3JTZtHqFyVCW41FjUqPLYjOzJElxtlqO28txaUpJDFuJmnjW1tjcylgFhUZaZs8RLhkOZPhGHQksMOO4hokuV91e4FuH8pmIz0geDJgJKT087sdKQnGAj/CdnXNdDwxhLHPPDPPGCx+CuM888juP2QrMyFNlfG5xJyes/HduXa07Iv+l4nx5BgRKvOqlegfPwILM2ZKkRlTUNxkvOlBL6+ENY0qMakdB19xtk3Jd21lFbWyvz1ZrqC8a4uxapuWPfFCHOJp1ldAjej1GO1ubEwDVdISROkTJbJqjT3OxcyIkVzae7Whml25KOwEe6NHgViy6h+ztagNAoVvuABI7SDr8yNn+fjrlHG3kfy/DB+/8A6dq8+SBwPwz/AC/P0rdweqdqVrkjSPiG1+ifDWqXxJ4NCg1c5Pc+OjhmDxFnZEg203RYOUJeNURBU0zWXmYkxdDj1ZEBciMVd6UqKT238H+IesdYXwv4g6wkDixFrZm1PABT3335bwWxfM4h6Zl24tjcGPLV34rWyfSF0hdd0gOYtvvrR6r71kuOTamx9zEwg8nW2BVl+2NtvAxpELAKEdqToD3I0T+f8/z/AK9cQ9uM4/P5xXAYjGK2f/hrcI678RD4dtt4tynxj5aXDjHBfKa9b1wlyA4k3fieszpdSumg2VEvi1Lms28roopKGBb9qS4VXiuLCTLltFs6cUrmatdzC0W0065ubecNub/2Xf6hZyIVbYW9xjMiXEbhlTzNGUlcSLGdrnOz1DQbPU2TxFJZmBkyOpqVrp91GwPIT3neksMowXHTWRHjQq7qxjEDfjhvZQpvMG18Y3/ge7OO1qYF4wY04/YAx7kW/LcyVlN/HVnW9+DWtWrtq9Bkv0hysVNDEyZJYglDUUvJYAc9IyHuhHNa3FvG9qlwMABmubeW1ldx8bmGUBkG7KrjghSe5IC1jdm+gN20tsxdidtpOtzBHyfs0mUkuFGPM/mOQxABFd/hDVZmpTeWeFr/AKbxruzjxn7A8Kwc4WDn3mbbXBm46umFdNLuG1qvYt61cOMJrVErVJhVL5R6PLhyI7LrcqMtDjZS7baZqmsI+n6dpl9dAlC8lhHDLNborDLmK4kiikRhmPaWUliu2ROd3Z0yK2a/jnub+2t1TJ2XaXTQzg+UxlrSGWWNuQQ42lRuYAlcq6XxT6fZmI+NHGzjZx6pnGe1eOFn5avfJz1Ox78Q6x+fXIbIt7XFTqDAm3ReUy3Wo0Kjwm6PQ6LSoEGBCYZKqdIcedkvupcGl1omp6Gr295pepRQu+5LjUILe3MmEUNFFFbXFwiCMks26SRm3Kcr5hVtTSB5Ibxb+xcmML7vYrelISvLM895bQPKXZvKTtIAKhAigLHn4QldVEzlnGxa9SeN9z4kzRxUuPEmeLI5J8qaFwzpV52xPrdrzmGLVv2rd0SFcUKt0y26vEQpiV6rNFmhcdTXqqRhb6bqGrB9O07Tby8dxg+4qj3Nuu5T7zGkssUT9NgqmOUmOUP02ADb0jS4IpdQhmnv7a1SNgze9RzSQTL8LwOLeKWZS6MzJLF03idFkWTKhHmB8TKJaeDuDGN+L3G5rjNb/HB7lQ9mu/otu/Eoxtz+5QZPvdy06lRaJWKq1bESEij0Kk0gVentojRSyuRUmVSHi86zt288P6loMbrcaTqscLspF1qVvb2oyEAFvDBa3Vygyd8zySSSPJ5QDGkYR9NTW3la3uo76w3BGVrayF+43bsmaS4vbaFm8ojSONDGqEyN03LM0dUXw97oypY3Orh3eeELBg5UzDanJux7ixhjSp1+Pa1NyDXYVxQJFMor9TfcbZiNzXm0R1SXVpQ0Hu9R7UnfJE0FuRcXUbyRLyyxhmkZR3CBVdi5Hw4Rzn+w3auNcNst3brJEQD9pIQI0/8AFIWZBsHdvOnGfMp5G0hmTgPW/h5cZ/iM584v8LOdkK5ORXGC5cKZAkcqcmYMTiDjZje6KxSq3e82NKt27p9wXbU2UUinwactceGG0vvSX2pK0COrm2V0/wCsZ31S6vbxH6gj6mi6laSbyx2yXtxMvu4fYDK5g3xM4IJjVhsrc614fuobK30d9NhmfmUQ6zaXm0qBiGzgQLIY3y6kykzBRGqFjuL6W4KhO9VxPYEy/UWB57dL2dddQDLYH+X/AGpgYrY1zf8AGfw/SsUcC8ZY14Z8HuVb2Cvh+4+wZkm+uaXFmXkPIls3VQZdxqqtBolTFZjpcokZE6G9FKGwFOzZR39hS+0Tw9cvHNfBp5Cg5ivL+2Cck9N44nhjZ17s6qxOcdVwFWNOK715iw0+7e1jDEbDb6dMHP8A9QNcWtzKAwOAhdQME9NWZmegPLV//wClfKOQsnIsfH2NU5AvSpXmnHuKLcNn4yskVKW7LFKt+lF10w6dF9X0Y0YuOek02hPerW+qxwwW6LBbqRGoAUM7yMAOBmRyXc47sxLE8k00vVKg3D739WIRSx9SRGqIM/JVVR6ACrY/hZcz+GHHDGmesacw1cuokC9+ReDORmPKlxPpdsTqiqfiGXfc1ynVxdYqkMIjS3LpgqQYwccSuEHO5stIS50rVdVIeTRtXXT5sqCxjnk3xk5dAIHjKkYUhmbAYKdj4IGE5h3D3rTUvE2vhXmEW1ypCtk29wHXBZXXapZGYBxnNJv4x/Lzi9zs5NzeTnH+/Obl43Pkiu3BU8iUXmDHtWNRsZQHqmiValr4/bo9QmKZo9NiyZ8b5eUpJT6DDgLi3n1C13+tUjjt77VIrq2jGy3iit5LdbeIYCptZyju/wAUjxxxh3DSyAySEjKwjtoYyILD3eZ/PM3vJuTLKx8zZa3hZFUALGpaTZHthUqkS7t7f9j40n4YFdAO/wD3cakoj20TAgnrgnmRvvH8jT1bXnTtFc6KK50UVzqj9qKJbgV2UaqnZHbTJCwQdqBDDpBA+58dEXPBrKT6fnivPi+EVyCwPhzN+Xl5pvO3bJpt156um26nXrhqUCELWj1NmQmBUFRnCVqZXJQUvlAJSntP36b93jlUqw5pdZumcvUysn81aFxwtHMNv42yLx1yjVIV+C7rIu2lZtplSpc9ilsPH1HqaWg6r1voSGQv2SB9t9ecuLB+pyKZS4iY81qxci/ir3vyLvSr5ByBjWxo1amMJok6k0SdUY8VS20ei5MbdccW53PaBdj93oL0NgDrp2StbwdNfnWU4Ej5AqHbfJ2jRh6ULE9tQJjy1uSpMKryYypI0Sd9p1599AkD2B6b6j/OsemflSWf5FQnlqWmwqSlk7K203FKAVv28a6dByM1HSOPhoukZ/gvGO+MfUNIaSEuA1+a8hZHkdwCh4/w6hjtHfBqVj8wBHFKikcvKtQ4zkOnWDbMiIpbrqo06qVCZFbLySl5Tba3VAFSfP0jyUjx0l1JCPMacEaA5AqV/Bjkbdlzcnsc/PXjbuK6ZFdcU/cK4CXqBaFEbSBNVGjOn6pIDodAH8RbPg76RvbZ7uEwoOTTME3Qk3ntWzVdlJp9gzYRsnkLxpzDiq17ybuynV0ZNiUKr12M4UJaM+CgbKlMhxS2SnZ7lbUew74kei3yS8ZxWkt2jrgjIrTq54CGrlXk+PTqvErsaC7Cp4qlOlImxZym4qT3IdQspWkBztSfcJSARsb678VtJb4DnmlQ4KMUFT/+DG/W4rvMdVt0dVcuGTiKyodGhNuBqSiU7kaiNsOsE7BcbXpSW1DS1JHtrre4LFD0+9KWqo0+2fnmrIubd38i/wDSXiKfnd28Sp1+8G6UuvUtmOXh/ZCsIC0pbJQkgDtOwN+AfPjrPSpLvrNE7kiuxex6esAESAGtYyLalt022LMly6FPrFYuKmJmtrbrK2thRCmW0sN+6ylSQdD8+mjh7oxyVw7TqbmDdsmrD61zRylcXHJ3ifXExW8cO3hTavHckqck3JRBEiIix6dCqDo724gbQoPMI+hSnFkpJ89ZEYJps788VUll2Db1NdpbNCpkqEpiVKiyn5VT/EUS+wMhHaOxPb27V48/xdHY5qUJPembEl3eyonxrRUda8+Pf9T/AInobDd/z+fmea0GB2FBydkk/c76Kisjbq2iooUR3DtVo62N7/6dSDgg/jRXYvKPuARrWjsj2/7nqQwAxjj8e/z/AD6VJORj/H88fSsQOjvQP6Eb6rUV3DhT7JSD9iBpQ8fn1bPrUg4Oa6pUUqCh7g78Ht/5dVFR27U5reasutY3ew41k/IjeI5E/wDFXsWN31VkY3elet8wJK6EJHyJdDoDneWt9w7vfz13E8TeI49O/U0eoTiywV6Ilk6e05yNm7GCTkjsTyRXLOh6KdQ/W5s4vfP/AK3TXq9tuN+N2Mcd844zimzKu9fcvZBI7vP1H8/PXD+grpn6Vb3hC7vhJwsQY/iZnxZkqq5Xj0EN5Bqa2rkns1CpfMPlx2M7Ar0OKIykFn0m0R0KQ2EJcK3AtxXzHWbb2nHVZzpNzH7sTlB9mCFwMZ3xO2e+7JIyOAO1fj/x1o/6Xk/jDUJvBWrWqaS0n9WX+rKVi2rhXE1nNJ1AQ24mRlYksu1cIro/23+CKfJw3kj+kC9h/wD9X1zDae2A/wD4mP8AfD/6evK/qH9OT/8ArVt/+qy//jjXDfPwRwnX+h3IwSATtVPvU9o99/8A6V/p+fR7p7Yc8XMf74f/AE//AF+tH6i/TkwF/XNtj/8ANY/P/wC3fLjHb8aduVjf4X8MWKZvC7lJEGUnENYvMnFGTo/+ktTraXWk2/u4x+IFaFoUkRu8lK0keDvrm+/+0VpZ4Bq1t1IQTKvVt8xqucs46BKAYGSwGOQe2a8dH4n/AEo5o7+aLxvpLJY596K3ml4tQCQTcN7jiHBBBEgXkEEgistz4w+GPZFUjUG9OFHKqzq7Nt+o3dCod1YjyhQavNpNHjrl1eqtRn7jQtUOCw089JkpBbYbaWtxSUpJ6pb6l7QbtZZbPWLaREKhistsyqZGCRKxEPlaV2CoDjcxVRy1GleJ/wBKHXbU3mh+ONJuIBLHCXhu9LlQTzOI4ISyWOOrK5VI4/ikdgqAsRTPf25+CMoD/wBx3Iyh4IIp96gkf0uv9d9dY2ntgIx7zH++H/0/+efnXsf1D+nJnP65tv8A9Vl8v/t3HPPb6Vz+3HwRvYYbyRr32YF7Ej+X/nX1X3P2wjtcx/vh/wDT0fqH9OTGP11bfvsf/wCOFdhfHwRyQBh3IoO/BXTr2KN/mQLr3r8wOri19sHrcx/vh/8AT1B0H9OMcnWbbH/5rL+Z06qi8yysVzsr39LwpSbgo+JZF1y3Mf0a6JSpVcp9KLo+WafWVrXsAKCUuOOOJQUJW64tKlq+o6RHqUemwLq7q9yFHUK+UFvXHAx3zwMeuAOB+xfBUPiy38I6dB45mjk1hYkFw8QARpdvmKjAHJ+SopYEqiKQokhZGfuGlvWda9CvbgTHyBd1IojMC5L4PJ+6bWN2zEFRcnmmsRyzG9QKT+5aJSnt8Hyevvnh/wAe+x3TdGt7HXfAzXd0iKHm/W15D1GAwW6SKUTJydq8LnA4r4J4r9k/6SWr+Jr/AFTwx7WPcNOllZ4LX9RafP7vGQNsXWkkDy7efO4DHPPalKrknwLV7/Dajjzv6eX15J/5R+uyfaX7BT39m3Pz/W97n8T08k/M9z61wf6F/wBK7PHtoP8Ay7pv+rS9sfnLxWxmmqJx3wcvKxE1tUddZTZnPHI9ppqxiet8qZIiBoOln5mR6Zc7uz13O3XcrfU0v20eyPQ+p+pPAs1tvxu6OuX8e7bnbu2oN23cdue2Wx3NIXvsD/Sc1Lb+svbAku3O3qeGtKfbnGcbnOM4GcfIV0vfnFxTyUaYrIXBm8L6VRkOt0hV587si3YqlpfUhTyYxlpdLQcU2grDfaFlCSrehqmpe2T2Qa0yPrXgSa5KZ2mbXL+TbnGdu5DjOBn7hRY+wT9JzTAw072wJEGxnp+GtLTOO2drjOPTOcemMmkH/rI8C/8A5Npj/wCi/vP/AOp+uZ/ST7BP+G3/AJve/wCnT/8AQx+lf/xoP/Lumf6ldxyT4Fgdv/g2Yx/ny+vMn/8AF+pHtJ9gec/0bc//AHe8/wBOp/oZ/SuA59tBx/8A47pv+pT54eHHHPUa6J2K/hWwLhgWW5CZuioTudVYtKBR1VL5v5FLj9RXHbJd+SlaCCSPSO9bTv6D4Ot/Z749tZr7wt7KVlhidY3ZtflhAdwWVczmPJIBxjP4Hg/L/aKPbN7J7ixtfHvt4e3lvBKYETwrbXDyCDp9UqlssrYTqx53AfFxnBwGrsvjva7l7RK98JGuUybjy+aNja7aZI5a3h+L0+t3CzUJFCgtw0sl+T8+1S5rsd2Khxp1CG1JWQ6yVpXMns8s8m79kUqyC6Wy6f62vOqbt1DrCsOwyM7rgptRg25cElhlrSrf2w63Hpk2kfpBxSQ6haXN7buvh7Tum9taNCl1K0hcJGLd540mSZkkRmZGUFHCuBd+NcY2KzbMq6Pg91Ons3Zd8Gwac4xzSuCrIp1bqTjbMGk1f5cufhct5x0NpYqfy6+9DqSO5twJ72r6B4R0K606z1H2R7XvpxbW5GuyyI9wxAEJeMskcpLDySsjdzjAOPIeH/GXjfxXJexaD+kXHI1rby3bg+GrSPfawhmluLcyBPe4Y1Xc0lr1l2lWBxIhYxtTEGMb4p82pW18JKkTYtLrVRt+qKkfEHkUl+lSqTUXKRUBLZkS23WW2ZbSmS+6lLSiUlK1JWhRZ0Pwn4W8S6XHrei+yVZLZyyhv94WUgpI8LF1eRWQdSN1BdVDEeUkEEo6/wC0Hxv4YuorHW/0g5I5JIoZkx4PSQSJcQLcxGNo4XV2eFg/TUlwMgqGVgGdqdy8X6FbTF3VH4Vbke1pGS5uII1cTzIuiVT5VxwENOy6YhxCFdxQl1Cg8nbKh3djiu1WvJx3/s1e3026i9ljiK/ne1tiNcuwss6OiMowAAN8iqHfCOwcK56Umz6VYaF7ctU1l/Dtl7eQ1+tjHqJi/wB27AOtnKWEc7KzAqCVOUOJFGCyDcpKOvfMPDHH14XZYV6fDGbol3WPck2z7poznMW7ZDlJqVMkuw5sZTjLK2llp5lxBW2pSD2fSojR685qHjv2JaZfz6ZqXs0K3ELvHIDrN4xV0bYyk7DnaRjIJHHBxXe8Nezr9JTxh4csPFnhr24GbTr2GK5t5B4c09RJDOiyRuFd1ZQ6MrAMFYZwQDwEsOSXAsAj/wAG1HO/ffL68yf/AMX6THtK9gg7+zb/AM3vf9Ou1/Qx+lf/AMaD/wAu6Z/qV9PJPgWf/wCGzGHjXjl9eQ/+l+pPtK9ghHPs2/8AN7z/AE6P6GP0rgc/00H/AJd03/Vr4nklwLSd/wDg2Y5O/wC9y/vNQ/w+X6ge0r2CA5/o2/8AN73/AE6P6GP0r8Ef00H/AJd0z/Ur7/rJ8Cjvfw2Y3n8uX95p/wCUfo/pK9geefZt/wCcXn+nUn2M/pYE5/poP/Lumf6lfE8kuBaFBQ+G1H2Dsb5f3mR/UfL+ege0r2Cg5Hs3x92sXoP4Hp8H6+lR/Qv+lf2/poP/AC7pn+pWQ8l+BpBH/g2Yuj//AHeXiP8A6W6B7SvYNgKfZy2Pl+ur7B9Rxsx3+YINH9C/6V3f+mg/8u6b/q1h/wBZHgV/8m0x/wDRf3mP/pfoHtJ9gmefZtx/94vf9Og+xf8ASv8A+NB/5d03/Urn+sjwK/8Ak2mB/wD5gXn/APU/QfaV7BMYHs2/83vf9Oo/oX/Sv/40n/l3TP8AUrn+sjwL/wDk2mP/AKL+8/8A6n6j+kn2Cf8ADb/ze9/06n+hj9K//jQf+XdM/wBSuf6yPAv/AOTaY/8Aov7z/wDqfo/pJ9gn/Db/AM3vf9Oj+hj9K/8A40H/AJd0z/UpqczZd4wX3Z0Wi4d4fNYLuxq5YtTkXunPlwZOMmA0xMbkU38NnNJZSHnH4jvzAPej5LtA04rXj/G3i32aa9pcdn4L8Jfqu5EgZpRf3FyWQKwMeyVQFySpDDnK4wc8fRPZj7PPbj4V8RSap7R/aIdc08wugtf1TZWO2VmjKTdaB2c7FWROmRsbqFjygz6O/wCx5lavhmXSlSgpKM3TChP3RuBD3/06+OkfaP8AeP5V98rbI6dornRRXOiiudUftRRDcqu2gV0/cUWUobOiNR3fv0Q8tj7qykzj9/8AKvFf5FuIGXMkv+kwsi+awkeo2lxRCqi/7HXtrt/y61nneDBUd6UEInwrdqivU4zTC2XExIWx/CRGb2nZ3oHXj3PWjygxkkc4pmO3UevrSadUpQdUQNqUob9/B8EfyOh46ViYsCSMVu8ag4zRcpxCTrtSO1vQ0nrSqbFoIdEJ9vKASOrb2xip2LXT1Ep2AE+ffSR5/UnqS7HvQFHesLT30D27gsgBQBI8dUq1HtvOU6RWKRHuKdMp9DeqsdqsT6fGTNnwIi3UpkvMR1LQl1xDZWUtlSQo/cdaROUfNZy5K4FOZleycZWXU6arGmV6Jl23qzCdl/OxLTm2hXrcLLymmYlWiySofNutFDvdHcW1pKgFdOvcxhM8VRYdx8xpny76neQNNjygDwogD/63+HXNE/vG52GMVsyCMbU5rYP+AJVrJt2+OX905JVkYY/tjCdr1a8ZuH7dl3RkqkREXtTgJdLiRW3H1PR3QzISUoOgyfbrW0XqvhhxSMj9IlxU8Mh1iFl7NNUkP5f5C8i49Fp2TqxZ9Zyrh29LcjW9RP7DXB6VSqUqowWozElTS4ySCrRWfo2eupZWscd27mlRdvK+09qqT4pfDsyjyZ4v0XO9IjXDR7cpt0QcMWJXKXbjVQpNYuyWhMmPClSFzWpDbSWUpkKcjNu679Fse3XNnRxeHPautEF7niq4JVSrJvhdiOVuoVF+LerlBaqAf+Xp65QlqZfkbUO5P1BQ0ryNA9ZHliBW2I+9Sy+IH8N7OvFe3rQq9x2bkKqym6ezcGU5a7OKKJj/APG4dLlUIvzGXHB6U5MlxLbr4bK3WHEa7tAyEc9gaq20cg1A2ucS+TtsmEm4OP8AmKjKqISqAmpY8qcNUzuQlxPpBTX1EpUk6H/EPz6npSf3T+6sutF/eH76M7Q4ZctL/vWyMb2Txszhdd/5Ks5OQsf2Zb+MqtVbnvShrZdfRVqXCbZLsmIptl1YfaSUENqO/HUMjqMsMVIkRjhTSCyNgPNuIJ1GpuVMS5FxzPuGlIrlCh3vZ862JNYhuLcbRKjIkNpLjRU06kLTsbbUPcHqtTuX5042NuE3L3MViTsn4q4yZ3yNjumV9Nq1C9rKxbV7kteHUlspkJguTWGVNB8tqQsNk92lp/MbBycCpyO9fLH4U8uclQY1TsPjXm266bMk1OFHn0XHFTmQ3H6K+mNVmPVDXaHYbqktvNkhTalAKAPV+nJ/dNZtNEpwzAfjSOvvjTyCxhDrNRyHhbJ9lU+3q1DtyuVC5rKnUeDSp9QZfkQYch5xsIQ8+1GkONtk9y0MrUAQCepMMoGSp/dQJ4WOAwz99NAmk1NQJTT5hA9yI6iB/l1mTt71sAT2r5+FVL/7Al//AIOr/wBXRUV2FHqp9qdN/wDwZf8A6uioJA712/CKspPd8hMKNd3eWFdmvPnftrx79TtbsB6/x/JFDNjgmsgoFbUlChSagUuHtbIirIWSNjXj7jz1BBHBoyMkZrOzbVfU8lH4LVjpQC/Sp7jy0g++hrydfbf5daIr7xjjsc/4+vH76zeVFU8j8Tgfv9PvrYGayLjyXkPjHk2+8yYtdvZXJ20bwvCvYmy3cLuJsiUaDRKlAlXxeNkVNltu1q3TmGaJT+/banlTZ7aYrSWzv4lPo2sxW2qWFhp0/Qayv1WOWJN8csoUiK2ukLGVLhy52YOAkTb2Nfz1k8DeNofCXifwzoHh6+9xOlXUNsl3YW4vbedrmGRLCzvbdmOo2krNczjGQgjgZpWZxmJFichrUrSWsc0fGtQwfjS08MZxrFPXkHJs3JFbuW6byxfUbdiRGqlLiRkx0SVRKbFiwY7QLsmSpSluKUkI9DqPhbVY7e41G5l94unawjVY4entji1K3uJCVV23sq73ZjwiI21cls/afEHsq8S6XdjxJd336z1K41Lw+snu9olskVpp+rJcNIY43kLdNZZXlndyEiUABQuTVmLTudflNvVlXgb1TXSRvQHjt6+llH9Qa/UoI9KPbdxVk6756qVaeO75uipojrlrp9t2nPr01DTf8bpaYaWsITo7URoa9+o2P8jUbl+dLBfGjka0poLwHmttTquxkKxVX0KcOt6T/snk/wAugo3qKA6nsaRsrGOTINeXak2wL4iXO3NTT3LblWtPj19EheglkwVNB8OK7hpHZ3Hft1BDZ5BzU7hjGaXiuLvJlCu1fHrOiVnf0qxJcIUe3yrx8p9vv1cRSnsp/dVSyHuRSDr2L8m2rUl0a58fXzblXbaQ+ulV61J9GqaEOf7tZjvNJcCVb+k9uj9t9QY5AcFT+40ExjuRS9j8W+TUuPGmRePGdZMSYwmVElR8R3E9HlNrG0ONrEMpUlQ8hSSQfseqhWJwBzQGjPYj+FJK6sNZgsaVFhXti3I9nzJrHzMKLdVk1S3JMxv/AI2kSWEKWn9Ugjx1Ox/kaCYx3Io7oXHTkJdFLiVu2sG5juGjTwowatQ8Y1yr0yYEfxlqQzFU2sJ+/ao6+/Rsf5GjdH8xQS5sCZ0sqIioXjhrK9qQFyhCRNubHVZoMNbxGw0HZEdCCsjyEb3+nRsbvg0Fo17kD91TV4o4tmZG478lsVVVy6LKqF73rYVbt24JGE77yRb7ot9dyqqDDjlv0eoLYcAqcQD1Up7g4oDf1dv2Xwvc+E9Q9l+peEdd1eOyu3vbe4j6sNzIGSKCeNsNBDIFOZQBnBxn51+afbBp3j6z9rvg32j+DPD0+r2un2+rQzx29xZQSK12LEQn+u3NsjA9CTIVjt2gnHlzMeVfs/GU+Pc7mJM9XJRMM5Z49PU2pVrBN0W1U8n0bF1q3lRLiuRlUmJ8vCWl+rwVQWqi+296aohU2Ch9LX10e2DwNpuvR6xb3EtykeoWmSYmW4ktoNGbTJL9QxMfXMjmeON5Vcuq7jHksvwCf9HX2neJNLnsb62jsZNV07xh1Qs8ckOn3Gu3+nXNnZyFCHmUx28q3T28bxB+ttfDRmRpsbx+PFiUmkW5a9SqWcbzl58s7Idv3tYGKcr03IVPpdJutmrVSo3/AEyU/wDg0p+NTXpsWMmjQZ7qXJEv9+vuQ85wPCmueyzwVJoNo2oR3b22rWNwbqCHUYlEFvcSPLPdQTtsabpSCKFbaFykaspLu3UbueI/C/6RPtD1qa9l0aTS7QaTqVpLZT3OiT2sk1xp728EWkyW0T38ccl0sU07Xt1aRmNIfshho0amJbV3Uy7viAV2qY1ytCo+YccXNTcbVCXhi6UsXHInZFt24IadGnd0X1IFNlSQ5NDKEegEqUlztQfmekeIPD9voPjKzuZR175Iltvs3Jk23qTsM7Ts8iBsuVyQo+IV9dv/AAB40l8NeyWxhtD1dGvLKW/XqxD3eKLRry0lYnqbZdtxMkZWHqFtxYBkBcL6BkLDlTwgOPFt2vfst+xME0S8WMwRaZctZs+VdtHr6bwq8M2qikl2MQ7Wq7RjXHVNt6bYS4RH7HE/brX2n+y+2s9O8HQKVg0n9UzwXjG4aKe4tbhZrtYrUW3VtzL77qGZC32rQQg4DKa+XD2T+2tvafL7YrxI2W61K8ik00C1W5i0ya0/V0U7X/vWx0Vba0vmsgrFSXKn3gshjrzRsOwbhy3mPLmNcwUvIU3Juda/dcXHUHFl9WldlvQa1VKhUW1zHqrSIsMqY9Vhhxpt5Tne8ClJSFFPwX2mWvhV9avvEHh7XYr03N1NJ0kguonjjlaSQMxnhjQ4O1Cqsx3MCAVDMPrn6OFx7S9C8BeHfZr448H3OmjTNLtLZ7uS702eGWa2higZUS1u5px1NrOjPEq7VwxDEBoQqte5ka76HV09yC4O6C4NpSe1R9vsTrr5lX6S8lBVUWsoBKqZUEhOtkxVgDft9vv0VOFrGul1RshLkGagnwAphY3/AJdGDUYU9q6GnVEHRhywT9iyoHoqMpnFfDBnp94ska/NtQ6gkDvU+U9q6fKTP/seR/8Ae1dG5e+attB7Cu3yU7W/lpHtv/dq6gOpOAeaNn0r6IFQUNpiSiPzDSurVG0fKu4plUPkQZhH5hhZ/wCnRRgfKsiaPWFDaadPUB4JEdZ/6dQGUnANGB8qFMW5cTygGaNVXSFhJDcNxRBPkD26CwUEk8VI47V6hn7HtGkQ/hw3/DlsvRZkTOD7MqHIbUxIjK/DISu1xCvKSQpJ0fPkdJhgzMynIyKK2zunaK50UVzoornRRSavA9tqXMseSi3Zy0D8yIrvR27Vk+Ofu/zrxVs6IMnJt/qQkqUq7qs8R7f/ABx8n/kf8OoIB71SCo5VZt1LTDjjTrbb23mFuNlCX0b0VNk+FaJAOt66mmKRbp7ErC9pIWoEEfcHX/XqAMdqKAO+R7e6fB/PqaKC+ooAbCte2ynweiiuhWjuKPPdsgpKT3DX+XRRWIFB7tI1/wAKt71+fRRXVSuwBWiRvW9e3RRXZTu2wsqUEg9oIGtlXgD+fQeRg0V0bWf3vnYCuxQXrYOwnQH8+sHUBgakHAxTrYwzVmHB1Ul3FiDJN94vrk+H+F1Gs2Bcsm2ahNjF1LiWXnGXEqcQl0JWB9u3roWkqxqAxpC5hMuad2tc9eZty0efb9y8r+QteoVbpztOrNKq+V6rUqbOYebLb8Z1h53tWh1tS06OwO/X69XkvmR8L2qIoiqAE0scafEg5dYfwrZHH/H+VFUPFOPslOZhtO0lW/AlRaPcT7aWXqiXuwvuqS2kIS24spG/GuqG/wAnJHNaBW7Z4qIUe+a9FvuPkBD6F3LFuRu7WJKo6DFTUG5ipiX1sqBQ4CsJJbWCkjwfBI6iM7Tk1sFJHJqcfIT4nHKflXSsl07kHe8HINUyg7SzUa9KoMegJpf4RIbkRUxoUQpjttnsaaS16ZQ0hBWhIUT0xFcLuAqkkZKEVJfKvNXh9my4qPeVfi83sdVuFAhzJVBsS/rVr1owKqmFEi1GfR2pcFDrTch2J6xjuqV292wR46YNwuaRFuOxzTg42+MBZ3Gbl9gHkngfDdWvahce+LDPGa3qJm+pxGa/WXGIrkZyvSFU8COlwh1xbYA33L30pdS9RABTNtEEcmq/eYXMGq8uanjeq1a24lsJxpaEu1aY1Alu1JEliRUpNVbSsufxFtUx9sa+xH33tKnanjxt+MNP4u8JLM4p2PiSDOrFKztLzReF51OuPMpulwxIsKlwiyj6kJiNokr9Teu91A8aHW8ThRisZU3euKfvjnyjwJe3CSlWDd3IPjZjTLszLWSa7clG5GJux2VQWLrnQ5VIuGlv0mK6h+XFSypr0ZHcggklPd08kqjzEikniJyqjNMfy8yPgSmfD8Vhu2uR/HXNeUqlyXt+90RsEwrgYdVRaXbdap7tQqoqsZpRk/MTGfCFBADhATrfWj3KFSFxWcdswbcc1R4h1xTLneruWoAr/dJSSf73+e/brizDc2RXXiO0EVgC0pWkFQB346mihLigWng4SGywsL7B9YBQrZT+ut69/OujOOTUZIZSvfI/nVytiYntGRblOzJIxTxVk8hoVFtyJbNn3HytsincebgdMNlLV3TrbTUw81WGkJgGdRKi63CeeW8/pLpcin5BfTakLltKT9YnTCXLbbK56/xH7NLnptut3yxjMQ6qjCbnTDj8LeIPHGsRapN4Fh13Vl8NPJdNNcQ6NqL6pEu92exjuvddjW/7T3e9gR7hY1WE7lxOKlKrKmmtVg1JyGqpPVyaqpOU1MdVMckmW+ZBjln9z6Jd9X0/S/d9nb2/Ton61CI1hRYlIUAAA5BAAAAIbkEdmHzHrya/bFiIBYW62uekI4wu7duChF2g7vNkLjduw27ORmpM4rxbYE/G1RzJl+/LqtKwGL6RjS2qTjuzYt3XxeVZTTkVeckNypMaNFiRIb0Za3nFqW4uQlDaNJcI4Op6rqqakmi6JFGZel1neaR0RFLmNQFjBd3cg8DaoAzncc1878WeNPE9p4pg8EeBdOhudRa1a8mkup3t7aC26xgj80cU8skssyyKEVAiIm92BZRRJmuxoOPK/ab9BvJV82JkHHtOydjO43aMq2axOo86ROpxbqVN73BFmR5lKqMV1ttxxpRihba1IcSemtE1K51K3lN7AIriKR4ZVVtyb1CMDG2FLKyOrYdVdSSrDIrr+BPF1z4t0+8GqWQs9RsrmW0uoFk60aTxrHIGil2p1IpYZoZUYojLu2OoZTSwxphqwcg0K3Js7PEW1bruGsTLfg2MzgO+8g1ZUqMorTGYm0uM5GlPOxlMyyxHKnGm5KAtIIPXO1nXtT0yeYR2MbwRormRr22hwp4BMcpDqN+UUtwxGV4rheL/AGgeJvDOpXVvbeGHurOCNJTc/rPTLZOmwGXaO6lSWJEk3Rb5AqMyEoSCKa69rcptmXtc1pUm5lXdCt+a3T3LgTaNVsRyTISy25KZXR6ihudHejPF2OpuQhKiuOVJHYtJPptKvbjUtPhvZYxGzrnasiTDBPlKyR5jdWXBypwM7eSDXtfDGtXPiDw7ba3f2ZtZJlLdIzwXO1d7BGE1szQyCRAsilGICuAcMCKv+4627FtPDXF3j9iumVy1Ll5Y4Km5ry9ku1K+7Qb8vmRMueXbFItSPU2VpfjUiP8AKNPOx2i2XX5qkqUrx10WM0aF8niuissbTLHt5Jq1blB8A3NHHzj9J5AqzDdN0s49o0W7sm2NGzneqK9SYbZS3NNMlvSjGfLIcS8oJDav3S0gq2AcUvWkIDH+VOXFogyVA/cP596rutrMF2XhxupWf41v2XUeYMPPcniFaPKG6IqpN/0egNwXqlHrs5tX7uTWo0eM3BYqa0KkJ7e7uKh3dXknlC7ou9cyOFhJ5hx+NWNWb+z68tMpcdqLlun8l8gx70um0W7op1vXXnK6nLhriZMVyUHSWZIjMvPBQUlskD6j3a+2Eer34OB/M/yzT62CEbyOfuB/iaq/wtfUlWIeS1Z5LY+tLkZlP4etKoN1YEvnIFRl1Cv9101d6349GuN5C++qQKZKaEyMiUXAy4nt2UbHXZjvJGgInOD9+a5dzATcCPHH7/51YRw8+Dvy+54Y9q/Iy+eT+TaHVburMkxJk7LFz2/RqvPZbQFMUum09wNxIDCyln120IbHp6Q2dK65JuXMmUNdW3so4VywGfuxUIsf49v+n8prw+HTzsp9Y5D2La8e6Mh2qi9rwn1W/MY1yw2HaktmjXCpz50U6rNMoYeYWv0VsykKShK/fpdV+kCx5pG+iVfOBwe9Prwf4Lctfi2Gflyp5TuTC1hRLZgnGNjY+yJWMbYhw9bj7izR6PBhUzZefHoOEpKS4v0gt1RJIPOnvXU4B7fdTGnWqyqHYZH3AUyeb8H8hvhwcoqVxd5BV+TyGwdnu5aBjnIONMjX5Vb6tWuQrimmFTLjoEyW4JcadHU6XmnmVJdaXDWhf0gAt2Ny8q+bisbyzXPb+A/maPsVce8684eTdb4eccpdXwRgbj/dtax7ZVjY0v6bY0SW/Q3VM1i7btq7R+alS3lPNmS4r1VfvGGm0jx0teXbxyCNCc0zaWqBdrL/ABrtzl4T86vhCXZZWWUZoufJVpVqPLhpmVbIlUv7H19MtNpFWoNWo9RWNh2O+D2ONjvQ33oUlST1raXRLYJ5/Cq3VnHGpwMH7gf51krmMpkHL1O4wcBLEdwlc2f7btTMmVr/ALWuJTt/Uxq6WEyaZZNoynCXaZS463HVLW0SsDtS44oAdN3N8yxDBP7z/Lt+Fc22gWSUjH8B/lmnv5pfDO+KDwRxxQ+QTPKHJVy0q3qnD+dDWZqhd1NokxxREamVinS20svxZK0hhR24wr1ew/xA9IW92zy7c+v0ruG3Tp7cVWVXMq8erMjW/wAtKvjW7LApPNTAmS+O2ZMc4hlQmada9womUeHLuK3USj6DLUpSG3XIavoQ56naO09dp5SjKxJx9Cf5VxJ7ZEyoGD9wNU0ZQqdtV3I1+1uzGa7Hs2sXlUanace55aKlccemuyFGCioPo+hySlko9RaPpKirWgNdcK8IlmJFdq1bZCgx2A/Jpun2QdEAefq2ACQffe/59LqNowKuxyxNJ6oQUKaHpDtKB5AGvb7dTVaRcprtKjrSt7I1/n0UUWvAlHsT5B9uirL8VFT3lQAB9v8AHorauiQdjYOv1HjoorOlJCge328e3RgUUPYSjsVsgEe4I30UUKaHaCPy6KKN4bXetoKdS00pJKyofT49h/XoopXUAJ9byNb/ACH+f9AOsp/2TUV6UH7JApB4OZ0QCnuRyHc7kj+7uiU0p8dIQfD+NFbXHXUornRRXOiiudFQSAMmkpfLyWLNux1biGkNWxUHXHF/woSmG8Son8hrZ/l0VmTuavFbza2mRfF2Po9Yqk3RUXg44oORwh6W+pC06P20O5HuAvz1VmVe9RCCDimxmLr9129R7YpdIk1eDaM+U9CntQlSFxmpzgeWx3pST6fekqHd7aHS0l7BH8RpxYHc8U3kyzbpYAYXQ6qFpHclC4Lne6CfCgNbP/P9OojvYZRuWr+6zYyKSc6nz46kh+I+0pKT3JdaU2poJ8KKgRsAfcn26YEsZGc1n0ZM4xRK4lQbKSCNKH1H20VEAj28e3V1YSHCd6wZ1T4qDPqkNMNw3kpbQw+VFQIU4krBKO5Q2dK8fb+vQTg7T3qy+YZWgyVL8EjSR5P1Ek9TRXJTqVrbDRKkdp7yU9uiPH/r6KKGU+XHjJeLzCJClslpDbiSUpKzrvB/NI89FFF7SktKSpICA24kpCWgsqWlQIcXv3T+affrN1JORRS2q0+3nKTSEU5qptVQwlrripTiFQ3JBUvtWwlP8LZBQEoP1JIVvrMq/oKkYzzSF0PASAB2jYA0N+5/z/PphMBQHHNBxniuADwD7b/r1ZumvxDH4VFLiwLFuvJ93UOwrGos25bvueYaVb9v03tXUapJKFrSywkkArUltXaP06hriLGAa03x+tODd/G/NFhXhbGOLxxrddt31eMtmBbdqVeAhuuVR6Q+1GZbbYCt9zjjyEJBPlSwOlyJGbd6VQzRkcmseQuPmYsQT6VScn4+uOwZ9anCBTY91U38MkqeJCEgJJPhJUkHf2PWgMnyrMyRjjNGuYOM2bMDGP8A6WLKn2i9Jlfh7T05xpSag6Wi5+77Tsq1rwB4J/PqwLH4qN6dwaF3Xxnz7juyaLkS88ZXHbln1ynmq02r1VluM2/GUn1GpCkFXeEOJBW2r2Ukg/cdTR1FzjNEsnj7mNqyUZMn2DcsCxn6YqrxbpnUxce35UVKgn1WXz9KtqUQE++99VJIPAo3IR3ovg4Ry/VLR/t/T8d3dJshbbykXdHozot1Qj96ZBEn+EhpSV95GwFDXuemopdvBrCQAglRzWO1MKZavii/2itKwbwuG20PriOVulUh2TSmnWikuMl3wkLSFpUpJ8pSSelWLly2cit1KBAPWi+3cVZEutiqP2tZlzXHFos38Nqkmh0h6rMQHjv023lNhQSV6JQT4V2K6tUhlPY0k5tPlUmoSqXPiuxqjBfVGmxJCOyRCcRruS4n+6QdjWz5B6KtWF1SktOlBCXC0r0lHWgspPYfPjW9e/joqMAkBu2Rn7vX+FWs2vaGMKrlvjvmCgP8NKbxQs3HNu2zkWk35WragXhGj/hQbyBFuS3JKlVyoXI9NdrqqbKYafcAepqoz6UoPp/K7oarFpGpaRNbXz6jNJI0csYn6JJbMEiThxDHEi7FkiYxg4cSRkuN/wCONW8QeK7Twb4l8Gak2uv4zuLq5ltTbR3bRFusTpps7mJRZQ2CRe7i6V3iQEXIuFLuA9YdUVTFVOqCgsSYtGNVlCjMTO4yocEynTDS5tSj3oY9FKgolQIPcSdnr6hD1emvXbc+BuOcgt2JHA4J55A79gMV+ubJL73KH9YsGuNidQjGC+xd5GABgvuxtGMduKse4l2tlO/7Fbo1Po2F73xvkPO9Px9Fxxme16hcNvUSq0y3pFbr17iZEfjOUtmkUb5f5pxMgGa06GvSUWEqT868Z6npdpfq84mW5igLiS3lEUrb5QkduuRJ1eo4JI6ZEfcZLGvzV7bvEPhPQvEy6ndT6hZapY6bLcNdWEsUcjwS3SwW+nlJkkW4e7u8m3UxEQSKZDIokKsy3L1VWfyFY1yO3hbN5WRe2IaRcGHJVmWHLxdbVvWrHnVeixaVEtx9bjkBtiZSassBTzypHzHzC3VLeV13PBphTTprMW/SmhlZJftROXkKpIXM2FMjMrruJVdpXaFCqBXuvYf7mnhjUdKjsZrbUbW+mjvxcXMd5NJevHDcPNJdRhVnaSKaHkRxLEFECxqIqk7x1vLONy8eEWthjAl53Pd9gU668Y2dmWi3lFoVsWim/JLM64ZcKBJSyXrp+RV+HMSosrvZhyGO5tKghXXnPEVv4dsvEovNYvwocxzvAIjIzdBdkTyMuSsCv5yjqdzKxU7Swr5X7VPD/s+0j2nHWPaD4ntrawvWsbuewlgkea4/VqNFaxSSoZFTTOtm5milhw8yyYcqWWom8iL9qGQ835EuipWpcdjSBUYdqm1bznrqV6UdFuUmn243+NvrbbK6k43Smn5ay2gGS+8UgpUCfceGreGw0G2trS4WZSDJ1EULG/VZ5GaNQzBULNhVDNtRVBOc4+5+yzw1H4S9m+laLBeQ3Ue15utbqEt3N1NLdkW6hmAt1M5WAZOIkQE54FyGCs046qFjcTcrWDc1wu5B44cfanibI1hw7SmVmsWM7RbiNz0y7lrYKkmmTPxH0goAqZcgrSsBKu7r1cYM0LBu+DXthHGsoc96t65HftGt8chOP1RwQ7Y9u2lJvaJEtfI150u17muCoXFAKkJnop0R2noajuTPTCUlPqABa+1STpSedFbOoBcc10jNGUzmq9bGxvetp8XIuMrZkW9c/JaBniVzUTxQkuOxckVOwXYMqmtNBopPZUFxXxPTAUtL7bSVLUR/Cegi48tceJ3F2c/DVmFnftMtwY84/sYioWNaZV7rtSzGLTte+qtBrjFyWqy1C+UaZqdCbhONSpsbuQlK0yENLDW1bV3DpZreQy7gBiu0JoxFuzVV3GTF+TMk8d+YNZrBtiwLt5uUK3LH4n2VkO5UW9d+ZanZNdkVyppisLHekyPEdhRCGnZTxb7j2nrqKsUkRVxk1xpyWuVde3zqxThb+0OxuFWEpODr6xbGn3LatSqNPk2PfNcl2ZWccV9D6fnoz8lMV5MmB6jSnERgEyR3FPcUkHrmC0Ackdq6BnBXioM4PzxdvKDmhlD4i+crptPHGAaVS7wsGrZhuplygWpcVx3xTl0eDQqRGSkvSExO6Ml0ISfTYYLylhZKQwsbB8/2flSFy29Nv86kzwI+KDd3wbVSuN+dLDobrFGpkGh1mh1auyqZRshU6G085Rbzs2vNsPpcYlMOLS6wposlKUKbWFBwdY3FqsnIHNN6dMYxtB7VHTkLzDyR8XnnJaOU7Tptp29YODq1bmRr3uj8bebxjhez7SqIqjpmVdbKVvyniXnFuLaQXVPBpoBKSQxaxJCCAKyuZWck5p2sBcxZvwxeXF2cg6ku3byw5yNua5MlYgyzSJciqY8zBbFemJcqdCclIQp2BVI8mOSSG/3LscJcQttW+sbi2WWTcRzWkU+yMhTRl8UL4rVyfFyqGPOLXHLFsWcio1F5Ns21TKyLlqy5sphCJtTq05bTDTLMaOhTYSEKSltTji3AdDq8UKxHil57hpUwWouuTPrfEflPhDl7bdRtS/MVUmy7Rw89lay6kq47PtS+LJjCJWqBXO1CdNOr70pcCQVts97RVo7LqDqoqr99L2z9F8nvUlvig/tD2M+U3HSfg3GFkwKe3dMyHIuh1F1N3PU7icivNvR41OjCM240x8wgKU4ruWsJSgAEnrKG2WM5xXTkuMoQnetdfmJYdz4i408O8ZZHiw7cyiJN95SrFjvS0yq/btKuidCeo66i13K9F2U3GfeQwrRShSPuT10uonT8/JNJWqGVCX5qtVxlJSS0FlsoBbK/KnB7g/5n/HrhufOSfmafYMOF7UCdbWggFI9tgb6rUjsKIpKFBzvIJ34CD7DoqaI6hDLughtIO/r2obG/OuiikhJaW2ojXsCAQNexPRVk+IUUlo96iRpIH3866K2rEQO9P2/T26KK77HcU+dgbPjoorM37K/mP+vRRQ9v79FFGzB/dtj3JHgf1PRRS3oHpFYSN929a8n7HrKYZiIor0j/ANke8cJs9g6BPIFKz534/AqcP+nXPtSrMYs8ij61tfg7Gx10ywDbaK+9WornRRXOiqP2pIX2pbNnXU+iO3MdZtue4zFdR6jclYiPabWnYBSogBQ+4JHRWVaI9kfDM4oc/TeF/wCaeNWeOC2To1SjO1h3FVXp6sV36uWXA9U6RRJ6fViBHpJceaSAkmUntK/bpW5R2xtpmAqMl6lFgD4KvFPj0m+V2Jn/ADNLdvWI1EfXd+MKNUZNLQ0VjuaSh5QHeFe5A8kbIHS/uu7G4VMtyy4K1Ja1vh44MteI7TxlC3LkptSbUqosXbgmIueFK7UIcbkNPFTa+7Q2gEEnqRAqHYvasPfXIzmoV5X+CZh3I2RbivqZfWHrqFRptPp1Pt+/sK1OXBt9MPu7vkkxZ0UoL4WA4XErJ9JOunI4RnmlZL58jdUZ80/A/wCPePMUZCyTVKLxuuyXYlm1W7maVQbJvaxXqi5AhOSPk1ut1XtUp0NK+rfb3qBHjpq0jBJyKpPLkAmtOfl1a1iWLyNyfaeOaSbdsSi11tm3aGmfKqrdOadiMLSwJT61uuBJ7u0rWdE+3UXcZDDA4p21kyhqPS4b0eNEecDgE1tUuOsutuJcaCu07AO06Pjz1me5NaAYGKwKHbrzvx0VNcB1v9RroorgOvfZH3G9b6KK4suEfUdkga0d+P59FFdUJUe0a9zpR+yP59FFfXB2g60vR8jzr+v6f59QexzRUxuBFRuO3+VWG7os2M9Lu2zLzi3TQYMdj5h9chh9rt8EdqkupW4wlLpCCHT3kDz1gkYzuHaqSfARVlXxbKzk/H/xI7JvC5aXcVoXIGKPkG1odxTIFTm0srkqlxH4aYxLSGW3m1/uQSAUfftHTyxEjmlG+IilP8bOt5Hq1+caLguy3rrsKj3parF9UanXXKpphN1FUOlCpvRkx9lDaXAFnvUTuWjQ8dWMP0qtfPi83deWVcJcQMqXVa+QLaZvu06a5Uq1cqon4HX6t+ERmZM+ChBU6lx9n/aUhakoKXQe0Hz1nImzmtIz5jmgvNXItduz4Z3HCK9TsgIj0CnN2hdVdqbDDdg1RyBMlR6YiIvvU93iItqOCFI2uOruSfB6zrSia7s1XTc/ws6NZT8bILUizKA/ZtWeFqQTYv4aalGqkASagomUHliW836yNA9zYUFpB1oiBxRXME5qnxPhv3Didqu5GlVKFTqxVYUCmWdArNm02DWe8TWZ8xx0uoSkx0uJLSBvuVrXsdBb/Wjiif4dfJN/G/GPLeMH5VfZYNUn3ZZ7dCxsxdMWryahAdpMv8RU44HGGAhUdaFIK1dwT/D56wI2nBopKfC35HtYTh54tWrVasUmh3qYE1uXSLEav6XKqdCbkBqOW1rQGkOpkfWpJOgU+CU9RRVSeRam9VL8u6oSHErkTromSn1NJ9NnucfffIDXu2QFo1s+B9h0UxSVWla23UpUlLhbUEKG0gKKSEn9NHR/p0HPpUjGRnt/h61bxYnKHiLZFWxdV7ftiNTZlxQ7Fs7KbNdwHSK/AxlZtpUsuXXQqcXC8ur1K8Kr816tWIQ61HmsoU438uhXXyW/8GeIL+G6hmkWQDrvDieRWkmmcss0nYIbZNqRRq20smceY1+K/EXsp9uGv2er2Wo3bskDahNaGLU542u728mxZXEuwKLW20u22AWxDK8kbvtYSNiqiqy4Mys1aTSYZplMlVWVLpdLUruNMivSXXY0ckEj900ttrx4Hp+CoaJ+qwI8cSpK25gBk4wScYJP39/pnB5r9kWEd1BZQwX0m+dUVXb+84UB25wfM4ZuQDzzzmrCeIWN7iu/D+UFRKry7pdqXXdH9hryi4Gq9p0jG1xx26dEkIhVk1erQ1uTNTF7QhCmzHdZSVKJWhPzzxdrI0/W7WFDa9ZU6idWC4mmU7mBaMwxSbQVUgkENkbiCuK/NPtt8U6ZoPjjR2uLbQ5Ly2h94gbUheG7iYysC8BtrS42xAxhgS6t1FkO0KMln+W9qz7HybatFnPZpfLeJqJEpzWcnrecuSn06mqm0emw6cmjTZUJumx49OaaYb70OBaHyWwFJWvueDbw32kvKRCMSvnoxSxLubDtuWaON2lLOzM+CpyBuLBgPe+w/W7bX/Cl5fWyaepN5cM5043JheWQRzyyStdwwyvcySSs8jbWXaYwGyGVXvx7jaJyS494htKtUrkLZTWIKpdUai3DZHHO4M32LkGHX6yuoyJ0N6nLbEarwZCZEFfq9yFtxo/7xBbUkcDVtej8KeIbu4tby0LTiJnjmu1tpI3jQKp5Ri6MhDhQQ45wMEGvC+JfFr+yn2n65r1i+nXh1NLMvFPq1pp91avb24iETrc7t9pKhWdCmHV5JDsYMGpk+T93Sbyz9lCq1Wxr5smXJFDosajZOpr1FyFBi0q36ZSYNSrUJ1IUibUY0BioPIIUkrnKPc4khavUeEre1t/D9vHZ3Ec6EuxkhwYmZ3Z36e0kBVYlRwCAoU85r6R7HdIg0H2X6VpdtfW92q+8SGS0cSWoea6nmkitnUkGG2kla3QnB2xY2rjbV/Hwo+GeCL9w7aedbXyLyetfP8SPXq3fcTHVfl2BHVSISXmmKfSX0Qe2qxagIpS++y+XGHVpR2L7dde9soyRsavfXBwhNSEzNbuUccYHy5l1fLX4gdqSaPhamZgtioXnVIrdsWBVKx6QouP5iflfmqhUJCFyHVSAhj5CO20tYWXem5bURiuLHdyvJ61UJ8NLEMfl9nnJGQcpcjst47yxaaKdeljXfakxwX1eNwVWTIjhaa/MBZiOobjJUI8kpVMCwhtSUgpKqBWk2A5rsODHbdU96vxrNg5Wwre8C3mubvMpVgUTLtGxJmm9arYNoxZtr1S6YKJVJr8WoCluJep7bqnY0oSEKWy4+2PVAJJ6S2ybN3qa45vZjNsxwa19L5t3L/Jj4q1KwHnvNWQZdzU3P3+hmNkC66tEl3fa8Gl1Hui/KrjkRWZJQyy80qOltKX3Er11zZcLKEIxmutA2+Esx5FbE1ucXuSmZqNaVfs3NPKqymadl+Pal7U7k9iKwZd2Vu2IaX4VQuOgzhTFPTnVKZgll2QAVIWdqV4JdMCbAQOaT96fqFB2qr340mALjtDF9GuqTlXPFyUnFma2cQUe2ctwaXQ7DuJqr0RdVerNrRKdHis97RZeZmuKSpaVyEjv0OpaBBGGA5pqI72yT9KkJwTxxk68uLPEui1nk1yWj1fLWOK5kjHzNLwdbOX8N42oFFnSoTtvO1mow5EmnSiqM0+gLWYqEr0Un71ii6md1YXkzRNiPkCokcmYGb658M61OQWTeRl5V2g5utagVVeELSxpQLahQ7icqsyMt27n4EaP20gMQ+6MJaCtUoFIGjoYzxhRxWtu+4kGnt+EVhVOXeO0eDb/ACmzraVcrd/Ve463iqzqFa9btagwKaloG4YsOtR30PCb5ZMiA4FR3ClDjSwdjeKESJuNY3EzRA7e1SOunCmS7swfKue2+WHJK3qNyGxdcNWxPb9SwxaVlVu3IVvUybWKvS77qtPhsSGY835QsMOQfSQpK094WkjqssYTBIrKGXd3qsH4R0Ct3lIzTZkHkJS8Z06uUGiwY2Hbnx1TMpWrmKS5IWhsN0urPN0pyXT1JJZCXBMWhxXalWtCltGJWZW7VrK5VNwq2W8MYXdZ8nKMqzcwccW7lwxQ7kmVWLUuAtr0GrzLmoVpm8WY9uzQ4WkJ+VSv1JbxU4y6kDtOk9aSQbc4GaThuGaTaw4rUuve9LryRc1Zv+/K9U7pvG6JIq1duGtS11CqTn1tpG1vrPd2oT9CUpAQlIASAACeHeu6TbccYr1NqqmDNJZISlKU/UdJH6AfoB0qSScmpPesExI0hQG/pGgn3/l1FFFMuP3fbXkEbOx46KKT8htRXrtKvr3oe46KKSs9hYcUS2Qn22SCd76KsnxUn5DfYe3ej5P9OitqLe0qWQNbQQD0UV8UlSHO46IWO0D7jR6KKyoWEoWrR8L14+2v/r9FFD0L0N69/t+XRRQ+O73BsgKAB15O/v8AboopeW/r129kgFQJ8bI0onqr/AaK9IX9kbdUeG/ItonaWc9sISPy7qDCUf8AmOuTaZ96agdq2zEex/n10v8A534UV362ornRRXOiqsCRgUTXB2/glVKgrSaZIP0EBQAZXvW/HkbG+isiCvetf/HDbMqqzGn3F+k+876iZDhc9TaiEjaiVb2lJGiB+QGh1tDIkeSwyaXky+NpxUF/ims8o6fU7Kq3DWzbnvq9I0ak0G149lx32qiZVfkux6q5UpAeDaW44aSsyXUpSy2d78dZTnqjycVKKByzZx/GozcIrL+L7RORVGqHMNFKcwPIodaRdjUnNVLvuS3KVTiml/LRWHCvSJTcdOvYlCiD1kkZyAxrRiuM4q7MNpQkhAC1MqWVhpGlqAJGvf3Gv8unkTI4pCV174qq/P8AzDsHKFqc2cAW1OVRLiw7aT1gXpUa/JZpzKpNYhySyIKVu90gAIUlTrOyjY2PI62TEWSKsYTKRzXn98pmH15tvR2ZVXqzOeqTESpVF15Lj81xmKhJWFhKUdqu0aIT/I9LXE4k7CuhBCYxgmo7dyT3BTKWyoBCSnbakqH215GiPcD3PSysTwRTJAHauHuBCiN+daSNnq1VrsSoKKQhQIG9rHaOiivulaJATsfrodFFd/TUXEqI0jQBPv0UVmcShCx2u9oX7gp8Of16KK7KCO8Np7ELOyBvuJ8+/wDXooqX/DO4avY+VxfNkzqlQ70sOgSK1btyw1hxdEmeshv5lsKQW9uNq9MB7uST/CkEeN4o+cil5pNoxipcZnyTd2f76jZGy9W5d93zCprVKjXXXnvVqzbLBcWw2HAAEoR6rmggD+LptEBWs0UyAueKD5yy9fXIsY/Garhk3+1jKk/2esR2sLUpVBjgMpKWfSSO5R9JH1KB/hH5DqGAHJqOm3zorylle/8AMWPsb4tyTccq6rFxO0YVgW/UW0li3lssMwgpC0/W4sstIR++JIA/p1kw6vlHarqu013uTLmT7xwnb3Gy4brl1LD1sVdVwUSyXIjLLUaZ670hDhcQjuXpx9aglR+489YNGFOCatXRvM+UY+Cq/wAam7kqKMQXG61JrduSaa2r8SVFUwUNKkqQXQEmOwoISQAE+PJ61hZQnNFY8bZXyPhXG1+4esSufgtjZKpopl10uXTWahKdiaUgoYedSVshSXVj6D52OtN6/OiguBswZB4wNXJCxFU10GPdFtv2vV2qhRWa0Hokhxbii0lxs9jn7xWnB7aT+XSrbZJDsq23y7qLePuR7h41XDKuTEsxqHVpyHw6q44LFyw21PpSC6WXUEFe0J8jXt9utFg3DOaz3DdtxUBcuxXot+VqoS3XpEi55btyyluFKXHXX333HO3tAHaHA4QNeElKft1iylTTI5GaQrT5Kx/eK0+NbOvb/n1irknBqaFh3RCkgj/iBA89X5ozg5rONk9yUkAkJJ9vJ/P7AaBJPQS2cCpCkjPy4/dVjHD+q47tvH1x1S9M+ZNx/UpN8qRTcZUukVqXiy8IaYEFBq89ca3ayy68XkvRUp+XSooho+tKfJ8T4n0/xBqF6kemWEM0BTl2EXVVgx8qmSWLaCMcrz375yPzP7ZdG8aaz4ktIvDnhGC/hFvhr77IXcL9WUiGPdf6e/TwVkB6xXfISVxwGg5WTrUuXJdPqdh0vGDlDYsdiO+5hbHFx48oT09mbOLqqqxVYcZ1+oqbejqelx47cdbZYSlCVIc11vDdlqGnaa8WopMJC5P288c7BcKAFMZYJGMHbHuIUhj/AGuffex6w8S6P4Yl0/xYL8XPvDkDUbi2uJVQxxBRCbaWdEtwQwjSSV5Q3ULNtKZl3xprECk4KsqNevKXHCbfFRrLtN46X3ItqzHbQC6tO9SQa9P7prX4iSqWkwkFSEywpJOk68p4gi1Z9YmfT9JlAIX+tRdYvJ5BwBHLCi7D5fOZN23nA4Hwn2wafcy+0O+udJ8G3guCsAbVYUvJ47j7BAqC1hXoSGEfY/avhihDbQTUHOQNUt85uyLJto2jT6BLXTPwyPZuSqhm62GgmkwvUbi3LMQmRLAc7isOJ0w4VMIAbaR17fw/77HpMI1EymUbwTNHHFIcOeXSIlB/4cE5XBySST+jPZXHqMXs802HVWla4Al3Geyj0+U/bSYL2cRMcPlxjaSZRiV/M5p2+M94Z4vWrS8b485EZLxva1mWJcOU5UG2K5Xp8anMUKAZkhik0GI+16syY4phhCG9f7wqJ0jtV0Nc8UxeHLBLzYHZpI4wC2xBvYDe77W2IoySdrEnaMetK+0TxZB4E0eDVbiAzNNc21qi71iXqXMojDSSOCscaLudnIbsFAy2RIHODHIjC+I7rqFT5a5YrVwQLgtWzuSOLJs+rLt2h1S+6DPrEWk/jCpzzdVlxY9Jcj1NLjTPpKfZCCsL8cDSfaBc+INTFs1uqW8qSvA4kLO6RSLHvkQooRZNxaLDMSFIYcZrxHs69r9v448Vpo8GmdLTrqK9msLnrh2uorC4htppXtzEhgjlaZXtW6khlVX3BcHEKMLcpc08dKnXqrgzM944pqN00tNFuSpWVPVS3qvEbdU+2xK723EqQFrV2KCCpAOgRvr1VvL0JjKT37198mt0eIKKex34oXPD8YoVyf65WcTXLVguwKHPF3rZkw2XltKdillLHpOoUWGiVvhTh7BpQ9un/wBYEDGaV/V8Z7qKh3Vso3NVrsl3xU7ulVK86hWv7RTrvlPym6/JqJeVJNSXJT9YdLh7lFP1bQNaHSV3dPLIrL6VrHZRoCKeWbzi5Uz6u9cNQ5NZlmVuWyETKtIv2qrqLyQy1FDaj6nYChphgAJT2BtkEbXs9MRXxXlqyfT1Y5Bo+YyHy/52ZAxph0XplPkfkF+Si28aWhXLkeqzjD/pK2Iz0p1mLFQENrUuXIUkhCSHHhrXW36xMj4QVT3FIkzIcCl3UeQvOrhVV7k4uTMw5NwjUsW304bhxZRL4j1Cj2zWkeg4VIegyJUR0lLiCRFfLJJ7SlRBAv7zOp5U0C0idvIc0u6FU/iLc2bPzzkmgTMr53sjHtiU2289VeFUaa4aTb8Z5+tU2LLpKnmn5DMRxEmUhFOjOOM7eLiho9Ze+sRgrVvc0jHmOKZrFHMrk9hy3EWLizPGR8eWoqsO1v8AszbdfegUpqU7oSnW4qkqS36hbQexr6FKSe7z46ul/sYHHFQ1isinBzS0mc2uVFwwr9ptZ5D5Tnwcqtsxcgxp10ypDVysR2hHaamta7ChLADWmCgaP8J6i41ESggdqyj07afMO9ZuOXJbkTgasVCLx8u6sW1V75chUmbblEoce6WbgkMOd1MDEKRHd/2iM446Yr7SRJQo/SfJ6Ut72RZCfStJbJABk1bxdGHvj35kp1uV+8cf5Lkw2bVq1HpTty3NjyyJdVp1fpYpNddkwJVXjSnn5kLuaMmS2HCNgJPnT63c7fACaxVbJW2lxmqwc+8FOXHF6gUeu5xwHkDH9uT0txWLkmCk3DZ4fUlxSGE1SkzZcRIUhKClTriApRKR50OlLyK5mfqOp7YpxZbdT01cZqIPYvwVBKO5CXUpKh39q0hQOv5EePcffrnrlnKmmWUqu4Cgzv8AElJB+/6j+fViMHFV9Kta4J/CMyNz8wnemarD5HYLx2LGyZLxrOxRcVp3tlPNdT+VpdGqYrcK2LYp8+ou0138ZRGTIRHUkPQpCVEaT1WSz8QSRm80+yVrRfjnkm6MMZHJEkjQtGgC4O5pFGWAI7FmrW58KiT3TWNRMF0RlYgsLvIvAUxq9zE7sx3ARojMxXy55CwV5U8bovGXMAxEjMNpZbmsWpDuCsXLbuMb8xBFtyXKk1JhdHm0e7aTTqol9lEBmQZCI6ozjdSYCHS4h9DeFtN14hL1raUHkNaXkF9FggcGaA7Fk/vRMFdBtZhtdSdtStYrO4EUKXCjAOLm2e1kOeciJyxKEY2yA7WO4DlDUP5yT3KI2sAfU4k7aB2R4J8n+eh0xSKfFSbktpcXtSNj2Padk9FbUVONpaWSAEFfjROvboooItfcoeRpPkEeR/38dFFZG0BxDqWySQe47Gvfz0UUIaUpSRsAePP310UUYwy2exsuoCj5G/Gz+Wv+vRRS4obw7vqPYsI7gD52dnQ/r56zlO2MmivR7/ZEZ8JfDrkkwiWy5Oaz7FclQg6kvxm1UGEltavP95SFgbAG0a2djpG3i2SGX50VtuNKV5BA33HZSfAH23se/wCnT+wb9+aKzdXornRRXOiiiivhX4JWCCBqlSff2/3K+isn7/hWvVYclbdYIC/qK3VkaHaT3he/6eetoU3Gknbbz6U60xCHEFAAVpSVIUAErbCjtaQffSgSkgn2J11v0fnisjMuMkik8iJGp1PcBJjAvLd72kfLlG1JV4CRrt+gDtI0NdLuNsgFMK26IH610bmxH6TJVF731xYjvezGBXIdc9N1akgaG1L7QEf9pXnfTMZABpSXBU/fWjXnvH2RL95G5fy7cdp3JjinZCfuatSptw27VnaHblPTTnCHJD5joBfYajuOJKFKBdUUI7tb6l8qppmEcgEcVAih8JbDzDc9l0WxuVdr3jdV9XbSbYjxLot2Tb8uSzL7zIktlxwrUmIhtwpTrvkOONIQEk9KBd0m0n1p0sFTdTDc2+PlvcW+T+UcE2xVKtc1Gx/KplNarNZYYi1CorlUiFUJLjrTeg2Q7JcShJBPYAFeR03Nb9MEDvS8Fx1TUUVtjwRCKE7H1l0f4HrnBgW2incHG70rnoAL0qIANa9Qr7wT+WurVFcdY0kKba7U/wB7tWAf676KKwKQtCAXAEj3ACgo6/XoorECp11pLbbbhV4b9Q+mR/U+OiihT0YNB0utoDzCT+88rRv8tj3+3RRU9+Hd9WxSsPclLCfkRm7yvmfY0m2aeqD6s2fCo9Tly6wG5Wv3KChTIKQQVemn36cTv+FJ3XpSyPcUkdqlLWCoAjYUQCd9bgjYavAcxmlQilP1OhU70SzBTDqEgh5Z7A86FI7UA/cnetdKyyhRgVND5yyqsVKmuxotLhLhvLlSZUbbq1oCCHFqAJ13HWkAH9el4pDuOTRRRT4zEY0hmBOZqPc1LIqERtTLiFJWgBQDujpHn9PfrOSTk0Ua/LvKQkOM/Pyiw42akpxIkOhzQCuwEo7QUePG9/p0utwUraNNwJrI/Db9Se8qEuUqXRhT48pwpVp5sIKiUa3pPaU69+re9Nnj+daGKsaoTa5zaFuLQnSC1LWr6177f9nAA12/59VSUlufWqHtimOqDi2Z0htEZH/vwoSA7oaCieuikmV5NJknepP0qL2Z0PtV6jSpR7BLoxlRVL8koXLktBGvsQUE6/IjqknpTi9hTZNPqUAVLAA9vpHknyfPSyfEKmhAknY/eJ9/OwNdbUUOjOoW633La7tH6iChaAASQDv2OhsDydDXV413tj0qGJCmtybCUWyJvErAjV28kaLgObYPBuxb9sOxZNSRa0PL8ibdFyxKvL/E1HXzrjkViG6ypC1hn01p1vfXQjjAHFccyKZtpHP/AH/xJ/jUI8rXPOevzLLkXK2QXsW02/ZNv0KbbT8WsWwxAlwjLpQhyfRW0+46+22HG3FJdU046dJKCoZzRLtOBj8j/IUGVvecjtUz7Zo+EEchIkPGd+W/eCbtsGuUu48VTFU24qLVojONqpUUzH46kH5N5iVH9TvaCFFxnXjfV7GFN3bmtbmQBd2Oe1ac8d9aafTtvNlSqcwSXE/vBppPufz2T/ieucVCFlHz/l6V01AAIHbA/P8AGpL8RrFquSMzRqVQL4vez7poNkXJetmnFc9NHyldNXpVJeep9Ct6QXGyiZOdcS3tBKvRbkAIUSNeY8V6o+laQ03SR4meNZOqhkiWMt53kTs6qM+UkAnBbgYPyX21+JbLwv4Fe61XT7a6spri1t5vfVDWcUU0wElxcqVZTFAo3+YBd23zCpA8lcJ0XHOC6w41lrJt43djvNtBtvLDdeuuLcGHLzv+6bXkVS7lW2kJTIdnW8mn02DPmyFyXHkT4+yxvt64Xh3XNS1DXQLm3iVJoXkUCMpPFCkipbiVsnKzBndUwiIVO0E5r5z7KPaJd+KfaBAp0SztbO90+4ksWiheO+g02yu1itRd5JjWC+Mss9tFGkSIYnGZiqkVvKmK7gAYp17aASR9/wCvX0MgHg1+oaxKfUf7sc78Ee46KKDqcOxtMYkDXnW/Ht0UVxLvgI1CTo7G1hJB6KK2Lv2eagUqh5N5fckp9Ei1qo8cOLFRuS2XWpPe/SptRWUrfbbOgpSmIDrelAhIWde5JctYgWDVzruXDYqgq9byrmQryum/LjkNTrjvK4pV11mXMc9d52XNfclLUsqOz2LePaCf7gA2AOrXcmwY+VM2Slxkc1YJ8Kfl3WeJnMTEt6llupWJeldjY0ypQVyyGK7Qq5INPmSCzvRVCcfbkJZ0TpKkgEKPSEMgc1S+Oxc4pzPi2cZqNxW525fx/alMpUeybo+SyjZUOK8taKZT7hbVIEcOKATpuSxNIQgkpS6gHZHXR6O5OKXtbgZ2mobYiwjlXN1xP2rhzGlz5NuKNTnK09QrLpj1dqESK06Gy68hsHsb2pIDx0CpafA2Osulj5V0feIj6ipkcJq1yL46ctqPMxXg2TfOd7G/FqI9jCs2NIrdepriGQ1UXkU/uQ+zKhENFDqSD3KHkBXWkaBD5+1IX8yNEFj75rcHwVdeO8q0a5bzxviaXlao0mrJt3LWRuVeTYeKrhgXTGQh96gOUaUFOw1xfXaQgIjNRFhwhl15YXrr23ROB615WTqdX8/hVZXxC+a1u8Z7Xv7CuPcf3PjTMWQKbULRzLxoyNJj5ZwfCptTjLehXXSKi2+phiY4rao6Irnn00etGQpKSXZpoUtzG3en7ZJmnHzrVZUkJACI8ZYSn+ILACvHlR863vu2PtvX268jKyvLmPtXrY2VIgH70HcQVFKvRjgdu9BY1/h1l249aXPetg74OFEwNOwjl2472+HLbecciWHmZh9XNjJOYcQ4oxziiHU6PTXqDZcNzJDcmhP1cSaVVqgBFhSJTbVWZUtbLakkljpmn6lqyi1bUZdUhQSLDYRyyBI96qs8gTUbBBl2ZFS4Zo5QjBEl24RyK/1Kxs2DS6fbWDvt619I8RaUKWEcMkVld3CuqgSbodgQ7d7JuQvAz4yN7ZJvnmpOi5ct/k/bt8WFiG2bEqFC5YZGsXJd1w4qX6zW6au16nZ1Mp9vLtd6LW2HYBp7TqVvrqLpkrLvptP6nfQX99J0pmd4j0pBJZx2MkcqfHHLBGz4cZDB5WMro6EloxGzc23tZLW3jZ4Y0WRRIrQ3d1exzI/aZZ7olz1MYMaBI42Ur045OotVMVMKUhaFRWShTnqpJWkrRv7b99dIVunxUkZLSQfEVB+v2Lw0fH6dFbUUPsIVoqZbb8kjSyon/Px0UUBWy0g9gbSQfPga9/Hv0UV0eYbZYZdTJaSpzaSyls+pvehvoor6jvAH+7Pj3AOj+vRRQxl1e0lSW09vsQgDooo9p8xxt3u0kjt7SNHeiCN/8uoYbhiirnfhQfFMy/8ADazGq+rF7Lisi52WqPk7G9TUV028oDbiFIW2e8BmWwAQ0/59yFA93WJTZxRXqVcPeYuDebGF7dzXgi7oNxW9V4jRq9LVIT+O2TOWnukUupx/42XmVhSPqABA7gSD1CSZfbRUr0K37/fyPy/l0xRWToornRRRJciiigVtQBKhR5RH/wB5X0VjJjPNa8ljqDlWSSgpPpulR/4v+++tomKk4pCVQwANPApR7QSlGu0fxr7deNDrXqNmsQiikvNj1uTLbQiXEh0wMFxRaiumouEfYOhegn7DSdgdUPJ3GtFYoMDtQ+nMNxI5Qpcg7+ouSJJdeX9QV3qUfJIPsfsD7dXVyvIqDhvi5qpz4v1anNcWLiiQKrAYWurxHXI9amPO26laWpaWlOshRQOxKl9uk6+r2OgOi5Zo4wUq9m7OQGrUZzczkin8TH7rbPDz8HjXpQKi1XMVyoMDkRbE0PFyM/HW0oSvRUtPa6oHwWu7QPXPgkkZuoe9dCQ4G30P/aqwsh5HvzMd7VXIWSLnrF63rXkMR6tX65ITIq9SEOKzCjqcdSlO+xmO0gbHnRJJJ3049zPKMSEVVLaGP4BSVSUxFqLjTSgppTfpPuFSkFQGlf06XwAc0xk4xQMtJLSw38x3tq71EHSAk78D8+pqKxuJ79COXwptICw8je9jYKfzHRRQcp9M/UVJ/wCIEb30UUcW/Q6lcldpdCoFOkVms1aa3Cp9IhoU5PnOrVtDbCdhIK0pWVFRHaE7B9uiilrWHbfFuwYlNpdYiV6ireYu1qcWF01575lSWDFWD6g7EApdQf4T+fRRUpeIln2/WbCzRd8hiU3clszqDTqQESvShR48tMpUoOI2O9Xc0hPcd6KgPv4ajIJGD3pZ0DnzUuKYqRNpqJM5h+HUROchmGUK7FIH8DpUDv8APprgpzUgBRhe1HD1bltU6l09gqRHgz11BtxpCvVdWogrC/8AIAdLmGNviortKuh6YJrsyJT3psxlbSJ3etmQylf8QUB4V7DQPtrrMwQpggUcVipVcREVTky2nCxT0SHfUZcSC/6xSpQUo+dAoHj26yMETfFRR4i9qe2lKlU90rHYA4FNpVsqVoDX20d66VksznyVYOygha4q9aehLraoMhtt71WitCkFxKVq2og+4J7vBHkdVNjIBVuq9B2LyhNIUy43OfSl792Gn0uOssDXarX3XoH/AD6YS1RQN3eo3t3pu3m47kiQ6houOOSTJCVJ/wDRqJGyr22N+dfl1ssaDgCsyATk1DLL7hXdSGVOrWGIfY0hxfchsKdc8IH2Gyr+p6zJJ70yKbZKlNo+hKVHuAAI8dZhFB4ooWhbBH1q0r8ko7h/j1eijKN8qVISXO0KdSkuOo00hQPclRPuCCPH28+ddSrurgKe9QwDIQa208X0uio4u8SY97ysc5NqDHGS2rnpn9r+E9m5Zesih1us1pil0f8AHJNSZfe7ZEeY8ttafUAfSvuGwOvQQoOnzXBmJWbijOvZFtbHdtZDx/ULOsRiy6TXxXLqt2l/DusNyy6zVKUpNKE9LRuBJkLh/PIbSUgOtCQoEHuJ6zeS36ZV/iqkocSbhTxWBYDjF4VygW5GxXhHI8jF9w1C1r0p/BS0LegttyrQnVF6D+LR62/JiuSKeHE93pqCQ540VdXswhfC1R2ldcGtKpHoKYif7ShtPyDSktAKPZttG0g+Tob0Dv2HXCkAEhC9q9GvIye9fHY7ICT6v1BYIVopKSDsEKHkH9R5G/8AGEd43EkZII5BHBB+YI5/jx99W+h7Hg/UHuPr+ORXD2JYQyZCfl21qdZa2ossKcCA4ptvZSlSw00FKSAVBtIJOho3MVK5OCcnnufQn5nOe+artHVMxHnIAJ9SBnAPHIXcdo7AktjJOQSkxlq0X2//AJ5B7eq1auyW43uiQyrZ8Aggg/y10UV8U0wryHGjoa2E76KK+oRHBG32/b7+P5dFFbEP7PJfNmKzryC423fcdNo45Rcf6nY9rJqspECJVKhELrq4iZCikB9UeXJcabGyv0FgeQAX4Hwo2mkJ4l372FY8H/s8fMOp8kaZY+drLZs/BNBr7rl+ZRoF7Uh4TqPFWl1f4On1VOfMvNdoQhxseh6xU9rR6tLZvcJk1MV6lrkA0TZh+B5yox/zejYswXiTIN4YIrd8U6vY9y1NlRJlnwKEp+LIU9V6ylSGmH2UpWVFSSp0gBCFKIT1nBYrG2cc/OsLi6inXg81e/UMU8a+UvxYM7RMl0m0sxxuF/ES1qLTbKep71baqdWRIlO1aTMhtuJXOkUpC2QYzaSs+ujaVE666kUG4bH4+6uO5lHK9qTuBq/xDtzmld2XeHtg3BZ9xU3hte905axrJx1WsWUORNosuHIhP0+BPabITJ9FbanIzim0ko7g2oHrb3SD61USXIp+LYt/CFi5ZZ+KZab1Jqj3NqhY4xtjajoqCIqIdau2oRI9wvthIKipTbTTTpUVKLkF0q7B9Soa1gA89T1bkAiklxh4i8V858ifiJ1DNlrW5krK9L5bT6TLsC5bwfjJotGbix1wai3SmpTTa1vLXL7pZDimwyhCexWgbIkCDCmsgJs5IqHuFeOnw+JPNDlzhiu0Cj5fvd3JkSzONQypWbkvLE1VW5RYcqZQX7lgFZblIlKmMs/OrUUtxktpc2nXUTRwyIWJ5pmGSdTkgZrXf5M4xquJOQOZMb1qg2/ZdRtHIdSpK7Tt+tLrVCoDXrqejRIUt1IddZbZdZCFOfUANEkgnrz1ykcLl4e/1ruRSNN8dMUqK55AeilI8Aq3vXWAORuPemwigYFWmcc14ayb8PLKGI+VVp8qrL4/YA5dReQlI5X8bsU0jN9k2Vct/WpTbKkWlfNuVafBjrRLatqkO0yZDdcdYkVFTb6GkyY5e0iewvp00BNWSzuieoyzwXM9rJFtYLvFohkgnRw5haQsk0ZnA2Mnn2jSTToZNbu9Pa5tQAiGK4htrkSFgXWNrlulcRGMhrhERXg6cbFmSQgN/wDFbumuVzkJjbD83CmX8AWpw64mY74jYqsjkfFapnIOr2rbkWp12l3Fd8eO45BZnVV265zyY9OWuNHjtRmAr1GngMo76zvo1ktrt7mRQElleN4S8qjzFYJVEsUQUosKylpGiCSsR1AqxeWd1Z3UguIEhR2LxJHIsyCJjgEXCHZOzMrtJJGFQSF41X7Mk1ST4SiohTzQT7DSiSfPVqXT4qS8yE40shLjawfGkq8joraid2M6pXdtOgCNb8/boooI4laFt7UhISD6iPJWrfhP/XoooE4SSAfOvuR56KKHJJDSfPnWt9FFdge9P0nyPO9b6KKFIdcQsJBKu5OiUeCT46PuqRjPNLKlSJDPYUqWXFEELToKbIP26oyluCandGKty+GR8ULOXw7c20vIVg1ORVLNqFQb/wBJ2NahNU1b1909KkF1LqdjtkttpX6DydFJVpSu1R6y6YjIK1Hkx5a9TPhrzHw7zgwlbudMKV1qfQayymNVqBJkoXcFoTuxt16DVI++9p5su6+oaWnSh46sJV25qKl31tRXOiiiO5lhFu14k6/8jSvIGyP3C+ispO/4Vr3WQ2oVV1SUd7LTMkpURsnRAA/oOtY/WkJDwKdCW602O4J9RBB7tu9jbSUp2fP5+/V8Gs6L25zMqGp6N6MhL6AgK7gopBP5/wBPboooI8stUyf6cpERwwXlInK7pDdMcUCllzsHuGyrav8As9FFaTudMi8jsjZdyfgjJuSr8vxm2ror9Aue06zdS6lb13yqdHkqguKbWhIbjrJZcZa2ChD4HTVwgMQBHpV7MANgVBXlxhKuY/42tyaxxOxxiqqwbqpUuqZPsrNUfIFdnR5bC0pgTqemS8phDjna6FIR2tklHd0jBH5CTT0x5H31Ug0ttagtRS042Nd7afK/t1mO1b0OLja0FJkH+HtBLWz/AI9FFGcanR/w6ZKcqTbIZQFJZbT6siUSddqR9iPc9FFBloAiEOSSmeHElpSmw4koI3ok/wAP566KKAqZdeWpKQsvJ13JUB9Q1/ENfn0UV0jS5VHlNyosqRFltOerHfjSVRZMdQ/vNuIIUk+/sQfJ/Poor43KK/ULinQHVKW8SsrDhUD3KUT5O/uT79FFTm4AYvjZyy3XcUvZIj4s/tJYNRrUG4JkGRVo0+bTVsKbp5YaWgIXKTJdU3IWf3Zac8/V4xjYgj76wPzqQHNjjmzxK5QxeOFvZtVliJULco9x0m+KdARR4VQFTaPe24yt9xDQYKFEBTgUv8unxKBHk1FKLn3xgXwsv/ENqUvPdHzUrMGP2b6hybNpTlIjUeS4+YiqTKb9Vw+q0oEFTQ2e9BA6wE4UcUVi5pcWZ3Duw+NN9S86UbJT/I+yHrpftq3aWqFOxlMbbpr6qROBkOOrd1UdBxxDZPyyx2/fq6PvJooLmnilXcNcO8IcxZ2crUuWh5juR23pOO6dDkm7bN7GnZDciWlR0tlz01I2n2KSD1eihFV4h39C4Kyec72YLTj2pFvVFmycay3Xf9IDKH3g3FqnohB1G7VAnzvz1VrkRHaRmjFdsEcR8j534j8j+XFBzHZNt2xx5gKqVRtKvtSEXXdrSRFKmoCQ1pLqTJa36gUSErII6gXqfKisnDTiLkrmNj3PuRbLzBj+z6Vgi03LvqkO+lTYku6kNxZ80xqSpqKR65EFwbkANjZ+o9XDBwHHrRiibglxpyjz6vC+rJxfkzGtl1SzrBdvyfMyFNdpVOktNlKGoUdMZhzufcJVoFCQSBsjewUVVXkWUX7wqrK3UyHaZNfpUiUhKvRcchvupeUj7divHbrx4P6bXpikj6aSghxWws9ye4aPufPRRQpJWgD00J/nrZ6KKGR3XkvsE9yUAnuS2gBb4A2EJV7g7A/mCfbqB+0X76P7Jrb3wbyMXT+GeBKNYnIG0rAo1c4w2dinLFtZF4oZLvyOm4rVrlXqDNTotZpVHdihxbM5iOShfattrWwevRw56X1rgXGOv+fnTT3nZGLsnNZHr17c2pdCyBdt8ou1ul2/xeykxixxt5pKJrLsVyjpksvyChh8Mtp9NXYFKPd56Uks2mXrL2okn2PtHyqUNnZ9oVAuW58gZC5M2bcNn06wrjZkWRZPGvKlBmXHU/7ETrapIMqTSkR20+o6h1wPrCG1JJ63sY9jiqi5ArTJplJrtVTFg0emTalJVTmXFxoFMdqkpLbbaUF5CWW3HPT2CCQNb/LriSDa5U+legBBGazTaRWKc2n8UgTIK/cCpUtymKP8g6EE+35H+X26pRkUXtpkKccLQjkpT4UpKVJQQNn7fl+fRU10dUVtIW05HdT3djvpttO9q/fXckbH8j0UUFUXydgJO/BIY/w6KKxlTwP1ITs//wBP56KK+FUnypMdCtHYV8vs9FFHdMr9Zt+owKnR5D1LqlNkJlwKjT1uQajTnUaKHGH0EONqH5tkHxrqySdJt1VZC4wKnzcXxWPiG3VjVzE1wco8qVOy34Rp06Iuroi1aZEU0pksS6sgCS80pClJU2VE6UQSeunFqsaAKa5s2ltKcihVkfFX+IRjvGbOIrV5Q5PpNhGmOUeBSVVdEyZAiOo7FNQ6k8lcppAHsjv2CAUkEA9Xe5ROTRFpxjG5qjZjDkRmjEmTY+YMaZHvC0soxZjlRbvuh1x2LdC3XgfXU/KWSX/VBIWH+8L35+2lm1XDcmnDZxhSGFPjeXOjlplDIE/KV953yLcF/Vm0XrGqNzKr64c96hyBp2khpoJSiK5s+oykdiiSdeep/W4rNbSOiSDnvL8W2bHtFOQLyZtLHFeN0Y6tuPcEiNQ7HqW0q+fpkcKCWHvoQQtAGinY0d9Uk1FZQM0GyiNYHcvZCqF1Vq95l2XS/edyyHZNeuxFwyo1wVlb4Ql5UqU2tK3CsIRvuPnt/Pz1n74tR7lH86d3CXLnklxvk1ORgnMV+4tfrii/WGbXrPysaquEa9aQHEOAu6J08NODZ+ryetku90fHaqNaqDgGmbuC6a7d1drV03NNl3FcVxVR+t12uVd9c+p1aXJcLsiQ+8slS1LWokk/kNaGh0rM+5s0AFfvosDKltOPphM+D7dut/r1kMDgU8OVqxrjxm7i5cHFCo8K+Yo5O2jYNM5LS+VeJ8m8W4NuX5UkV6s2pS7PrVFu20K9Oi0+bD+TocJ6nT47nzEV6VOSpJadUenY0uLmxNjZaoLJiwLiaGee2mjHKBktds6yRSjejDfEwL7hG6IzUSeG1ufebvTxdRhcL05VguImycmOSYNCySKQJFbpspQMjvv2An+KJlWflDIvFybTMX5AxzgqzeAeNMZcRJOZr5o9+ZmyfiqjTruTb95XXJpkp+FHqVTqEm5G1U5ktCGxTozQaACXHMbqXrXDPLNLPP8A/NnmheEzykBnlRJMs0TFsRyb5Ooq7mfeWRFoWidS0It0TJAht5essAGB0nfCnrAgyOrIhXqABAME1aPrbUo6jthRP8Xb5+3WFML3xSZqRb7z/srKiTs7T7fl56K2pOPJQpQKWUEj7DyAeiivr0tYhCKy0lCXJHqOFKRpQAGgfvodFFEWklSvq7ld3lJP8PRkHtRQ9ABQkEa/ToorjYAB142fPnQPjoopUUajSJriCywt0kBLfpn7nQ1v3876zlkEaFjVlXewT51ICkcbc01WlprFIxletRpy2w8mbHoshbCk/wDGhSUfUP8AtDx7dc339D3amPcH+VIp+g1e3qguHWYkumSGnC0+zNYLbyDsApUk+ft7EdbwXCzbkU+mfzzWcls8Aya3Mf2Ru/rjVyY5BWCa5VHbTqGGG7keoSpaxSFz49XYYRMLBPaXQ2842F+/aoj8tc/3jNz0xWNb/HXfornRRSUvlam7Nut1B0tm2pzgGtkkRXdD+fRWUn+FUCYhQ1KLbj61utvqcS99Z01vsOij+9/Cr6fBHjfWscqxcmkmiMoxVZ/xk+RPITis9Z9R4oXJMk3tFqVBjSaBBo4yBSr1ZrapnfBXRfTUFuAN9pSnagCnZ9utPfUHJFHuzY2g1F/4W3NDnpyA5AXXi3ldh9qyrCGK6td9ErqcMzsbTaZWafIgLh00PLSmMWpLUiYlcdYBJSkoUddZvKXbcvarCMRptI5q/wCflhqKWi2HC/GWyhttZ9NQdTr+E+wO9hP2BA6ZjAwaVlAwfvqmbLfA3Eth0LnZmi7oE69r/wAr0SfdeOK7OkrotPw7McpT0NxTJYdK31Kd9DtdUAU+mPBPS4D79zHirwcLgVojZnqeSbVuK6MU3De1SrkClVFFNq0X5gogSnWe1YPt50rRAJ0T59/PWwIEZp9CdozTKwGfmXnAe1Xpp8JJICj+m+k6YPehbrKkH0968/wD3/x6KK6IR6Tv0nSfdfadKH26KK7Kf9JSw4kPRVEFTJ8LUfYEn9PboooQ02FpJL3oI/3jboP16PsgkdFFYpDReBCUASWxtKVDuQpPtv8AUn8+iigyG/U0gb8ApA3o+2tdFFXq/s/2HbMzzzkqOL71h22IE3Cd13KK5djDz0G326FATPlOFbZDgStPaj6TsBSted9LhGx2qr9qczM2IKJd3xSuMVj2fHpFIpubL9odIo0SRFkVFuniZU3aEpMhiTtbkd4LcW3ryhtSu0ggHrQxu3lzSgJEnfjNFHxm+Olu4p5jY5tKyfwuJTP7dz8bOIo82TNgx6hQqxEprriWnPLaFOOocbjjz2pQoqKuq+6SAkHvWtLf47fFy2eNV7YQxvb1Foceo2TQoNqXvJodUk1Wj1esx6dQnX5DDUn96hS1VI96QT++Q4CohIHR7vJFyTV070e/Fw4kW9gHiNxrpdIgUpmuHHtt3teKqPUpqYzLd1QZFRio+XkktR5IEdwKU0ClPcAB5HU4krTC/KsPK7iLSsa/CO4+5MTCV/bPLWK42b5LbFRmNIVRZ1Zbo3ZKiPaT6zRaD2mttlK21J1s9Gxyc1RpekcAd6PcW8KG4fwVJHI58sQ52UZV41Cmtx6jJps6p020n1M1N5xoH01BS2yE9ugQkA7IPVBCM8CqddflQDgHw/Na+FhnXkmIRYdl39PxXQ3IVfkUGvTp0Oj1GruNoiAei42qOfSWpw94CFa8E7uVccCmVZMA4pAfBl4uUrK2FObGX5rExpGKaZQLbo8yiV00WfTptyPy49PQygAiSjujdxZPb2lIIV46gq5q2UqhC+WnIdxXRSSllx1m6JyXEL/fSWnW3HWX0uOeBoqbJ8e+utqzpv3G0IJKQVJA04SP8CB+XRRXeP8Auk9p2rat7J7t/wBfz6KKM2kKL7KOxBDi095W0VlQ707QDvQ7gSPb7nrFlJlXFBIEbZrbW47Zdsi18bcYo2f+UVxYtxjZvw0bcufGOKXLyrlNoeSbpnVy4oaIjLNOksrakfuoyzKIWkBsJWAN9eijVujxXAnbEmMUa5Lz9me3sBZthWHyzv228fTeZ2Nbftq/V5lmVWDbVq16258yb81Uy+txiG7IQ0l5v7LZAOietYmnRNqDIrMiJ2y55qVbvJDDF+8lrXxJxz5S3pl+gUfHF+2vfDsG96w1RMkUqJjifJemSKTKkuNvr/E0yFJkjQUlto66wee5UkBPxplba1P9oZqjL4NkzIdqYw+IRfuG3KTEzLQeMdpUnG1defiQpdKl1S7I8F/0JEkek06tDhQXSpACVhRUPfrn20O4sW75pi8Lum1DirZ883Tdlk0izWIOZ6RlHJTWeaxZWWaRYVxUXMVTt+nswI7keNRobSZCnSxKLkZBbDiHJHs6U76YuIlKkClIIXjbeXP76aqw8k0evzrnmZDyLWrBorUu24NBqt30ugWZVk1KXMlImw2EPw2FukoDIWAFJbClbJ7elbeP8acklywGf86qq+MjclPuzJHGO8YkalwU3TxejVEGjQKdFXNQzctagxpMx+IyhmU64xEZR8wBtXZ5J301dx7bfI+YotHLMc1TOZDZUoCQ+r9d9c31ro1iXJQlWvnJDexsAAH/AD6KK7IlN9u1T5OgfB0NdFFfUSUrWe2ZJUT4T+7CyRo714+3UCcA7MVosRYbj2oSkuD6ky5GknRUhvykkb0fyOtHR0defbqVKkE0Dap5NZWZKUeBLeST5VprsKvGzs/4/wCHVuuvyqcIxz60ZIeSQUmUkaOl9raVHe9a1+fj26r1I28oFQ0DHk0fRJuu0pqTy1K0k+qjZ8efP/IdVLCFd2B+IzVOkV4Jpcwp5CGgaglQUTolruGxrY8j7bAP5ffoE4l/sgY+lV2rSjjvBfeoTEOpG0pSlrXasDZ2ftoeSPto9WBwM8fuowPSjx5cdxDSGBtz0kCR3bUPUUVJ1/Xxoff7dUZ8HtUFATQZCi0NKA2s6UT5SnXj3/wHUdT6UbABjGKULEFtylS5D1RLSG0hDMffauWv7oH5a6uCcZNW+lXT/CDXjTIkDKXH26vhaW1zXr86QLyo/JyBx3rnJav8aXajHhxIMK8bXhVKmfPW4+ukzXWGodThVNt2TUXIzNSOmEcbV7PwrcqBq9zcxXp/ZCK61KOGQKwDLJHpwkuIwGdQ13HbXKRloxNFtXJ7ekHxQZP/AGTHbm0TmQyQad1lLDKmKfUitvKWCEC1eSFnUSPFNGwLVEj4yWQrAyP8R3k/Kxngay+PVo2ffb9k0y0rSxFWsGVe50xnXp4um5rZqyGZUSuVIVVKZBMWGh2PT4LiY4KluvO6fbaNa2qxaE+637DE7zoCpKFId/lghj27FtogsULK+xcsxPK1CfWbi5MuvAicgEBkjRwhAKlzGWEzPkyCd3d5kdDu2BAK0EWzWqhGEmDRa1NZUrxIjUp+Wws//NIQR9x+vT21m4FIGdYRk80AlWXdmtuWxcSE9ux/5uzEkgb879L2Gj59vB6XN3bxHpuf303FDPL51U4pLyrQuJB2Lbr7gIKioUKWsJHjzv0/bz1s72e3aZBk1LrcZ2hDRM7blbbcSHKHWEE+Upco8pr7ePHZ53rpeK+s482xYbj2qDHMoyy8Un3oTkV1aJLDsZwKUoiQyqOUgHyfqA8fr1qLVkPHbvUdQFdp71kSnSRsD235H2+3WhHoarnIzWWmRxIlpYKe5PcCRr+IE6Pn+W99YlxGCDVl71vl/s2fwWsQZUxczza5QWdBvyk1iruUvDFgV6L61BW3FV2ya1PbP+8JXtlpsfT+72fyPBmjkmuVTPlNNFljUMg5rdUcwFhc243aKcU2JGtqOyGGKRFtiNEhNgADsCGwkkfoNb6cksB6CoN25+Js5rWX+NN8EHEOQsYXNmrBloU63bwtqmqnqp9LipYdJQha3EjSf3rX0j+LakqCQCdnpGS1eHLoTWnvHX8klVX/ALJlTplH5x50pspsIcp+AXoslBV+8C26xDSdjxo7SdjXVLZAJ8nnisJuOBXoT9eprCudFFM/nxdbRhHMiraRJcuNOLK+aA3DUlElyd+FyflA2SQAou+mASdDez46MEnArJ/X7q0n+PvOKyOEWBqRZPL3PNm3nyMrF9zqlcFFt28kXvWMc0pEGGG6TWpEUKjIlB9bg9NlSkhSSCrex0xHbhzmSky0g4jGTUjMb/FEwZl+VNuLG1Kr2QJNBUTUa1blvLqNRop9NZbId9LuaWG2ztSSkhCffx1DpZocSMBUdScn4T+6j1PxNbCqjTsdFHveoqCv3qHT8yAUnylAJUpSk7SPP1EnXSLXunrN00lGa3CSumWHrTd3p8VjjnYlclW/fEyr2lXYCkmTRq6tFNq8BZSlQQ80sBaVHydLAOiOurD503LSMw25BFRr5LfFb4+Zf4/5UxTju5FT8h3tab1q2dEeeaa9aoz1tswnC6PJ7H3E+P1HRJ085BrRB0lBk4GK0neQNlZHsrM+U7Ry0xDbyLY16y7SvhEKS3Vqe3U4A+XloaeRsOoKiVJVs6O+kZHO7y9qchxIoK00MeI2uSgIdd+lvyPPd7bHjopmj9iIyllwyPmHGtENpYUEPlz+6NH7e++iisC2EsrIQ+453I7lhbaVrbO/7xHRRQNTKlkrUF/SgpT+7KR5O+iiurQcacQpxvcZ0em+P76tfb+njoorM4lKEpUpwgIV2xnhvsAPkoX/AC9tdFFdJkkvFLQjojlpPatSNHf8/wCf59FFO7gLkTmXjLfrWT8H3rKx9fUegzbXVcNNablyVU6qNBmbEdZe224HEoSk/kCetQU7CquCRxSmv/l5yHyPkq08yXRkWtyMmWIWlWZdtJaYoVUt1UR4yIzsVTSO1LrTqluIP5gdSSF8y96V2v1ORRHlPk9njNd0US88t5Qu7JF02/UPxelV66paZ9VhylvCQqQl4Bs+uVNMOLeUlRK2wN9HXkrYg98UJzTy15F8hlUpzOWWLzyxKo7hdpk+96kKhVGCrSVL9YBK0KICT2rUofQnxsdQJC3D1ZMg80cZT5nckM3WfRLByxlq678tK24cGk0mnV15E35KLTWhHhNglIK0Np+jsKtdqj+Q6nyfStKVN+c8uUeUsFWNx3yBlGdcmMca20izLLotQokR+p0aiNyDJao6JwQHPl2XexTbZJ7dqGzvweTGazeIORzStoHPnmFN49Wzw3pGSZ1Yw1BqFTjWhjpq22qzV6aquOh6oQ6c/wBi5YRLd9Ra4zWwtb6jraupUK/CDNVa3VfiNSYxLl/4qWA+O1d4q2bijLlKwvX71kXvNtG4cBrqlUYrEimO0eS9HqL8cSI6vl33B2oIUAr28HrToOOdnFU6ijjNEHGnKnxNeIOOMnYvw/iXJtu2HmibS6jfUSu4PfuT8cdpIlLgLZkvNn0ez5t3RH3UNeeqmFiDlf5VIlx61BrI2B+RFl0iXkTKGGso2bbdZri47l43bYFRt+25s6Qor9NEl1sM+o6X06SFlRJGgTvrERyHsK060fYGmJeShRAQ4n+Ep2Ve3n/v79UOQdpHNadxmgnYppC0JWkRlDz50UnWyr+fRRQ+El1CY6isrZdSflHkEKcUrwCewkJIAKtb0Qrt17nqyAdRSazmJEZ2963G+MubpFgcP+ElkJtW8cq1iu8f4FZZqVRuqn0S37HiVG7qrQqbQI7KqHJWpDRiOyexySjfqr+w2fQxlOnknmvNSrMZQMU8V2Z3yRbeW5eBEWS09NqN3wqMqmQ8gU+m27UZj2mErlM/gi2lvISVAOLbJT40Ve/XnrzxIlhqBsk5xivUWXhp77TRfsMA/PvxTuWfWr4nXVHtO67PqFg0a7cjTuONTv7GWRaSu7qM5VaJUn1y47SreZLjC0sqYdbQsKKSfPkdeis9SjuV3uleYvtP92fakgz+P8K1s/g/XJdND5Y3thy263ZtFx5lPGlyUbLAv/E1PzNR6xQ7RjTq/FbRQZC0trfU5SwlJ39RdToew6VhCpMx9M101EqxBm9Rn99bJeDLGhZOu21qrihWF7Hq6h/ai1Lxuj4b9oY/mREJZblw5Ef0Zvq+FF3sePhJbUB9WwJumiOdp4rzc15de+pEFOM9/pSxznxbq+Kbej3pXl8V74E+pqTUmbG4HW1cN51BxwpdU+1DeltLluqW8SpKCSE9x340V7ZkY5U5rtOWJ5HNa6PxebboORLCwDyhtbJKLltX8duDiizYi+PcTju3jp6yw3NXGj0WO+8gsFya+e7fhZV489N6io91BHzrTTyeuQfUVQ26xHUGktudxOk6QntB/Qn2H/s64NdugiIrS1FIcSVdx2D9R/xGx4/n9x0VOCRkVkS2wz/EhDqt/wAJP0HoqDx3pd43hUut35Y9EqNPjSKbVrsgUyoRS6poqZlS2UOp9RPlHcnuSPzK+rR26yPurKWd412+lbjPL21fgh8d+VsDgplzhTKtNN30GhNN5/sevIpcm0HLhdcj0+U+oq9YHbQMiQ2SEAHbet9deK2hVcE81xZrudmyoJFM9xQ+DNwZtDl/mjB/JjNEDJ182jXK3Axtx0i+pbdwVSgR6d85AuuuyGu4vpW1KDwailKPUhkueR2JyawUZY9qpDfTBsHP41qqZCplItq+7ztylKYnUy37uqVFpsttR9CQzEmvNshr7q+kBXqK8nfSs0EcUZZe9d6C4kcZHarQ/gw8YMNcu+Z9HxfnSy6temM2Ma3FdldodEueTa0uQ9AiMLibmsLS6keo4UhIP1qUkfyLKBbnaX9axurl0yBVzmG+GHwsuY2Q7046Y64P81eNl5pt+sybSz5fNyVmoY9hP0oiMVz40v8AcoZkPLQttD424Gzrfdvrstpca4KGuT+sCGKueajP8KrBfBTljctuccL24S5UyDk60malOzLyBovIadQ7FpsGLLeZiVU0ZlgAeotLbfotrUXdnWtEdZe5LuxkZrb3yVBuZTilsvi78MCLy/5ev3tGv/F3G3iDjeFMj4Wqt4v03J+bK+S2zPNGdnhqY3HUqQn0AyfrS2Fd4S4eoexQEZqi3ryrvUcUyPKXjvwwyF8P+m88+J+MctYARQczRcM3PjbI93v3/SLlExx4N1Cm1R8BRShKGQ4lpKUtuKUghXb3HJbSHdtJ5q4vZCSAKpQcltuIXtlfhX8RcAUdE++h7/y65UqhZWCj1rrRktGCauc4c2i3yb+HreXFWHk3M/G+fbHNKVyE/wBJtL455UzPx/zrHn2LQrcNo16pWLS5k6HVbbcpyapEZm9zK27nJQELWN4Q69FoV2W0jWbKz1CUKJUub6HTZHgXe0TR3sjY2JIXDW7bAzOjpvZG29ay0CXXRs1DTLq4sY8mOS3tzeIkx2rKr2vlw7RlGSZC5Cq6uEVgxZr4s+QaTefIjDNtRIeY6qvAPC/GvHKp5uzxjCuYcybypmWuK/8AM5JkUCsxmqw1FnKqYpUNdT9aU5HtdBce2n02iPUrTWS+rW99DeTzENcS2zB4muNqh1EoA6zIgiR5mVWlcFsMm2R1r3Tb3Sn/AFfPZzWsKZEEU4CyrAGO0sgJSPc/VZYkZlRSPNkkC1v4b9LV/wCDzwVVFMXc9ZdDyjlqvXrTrIuGNZdWmS4SKb+EpkVMsuuPx/VdP7oKTrwPA8dNp9kGdzgYrhhRJcrE/appW7GarlxY+nR4120aBW22Jb9n1y43Kq+C9HL/AKfzTw1sh1JHgAhQO/t1+UPaN45utJ1JlgJ744zX6h8D+C9Pv9NErkcj1p6JFAhCoxkO2fTmzUoSXm23mTMfYJYc72XXBptS0BCCez27gT79fNY/a1rst1DGN1elHs90cyscrQ6Zadju0Sv1V60KJJRRG3fU+VgsR5LpjRkvOoQ6e7scCULCfB2SenLH2k61ceJY7dwcEj5/M/WvM+JfBthawZgA7VrsfGdpdsUvG0KHaVQ/HLXrF9WvfttPyKdCbqdCbqtLuFt6GmY22ha0triM9zTp9MqaJ1vXX7s0WUXWkQzScMR/hX5s1iF7bVJIF7D8mtcUa14TpJ8gdpT7/oSf+Z/n1lc5RsLV4uRk0Z0JYRNZQkhJUrtTs6AKvA2djQ/Xrm3Rcgbe9aKQDzXrx/AUyDaF/fCs4pSrQejhm2rbn2rXYjLiQ5DqEepS1uJcSPIUUuNr0fJCgfPUWqHjf3z/AJVqxUDGfSrlEuAgEFJA8+CCP8f06fdsffS4VaZDkpOoFMwPlqrXJKiQ6FTLDqFSnypbyY8dgR2VOglZ8J8p159yesdjTEgitotqsCa0i/2Yut0ivfEr5TV6ix0oo9YxTW59LUwnbDcZ65WnmB3DwSULI/8AnT1zFVVuMffVpWUng1v1ddysa50UVHblq89H4v8AI6THkPQ5EXBV2SI8thwsvxVooc1SXEqHkFJGxr8utYiQ3FZv6/dXi/37c82aoNSH1ONpIU8YzAZcqa1Ha5L5UolTiiruKye5W/I89TdTNCo2jvWUGRmrFfhpfENxFwvtvKFHybZl4XVNvapQpcE21FhPxFNR2JLTiJCJDif4vUQCB7p3565ksHX9KZOaldQ/iucMI9WFXreJ8kT5UOauo0haKNEgxKO8pQVGUGmpf1/LKIWkb0oIIKfscItCj6wnx/jVxIwTaKiJnjkj8PblrlK88o5uqHL+yKhWKy27RaLh61LKnUR1lENDcifNdqji5SpT76HVegFFtCHU6OxoeijIVOmp5FITAt6ZFISyqh8JO0b4s+827++IlKk2hc9OudiHNsTHZiznoEliahK/SWkltS2QgpPnQB6npxE5arXUJliC1CPlrmKmcg+SWec225SahQaBlbKNavil0Selpuo0yNOmKcjMOrQSgqCdKJB+/wDLqrxxBSRV7JFhjx86jkVPMvo9NbpeW37FYBPjR2r26SFb0ZR/mAlLjzjoShfeoKIcQPtsa+/nooo1kOrd+Wjr7FfKR/RJbaKS8Sru7z/TQ/p0UUGS2guKSdgdiirae38/YdFFAFBIaOyQS+opOtHXjoooISppThQAptaf3jahtK9exH8v+nRRQVohCkqUwt1Svoc2seR+f6/+zoorApKtuK7Ve/cD27Pv1GBRWJZWG0JWnSVObIKtbGvf/PqaKwIcTsFIUkj7leyOiivilK2Crxs+DvR3/L+X36KK6dxTrtB9vceOowD3ors2FqUpQKk+Na/PrRQAhqjfEKl7wVivSOZXFKM2Ap9/kLaKWnCsNpT3VhgBHd3JOkpSpSkjZII8dWsOJD86rdDyj8+lbOWW8gYew7bmZKXk3MVMv7IGS7zuS4o1nUKdWbkq9pIYviW89SrleSn5dieY6HCj1ShxLZ9LvKSCOnLa3bZZTxXLXkCo/VjM+NrLvnBtRqdDuDFdNqWOrtu+dVqjOlejkSn1qnSYdt1iNFjS5DTTQeSWwVNpW0pA7+0EaRaC+Q5Pb7jU9qZrk1eVu3Xwn54QMf3s9cuMaHfnHNdrQ4tyzKpQ6VNmN3MawyWH3FIamB2O38wplKVOdrZVrQ6dizt+uKof2g+6tdlxC0rKStPf3Ea7QfuffrlXOesMV3IiejmuoBQpCnfSX2q70hbfqAkHej/P2/r1WorICtUlyZHUI7rhDymG2koYSQT2t77SdeT/AA6J31AIEik/Og8xkVsA4v524Gj8ceNWPJua884Tu7D2EomKLni2Rg6i5Go1xvU65qrcNOq9PmS5rRacP4iGiQCr9yPGwB12SAIjXHYkzHNAYXLLjwnIzGUKrzN5UzrwhVtu4F1NfF6hmVIktIDiXpAVP0n6lo2T4BJPjrzc2iJPfG9b1ruDxDNb2w09eV/zqR2O/iU8dbTvC3rxu3kxyEyjSLXyM/l8WfJ4y0m3qldNfagTIUFDlYbqSvQZC542lDR8DfsB16S3QRoEXtXCmTrtmQ1Wh8MHJ2Nsfc46LdeR7ot6x7MrFtX1b0y4bxqr9DotFNaolUTETJqLDa3WVvOvJaS4EqDalhQ9uueLh2maMjsafmGIVXPYVsBXjzluh7IK7mxnzS+FRjekUujRbTsi1HLmuW5VW3SKdEQhmI/JcpifmpJ0pT0paO9x2Q+4RspA6K26PGS9ecXd7wv30bZf+IFMyVR6DQqfzU+F7QKZGiU+qvv3DkW7KpWIFUitIM1Md+PTm0tRXpTKX0LWhK0BAQraFEEhghhYEYFdiYHJCjmqW/iRZKx3UOM+EcUwORGGOSOT6pyXyRyGyJduE65Kr1uUNFxx6fGgxH1SGGFtyF+k6FJ7CkoaQrf3NtQfNttHPNZ2AxdEH5GqRPl44ASFpUSQ52OghHeCe1Sj+h86+/XDrsDkV0qNWkyodMpzkhmQxR47kWAlqO0y5GS66XnUrWhCe/a/KSrZAAG9dTWqdjRW1FAbHcolZJUSQTvZ9uitKcjE7bbeSbBUHENdt6UZ1alDtISKlG7lE/kNpP6DfWdpPJ70Yx2rkX7yYKgcVudfEu+EJyL5n/ElpWbaO7j2l8cnLftSBel+VXIdKgyafCo8haqkiPFUoLV6ralKbdSCPPv79ejESuAzVyonlBKgd6abBucbM5A/tHWRr7xzVKPcFq0rG1z2tSK/Dnofo1UVSLaeiTHITxUEOsrcbLaVJJ7htSdjXV5ZkcEVaW3ZSC9amWXaixWsrZIq4ZYpoqWQqzLYhN9rceKhc993s19+1JI0Dv211yLldwJFdmyIVMirqP2dR2bH+INDjU4U99+Zgy8ytgrImvpZgR30Bj6gkr/dpJCj29nfsHXUWL7Dg0XaiRc1bpxf538jPic8c+WvEM5cjWPzZpkaqXZiOp2qYdlsZUo1PedizbeaT6ZZ9dnvDXejtWGJCV93juHc3yTqEjOD+ea8/JHHDIJJRxVf2PPhO/EWxdTcT5u4B5Dl5Gt/MeNKdX7ivbFl6UuxJ1mz3VpfnW1WYkqVpwQSVhTnYslTboV2rGyqtjd79+a6jXtqYNgFWV8vfh5Vv4jnPrHVtMV+mGm4IwLbVC5i5StaSxVJTdac9V5mjQ3khxL1ZkMIUQdlMdClklJIA6Cx5X7bk1xTdGNCLf4T/CoZfGExTzCg44tiwLM4i35gb4efGN5qm2lVI70GqQ69PmlbCLjrrrEh1bSn3i58uVAhJkuKcCFKSOlJY4lGaesA0hBNa3ohem4rtW0ponekKAQPy7fPsPP5+3v1wJMmVgfnXoAMDFbBfwjMC525O4elYXwfyI+JPw0rMXkTVbql5941s5JuXiJlSnv29bgrNk1aNQJ8Sm0W+6exAYnUypVB1uJUmawzBmuBaKYel28T3uh3AtdJ1W0infBe3uoUc9PzkXNsehPLPIux0lshtaYCE2xDlwWE0PSdYh6ms6P7xGp4mie36mduDBMk7pshYlDHdKJFhdpOuhjB2wU+KTW7juPk3bbFaxlznxaqzcG0CxqDL+JHe1y3hy0yxAi1i55CL1rbdZUoUtiovzZsZikUlSqZGNHfUyfWeljpiHUrPU8zWmqnUWUlZJhFHBF1QdzpbwxohS3TeBH1QZ2B3SsWOBn+rn0yV4hp8FlG3mSOB1kymAivLKjMJJm2nqMMKuFiQBI1q/j4N9y2TjjgLi+tZbsXK914turIOWrKmv4rsmrZFfpE55NFep3zsKBGfkJakKjuBTvp9uh7jpua2e7hMKdzXGuJkt7hZpOwz/OlKjL9p2rHt+Wu3s7XI3ZocEhh/jze1MnVKO2txuO2wh6lISotspZT2KO/A+4PX5r8c+yy91W+MoHcmv0J4P8AaJaafYCHPpSQk84cVLbbZZwvzFherHejLbZ48XA0EokJCXO0+irXkD6gn2314EexbVlnieAHC/LAH8RXaX2m2azMQe/3U86eS2PV2jXYVPouR47teo8h0x65iW7ob1OekxPliH0tU36nUgAnfjz7n36e072M6+mtR3hzx/nXA132kWlxFtz/ACqjH4okeFWOMyrgoNEuBi3beyXY9kwqnXbSqVrGVJFHvKVKaaRMYaUspWplRCd6S4k/fr9b6TZTafYJaXHxKP8ACvimpXiaheNdJ2Na7rqx3HwrYUUkH32Do/59Xk71CHNBWu9tYWlxSVHxtJ2U/qP5e/npfYT61etiv4J/xvL8+GleE2z7sp9UyFx1vSoJk3jYcJ0JnUWSAlsVOkKWQlDwGipG+1Xn3OtAUg5oreStH9o0+Epc1pNXRL5FyrVmGEJ0i0bgx5XE3GwrQU4w2hiKtpaknY2F6Pbs9a0Vre/Gh/aO7Z5R4xq/GThrAuWk41uZamb/AMqXLD/BLgu6O13elCpsLuJZjOKUlS1vBKz6SRoAnraH+2fXH+dFJv8AZJq8BzWzFS1ofceq2DXlIdbZBQ36NQbcUpax4G+/Q2Rvt689J/8AFjbR2OK9ELrt0VzooqLvNh5yNw+5UyW1BC2uOl5uIUTrRFvzj1eM+YVm/r91eLpdoSp5gp+pCmgF9vk+NgnX9B0xMEI89Y2+STTVVELClEJTpTg9MqRtQH36SYbfgpqgTMdx9QZisvPOLbKwyykPOlKUdzjnpp2QlO0gn7FXQZXMZj9azkyAWJ4rE7DkJaS4hCvSW76DclTCgw4tSu1KO/WgtXulCtKPtru8dTbrIrjfS8c0bnGaCJKluD1CodgH8J7u3X5ef69UkM4kYr2pzynvXVJcLDiA4soLg0VDSvf2PVQZifN2o4HAoalKG32m+wOFTPd58+Pto9bUUZJCUxXPrKAVBHaPPud/9P8APoooQ73JfDgWoBYSv60gdFFYVlRecClE/uyR40Bsb6KKKH/DCV7B/fKGgfP/AH8f59FFYHP4u322je+iigoVpIcI8ewAPn8uiiu3aogfvNn8tDoorjMdl9bfzalNNK2QtKe7t0db19/5fp0UUOmUViLEps12bHdcqMUyPlmFpL7CQ442EvJ921EtE9q9HWj9x0UUUKgR3X1sCSz9Ce9LpWfRV47tA6349v59FFF4SdJ0lSQoBSAsdqlAgEK1+Xnoorsg6JH5/wCXVgfKVqpGSDT+8eaVf1czPjin4oVWIuSnrhZesubbctql1+LUIijKjOxJbp9NtxlTJWVHwQCNnqbVhE+56rMhlUBe4rZSvZHPChZNx7b9w89M+VzHl1V2DU8q3RbloW7XqxbjcuKpydLQkQwX321rCAye7uSpSyr79dY6o/Ze1c8RMg2MKL8t1HkfSotr1HFHxFOSuS7hVkBq0Z5ujC1Go7Ft2mG3HTVY/qxXHD6TiiDDQW0+N+no76Xk1CdsgHipEeeKgt8Ri+OYDGLBY978k6rmjANar9Luu4GYlh2/akRFYQ463SjWFU+O08ZKXAv0w8VpHcv289Ujuo1BDd6ubSQsGBqkspQvsdQral7CUk67f6fl/M9JzESSbx2roJ5U2V3U2SPI9vPv1WrbGodCbSh1l4gJSlwIWpQVpIOiPP8ACPqCRtQPuddWWMuysD2NBBCkmt3TglQ/n+DVgyqfSsSw28TcEMbZKaFZs222KpKl3Pe94U6pVOTMkxfUlu+jTYbaT3HsS35I+/WXzJs9TXEkdUuDmoach8lX7aGbeQWO6ZnKg2hTrBrko2PEgYSs+fDVB1DNNU3UXqd2ueuJb6/3bitmKde2usH3r9mO9Oxw20g6zHzVObC02yqzdkSBT79t7IDlcxC6i4cZ3HRaHVqdJMjHTtQqUxoCnh5DkeoKUttexr0VDY7QOr2okX9rzSl5CzHFuwrWp+EtK+U5o2ZLhWrbN4VOjY4vau0qlXLSYlethmfDtGqPsSJEWUlTLyIzzSJP1JUe5pICeqMqByy9zTkg+wX51uKYMoGOabeyaBnmr8cckNxLdoi6tc07H1gUaypdYqtKYnSaUxTGYEd8oYDyG1yHVKUXAU9wPWUry7CqA5xXnipWdWPYGlpyExviR62odRtbHHF7HlaZlog3tX6Zia1ZzlhNPNMOQ5r0ebEDUoLaKnUxn0oQ4g6StSgneNml1nMh/jXTlkDkhfXitSL4l+UJ2XuOfHK9Los/DtIvmn8iMxYun3TifGFFxQ1clGtWZT4VGXKp1PZbac7kKW6HiVE+sQPABL14GS0DOOc/9q1s4iLrI+X8xVJTi/UQ4UuaWltPalCO9K/z+/XH3jJ++usEOBQVmKv+MpTtQ+rQ7Tvf3HV0O5S1XVSuc0NK2m9Bz6fHjZ99dTV6wvuKZWw+6shpDqTHYbJDijrXcHEkKQfuPPuBrqYQkchkbvWU0SSptI5p1ZOfc5VGmqo0/LOUKlSHY4hvU6bkGszYLyAO0NrYMn0UhKdgAp10690CMCl4rVU9Kb627ouq06uxcNr1CsWxWIzbseNWqHVJNFqsJC0KQ8lt5kpWEuJUe4H3Kj1kk4By1UuIergiib1HHnu9yH9fo6cecdK1LV9QKnCoklagdlfueoklVl2irwxlF20s7Mve7rErUa5LNq1wWhcMRp1mNWrarMih1aMh1pTS0olMqSsJcSS2ob0pLh2PbrFWK9q1eIsNpFKizb/vSyLhh3ZZNXuG1LohuOSIVy2pcE6g1xlTyHEOdstp0OJStClNrO/3gWd+QnVnvLiEhoT99YNaRSjEw+6ncx/yTztjakVag2DlvKdjUSsoMerUS28g1SjUmrFYUSXYzb4SpagtYUQASD5JOz0ydYudmB3rP9XWhP0pS2NyazjjNyrycc5YyNYzldcbeuR+0L0qVAdup5rZbenuNP8Ac86ErU0l5zuUlGxs7HVIr+eRCZTzWrWFt0yI15pSXVyv5FZEt6pWjfWbsu3Ra1eAZrVt3HkSp1Wg1JAdQ60p6ItwtOempIWhKh9JaT1D3Lt2rKGz6TZWmSTCeeYMoQClkvejsy+8pJ3r2/kP6npbnuabIxwaebHmfORmH7eqls4mztyAxRaMqsOVmtWzi3N91Y5tmZUH2Y8Z6Y/TqZPYjuSHWYsVlchaFOKbjNIKilCAOvp2v65pMRg0y6aJCckKEwScZJ3KxycD6cdu+ePqHh/QtWnW51OyimkUAK0kauwAJbaCwzjcScemeKSGQMrZFyzcLV15ZyFknK93RKSxQmbiyjflayRdUanxXH3I8JqoVORIkJisuSpLjccOBpCpLxSgFxZK97qmoapP71qcpkkxjJ28AEkDyqo7ljk5JJ5PAprTdN07SIDa6ZbpFGSThFCAkgDJCgDPH8uaNLSz5mTH9GFuWDmHK1kW8Jj0/wDCbPyNWbXoqX3QA498rGkNIK19iNnY8g+/WD3TomYOGolsknlzN8NCJ3Kjkyw+lwciM5urKtsq/wBNVzJQ4P75CjOA3+fk+R7daLeF1+2Az91NxwwxqEXOKLpvLrlK20qSxyX5BocSpTZbbzZci3lj7IQTM+kDyTrY19+qy37RpthUZP0o6UOSR6/fRTK5dcnVxY7iOR3IQPJARNfOaLjcStZV4IUJgCho6J/Tx0R6pcJGQVG6lpLGOVsmm4yHyGzxk624lmZIzJkrIlr0qpOVum29e191C6qPHmFosCQ2xJdcCHlIUpv1v4kpUddVjvJJk3XHxULbdMhU7Uyrn8IICu1I8BR2oD8t/fXsP011ixBPFNKMCsBdQAD3D6yUI0e7ax5KD+RA86Ov59SHwO1WoZBkBl6O+QpaA8lbraHCyXUpJ7gFDyD0F8jtRSlTWfUkvONpfjRvWK2WxJ9chIAABUoE+SD1SijhEsy1JWh71FFQ39PYpA2Brftr8+tI3CBs+tFbav7JVKdjfEAveMh391LwDVVyGu8juLUyMpOx99bPXCZCbnePrRXo/ddmiudFFRP53f8A7FfLX6gjXGy9l9xOgNW9PPV4/jFZSev3V4w12FCZRSjtSUN6WCvZSkAeQfv1tP2FZ2/DH7qaqoNPAIceQ4lEhJcjgslLkhKToqSnfkb0PceT+XS1M1sYfCpoGV7D+HtzB5IcXsFw8u8r6NmC3ce2G/ExS3mi6aFRJMJmVVm2KIWXSU9ygpxxTZBQvzsADrp2kCyRbz3rlX7MOFq9+oW3mW6uSmBOPNy8IrIp/D3P3FOVkDlHIZ42Ip1t0a/azbX4pU2pVwGIBT6i3Um/QTH22ptSyVfUhJHVjtYzgYrhQySGTHrn/P8ADA+vNefxdsCJTLuuaDEaMSDBr06DDiqB7mGmZTzTSDsnyEoSPcnQ/U9eduFCzsB869bF+yQ/SkuC36LmkkKK9JPb+R6xrWhyQQ+hXjYb0d+46KKGNlKmFAo7leqnXkAb/r0UVkWHHHACfCEDtRruCvOvf7dFFd0n1n3mgCkoj9yio+T+XRRRLJjqZituKX3oL6jrt7Qn26KKDPOAvfSnQ9IAf0A6KKBFR9FKdJ7lq0lJX2ked76KKxl1aCtKwkFJ0PuVfy6KKFRZMZISmc2t1CUqQUdpQr6/HcPPunfcB+aR0UUauvWkLVhusPVx67nK08ioJeZQLeRAQ00I62H/AA47K7gsOpdGkoCdHfRRQSBLttmqIkyKRIn0pppYNPbleita1t6/3nbr+I93+Xv56KKTmkpcUttpTTYSltpCt/wJGk+T7nQHnQ6KK7bKdK8Hfnooqyz4VdJo9Q5lYwqVbqVJpMS2nZNwuuVh5uLAmtMsOIdbU86QhJbbddc/LQ3voorYAy9kyBHyfeaKHQrrn0qo3RLftRddps2C8ukaIjIjIiyHIyGXAlotuMk7LSEBXYs6XZZS3FW3RDuaj0q+rhlSpKIN05IW8v0ixDk2vWZUxMhSlFxKOxB+lQSNJBKxrXUBZgRu7UFoiMD1qIPxCq9UrlwAai/HrSFUiq0ig1SqXDS3Lfm1Zb9QL8Nplp7tdfS0ltwqcUjQ7vf6j0zVapBcC2z9YQhRSFISgdpP29+ipXuK+72kk+NjorehUVXappYdDCkOJLboV6Z7joAb0ffz48b31dH21JXMbH1qyu1PiR5RoOMsc4orWIOL+Q6LiWw2cV2vNydhuJcFdRRmJ0qYzAmzi+n10NvTJSkJXtKVO+wJPT8Um4V5yaH7bj5/n8ilvH+JzWm7HruOJnEXhNXrLrkqLWa/QhYdbokOTKgOKTCkqMKoD0HGvV7AGFI2Fne/vr1FByTQ1jJNJ1A3lrvjD4l4w1Xpl54u4H8J7WvVduVK2kZCoFv3UKzbaKvCdhS3Y0k1JTHrpakrUPU2ASD2nyemo5oh3ppNOUnzsf8ArUQ+InJar8TM4ULONEtO0L8dotFrlsSrXvd+XDtm54VepEqm1Bt6RHUiR9bLz5StlQABCtnXXKjkPUYkev8AKmTj4PlUxF85OF9XhtLuP4YeDpz78ItSjCzZdbaStKiS5HdfcccQhrsbX9ZUVOEEHXjrrK9p0svSL2rEFlPmo4uv4inEW7ay7Xbu4ELuWpP0uBRqrOuDm3e7smoU+msIiU+nqWAkLQwhACC53EBIA9h0qbiEH7ICqRW5QDqCol8tuWuMs82RiHGGGePFvce7KxRW7kuJdMoeTalk5256lc7sVyoy3pk4CQlKRGbSjewraiOkryXqQ7DyM107cx78KOcVB5mF2djpPkDwnt7Ts+/nrmYxxTo7cVnU4ASt0JAJ0VA6Ox+nWsfwmo9aDOBbqfUU2hLfuhKvKgPzPnq9TQdDjhceWhLLoWjtPcgrUlWtDs14H9SOl3k8+PlRU2uL/G62Mz2bdV1XRdVUo02jXJDo9ModHUypNR9Vhbi1SQF957SggISkq2QfbqDN8jRTz2zwXsqvZgvaw5F83HT6dbNm0+5YC3KTHkVCoSZz0ltUUlKighhMcOrWCraVFIRsb6jr/Wl+1DpHAexoOULTsSoZVrsGk3Lj2q3su4JFsRnfRfpstUQMsNlwd6VrAT3ulkJJ12k66BOCcA1K9xX1fA61BkfEto0rK9VdpWQHKx+MVqpWxGjyKIikU56et0sh9SXgsMOo0Fo12g70ep631restycH7bojWMkUvNE2ezkXKcTHDSZNmR4ztKZkAOJqCG0yVF8BSgkNJ7SSP4x0bt/eqP2zSgy1wZiYqsxN5IyeqqyFZGjY7epLtuR6ZIiuyagzCXKUEynSED1SUkpHd5G06J6msqMsn8JaJYNs3fdlDylIqka16c3UIcaqWZ+DolgvtMPNFxMtwAgOeokJSoqGvA6gPs8oNap2ofV+DkSiQa9MdyYp+VRbZRcS4blrrQVOGIxJVFA9fuSe54pCu1W9b7ft0CbNXoFTuGtNlUOgT1ZDcivV2z4t3TWjbqVx6U7IhmYIoT6m3CkEJUs9pQVDaOgzgetAiJ5xRtZvDWzrnse0rumZecpEi8GWpSqVGtpFSVD9VTqUesUSx3dvpdyiACEqP38dR1x2zR0iO4/jSMsHifT78oUyrLv5mlSot31C2Q0/RVTgW4DzTKn1rDyR+8Lv0t68dp8no94HzpehVqcSbbrqMhKl5AdjKtK6HLQpEqFQmCh2UywHHHpCC/tttO9Fv6iru8EdR7wD61aNd7YompPDhqp3Fkq3Hb6QuFYi6K2t6n0sQ3Kq5Wae5PaUA64QygBJB99kj9ep64xnNbdE4zj+NFFvcKY1VvW9rNql51N1u3sYw8gRJdEoLS5qjOmmGzGeS872pQgpWVOoUru+6R7mQ4kGazkTYcUCf4W2fDuS36HUMgVZFKq1kzbjUpFvMyp9OkxFKbMdloOpStpxQSEr7thXf4Pjqazpjc+8caRiGxrRu6l3fV65MuWvyKDNodToiKQmAWW1OtOBQWe5K2wgnQGiT5Pv1qnaiohKWjs0nSElO0p+rx/L9Or5orFJlIfjNMIisxVx4fy61sN6VUdrJ7n/APiWkexH2HRRWFBKVISFJIC9FQCvOvY6/p/l0UUZMKAKj9J19jsD/v8Az6KKPKa44HEBIT2rWAoJWAQAd/8AMD/HqD2NFbbv7JdIc/8ACI3ElLZKZeAa4h4lPcGe2RGWkb/UpPXMbIm2r9aK9JjrqUVzooqI/PpJVwh5dgEgnjTeydj3G7eneerx/GKzf1+6vGduOJGqTr1LCm4NWjtlMJx0FLFSACSppSvssj+Eb89bT9hWUHc01aZIabXSaw285TVKI71ntk0twf30A/V2j3Un2Pb46WpmruuCFkz8RcCOY3MWr8kOQWMaDZtXhY6x1YGBLrk2jT70vKpRG3aJXK5IQFB2K22paTHCVLSiO4VnXakdGzY7NoPrXIv52WTp7fSrc7HxtAq8TCfD+8+e/O881eSHFhHJeiZQpeUpaMI0D8QoLdzQqJOpC9ok+pCDhcc7wv8AckBSVKSnrtnMaHHeuJ1dhJxWmJdFPmUy5K1AqD7kiZBqcqFLfcV3uSHmn3EOuKJJJK1Aq2dnyfPXlpiDMx+tetgO6FWPciiBCV+ksE6BcAIAGz59uqVrRgUBLo0fZHRRQqIkBtSXAQrf0jxo9FFCmFrW4tICUkp0FJGj/n0UV8bS58yta1AqVFX3KHjeiQOiiiyYpK4bSNq/3xOv7p6KKLJDC0PIT9I7mvPnwPH26KKLlpHpoUpAKw7oKGwOiisKyR6x13kjx3f3f8Oiig6gewEpGz7q2dj9R+o9x+o6KKy/T6KG0aSEqUonsC3FklR2tZ8k/UBsjfjoooP9tew99D26KK+kk+5JH5E7HRRXYDuGt61+nRRSus6661ZtwUq5LemP0+tUea3UYUloj0lLbUCWnkHaXGnO0BbahpSSQeiipcWHz0zrZWXbBzM7Dx3eFx46vZF+Uah3nYcSr2jMltpWhuPMhAgPQm+7YiKPpkhP5db+8sq7Qv8AGsukpbcaX12fEk5FXddUG+JMfFVLuqnZfbzjBn03GcCLT4lfSythS0QNej8sULGopBbBQCBvqTdORgrUdFRyKihmDN2Q83VR6u5Bn0+pVh2qP1JypsU1FPPc+RttKE6bQ2kDSEJSAAffZPS9bU16R67Yc9f1ChIClHylOvH57+3RUgkdqypbcO0hST4J0B5PRU72oyYjL7m2jsMOpDqvWaJS8D9PaN+D5UCCPPjrNy/GwVojnpsGreU+FFhu1Lm+FlQ74j0XF8K6bDsy6L2fl3BalAkVmsR03LOiy57jsxpbz/yrTMdvtQR2+sjyCobet4yQCa4kzsZcgfnNV2cgMpXraOYs8UWkZNpFmRbDkIds6kQsNWlVaeYbsSAWHm6hIp4Qr10zXnEupUpPfGSgbOx1ldLKkhK1cMNud2DUtrBuGhDkvwPREq9pXVPyNWseWNlWy5lKt64rUVGu+lB2vrqFPERsOzDIQ2lDiylyIoOIH0qPU2pmkOH7UjIWL8yE1T/8Le3rTe+KvXadWbQt64KGyzlRdCt2r2+xWbZ74qqiiETHWC0ltpKldq0+E6CR7b6bnsoyMqxzT7zGKMYGeBV/HMyzHrDsjJNLn46x/aVwWtkeTbxpzdlUBbzEBLFNUywphUf1ULDjnkK2C26nZ3vrzd973FC5iBJpqznWaVeqODUKsZyIFXxLesuoWzi1+e5dKKPGkO4wtdcmmtONMrU80Fx/qXpa0pH3JGhvrnaTLfTsBIvNO6ilumegarG+LLa1nwLZ43XBbeOrMsF6bWL+t+ULbs2LZdUqsGj1SHGphqrLISHH0NlSvU1oh4e3Xr7m3KWglHfIrgabI7XpVvh5qlwrCWu9aDoAaSke4P3PXM9TivQ+lEkh7Si8WS4Q2fSaO+5Xn+Ij9Na6kMVHFUZip+lFbTUqUCpx4KbLyEhaAVdqFfxAp9/HjqRKx9KjqfSp38M8C4wy1Z+f7ov1q9KnVsbRraiWBQLTlxaXHuOXXarKhvNTXH0FKQhmK8604spQVjsUSCNykHXfk96xlmaNcgU+HBvkfJ4y33fUemYyevClVNmR8/a6LIZv+uUV6O4j5acpAQtUNTaAtKyhspJB+oDx1S5gWDlGzV7eUznnipRV/nVQByQiZ8tvC71PdrNoC2r6pFbsNusKmllxa4L8eC22IrJCnCkOtBKtDZSdeeOl3ITgrTHu49CaAZM52Ua7Mz4nzPQcTT2bjsymyKBcEa6rDE6lVilSNlyP+GtsNsLCHgl9Di/rCx59h1sZ3C5UVKwICMmu+aOeNpZJreLr5tnESaRemMqs96tQdstEWgXFT5STHmR3ojCW0uKW2sICntrACu3RJ3n71Jjha2EUJyd1GGe+eONcrWRa8Wn4bNtX5ju5I1z2rUqdaaLVoESTDUkdshqMAuQ2tG0lDigB7g76BdSKOBVHhjwAppQZn5zYJzFheqWRPwjHo93iqRKzbtbtGhiz6HEqMNTLrTskNKLshvvS4opdJ7u47O+g3s3oKp7v9aO7q57YbyRg+sY3uLDdOpNYmW43EFdsS0RQHG5zRSpp1yol8uKQtSB3hSRvQ89apO8i7mHNW6QAxRjbHPDAVWxDU7ByJjdKK7MtFyg1Ss2zQGX3Zj6kBDc5c5x/1UPEpR3KRtOyfHVuq/yo6f1otwhzc4625i7/AEf5NxjSqnWo1Fft+n3lApj8252Y6GhHiumQuQlLT7baEkqbAClqUVb8dHUf5VoMgYoswPzB45WHRZFo3hjqNWKNRKs7EtGuevKn3SzSXF97KHlpfDSHGCVFDiEA7P1bA10CR/UUHkEUIwJy+4+4quK8aRWLKpVdsao3fKrtr1W5aSu6rmpYqKW3JbC0KdQ2tCnmwQrQWnuOlDXU72pfoD518x7yzwRYeTsktwrapNQxze1yC8Yc64qIK5ctFqDiEty0QmA6oiPof7vffpKQFjW+je1XjjRGDMaUln53wpWeUlYqFj2ZGyBQsvriCpwLiSYqaNUYMX5diTDgLfCWmmYyHlLalOEJSD7dHUb5UyOj86fJqoUCm8orav8AsbBEi7qTULerNq3FZ9akJo9tf+bRiz50mktCSoyxDbfaeU36i21h8aGtdSsrA5xWMywkjmuZVzniG/Mn2LyawxguNfVl2dTVY9vGlyqFMolmOuPOAO1ARkOF75guy4qA2x9ACkq7VE9W6z1j04T60x3xWOQXFfknZOPrHtDGkrFWXcU3AYd9UtuAqiOy5CWjHnRlNOLWCmP9JQQlLigBsbOum4ZCwGaWdgDxVILeL7UkU+VIaq9cekx5KGQ2qOmOhzye4lJTsED7D/LrpJbxt3NKG4YHGK7HEVsvR0IE6spU24pYcCWfUXvwAfp6091T51X3p/lXRrDNvIQkvVWupBV7hLIH8vKegWqepqDduBnGTWUYZoBCgxWa0Co77nfRV+mu0I8/z6obZBnaap79J220Z07EFLjONrVW6mPq1r5do7Hg/wDD/wB99ZGNQDg5qFvZWPw4raq/ZZLHptu/EDmVCJUJbzjmEq5CLciQwx3pc9Ne0tBPesgtj+EjX5dcQribIpyOVmOCK9Ffrq1vXOiiof8AxAXC1wc5huE6DXGK+HPb27bcnnrSP4gazf1+6vGTvJSlzn1pW8oFz6AD7HYDagfcKSfII9tnrWfsKxg5YikZ6rVxMswpIaZuaJ3tx5rih/5eBJPok+wf0PCjraTrpamq2DPgyVm7I2Gc42HeVx8Fbx473Re1PN28deZOYFYvq8mvU1tmTDr1Lea042whKW0OI2UOKbGh776Vj2/GuVeqDJuI5qxOu2rzeg3zyt5Y4euX4dvJTkBVcJpsjEtrYby4m57546WrR2/k3G7HoyO1qUtEDaFqlbKgUlBBJR12pdxj8veuPJECdprS9qb9RlVafInsv/OOyHH5a5ccxJK3FLUp0uNn+BZWpXcjf0q2OvKyjEp+816e3GIEH0onYMxSXQ40UgOAaOh9/wDl1WtqFLcfLjemuwq8EnyBr9Pv0UVmDclSe8Op3sJ0Wx9z0UVkHzyHAG3EHQ0e5AB0eiiviDUUOrG2iktKCvoB9zrX+fRRRc6mR6KUkJ7As60kFQP389FFBZReU8Fdu9N+D3aJ8eOiigat9iArxolZ2fPRRWP6CDs+/ue7XRRWJ4DSB9u7XRRXUAAaHRRWNaQlZT50P8fboorodb8b1+vv0UV9BIBIOtKA9vf79FFZCpXc0oKI7RoAeNdFFZkeoS5pah9R159uiisrbslBGwF78/V9Z1/06KKM4MphL4/EYzkiN6nc+y0oMOvJO/AV7Dzr/DoorCl9tt9QYSUhJV3oWsd4JOwnSfpOhrZ+/v0UUZNvBwfUo92ylI8bSFePbooo9cnPvsQorzaw3DR8vHd9QbG/rIHuACEEE62PHt1IkWP4qup8pq9PjfkLnNL4hYntem8GMYcgOPNuVyvJxdfWRKEulvTkzJzciuw0TmavEdlQUSg0X1LQtLZSO4IT9fXZt548c964k2OsAKfShZB5h0W28g0OhfCK4sKt3IlEiUe/yi8axJpV00+HIZmR2lLVdJU2y242H0GMrRAAGwo7LmRH5qHjZ1yO1BMRXRyqsS/bYyHhv4K/HRzKFp1Zm57YqNvQ73r1RoclvtbiVKOhy4i06CtwFC1JUjat/V7dFkYy2TSTwuDyDxVb3DbJ/JSkc05F14wwjT86Zgep97W/UMF1ZqdGpqItVh1EXLFaVFksSG24bb8t1Kku9w+VHad66zeUbzu/CuhP5Ywp74FWJXFJ5GOTzV78+Dvi6A5MClzKvcd+X8qRVFHXa45KeuQuuKUlKEhTyt6aSP7o6zluLdYWL9q0tAWGB3oloVbzA43HptM+DnguVHlx0IUiPkS9p7ExxQCEOqCbi/3gIb0jx7DZ6Tsrq03DpVea3mAO+odfEqyPyAuWlcfLIzHxHoHEy2bOptwzceUO36lU641dn4hNaXU33ps2bLdW6y422gpDgCBoa8ddDUZlazAHbNZ6egFyc1U5MWp6SgKJ+hvSG2x2hevz11wfvrtDgURrdbcdLX7wLUSFBTXYpA/IK/LfRWbnmhNEYdiLVJkOobQ4wFJTsb0d6J/PoqlWU8MLqhWrgTl1dVUpFPuiiUqrY9VVrdmuOIiV9pM2vOrhyGwQHEBLRWACNKCTvx01bg7C1LXX7PNWY/BJvOtUXMuXFY4ZkWhBuisUahSFQ3kOTIdCrtaXGl0hyWruc18q4n6EqJJ0ve+uPqlwykitbAAd+1Wtv1O7mKpcdPpt0T6BS4VzVGFQKdFo8ARqXEblPR2WNKjqKkpShOvUKjvz46Xjj2kHHFMF8ffQB929nHFaviYoxF6W+5QqWpak67tL/wBl+od32PTRQ7TxUF93AFEb0u/ZDaky75KFOP8AeVi1qMtTqu4KHd/snnWvG/bfWYj47Vl039DXdybdaifVueC+XVKU089aNGWhWx9QI+U6gwmrrvQc0VioXOXTFcrNDfWhj00vqsikeEg71v5X3P59HRNX347CjCLUK444IqKna7LTjK3ZaTYdHWXSB9Pn5XQA99fn56AuzijqfSghkXE0lHoybJdUtangV45o5bZSNghSRFHf+f193nqaOp9K+rTcDu31xMffLrShsSXMY0EoKlgaKkGH7/r0Ub/pRVG/G1y0JQzjNT3ae9iNiyhFtavZQV/sntr+7v7dFHU+lGqY0xl51K4eLXy6S+gP4loRbCdlSkqPyvnz0UdT6Uc0ulLlqJVbuI1hxAcbai4eo6Q+pX8Ce1LA8nzsk9FVYs/Ao7h0GSxIdku2LiWBIdiuokuqwtSHCULT6S0KIa+pC0LUlQPuPv0c1n0pPSjqNTW6Y1S36XFxNDRTEvO0dqDi+FGFMXKbSzKDKO36A62222sD+JLaAd6HRVWjkB70jFLTSkLpUO2cPN05ZfeMSJi2FCJXKKC8rSNeVek17a/3ad710VXY9EsqzrTyLV5NDvPE2E59NvOeaTdVSjYsp1PuZ9Etshx9FQSkOtPkhBDyPqGv1PV0cqcVssfk5rUpuOCaFeN4W9DKk0+gXhVKRAZWe8oZizpDDKVH7kIQgbPvrfXctpQRwaXljB8wo+phK2EhxxSVK8r+tLaVffroDkZpA8HFCylnXckOlKT3D96lfjqalRlhWdt1hSUApkIBJBPbsDXt1k/etTHg8Zo4aWkqQWVyA8o9gPlA17/9OsEXdms3XbWyh+zHV+LG+IdSqRJekNvVvGdeajNIpyJTL6o0N6Qv1Hz9TPaE+Cn+LZB640kQEuKYizvFei107Ttc6KKhn8RMqRwL5oLQe1SeLF+K7/y1bdQ/9vWkfxAVm/r91eM3dRYM53vVKbBQkNqYAUlCvJP+Y61n7CsYO9NU8ntSFpLgUV97bpAadParYUCPY7A8jXSx7cU1VhPD7jvxMz/Qrxq/JTnpbPFK6qHUWIFt2/c2GqvkVN0Q1tBxyoJlxXENpDa/pLZPce0g762hkkQgLSs8anLEVajxFpnw4fho5Luflix8Re2OUdftXGNwWvYmHsX4Vrdk1u5qpW4KoUb59+RIda9FIdcUQspCfGta67cVxkDqHiuLLE3OK1rriqblYrtZqHpuRE1GoSKimMt0Orjeu+t7sK9kKKe8JJ2d9p64M2OsxA9a78AIhUN3xRP3PugkOrV/fJ9wf6DqlaZ5xQpxmQVtpQ6VLUnfaW9Fs/f/AJH/AA6ttbvio3L86ypp8rt2JG1d4V2KSQB1G1sZI4qdwFZU02Y4tQDyUEjwpO19v57I/wAf06gAntRvHYfyrn4dIBWBNStwIIUR9P5nX+R9usiJB3qSyk0XFpaWQj1EJAWR273s+3v1GHNRkfOgjjLilk93cNgBSVAo1r2B/wA+tEBA5o3LnGaAqZUO1Oz4cKfH8R+5GurHsaNy/Oui4ikFwo25pQ2Py8/+w9YIshPmqxZDwtdHEj00qI2fU0PyPjpkgBQaigzhITvtCfPk+R1WisBUCQVkKI8AE/x/4dFFdQUK0pICVEaUkH26KK+6Hk93k/3d+f59FFZUIUsBWiCT4Gt9FFd2/V/e/UrQT/Ij9eiisjKXEgKSpRXrYJ9yf5dFFD0LS7+7dIS6Tru1sk/qP5dFFZkEHSFpAWkqU32p1skaJP5+OiisalKbUVIV2EjZUNA9FFGsJ8OKZ71qB7whR7lJUvu8aCh5A9wfsd9UOGkVGHFap+zf51trcSoZt7hd8PTIdfxHnXKdmU7Hebreft/CuKJeTm6pUZd2Ub0I1QU0oMxGlMOTHgtxJKjG0Ff3T6M2aPBmI4avLMszXGCfX/Gkpydxvma+8+ZwyPh3iDf934UquPbZqTkOvY0q1oVOlKj0OlRajTodLmwu9bjUmC4kiIQlfeooJB645t51Yo7E10+rsTaakjg7PtduTN3B3HFFwxnbH9apldxpa2Vrjq2EqhadsVJNCfcNVp7s1xI7YTIYir73UoC1NHSdb2zDA6dqRe5yQVqr74VUigQPihZUuevx3pVGtql5NumqKpkB+TUAyzUXkSjFix0rcePouupUyjaikkj36xkBZiua3EUjDe54xVr/ADo5OcekVPkVbuObS5DZbg3jejFUse9mePNag29IpyYMTvZjuSY7bzZjSkPqAS2kLQ4PGuubf6fcy2kgibzY4rpaZLDDexCVcrnnPyqEeH+RFr0PGr1uRMMZ1pV31LKkC5Y1zT8FVZ2mU6mRVw1rdeUlkueCw9ttCdEKI0fPXG0XS9QjkBnbgfn/ALV6DXr7TMn3SML39fzzUPfilOT6jgrh1cU5NVU3ct/5jr1Ok1WizLfcnsv3U2tp5uG+hC2W1N9pCFJSAP4Rrr2moxpHp4+fFeNsXLXRYfX/AKVSU6+YzyJHYhwtvJUtt5sradRvylR8a/mOuBD35rtBmAxQGqVFc4l1caHEbZbW2kRG+wdqiVD/ACPvvpnYtRknvTn4NwLlPk/ef+jnC1us3DcsC237mkQV1JqmOmFFW0y+53uePoLyFfl5O+o2LUVcnxs4Cct7ExxlLj1cWNYFpXlyTrVAZsSTX60xKoYaoUO4ZVSelPtNvBhC0vBCFrSO9YCBoqB6ZiGBgUpISz7T2qRPwj7Yu618hVmw7mjxoEfEvImzbCcYpISiLVKrMqdQVPWZoQlUsITTglKXO0JS6nQHjXnNRHm5HrW8ShR5atQrS1yLhujtKWUm8qihILSgtI+deI7x9kjuJOjsH7nq8ByAfz2rT76ovX8S3K1v87Y2Hq3Y1Fl4c/0sx8eVq2IdIKcgyqXJfbiO1uHUV/vFSG0OfNtMhHYsNdqiEqUQ5g7CQfz8qO1XLVEN041IMrckMxag/GhzEK9D51tl1bHetvyUqISCv8lFQBIAPSwJHAqQSBgUvrPosWpRoXzlAmyIJWYyarFraILFQkKQVNIjIX/dUfClb0nXU7m+dGSaJrooIarNPptHjy3H5DTbUyA4ncuM6e4OIQ9/CsJOtr8g/bo3tUUd/wBnrSt0MolxatcVYRFddmM02QuLT2lDW20nR2UbBJB8knqpJJyaKM6hadrS4dMdhyZ1vVOtRhMpUWpzPm4UhKVoYW0XUnfeVK8bG/b8uiim9kPvxRUIUyK6xLhVFS3W3FbZjhpBDae0ja+86Vv768DoopZ0eyKf8rHrdduKkWqh5n5qLEqKHDVXlKAC1qipB02R/CrfRRRJeFCqVC/DEy0R5kCpKS9SJtOKZMWS04e0KLngpUoqG0H2J19uiildadNESnxzKUluRPd9JvsQXjDYbd9FQCdjfnZ8efPv1DfCaO3ali7DdjU9spUVPmGkNqL/AK4lNNSFR3nCdEAqWlIKD58fz6y3tnOatvameqzT9PqLXqsqRDkND5ctBKkLUSrv7tD3G0daISwJNQST3ohLp7m0uO72ralBIT53+gHVqilVSFNprNHYaU53ya7EIe1sL0CCkn9D7/y6svfmtR8Faft8pWjI2R1BwvJOQKxr6u7e6nK9j9979+u3bBdo4pWTJPNZITJUhKgNqSQEgJA0Njx/39+unWDIu3OKMlp7SUIHaCdAhI7v5b+3RS7gAgisrKXEFKfSKkDflR2B9/PUFQeTQZWNH9NW2qZFUnX+87SkDwPpP59RsUA4FSrFuDWwz+zSy0N/E9xs2op0/ZF3toDm+4q/A5WinR+36/n1wpc9YAdqbhUZBr0ket6YrnRRUHfiYTDB+HrzblJ8qZ4r314+/wBVvTk/9etI/jArKT1+6vGuvJRNQkpaH8ClBaSfAB1of59bXHYVnASabJ7u0tK9ABYCAD7fn/3HStM0DJ0tJBI/VP0jW/bX5daIQF+tVK5OTQeRIUkpIJKkq7QofxAa8DfudD26uZmHAqOgj+lZ0FBWBpH8Gu0K2EjWgD+gBAH8+sSSTk1YDAxX1LQUhXaFbKT2hvXedefpH5/z6FxuGahyQpK96ui+Gvw14zcgMU5QyTn6Fm6vybfzfaWILXo2EpkZmroNzRZs4znIjrK3JBaTFIDLI7lFQ0Nnp4oDziky7L3qaGV/h9/D5sCr2nTaDanJ++6feVs1i8afLOU6Ja0mNAotWaojklyLJg+q06uU+yn5aQUOJSpROtdZzJtXgc1nJKyjNB6L8OLiFdFKn1W3cK8mpdTpFzVC1J9lpzjSahdanKdSItbRIaMWCtmV6yJsYBKVDtDo2PHU2y7u9Lm5YHmqcufmG8Z8dOUV2Y0w4Lvexwxbdt3Zbf8Ab+c1U7whs1+gQawuLNebabQVMOSls+3/AKLyetruFUK/Wtopi+SKE/Dz4+Yy5JZ7fsnMcG/6hYlFxfdWSJ9v4wlx6Xf11O0KmKmxaPSZT7TjSHpj3pNJIQtXeEpAPcelBGCeBW3Ub1NXAXB8LXhpb2N5GVpVh8iahb8i7I1tUKnUTNEOLXJiZtHfrzT0iO9RgpJDUaQypLae1wo/dnfd1mylSaOrn5V0pfwk+M9yYeruY7asfM8FNLvqkWDAs28c6USU1UZlUQ+6hMx+DShJjss/KyASlQW682oAgdVHfFSXJU1Whzy4i4FwXiDDmVsLSMy02TeGXcg4YvqzMy1Clz1Uap2KukJEyA/EjxnRDmoq3c0JaAs+lrz4J6TwqgGBS0M7FgGNVVKdj9g0fY+CU710i5GCM111GU3V1W4T2juQ42P4voHn8tn+vWVRQRbKVOBQAACRrQ0kbP8AzP26gkDvRg13baj/AL0Lb9VZT9KkK7u0j+X6/wCGuporo0Gu0d+9k6SdD6uiisrrbfYlalLShRIOlefB1r/6/RRWEuoQSAvtJOm+5XhQ9tn9eiiuNSe46Gi0Dokfxg/f29uioyKFoUzK7lBDiS2e4rCggjx91b6Kms6HPVQhstNpCQf3ynCJAH2AH3BJH+PRRXTvSVFDp0pI0APb+R6Dx3oGDXVxSmyhZIS2lJ256vplvZGj5OvfXk9QeCH+VVZiBgetSJsnk7nnG9s060se8gMzWZa0J9fZbtqZdrdqW9GfdWVrLUKPNbYQVklSiEbUrZPk9PR6q0S4WsRAmdxHNLaLyj5gVyt02LRuSnJOtVipSUwYFIpWbrqqdXnPEdzaWIzU8rKgN/SkHZ+3WRv+o+7HNQ1t1BmpToyb8ZmlsLjNXTz++WktAmOZd7PoWgeFEdxVvQ3rZV5Pv05Hc5AK0lJaoME0yNi21zQxHerWTrCs/kljm/UGU6bxty267b1ytqmEqmrfmJSCfW+ouA/xfffSzCRG3oPWnEkUqAacWs89/iaW5HVUKzye5h0CGhfpiZVb7uKixnRoJ0HHFBKQQEp2CPbQ9uqNqBUbCpx91WW0DvnPNI+L8Tb4ijziu7m1ylLLP0tqazBVwhgkkJ/ge7/B3o61vz56P1hDngYrO5sJDIC7UxGbOSOeORNdolXzzmLImYqtbsB2DRqrkS7JV1z6Q06U+q22484oo7yhOwANkeelbu+NxGIR2zTKWogQORyaYaSP3hQoktvKDZSkk6/mOloe+avQWZRJrtIh1jTblMfqDtODLctn55TiEBZUmOog9oSdesT2gpI0deW+fWirQvhTcgLK428o6FkWbjO/cpzXbNrlDp1n21CauL8b+dYirjMKhNdqyG1xX5LhUpSVhKfp0NdFFX05a+JDl3PeX7FoPGzjFkfGGQb3dp1qO2pkKzmbTsXIRhl52JEkSXfSTADh9QF1BAdcKSpSVlJ66ECgxg0q2DL3oT8L+FUKZaWVod/44g0nIFD+JjaVOuxui1Jc42VPjwKxIcpiCskvRi408guEk7ZGt73157VEG5simFPFPzd0yVEua5G3QFxxeFSLpCtKcHzbpIUR+ft/TpeHAA+X/SrUzMazbKNyru+XbVCbu1IWhu6pNDiv1hSe3sSBLLZeSQglO0qBAJG+mD2NFLFMhuUxoBLLpJ/faLnuobWUg/l4/r7dYUU5tFl0puyKQah6lXZgVN1lqjMVBqDKoqS52nyoFenPI0j20N6HnoopZmU2brckMzm6m7Gp6DFfZcbjxoHe2pKGlKbKkD0wdEp99bOj0UV8MWTR6dR4kx9uW4hNVkOyIFUEiNOU620QgrAH1I2CR51v79FFJK5KS7CtS33XQyquU+rLcaU1P9dXy60pej/u/CkkOEg69+3Z/LooouvH0ZPozEK9Z2qUxl152VpBO20+opSvJ707IaH3HRRQhdt3jf0g15EWKphTKaXFlSJrNHhLQjQCG/WIXrwP4RrZ6KKLKxJrlMpqrVrkYxG6bUUVmN6qSzIcLp7S2HCNLaGidoH2B6KKXzr8SFAROmOvRae+WExiwBKUvuUCooUkdw2Rs6PVWztwKKPX7gjSoD8FuHr5t9tbQeakQ2mH1b9PtAR2jvJKlDY2SCfPWNFN5dTDcGhMkyHT6UhsRUhKTpO1nRUCVA9xO968a9utUHFFN2pxLiWO1tKSvt8pUVqV9R99+3V6KU9quLFdoraiVpTXUrSs/WllQ32gbHtsf59XTlgK1HwVqL5HCl5Tym8tbXc7kisun0UhtnzU5P8ACgaAB99DwOu3bcAUq/eu1PSXUt+TvalHz+m/brpAYGKyf4TR4iK2sSVk9ziEoUhClEJUfy3/AF6KUfvXdp9tKHEraQgnQ2lRI1+Wv6dFUoXGkMJCSwwpKgolDx9yrXsPy6g9jV0IB5rYI/ZuEqPxP8POKCAr+yN1eoT9Oj+Byta/Mnz1wpeZxT0PYV6U3W1b1zooqAnxS5Jh/Dl5wSB7p4w3g0nZCe5TlHkNpTv8yVa/r1pH8YrKT1+6vHPvRJFVleFdvf8ASSnRV7ff76PWs/YVlb9zTTTj2lwk67XAD42Rv28dLU1QUpUTrRBA3o+CB+vRRQZ1fa2Qjwv1O7f3/XoooxkPyp77MiT2lSIrcZp5LKGWkoQlKR3pQdnWh9R9+iiujPnQ9inwolHcR+pGv59FFbHXwYOQtXwpifMc62bX5Bs3TbOZLUzFRcpYq4zx+Rtj2H+CUWpU1xi4m5EyIxEWtE1x9p951ASWkK2Qg76dqAyEGuffAKcjvUnKtctr5Oq9IvfIt3cv+R9nuitrdNs8GoS6qyqoyHZ7obrFFugpaQKo6xKLZbV3tsaR58jcqDJtpKLBjw1R8jWjmCtN0a2KZlPlZjpqi3FULmgT6T8Ma5WnX6hUoTdMkuyXRccx95RZiRw2hzQbDJOgfHWawq0uM1R4yOx4qsD4pVy0e7uaeQ6jTaZfVHiUq0LQs9qLkexpmN70fNGtal01UmdRZX7+KqQuM4+ELG9PAjYPV9QiRSgHet7AYY881i+Gtm7F3HrP9w3Zla9q1jS2rqwVfOK4eSKFbEi8KrYlVuCjiPSquzT2VtuqdiSEoeS4ysFPbvfd0qkqoMCujcoGQk96tqyPzbwjly2mLEvz4n9DnWtPvelZDrkiicGbns+uKn02Iunj5GbGqanYzYYce72khaVKdSSN+OtyVk5+dcoQc001e5KcZIFv5Lxbjb4ok2z8O5FvqHe6bcubiHd9+3nTnKSp9NPDlcNVQQppt58LKUIDpc7gkb6stuDhgOKv0AB6/vqAPOfPuE7pwXgHBOJMzu8hZ1iZTyFmC98lnGNSxTFU/eZtwMUhNNqL7z7iWEUZahIDxTtRHbvomkDqFFXiTa26qrXZKVJjpabUglKgsqUCV7Pj+vXGeNw+411kddtfELIbKiNJUDraQjevBI/r46mq7x2rq28soJQQdFLgbVtAe87SDv2BOvqPgdZyelaI+ScU5doY4rmR71srH+KotSv+876di0Ok27T6b8lV3qzIU4DT2EKH7xW9DvB+sqJ+3V4fSqSuAKe+ocNMsWPMkxsv0Kdj1TMhyFAiMOQa89MktHtdjrUw6pLRSQd9xCgSdgdOBSRkVmjqVoqpfHOHcNaZtigVW463cK3Qn5KHTY6YrHjuX67naoJ7dgbUR7dHTPzq+8U5dQ4YUGirfauTJ1t0CW0yH/wx24I9TqhOvZbERp30z7+HSkj7jqvI4NZ5PpSLqnGalMRZH9m7mjXnLQoJaapdxs0t9Z+6UpfZbJVvxpJPn2PQeRg9qj1zSPxzhelzcx2JbOSXq9QMdzrpiUu+5EVCIl1W9Fdd7HVMsuAKW8AQpDnarfuEr/hKwpinSzVwczPjrKddsiz7PqmRLfMYXFZF0W/IZqX9sqE8h6VEnRynQee9DtLwjoHa40sKaa0pKLx/GBVXGRUJ0vpC3GFgqV6qm0qWz6T6FIPapK/GtpIIOv08dRMAf3VEef41LDhJSqRXuUuE6DdFOhVqgzb0YYn0qoQRUIFSPatxtp9hQKXG1KbHc2f4tf4qj5VpMBjNboeD/hpWJLZkPzcD49vSsuUunXJIYq8Gl2lQ4lJq8dcynoDphvKXJcT6yVIIbLZ7fqGup2N2IpY896Ncz/CQmWXj+hZ6wVZ+JcT3na2Ro9ZpNJqtabqEqnPW/O+efXCq0WnJeYISh1KSAsKKkhagjZDUKbRlhWMlyEPSrWAzLys5RjINWYqeeMy3BUqfIee/E3MoVeK6ha5C0lDfoOoQkn8i2R+g6eSdEI4rA2nvDcGmOc5DZ8m1Ptk5Gye5UKmDJW7LyZVg7N0SCEqLw7leSCQPf7dWOogEj/KmRYAD60mruz5mCq2JeWOa/eF8TLZuj5OVc1s3Nc8y46dUHIDiZNOdUmSSAULOkrYUgAp+pLnnrKW/EkZXHJ+6tI7PpsGBPH1NQohuEVCW2nvASvTrZ8Ib99Afn/Mfl1xwoAxTu9aNXk97jOlL/wB2SC2CT4IP/T36tVWbIwKywU0xE7uqqJCm3pwaUQv0EMgeVF0j6u0g6Hb9+t4sZFUpRCrRHnXnoNLYqcejuJWqjzRqlNxApWtrPnsUreir7nrR+9FTz+FFyHxjxo5c0fNWXrFn3LZse16/BNLt1l2ZVrckT4xTCk09lr6lKbdCWlDXhqS8r+6kdUorYwvv4w2KMpu4/srjhxqzNcuaaXesW5bVosy23qdVrrMJRkt0xBUlbSEqDYICSVkhWh05DjpVzn/bkUyPw5b6u29M05iuG8bcmWfXcv8AxFqHeVw2O4+7OrFpT4QqUqbGmKACEBozyxshLhKFb0fHXn9Q5Yk0xHwoxUtbrVHXcN0tAKX69z1JfcP3S2/9qeJOvvrx1nTNI1ymFsqkOTlKaU88400vRC0ntA8ffqcmiiWOG9vlsJ+Zj/8AvclAaDhJ8nZ9wPuB76HUUU+1rmlN2xS2xSYFTnNS323RKdYgS0q2F6R6o262okg+mDrXRRWKqViBb13RahREsmnSVtxazBi9q0tJcSUutt9ugS2T+R10UUKrM9m3YkBCG3qlTpEic3Tagy8hxEdx5tJR3jfjsIA2dHz0UV3lUD+1NOt25V1NqDAZgiDclQfUlhUYMNoSkND2W4st60PcfqeiikBd9eiVSuvLjo9GnAIhsMsNlpMhDY7Aop+x8DwfbfRRSodvuCarEfRFci0pujuU6mU1MtKfRV6CU9wG/Gj5/p0UUTVi6otWtumUibHlyK5TJSnGam48V9jCldwY/l9tdFFDqOs1+13LcdeaMuFLE6iRnZCYzMtoqClRw97IcIAIPsCtX5dFFL0RbodiohyKVU6TTUugrqFUrrEluKllSXVuqSD3LUO0dp9iNa6nJopo7mrrtZrk55uSXoFPWtMMAfuleQhbvb9lOdo7vz0OooopYWltbaEBWk/Rr37j/F7/AMz0UUf2q48a7Q1lZbDNxMFDWwFSB3KJJB9/Pj+nV4/jFaj4K1FL91/pPyf3p8f6RKwr00+O0ficrrt2/YUq/eh1NGy2daAJOvsAfHnrojsKyb4TSoaWn0ZRKgNFvX1a146mlH70FSW1bSTsH7D766KpRm02jSO0FP17/IEfp1DdjRWwR+zkMBfxPMLjtVpNt3Q73A9oHbQZx8/z8f4dcGTJnANNwfEM16T3W9O18JAGz0UVXZ8WlxbXw1ebbjf8Z4815LYJ1sqj9oH+J60j+IVjIwGc/KvHrvFXfVZLoBSguK9NOjrW9kj/AB61nIIGKrAhUkmm8jSKXHkznKnDkT21xnozDUaSYK2XXGwlt1TgBOkEb7QPcnpamKIgouLkOqT6anh3qbI8tntSnRP39t7/AFPRRQYFOiSdfVrWuiiswUsAJAJ19J+rYHRRWVshTawPsv1Csju7hvyNbG/HUMwUZNFX9fDlrv8AYrgpn+tfi9QhWzA514jZuufFocu4GHYH4NU5EhMylsodckRvVbYK2PSUNpQSO3z12dPQzRZjrmajIgbae9TAyDkjFefbmxPYnHix7jn1ugWVXI9UotRsWbbc2UY0qo16dMPqsNRglUIIbI9QfumlJR9akjrS4injO9awt2QJvbsKT+Lub+BMe2BaMdi86NbVeuCs3rJk1FyLUKiq240ymRIVNmVDsSspccWw8oJ7R2OeoohAOhyxJcpLuZarJNCRgE8/Sqlvi5mQOcN+rlTRUJirAsNcqoqdCjOcXZtFW6+fvta+5St/8Y3rraa4EoVmJ4re3UO2YxxTdfDh4H358R7kxD4148uukWdc9Vsyt3lDqtdZU7TXmqHGRKejKTrtWt7vCAFlIGv69c6YyMMLzXb3RlcN3q4Rn9nlpVrZLtXDuaOXmJ8U1GrW9cNVlXRJuanVeDHl0hpUiNDcjF8KbcfDbyAjeyWgB5Ke7GOS56gVaReElic8VV9mLAGOMS5LvTGFJNrZAgWTXnbdj31S4vbTrsTEeVH+eYSHFAIkdnqpHcfC/c9d+3NzsyRWWxV+I03CscWU+l1h20qF6CyS2sRSHFD8we7rHzZOag7PTvRSnFlhJS66bVpHoMkLJTGUVr7VA6BC97OtdVZSylR3qvI5FOzgfhviTkVe8mhXRfdCwtRrcoT9yTHUOsQJNxqbCnBFYckvBKCopSCR9X5AnXSrxMnxVYbycDNOnanw0MOZOseuXdQsyTLGrNOQJ1OtiNT27yhViCqb8o6pySpaVofQstHX8JS4e3Y89Lt5xhOTWyh05NV14Oye/wAWOU1kZTj05m7X8J5KTVWKa8UUt2tOUxcppCdAK9PuUpCyobOkkdbRKwA3VSQMVIAq+vmZbVHjcD/hVSbOojdOyLmHEdev646rUGvlYTnztU9JD7m/HchtZUSVKJJJOvbp+NV2ZNYLuXyvVWRrMqj0p61bRfXT4yVrZuOtxk+hWLgkhZDqi+PPpFRPaARpAA6uemK0G49jSIRFNP8AmmgUKcWUuKfC1OOLSnyrRUSdfz6UdlLHBrcK2OawiJ3xm9ghbyTJZird9KUog/fR8f16ruUc5qdpo1pFYRNmxUV5EGTUoQ9G367V465kilSEqCovc4kjvS2tKQEK2NkbOgesACa2qRdL5E2fZmGIeW6lZtUreYMZcgHW72gKrLiLWfp1WhSY8ZFJaB7Y/qPOuPyUNjsW64SdFYT1oqlDuYcVVwWUgVSqXFOvuSNKSXnVOFtbhX2FTi1K7f0+of4dZTHcBtqU470+PHzKUXDGaMf5QqNIlV6n2VWxWZ1JgviFNqDSWltuMtvnwgrDmgfcKCSNdRCNuWYVaQGTAWtjl79oVkik49ft60ss48vKx7UhWDMuix7gp3y+RKVSnluUtqtQ5DToelxm5C2A81olLSArWt9XWeAttXvWBUjvTL3x8cTNmRqXIx7beXeRVLYum5kTVIuN2hG2obUh1SqmowkRgsvuoUoJV3AAOD7jrZmArHpxl9zd6rRvSa5NvmruGehmoTKZGlNSJ8lthla3HPXW6pThCd/UT/XpKYyOeKZTcvw0jWUeldMBMyrNVhxinnciOpL8eKFEbI7N73v7dSIxgZqepJQo2xNujIdJtaCqRNn1osUemyam9HKQp3YQAUpKQ0d+SsFQH22NdSUAGRR1JOc1sG4b+EdjG27NtWq5OxdZ1yR5MFEiqVRi551xy3pTxVoMsK+XQ2wFDRb3skKHgHrMcjNZbm+dLW9vhU8QWEO0+fieoszFUKTdUGHTrpl2PXYUcxnVNvrksSH2H4/cpGoyylQ2kA+NdSAWOBV1bGd1ah9cifK1mrxm1pbjxZS2w48ol1XapxKO9Wh9XYhI86J17ed9aKOmSWq4IPanCs5Mqg0C/qTKhlufX6IxAWqS2lRgkH5pLgd/hHc24kgb++vfx1ZnUnOampifC8y5ijBXMDGOS83OxX8dUCFWXK23NoUi4YjrsilyGae27EYbU6NvlopUAQCdnQ2eo3rRWz1l34wvBOrsYknYHs+bcOY7BvWNeb8e2rNqYmzmICQ45HgRXowD7wQhS9k77SoAEdOQsoj70jIjdUnFRp+FZkeNlbLPJ7JtTpVXpsrIfPa176i06fR2mXLYcrEquTJaZISSG5PaplooR9P7sjXjrg6h8R+//GtEGBg1L+7YTca47ncfB7VXVU0tKHlakrlOjYSPI/kfPWZprGKb1TjvykR1CAptK3EBK/PckE9FFAXohccaQVFg/KLfStDYVodv6/byN69geiin4x9Hg1y2IsRpMh2Vazj8lUl56VS5dDdcdSgKpkvSmzvye1Y2dAeB56KKQt4SI1OuKQ2YcRiS2pp2W23JbmR5Hcg9zylNKUkOub7nNEaUPt7dFFdV2YypNMk1W67SojkiN+L0+n1V6W3I9BxRShQUhpafJQsDZ39Pt0UUHrlKcpUKkrXVIFWpNQkyFRXaZPdfhoWwUh1KkOJQonak+Sn76HRRSFkLkOw1OIQEFUgobcSEgIKvIHg/oP8AHoqwRmGQKdCKnGQgR49TF6olpHZIVTIkZymF4/xBtSk92wDsjft0UFGHpXS/q1aVeRAmW5DmQpCYzMaewqOmNDqCU7DUtCB5DhTvuHtsHoqtFtnGCivUn5plT0MuqD7Xy6pZcUWl9iQ2ASolWvAH59QSFG4minCVMiu0xtqr2rFb+XpdTRcE5FpqZaTIUEqgr9RtRDW0JIKidjX1AdVMkY9aKZGPIS2424S20t5KEvNsrDzY2Pss+Trxs/y6lWVvhooZ2uR5LdR+YW4526EcABKST/F1aijy0nVm7KGp7a3ZFZjgOFO0bJJ0Ej2/9nV0+ICrhgF21qK5FK4+WcrNpPrJXkWspUsKA7CKpKBAHXZtsYFYMpJ4rPTlrCQo/lofcnrqJ5+FrBipU80qoykqiTXFq7T2JUgFQSpWvfweg8HbSzgk8V3ipadSP3rpP3CQNn9eiq7Goak9ywx++UR9SQoDzoeddVY4Uk0bGq/v9nNlOM/FBwa1HYKxIt+6W5CirfpI/s/O2dfzI9uuLKjGUN6UzCDkV6VfWlO1jc8JP/f8+rL8Qqy/EKri+Ly8WPhm81FjezgiptDX29RTSP8A8rqUpK4B7j88ivH3u5QFWnhKlIQl9aUgDYAB7T/mD1aXPamI/gFNZJDinVoAW4ta+5ACQCTrWv59ZVeg5YcbWpLiQlXphJST5SdeQeiigLoUUIS2lSlrc2EoHnx0UUZyafMp7zcaawWXnoyJjSAtK/UQtIUnRG9eFJ9/IIPjoor4hHgdqQpHeEudw7h5P3T99a/z6hlDDBorYY+EfMp9lcbMtX/LyZmizZty8pLHwJT4OPcqPY7s6Q7XaHLqH4lWmmob/wA3Ijohvhk/SQFBPf4KT1bCR4bbyVwdTXdLV0y8aXZcEO27joPJXk5RHK5DfuGC9Vsu1CpylsNzX6at1LiY7ZDT4jOJ9AghKVa+/Xltc8QT2JLknGa7Gk2KzoFccYzTR5auXO2Ia7aNsW3m24rlrN4WzMr8SHOoND+acMQIUxTkLdoq0uSJXcI6JDnaltT4UoL89dHQ9eivcGZarqNhDAvkUfhWtp8WZmoNc8s3t1S7rkyJLnmg1V28LxejP3LVVSrfpr3pylRmGIxMdJQwktNJHa2N+eu9q6246ZgHcZNKaaMK/wB9JX4efGDl3yazRU7d4VVS4qBk2jWjJrFWuK2bplWbKpFNcW3GIenxh6oRJeUhoN+QsBXjx1xa6dWmsfAY+JZfeVaDaF83bSLJu+4KJUr2eufLlzuMwDJpCUPSxHcQl+QqWoFpTYcS2lwhfeU+O5PqSCYgE4qCcCoEZksC4MVZBunGd6TqPUbqx5U3bKumdb1SNTotTnU11cV96LL7El1tbjalpcKU9yVA6G+u1byzBBikn+Oka5NITA9VBQEqLDvjaSrtSR/T6h56sTnmq1gM+QqM/HQWGkMyylQS3txZSUqPb/mOrJ8VFDLH4zZT5NXJJoGK7ktSgVS2rclV6prulwpamNoStZaQPTWSrQ8ePpOjvrC7PBrWLvnNSMwDx05vGyGa1ivPeOsdQGaS3UJsK+WI7cd4iUInoQkNwpDrhU4QexaUJ+nu7tjQ59ucTnHypiTtxVJl4O1Ri7bpFxPiXcCa3LVWpwBLLs0SVpkOJISn6FKClgAJ0kHx5A6drKtq/l5aldo/w+eCDlQVCqq8R8d6nZzs6mdzsWnzPxZTa221qCV/SFsnZSn/AHg8dMxH7M0tJ+0qi+S1U4ltVNyG9+9XT3HA7rtQO1S9qB+50nex9+spPStY+5pNqfnxbSFSlvMpkNUZLzKg73vSAoEBRToaJ8eD0o3xGm17CiKlxHaBXJIS/McE+iorDkeoyDIcZcP0kIUT4Tv7D7dRU0V0OM+alTZrs2UU3NBl1BLD0pTkSKtpSUMqjp/Tf/P8+rJ8WaKdXKrVOTxryFOdZhO1Wfc1plqpsJUw86PWnomNlHd2rLqo0dwrI/8ARe/jpqf4MUGq52zrsTr778e3v0nRT88dqNTK5nHGlJrdKh1qkT7shpqVJnoS5EqTCHUrcYWCP74H2IPjozwQexqQxXmt5zF3wkOH1xOVSg1LiHbdWuqk29SrhrL9TvSVaVPQ/XYLFSjsNegXDoNym1d5UntQdFAGldZLaMjbyOKxlkAxzUV+XfwWIFsYdZzdZuL+POJqNTrxQxTRb1Vq1bueYxTZCkyWXV9naC8FqUletqIT3a62O3+xS27cwNaz2SrciSco3JRXWFyZNHYZgRIqZHy7ckxiWlArO1AEN+Nj211FNp2pIO0mDQau5TX6bU4j7lOGmY8ddQejuFQUQggJBR513f5dFXpwMOtiRnLFYcgOU9aa5DdcDiduPJM0dnb9R9kD7+x346huxqDwM1vSrLdPxPbBd7199MbU2Fr2Nj1iAfyO9eel17CsKbfPMmLAvsRlxEqRI4ytNy0A9qUuPOU/Sgf/AJ4jreA+YiqScrXnsXgwoXjcqlpHcmrSkPIHc2Vq+YUEqCtfZA0R+njq0xzxWkA9aEwa5UHXJqXZTMcJaEmPDLfqU6R2dqUtuJUdjSUJV535/n0vW9Tz+F5c2EYPNfGE/kZU7eo+KZLlabvCZX0pTSkodoNTER1ex2pUZfyjSQdjbg3rz0UVtA5K5Y/DhtnDuPYeHL9x6/emMciquapx5FmUhN90MxPmlonR347XrzGlx1lr0FOBJSf4CR03CPJn61k481RP+F/VKPeec8j5Wt81tNr5V5Y2zdz0RVKZYtapTnqnWZbLrcPtSpllYktpjhSUgpSseO0dcm+yGJH55qlTPvppty9bmSWghwXdOCXClRSrcx0a99ffrM0x3pulNrdhtICyFeo82lKV6V434J+29dRRQZTwEdttKVodaiFtltxfe2n2BRs+dH3J+2h0UU7VuuzYdsv0y320uVYVx5YMxuLVY1TSQhSnFNOuJW04g+wSk9w6KKSOQ4jcSuuPNU/8Mam0NqUpHZ2fMOkKDna1s+n3qBJSP59FFO/SqrSaa5aTtbetKLShZUYrNwUlFWnPOKEtDSGu5BJaCynZ3pP1fp0UUn8kSKc9R7MlUdlhUX16st4UmOhmkuPN/IJf+WHgFJUru9vYH8uiimOcbfcjKQAgtrCne5OyS5s9pR48j389FMLIAoAp9molr1yBbkeo3PSqdbNKpfbXqQ3uNXYk5RH+0JPbpwKB+yvt7dFDSkrQS9H6Qq36BTqZUaTXqnTpLiPxSmQhDLFOCCiOw/4G3gVK99+Pueil6SVqzWaNXaLMQ9Gp3yE0qMuosuOQU+olQKnOz6vb2IHgnz1DgMu3FFOwtLKYEUUGTTW2JdrTZVLgLqU55SVL7lyZL6yO19Z2e31P4ArQHWJgX0o47VHVqJ6jbLoQn1VqbbKHnluOlv7rUoj+/o6A9tdaImzNFH1Wiek7DTER9BjJZSg+CTskkj8+r0V8thqXHu23/USpATX2FpTseNbG9/z6unxZorUgv5pKcp5XdUtSlOZIrK3dj6gTVJROv067Nv2FFdoGltjXgDyCAAfBHseupDSB4JpQoIUPqSFA/cq71e/nR+3USjDgCorLG8r7Qgp8nZ350PP+fU0dqUMMlUhgJCDs62r3+/t1lN8FFX1fs6apCvikYKbYDO00m7EPlZ9MBCbdnKX2/mdDwPv1zZT5sGmYe1ell1Fb11WCRr9eoLbeakHBzVaHxi3xG+GLzVdVv6MIzQACE9xL8YBO/wBSdf16YiUMcUhcvXkD3d2mpTCQUgvOFRPsna+7/wDKPWTnz7aZibMYpsXlBLi3BtLjTu2Fb8A69/5e3Va1oL3rdK3HCSp1Xeok+Vb8HoooL2KQCVK+tCu9tSB2kD8uiivobeQlUtIISpW3HC4pYUVaPnft4+w6KKEmWGWSllC0yCvfqAJcSf0Sg/fX29uqucLmirsvhz5NoMLi3k7HVQp/Ji3a1bHKO0882nlTAeFY2bqXbsuhUKZTRSKmw+80lovIqL6kpSok7Gh109NlVo8Fe1ce8Q9XOOKfCZmFIdbjL5qfERjR46TFjsK4l02JIbQ9IXMDUUPVbsSgvLWNJAHdvX33z9R0a2v3Ic11bW/EcWFHNFU8KvWXQ7irnJb4iFyVqmQZVs0CqzOFUasSWfp7JKWkorABcZDngo3pWz4AGtLDSLOzbilLu86vJHNVzfE6ybT8rc1cv33TLRv+yYMxuh06NbGTrSNg3zCTTKHCp3fUaP3KTGceVHU92pUd+qOm9RZNyKgwBVNPYFXwKFfDTHPGbnKpU74ed1Xra+bJNi1CTV5Fl3K1as92gsen8+X3XlJYW20HUOj1/LailSPI659dGrCJfw6fjI5/ylS6PcUO87jyvUadV75j1XJV6yoTkFmnJQusvx6k++tIUfURtDaENvKWe0698gydXGOahuxqF2S7RvOyL2uSy8hRUQcg2bPetu+I7M1qoIbqkIlmd2vo2hweslwBaPpV7jruWzxhc4pOT4qTzymeyK2v0my82kpWt5LpSrtSCSB5HlI/x6xbGTiqUBdiMPsTHg43+7lKcWgHXckhP972HUp8QoAyaC0DjxyE5E3Auh8fyy5WaFbcqsV4O3Eq3FOx2PUX6QcSkhaykKCQrQOvfrC7+A1tF/jSqw/aPxCbCpMisYWTUZlIoVlu3VVIdQdp/wCE0OmMSRDkPhMqR6aiHzoIZKnCSDrW+udCyrKeOcVu/aqwavLqVWrFZlVP0XalWJEqTLMdlIZeeecccdUSkdqioq/ubAKR56bLrWVbknI+mqylw14q0SgRpCrl5AcQqnkOmUEy0vVCrVZhyRVJakhICS+iPQ1fwJHcEJGt+7ULgoaWkP2grXIuT1YNAf8AW9WTTjTfShfWFvMhYUkK8e/8W/PUMu4itI+5pJJDdx2dJj05T0p38OEJ1TrRYXGLGgobPghevGuk3GHIpkPx2ono9TZq1WlOH1JDcSiIpq/VbLbqXO8nXcfH/Z6gDJwKnf8ASiijyozs2jwI76l1e2qbNiTWy0QinlSwptOj4Pd26B/XrRUIOTRvHypYZbqcZeFr2oISFOUmbar2u8FUdx1+c46lZHgnT/b2+49/bx1eRsx7TUh93FQOZOilRTsdvgbIPv0vVqdPE97DHORbRvtyl/jUe167Grj9IVKVCZqSY6isMKcAIQFK7dqH1ADx7nrSOISNkntUEEjFX93F+0PcgpUy0KpZVtz8dVe1LWhWVUqvbt4BmVe0eA0GIEmtRlxlMPTGGFCKHU+FsMsJUPo30xLMgXYaXkgMgxmmduP40XKjLFHYxGzkDJ9MplyXQX1prGQWKnRo8Rwl2Y3HjmM2PUdUf4+79PA11zuoFBAGRWW3psFqFVbcjTsj1upVKWh50Q48kyZbDbpLjzILrri17SgpUVKPk92+o630NNoOKb+vNQ368qZDl1Wey5GLzr1MHpyG+1XgoPt2qP1ADXhQHW1XpycFM9ueMXbZqzAduGCG0VQ90ghMxtJCPH0p+vXnqCMjFQ3Y1vSVD0p2MLMbaKQRFQ2G/ftUlx5CEk/Yq1sJPnR6z6Z7ZrD601PIRmG1lSoTZTjDjCeK9NSIa1lTa3VVCL6TiNHwogEBJ/4D0zaw75TzWUrbV7Zrz57vW6u97mj6U6+5cMllYQF+k4oPvAKQn3A0AO33/XqLpOnW8A3YzQZNJlxmlzZsJ8R/RShbSfolxlrPakutnyDo9wH6dJx5cUw67DtJ5qdPwwLExrfvMbGNn5cgWjULEr0OrvVVq9n2RbjamqVUHGzKKiA2VLQyW+73cUg/bXWnTPzqtbLme7P+GbxL5gYJyFQZPH6vWPa1Hps+db9uJi1ahVpTkFyRUHKtOZU56a2+1xgtFBIUQToDy/bxR7BlsGlXlG8rjms/wnLysvI16cibvocunIokvmpYVtY+pVMINOZpr9Tq9QiiOrQSppKXXUNd436aEe3sOTfxQhiepmrA5FOpeRU5c11THJi1M/2onvMp13LJ+cd0CNf59J8+tMmm+bdcbZfdTH7PUdEhgJRtbYUFb8f4noqKB924apSfSfeQy46ltSAVskf3tH7je9/boop3babfq1pB027DqS4Upc1l+bCUmXcLjqglbcSW3+8Cm06Ue/6da6KKSF9zEP1aLul1CjyIMNDDrNWWt2b7hKFL7gD2lKj2++wnfRRRiqr3dCi0ONBfkuNOwflYcd6jMzZDrZ2S0hbjSgdEnSQfG/b8yiimpVCp1NmHCqj6ZHybjzEeCGRG+TDoZUtTTSEpCVgsgK8eT3dFFFXzTQLCHhstzikshvtLgJGh/wA/8eiiltEax8iK09UKjdTMoNtNSWosCJJgxiragllajs/qDs9FFD7rlWlOegOWxHmRHTDSmopXFDVNmFHgSND6vWAABSrQ6KKI4EGRUZKKbDZ+cmVJJYYjpGg+r7IJ/I/c/bQ6kHBopw63TK1Q6c5GiSkW9SmqOpL1NmVFmVLW+EgS0tto7lobcOjon26vuX1FFNchSFiK20O5hp4FlPp9gT6gR9I+/b48b6o3ftiihb0YrltpebUsNK0pASUKQRo67vY/y6iih1Cjsm5LcAaC1qr8dH7wKDn1OkbJ/IbPn9OrJ8VWCkrurU0fxneOUs15fo9lU+JMepV716s12ZU6tFt2gW7Caq0hpUudUpTiI7DRccbbSXVpK1LATvXXbthwDWZYA4NFdw2jclgVqXbN2Uw0itRENyFxfmmZrbrL6A4xJjvtKU0+y6lSVtOtKUhaDsK66cQC8mkj3NfYaErZdWtXhpSUK0NHStkEH/DqHG9t1VOR2rI2iMlews7J8/USOp71XetGcd2OypLyVbU2raAr29x1nKuV+tG9avj/AGdP1VfFKwE93N97sS7XHFLOtp/s1UE9qf1+rf8ATrkyuOoFpmFwSAK9MXq1NVzqj9qKq0+NWstfC25oODf04saSoJOioKq9NSof1BI/r05Bww/Gudcrld3yx/OvIfu0evV5jmlJbL50kpA7ytSln/Dev6dLuftTTkH7KmtnJWqQpCSEoB1tSghI6ita6qQpAd0pkIjsped9R9KFO942A2PuR9/59FFAFvjaUrAC1+D2HvSnf5n+o6KK7SZpTTn4CVNBa5raxolR7Qnzr+vRRQRTiS4kAjRSSSTrX9ft/P8ATo4B57UVfrwCvIY8+G/k6867cVbs61Lc+IvjqoVevWxNci1lwtWjVy1HZQwhbj+nFMgoCNb0tWuzY6Vs0bR+SuXeY3j8/OpfSOWOJOQ93YYtPDtDuHI140bE10RK1QbppEejzKWaap6qSnnqpVILjbrvyrXzHrtH1HFJCCDvXSl1HcM32dRD+zph2+dmAX7LxTa1cTlJ+XRqXeVDumfbVtGmVaRBqcaO3DdTPjQ22vVf0+nubR3oOvuet7cTBR1DWM3GCfrUD/jGy1yPiB5qdL6Zby6PazDk9KSS/wBls0tsAqKR3OJCVBSz9Sz3EkHqb9fMppjTTgOPuos+GZyM5y8aMmXjdHAyzJN7ZXvG0VWnUI9BsJWSrqotMjPolypEKnoCnGmld6UvvoQUlCgFaAHSFdOpeSr0+OFyFyvTaxT4fKO98hKg1W6oFPo1VrluOQaY2e+rNMFHoNpjNeoQ8z6hPgDXnXSo/bmoI4NRTyNHvZi868nJEWpwb+RIUi9YlcW65XGKoCU1BqYVqUovJeLoWVKUruB2o9dy3/Z0m+ep+6k08xFjuwpUJbZU4wpDxcKSlPj2/TqtUpGXFUK5EmxmqXHS9EWEmUGUB1pYBBUkj8tdXT4qKHMxOR1Rri0ccot7zKy3b0l25WbLr71DfYhpbUtxpxSHEKdSU9wLSFbWBrtV7dL3fwGtov8AGlVirKPPOzLan0K3cWXjkC2qrYsmSuFUbJqteVSqChRaly2XW20rZjtOrCVuO7T3gfy65cf7U/dW8naq/rKs288k5DodmWXQZNdvm7qwYFt2/Tmtyq1IdS64lhjf5pC+wkAktKGumayrdRy/iz+yHwqfhbcqLcrctOT8NYvMyDSqTCVOu+hP0KoSvWqRgA/vKUPWkU6ahae5IqDawQkedo5Aq4NLygiQVRVkqzqJkNqr5oxLRpUu3LpkOXbfePoMP5mfiibLWVzQhpAUp6lqkFxTL6EfQhxKVFPnrQz47fyrSMdzUXENJpzj8ZxTbbIcUlTSChCwN7IITv33+fR01fzH1rSujsSndhDUZDfqudzqUvJZ9bfsDofbqekM8UUk56oECRIVBhplSULT6TUdg/NPPIH0h9xH8SQTs79+qUUCyVT6VB493vT2HUzrmmXXQ6vMLLbjsqXJcfkqfZToHYbQUjQ/LfVX+E1ZPiqA7W19oRtSFf7taUFSVeBoHXt53vf/AA9Y1tUi+MNtQLpzzi637ho8arUSdd8ViqwJ7BkU2UhaiOxxvejodyj3EDtCuspWZcYqjvsFbyGJvhB8Xa5SqjajvFm1r0yLTWYlQuKuXJV3rKs6M/UqZFq0RmIyylai0hiUyFOunffsAa89UEU0vIFY9Y+p/hUXOV3wX5Vncf6TnW0bZ404notLvaTXWKfbUOuVO+LjhwwWXo7lTcdTEQ0FbCSGyVBP5+emEg2rg96o7BmDCtausmDTsgXVEdqCGWApiK8laAhiUGgpIQQ6VDSSDognevOx0GEfKmU4GKQdw1GlmtNkVFRjJifLtyKepuMpgq87CUDtP6bGuir0Xt3NULKqNFvK16/8zXKFup02oytS24j6HO5vvQo6JCkpPafB/LoPbmobsamFSfjZ8u3Lfi0CqybYqyqQ+3Kh1JuB+GyG3o5UkOFCT2nuSpSSk+PbXnopcdqW73xsM0V6nvvZBxxad5XBIoUa2I9fkViXRZEWHFcccZZ7GdpUkFY39/oHt1tA22TNVdN4xVPk+qip1ubW35xhvzaiucmNT2nJkhkvOrcUE6A7u3u0D+nnfVpftMg1onkGBSjmop8FTVXaq0lxlMRp2cxLlf7e+GyUjbSxvydb7vI866WCFDz61vuD1OL4aeCbI5Pcs8MYdyDTaZULMuer1ZVapf4w5R5IjMU+VNWDLQAGSC2XEurUR9HbrSuporZluT4dnwoeNPIfB1cubJFiVK1pF1VKBc2Pk3g7WpE6Omjz1hE1au2ONOhrbileS39P327FZxSruduaQk/bE0x/w15mJKBn+9qBiC5EVSyK5zXtOpW4zRYDrFqRo8NuS23DWsktrcipdQCtJIX6w7TsHrk6jp0QOd3FaJ8NSZufsTct0rdUW1qr9QQQ19XZp99W0j89+B/LpE49KcJzSPlMFUplaXFuobiJkKQhSm+9tO07/n56ioopWtxCH3Usri+npyOvu2B3At9yh9/C1fSfB359uiipA2LHkrtGlSWH50dcR2RH3EiKEZiOpACm22x/vnHTsAnwg+d/boopCX816FShx233pzLFHhNt/iDCok9k9yiG3grz3p8g/b8vHRRSsYrc140qNVKrazVOgpYZbiVJS324zkdClsyEhKgULSdd5GwrtTv26KKQdzVGVUqp86/8q7Kckhx+ZSmPQjPJcSU+o0Py0Bo/f+fRRSfjON/Mo+krSXkJCnE/UjXgf19t/wA+iinoFIotx2/QmX7jo1EolMZRKr0IPIYrzc1IUh1SWCPUdKthIU39I3vR10UV1up2js23QafHqNJq1WjPvMN1KkQlxUvQd7aTJVv63t7BUffXnoopF0iOhdShCW13N9x/2WRKTT25oIG0F5RAQD48k/16KKfKRHk/2Yns0Z56BGm0eStUNmoxLgQ+gI0olwOkIUn2CkeSPfoopgqelhhSC4QtqMltAHpqLiylI0ru+53/AD6KKNg9HffcceUVbc9QhBUnSyB/EP06KKGUcJeum11IdbIRcUVr0HgEBSS6PIV9z+nVkzuAFaj9nWn9eVdq9Bydmtmk1CfCYuG87joVfjIkgsVmA7VZXqQpCDvuZUpCF9p32rQkp7dddu37ClX713qtyV66qgqsXJVn61U3IjERc6e4FyPQjMtsx2E9oCUoabbbQhKQAlII15J66dKt8Ro0joCYckb33KbB2P5Doqp4Ga6IQk/YePbQ10VhQ+OlC1JStI0SPb9PI6huxoq939nm7T8UfjovXgKuUa7ijRNu1ADX/UdcKUfbg03D8QFeml1tTtc6o/aiqofjhSVRPhVczXkKAJx3AjkkbBS7cNHaV4/ks9OQYLgffXPueEB+o/xryOrqadTVJAcWE/vl9wKdkqQrQH6eD0s/7U03B+zpsKhGZWpwqdT39w0FI8n9QeitaT6mSW0juToLPb3DuKfP2PRRWMuKbX6QaTpaQSvXn+e/t0UUXL7FBRA0pJIKnFb3v3PRRXZpSkyGkbHkBP1IDpO/H8P39/8Ar1BUN5TRWzF8HKlWxA4w5Auu5chch7bauTkau1J1Jw1lMWlRlxqVZUu4np66MuFIbnzw3Bdjx0gs+XkI2dk9P2yLFGema518BuyPzzVkuTZtHsCjWFe1qZY5ZT6XfUJ6o0WXPz5FtmrxYvqyYTa3YrVE2EuCG8lZCvr8javbrmahrF1YgyDHenNLsjduIvoaSt2VSrWdbmE60i6ORNRkZqsGqXpb9AY5I/hbhVTZ02KKfIlKoHY2/JWwUd6j6SdpVtJTo7afrRu2864quoac8A49K1wPikUBVI50Z1psC4r4u2NGmUyoP3Dkavou28GzJpcWUYc6pJaaS+uP6waS56ae5KN66fugshVxXJsHkjcqxHP0rr8N34id6fDbylfGZ8eY+x9ft8XRjaVj+jLyFDVVaLbglusuy5PyoUlLv7pjRbcOiQPt46UCLXblyke5ae+6Pjg89LjyY1lReWqrR6rGgTqRT4FsUKjW1S6fTKk2hMmmsssxClDCm0oQkKClpShP178lRjCsxUHmsoZGdfPQfG9t3zzUtnKebKFkbElMyfTsgRo1bxpk7ItMsC4boj1ONImya1AnT3WWXwJSSwR42VbI89de3WQx5Apa8bpjKd6MKzx8Ri6k25VuRWacT43N4X1GsW2rfsGuUzN1bUt8IS7U56aZOU3Fp7SnElTy3FK7QvSFEBJ0MLoMyClVn3D/ALUuVcDeSyL5ftmnVLAFStRVwfh0PIUHkDZ8ekzKcXWmxVW4T1RTL7OxanVMKbDqQNdvV8Ioz61HvGRle9Q0l8nL14s5QyzZ1iVik1qr0+XLsBi+7amqapGojpZcm01wKWh5uUhRQQsKT42D9+k7ggrj6V0bbLJuNKXFnxRsu43oCrd/sxbly0pMNEOI3OZNOqDTbSi72Oqjges248UuONr8L15HjxzmTad6d62yCSr0xHEfkNRcB8w8Jcj7xoVQrVvY4zFGyhc9s2/6cKTJZDkhclmD6p7fUSHipCDpH5jz5ciWJgN55paRnXO2rRMc/EC43WVJkvxuRfN2oUqHNkTrQtC4McWhXaPZvzK3VOR44DgBbKH1tOIO0uI9xvz0w8VvkBO9YI0jzDqcCowXdyE4q0qtTLyxZknkHQbun1J+WtTGNoVq0KEmSS640yzElKCm9q16Dg9IbICSBvrLoopyx4puROmv2Zpr6hyBw3c4hN3Zd91uOoaAkzKZiRtiVKWf43HAmUhPco7J0AN9bqYR5c8VClimT3oX/pK4iPRAZeSc4LkfwCLGxbEix2/GgfVEon3+2ifHVi8IGQazZ3B4o3tDLXDCClpq4K5nhhUaYEsz7YxzTXZU5pRAUXEvye7u0SdjzpPt0uoDZJFZiWTO3Ip47Wz58N20L6sa/otf5fVVVkyn61Nseo43teRa95yUsvNRlyXC+XmWyHmyoAKILaj4JHWhSFULSA4qQ87HbHjNUzTjGkTpjzakJYlznnW1FwrdYQp5XaAEgAhILewda0s9JtNaIMYOaZRbkjzEZp98b5ItTE2QMeXIxbKLmcsyptXBU5USoSI6K4tCfMdsbCSynZC1HZV3jWtHqsTQzfs88fOrvFIoBlIP3VfBef7RRlu6JltXTRKTkXFl40m2IVqVxVjXrT02VczVNaMOnz5MaRFW4qYmMGYylq0lQjNHW/PTSSFcEVj0x60wSPik8quVFRx1xktPLuW4cLI9/RrVjJyPedLqNs09yqvlL6FMogj0W3FrUsupWnt2kEDz1oXRgC9WEabcmo63dw950f2ouBUri/lSr/KV6VTBUaHY34hTKl8q+7GEhhwO9q23PTLiVj+IOA/l1QxsThayaWQE7O1Ix3h1zSS44P8AVPz+n0wCfSxTJIBHvrStbB8Ab9+sehJ2xTKyoRnNJ2/uK3JXHeJb1yxk/FVzYvsSz65RremvX/b0i06hV3665KEb8LbeSPmQ2qP+9UjfYHU7HnxBhdRkirCRG8tV+NtpLrx7yo+qoIBT5UPJ8j/19ZUBFAxQ1ba0NMaDqFfkUpCB+uifP2+/RVgoHalJGchQ4zcqSoP1AJIRTW1uJWBr/eFf5b+w/wDb1YOw7VBUE5NZpFws1KmfJzaezIqTKymn1YuJaaisEDuZW159U921Bajsb19uoJLcmrxouTU5vho4JpPJvlFjbCVYk3XGjXZOnw0SrIuEWrdyh+ETXXm403tPY12tB1xavAbS6n8uorNyQOK2Vad8GjiRgDPPHasZ0zTLvvHF53tNoVx2PWMiw7okLjN0yWECW7HU26hQWlACu8EFJT5JJ6YijJHc0m4BkO7511+GxgC0bOzPnO5cfpprVm4x5u2NblvUpD7suFHi1p+pKpCKfpakJRFbp0hLjj6jpTwBKvGuRfxec5Y4pxUULTt3K8U3ZXitotyXLmqKPl3Fep2f7U8kE/oAT0savRRDK1F4rcK20Q1MDtQHFkFQBAHUjk4ooA+2hYlsICV/NMpQfVCWe0t+UnZP0jfuB5PjqHO09qKeXE9GlLpkSpw6nW4xDb0eZEXTXPwJxK/LhMnvKUHxsKIGvyPWUblmOaKIL4kvSK7NZqCY1TVBpzNObUJqXilCQSy566fcpG9lQ31rRWKLLpcCjxa8izqNPlRp7dKKH6q6p2f6qFBTi2gQSnz5Ov7vRRSUkTYzkyPMcbjQEuthpFOhqU5FZCHQEpSVEqHufBP36KKy0ih1qtVR2HS6JLluplpdkMtOIbTGQVbC3Hl6Qge2tnz/AIdFFKh3HtVAdDNTtVVTMtmeiF+NtqltgtrSUjQI/oVAE9FFEr1HqNuKSxOhPQnkNbRHf/fsvBBUtKysfSVbJJ7fyHRRWSiuO1Sv06mmOzOjzZwjAPuLYbT+SFEDZSRskDz+Q6KKdePUW5zFSpVNfpj06lQHo1ObfpLkOIxFSlQlobVtQPYBtPeAokb3510UU1CJLj9LZjJX8uW2Uyu/0gtah9X1FX2Gu3xr79FFd5K1pbSlXYmQQSVDz3qSNqJT+WteeiijaiqS7XrNWoNOh27IKNJHhI707I+48+dnqAxEgArUD7PP31pyZMQ0nLWVkhGm0ZMroUrez5q0zfXXglfaOKWfuKzQUNrbKiNJCT517D9f6ddUSH1FJ5zSwZBVElBC0r0ltSVe2j7+erB8ntUjk4rGhkpSdvJSonXcRtPj9P69XzmpeJF7UKaCEpR3PfvCrSVBG07/ACOv6dZyNtWl2wCcVel+zzqZHxS+NZU6QyVXL7HRU6bdqKUD+RV1y5UUuGzzTUI8wFem/wBFOVzqj9qKqO+Os6W/hScxCCkE2jQmyD5C0ru2gpUn+oJ6cg+Nfxrl3P1+a/415LVyyGl1GoOTXXEKIW6wGUBQKyfJV9xvY89LPzMTTsHK5FNVOfBcWlxLXaUjtIOlEfck/wA+it6IjDLkCTPQhAYjPhlQUrZClEaJ8/r0UUTuo7X1d6x6iUEBsHff/LoooCkFxKvUHuryjZHafy6KKEIKEOtuLUUpSodyv+FII30UVd38OXnphDi7gmsWPfN65qxlkNjNj+TbKvPF2LKNkyK9DnWnKtmZEeaqMhpDZUxPk9jiPrQsoUFAjfXVtE3IB3pK9BOcVlvPlPxJr9OpVGPNX4iBo9ALjdvNVjD9sTTSA64t15AV88pQT3rUUp71EBZGxs7WvNPhuW6cwrS2uJbZBNCcGkHJyxxwuQW+1cvxJ+UzsC3KNJty1oFz8YHa9/Z6mzi+qbHjqTVPSbKy+6oFpPhbilJ0dEa2trYWbc+n30rdzX9yvB5++on8/s92hyJ5VZgypjF6s/6Orzm05uhKrNFbtmozmKfS4cBLz8JK1+ipXoA9vcT772etr2W3lI93xgUpZ208D7p+5pj8GWHSMp5vwzi6vTplNoOScqW9ZNZqFNCUz47FXqkWnyHGVLIShxKH1aJJ3+XSA4ruzZ6OTW1o/wDAx4ZSprNu0iflFWQbknPSbWsN++pUep1anNfMPP1B2Q3GW2htplgukDyEuAaOulLm1ZQbkVzIZMybB3qC17fC5wVRK3Kpls2NPuGnR9qara+RMymsvdq1JSpCV0rvI/iIJGx+nt142+8ZpphKOcAV73RvC8mqx7yDmk7bvwrLGuy4KFatu4wgR6jcdWbpcJydyMqk2MPXC1FfpsUlKu1JaKyfto69uosvaDHfMEz9PzzRqPgqe0UuR/KkRfPw0sUWXdF+WY5RLoeuKx8d1HJ6pEXL4coVzQIUNyU8mA6YqHvXIYdSgPpSFdg317aynN2BJnj6E14K9t3tX4A/cMfy4qsXmLh7H+EsyM2ljSpXXULLrGNbQyBFVdklqTcNMNyW7AqzkV59kBp0NqklI7UpIGiQfPTc2PSmbXlM08nB3jbiHOFC5IXJlc3zLTh/G9FuG1aLY9YYoD9WqVZuWn0Bhc11aFJMdgTVPONt9q1dg0oaO62yCQkfSqXLlGBqyy7/AIT/AB2tnF+OMjOSsuMSMmUqo1SNT3rrjNIprNPrs2hrbJLRUpxTsIuDyodjiPqVrZ42pXHuzEL6U3aqJ8AUx2RPh54FsrFkHIMd7I0yVIrCYrVOkXghukutplMQ3e9xtsKQpPqqdUvyk+kU9oKhvDR75rpiR2rW+t+ic49KgBzPwPjfDLvH6qY0eulqjZkwHDyvVKdddSarUukz3a1WKSuKzKZQhLjKk05LwUpPj1Eg7IO/SXhaGLcBXMSXrPsJqF2yXgAntC1AlCgAUkj7nwP8NDrnxRGSMSE8mursG2pu8A+PFgcm871Ww8m1S66fZVvYevPK1QVZUuOzX6qq2KLJqrMOMpz6W0uqYS2VKGwHCfOutBCwIOaTlAxuHoKt+q/wi+LFHs6371uGXyGtmlXHGMqPUzetvRKH2mMqQ+yyuRGU458u0tI7+09yxob6cj7nNc8H0FVt3FZfwzqVUnqZEPK+SxCCBHqbF+Wwlqa6VLJJadhfwpSEdpRofvASDrXTUKxkjrfDWqdVmxGMmk4mxfhzTGVtLqnLSiOpW22XIlwWhXorTSSUhb2o7au4b0APfYBB6mWHTu2O1Wdr5D2o3j4h+HNUn0pcyzy1bU7KU1EaXb1ptNOqSkFruUsoQj6iAonxpXtvpJkt0z0PWqLcT7tsw/P76UuOeGuDcv1mRbWP6lyEqlc+QerL1GpsKh1eQ1EjuBBfL6e1OlF1JPaCnfjfVav1jnOaXs3gBiWi25mKoQ7tzNbV64lwhXc00OTVF05HzMyhSoKPkHWGgHWg6iWFCWhRKC37A9WFuX84qBKzttqrNeY8t+mwk5SyYU94XsX9VknevGz8x/mD562E4hG0mt448nJ7UsaZma5W6DVfxjIuW5FzSX1opKhfVXMMNJYKh6ZEodjqVnel+/5dQLlTirtFIT5cU3VbvK/7ipzEa47tvOu0x59RbiVq459ZhOON+CopeeWnuH568fbXVXuEKlcd6hI33ZaiKFDdnyWIbLjbbjm21LcUGmwQCobP6kFI1+Y6R++maO5NPVTjCXJlsSVLJT8uD6iWSj30fb8uiiip9sOqcWgEqLmm1BRUUbPnX9Pt0UV8LaWkKb2kpbAPYPKkE+d/y6K0j9asY+FzgW6eQ3LvGmJLDyJdWNbxvWJVqVS7tsOqmDckACkT5SwwoFKgXAythQQoEpfI8eT0Uu/athG5vgg5IsjOGH6NyC5F5KvfHNz3Au3ahTLgrTtAq0Rj5Vxx6QxKS6stKbIU4tZHcrtPnZPTcRyKVJxJn5GlN8NSlVLE+Zsq4CsFMh/FdI5k2HCrNVLjtZdq7lIiznKcl6U4sOrWpExT7iFApdCgPpUCOuRfAh2pxO2Kee4EIdvKvISh98f2gqR+bU4PqUJTx/ps/n+XSdWokprzMdue8/FK0ssOSGwhagtfae3x59tkdSpwRmisb8ptapxYidhcQhuICA8toFKe46J9vf8AUdRN2/Ginqx83T6bbrMqqOxYVMfekwKe80gQFS1IHd6rkgvIKm2/G0oTs/p0vB8bZo+lInIchty4FBlmTF1QY30OsqZMtSgv/aGk96+5Cv7m1eB79MUU41s2pIapFLqTP9n4FURDDqJj9uP1CQ4HVemgl1LhbS4drBHaO3x+fRRTYVC3J1RvRNDeEeO8zUFP1MxkEQ2GlaUtSCdqSUhKF63/ABLP8uiil3WnaH/Z92JCmvUhmM44IjDMsM/iamthLzscDud7tAkKVrZ/h6KKUduUyBSaJTWGmmXZs30G5kxUf05kj1B6jJXv2SkAgDxsb6KKKK5Tq7Kdl0mkiG7EkwDLnx6gkkwHO5XmKo/wqX2jQ3rR6KKaaj0+XMrlJimRKhSzUG4wWHhHVGXtXqPKJIABCRo/4dFFO8/XV1Ru4aVEgzYsxEIR364KdFhipMICmluyXm0hR2rtA+5Hk+++iimfjoZafdKlrcW4hBkracJLoT9gg/wp+n/IdFFHrtUcZnszkoaWDDMRspbSQEr+kbHt3fb+nRRWC3TIZuC2XQtlqPHvGGtzuSe5Xc6Adb/n/kOshxODmtBjZWnvk/tTl3LKPJByjX+4q8KVqrS+0n8uuzBjArB8ZGK5TSfSTvein+h/oeupikvpSjbc/dgDaVL1vStA6/T/AL+/VlIByasnxCsqEBRQSPJOzs/z62q8nAxR1SgVyYjfgpVJSFDtG1Du9v5+ffrKX4aUb4jV3H7Pq2w38VHjcl1rvT+K3E2wAopDa00SoFCt/ftG/H331zZc5/EU1B8Qr08Oopyvh8An8h1R+1FU7/HscLfwnuW58/VSLZQAk6J3edABH9enYR5h9xrnSc5J9CP5GvJgutSjUJi0+f3qx3HwFJ8+P11rpRs9U5p6MDYMU1sx1SnNOISkhOk6Gu4b3vqavRWqc8acunIaSI785MmUogD+D2B/P7dFFFry+5aniAlSj2AAaP5A9FFFriwkkaBUCQf+InfknoooVCWhEmOtwuBsOoU56I28AFAkoH3Ot+D46KKV/wCG0z0kwlem5HqbpkW/c6lEAEkBTElHuCCCnx9yD1ZZJE+BiKqVU9xSemRJECS5DmMBl5lRTrtBac+4WhX33+f36lpJGOSxo2LjGKAoWGf4SG/q7iR9AJ8efy349+qHLfEc1Ycdq6qd33EK1471aPnyff3++z/j1k32eAnGao+Syk1JvhqpaeWnF8htS+3kLZTyVtBKnQpNyU0ekkK+lXeDrz7b6YiYkc1FyT0uK3ac45fsHjnyjxBla+7qWMfz7NqVSp9SiLcqnfMeo1Tpa4bPaUrAZlBtDimu5KFJII+3VL03Rh2IDtxXPslh6m9m5NV93dyxwDBqTzk3KVvtSnlpfZXIkmESV/USguAbBOhv3/Meevg/irSb65kLRxnP0FfdPCmpafbRhWcZ++ldhfl1g6m5Xs6qRMj0Rx6lVMzZHyM8Sam1GTHdS/JT2+AlpEhS9/knz4HSXh/Sr63lUtH6j0pvXr+ynjYLLj8aaDO16ULMV8ZbuPF8lu4LapODKomfVGmTAedQmnVZp1EYfwufSppQSnwe89fftFkuBCI2TAr4ZrFujOXjeqMviVUh+mckKTCWy4hcfjjil1KHh2ObXYVCT7f3e7u8qPto+/XZkHcEVjYKwjy1SQ+HtTnMZ2jyLomX7R5FWBb/ACBxNb7WMskWPgablVqnTKNdEK4YM4Qi401KaLMVKgtC1BaglOvO+ptBHuJkOBWGpuwCGIZINTlu7MFTvKh2/ZNX5Xcxa5btqPTZdp0D/UJEFy3XajOeqMxuKBOCg25JecklLmghbykJGk9I6jYWchLO4/Gt7a+nSPAQ5pv5NSh3DbVEx/XOS/OOZbdLrhuKksJ4Lx0NMSkLQ4XVJVPHc0lxKVuIKtHtB1vXWOmWOjom4yqrZ/OaJzqFwhlKkjmoQc+6exmGv8f6Zg23M1XvaWEuNtMxHVLtvDET9l1S46k1Xa1UpcwUxp59LMdSakE7Cz5A8Deh0b1IlT7E7hScM88J86c1WRd2Pr9sCTT4d62dctnvVKMubSo9zUSTQnakyk/vFsh9ILiQO0AoVr2HSEYkCCuvFcB2Oe9WSfCFgrrHKO8Ych9DTNV4s5Np8yUl0pNNakW4tlS0qHt2IcKjr20eh1k2Ng84NL3ZOcr39K2m+XuAKqvLeGOPF8ZTk2JiepWPTn6deTbTMqm0OE9BQfnHUrUlAQyhCysKUnZcBJ+/XNiW5DfEcZqkZTjI5rTZzXj+l2jnvJdo2nc8HJNu2BWJUGkXvR4aPk7riQy23HnNstKUlAkH0VJSDpI379dQFxH5jTqYU7k4psLZU9CqtwTK2p+I/Fob1UeYnJCZagl1pxmP6atk7WE6P2PVM571YknvXa6q25X7fo9ZedaXKkVZ5EyO2htKWZTTDaHfCQAQshK0k+B46gADgVlIAcZq4b4a151rGvJr5un5AGPKlVMWz47UxL7MZFzf7K2/+HOyHNFCnfTT6a0dyypJHb9+r72xjNYlUJzipbZDvC5cmYlzZc92xEPXTD4dZViVGvPNoadrkMzKAqNIcKBtRBc7O8+SPsOtYDJuxuOKwcBZSBWqEAUtNpICwlQHppP1J9tjf89/5dYX6sAGAraPIyaxvNnuUnu/duK9VTZUe1atdoVreidAp379LoH2DFOCN9uc80a0aW3GfYMxlydCZCtwkPKS236o13fl4P3/AD31ZQwYGpMbdga7vLM9TaojMOKzHaZbUpLneXiSSND7qB0d/wDZ6Y60XyFU6Lg5DUoHgXfRQS06zHbKpL7aAlAOhsDX94/n1BdH4UVOxl+I0WNhCY8lz0B2rIEdS3ikxkg77yP73d7a6iigclxxyEHUpQAXRCefElLC1L0F+En6lAj3Pt0UVZF8LO2c81LkrZ07jdlmbhLKc+bUKBbGQqDFNQrdGWqkynJTbUUa7jJjrdjpX3ApU53eB56KggEYNbCl5fDq+IFU8tYZt3lFzwqjlh5Yvpy04N/uNzEVWk1CdFkLjyUuvK7PAT2r0vt7nj511rFE24yZ4rFgA2RTnfDHxDULRy7nqmM1uNdFGxtzPx5YUStKuht+tVKTDiTnnZctCiXVokJK1rKVEIVtI9h1ytQnRSQ5oHHIpc1hh9Nz1tna2EouKeHQX0HbQeeKCP1Udb/n0uORmtzSd7wWnQtpTbiY6krQVbb7FLA8/Y+fP8+iig3y6ENtO+mhSmiEeVBsKKvHv760PYefHR370U+9nQ5C7SjCLQP7WFqcs/g7wioi05JRsKQp0h/96SEkJJGk+R56zfygMtFIDI0ZxNzRV/iDs70qXEfSx3NLYowC1hcNpxsBBS0dpI14I6jqN6mil7btIZZg0db1JREfnpEyLDq96JgIqZUtafVDA8JQrtHaR7lJ6upJGTRRJAJp1eukN096LLjQH3EwHFB0tLWUFwB3+8ko+oKPnWurUUs6ci15jESeabFS6zGQmL8/SX/m31dqe4pAbIV/MHz9+si7A8UUq0qVMfakLZcbZjAOtJktAT3gU9qZBb9ghI2Ej+6PI11BdsHmgVjZcS8mZVHUbR4S1H3tT6WyEoIP5FWhr3871rqsLMeDRTMzI8qJezDEtbcl+ZObkrDTRJUpzwWyBolKgQRo+Ak/n1vMcQZFFOpcUWY3RJqGbcTWIjbRUZIrD0ZqCvtIAVHWSo9iR3efpI8fr1SNiRyaKj9LcSie+sPBDLlHiq0BsrV2fWtJ9yk79vtrrdx2oobHjOvMsPh1ptDsox1qWjaUpCEqSoDXgkq9/wBOqUUIpsZ7+1FospcDjb94wvQ87KSHk/xb9xvzo9UELNLvFAVi2RWpzVrPp96cjckW9V7ig203NyJckn8WnjtjOrRVpYKQP+X9erXEskS5UkUwioOGFJB6nRKZUKjTWpqZbUCUuIqfFBW3MCSe1SAfYePt7769Bp5Ljzc9q518MDcvFDGkxexoIceUPzKNk9PS4E2F+dKxZZSzc8UYhLHbsKcHsSFIA0PPV/WsyzH1oxgONx32XWydoWFnx+XnqrgEc0Ek96uo+AOlTnxTeMC0qWndwVh5RBI7gaLN2CP1+/XKl4bH1FNwfEK9QAnXUU2Tiup2QfB9v06q4JHFAINUx/tAEhcX4T3KV0FaUqZtZDhAP8P9r6IT/wBOm4Dzj6f5UlIp5+8f415Ld4VFozZjbboU0p8jR9gSo6+36jpd1IlLY4pqNlKAA028h4rd7UkqIV7JHcrz+nUVfIHrRUZSwl9ooa8u92loJWNn8/06KkeYZWsa3UEDuU2CRoBPjfRU7WPpQdRTo715Pbs+xO9a/wAT0VO1vlWVyIYpQ08FolD6z3JKVEe+tHz4B6KNrfKjOk1NqB60KTGdl0ecPTqFOSvudSnYUp2OrX0KBAOj76I+/RUbT8qPnWIrgYYmSzMpknZtythPc6gDwmLJPsNEkEn7DooIK96TM2OuLIkQ5TKg4wVIc2dIUojY7R+QBBBHv0VHftRe9KKocdgsacZUUuSyk+pI2dgkf9n2A/XrKRSWBAqjg7hTiYeyVJw/lXHGU4UFqqVLHF+0m/KXTZDqmY0x6kz41RbacWjag2osdq9efqGvI6Yi4Az8qrdYaPAqw7I3xCcJ5Ln1OrXlwyZrQqdWl3G7GncqL6l0SLLmvuPyTBilHpMIU66tQaQnSSdbPTzajBDbiIpk1yINNlll6pbApqKxyt4u3F8kq4eDFKq6aXHTCgLnclrsfMNoDSG2lLjKKEJGgEpHaANDpaI2dyxLpj+H5+6n3ju4CBG+fu/7isVE5Q8Q6TNNQhcB7eYmNo9FuQ3yYu6JJY7h2rKnERvqbcTtJ9tg+/TAtdPj7KP5j+NSJL+XhmP5/GnDgc5uN0SBOpP+oxEYp81tRqDEPlxftOYd8dqTpMcjt7R2n3BB8+Ot1u4FXpxqBn61EljI/Lv+f31GjlvyQc5RZlm5fcsinYzZXYNt2LSrQoVel3TDpUO26JFo0P8A26SkPOrUzCRtWt7J+/WDSITjIz++t4lCRle1boluqqdjcCXsgWzWJUCRY1i4zw5bMlUkyH48KRjmjzXFtpeHqJUr5jSHAkgKSe3Z8dc+6jkkQLGcHNKrOiysWGflSw5KWG3ZF50eyZsOg1yJSceUKvxK1LoERmpSlVGmRpvfMnJaS8+6VOH94rajo7A68N4hvZba2bZJg+lez0G2gumUSRd/86j8xY1s1NLaa3SKUovp0mO5T4zsOV3LSlxClLbO9pc9id/TvXt18kg1HVrjUOp1iBk8fk17670uyt7bbGlMBzLsyyMfy6dULdxtZrUqw8o0mm0ypUG3Y9uyq5Cl0qTLk0+chhvueZStnu9V1J7dDtUBrr7f4fv51hHVYvxXyvU2jguCFjIGTVK/xRLhN1W/xfeVTjRaaUZBjUWMqW88iJT27oYDDACiSAh1MrQPsCOvaAq69UjGa81BKz3LkDuaS3wibaq908nL/t62o9SqlancScos0mFRosioVSW6u1JaUNx47aS4t1ah2oQgFSlaABOugKrcKO9NXCsy1s5cluZFK5QcXcY4bungzzhs27bLocGkVvINp8Nb4isXIhqK1HmsSO6D6ii4EFLhUNL7tjx1Bt1FIrKsZ2SMAfz99arlz8J+Vdy3LW61QeOGf7dpzklTcaPOwVfNLSy3slKCG6SpO1D0lEd3g79uokgfYSAafjnUcE8fOiNj4efL6e8yqRhDMXzLjZCFPYevVRd8j6QfwruJ0UnR8aIP5dLdGX+7W/vEH94V1d+H7y5hRXKecC5clRkuKddVHw3dZUn6TvuUqmgjyNfz9+joy/3aze4gOPMKlzijhznuq3TAlX5hvPdtUyAhh6lT2MFXfVXvnWSsRwlDdP7gD9Q9wCQfPUdKXsFNV6sY7sKtcqtt3HU8D8m4s3Ceb7OoONvh/X7bzl55CwnXcZ0eoTplYtsNITOnNNtrWptl9SW/KyATo6JD0ETpjqqRWBdXlJQ5rTtDZWlhYO0q0pSgNgnQClew35BO9ffrG+KMAEplOEJq6f4aPwx8Wc3LDum78jZZyJYVXRliLieyqDj+zKZcRqr7lv1G46hLqD011KWWo0WnPOIW34Km1D3UOskjBHlFLteSI21hx6VITMPwoeEmGrjo1u17kVytuGRX6a7UIE20sP2m7BcYYnrhLc9RctACFPMudqx4Pt589T0huw9aLeSsMhDWXEvwteGN3Qp16Q87clqJZ8WTX7YmVu/MPWewikT7djtOzo7kMzfVDwRJjFgdv7z1CQCNnphbK2PZs1f3mXHbiqsub/G+Lxe5N5g4+2ddEu/bfxw9DkUu65NHYo82vRJtOg1JD02NHWtllaRPQhQR9IITvrOe1jhj3pV4pzK201DiVIQw23CQ4yoBHevcYpcbX/wKPvoe/SlMURlLkj1V+W3FI70pDRQpPntJb34C/v3fkOiirXvhXVfPszkZQIHHh20aBm6nRBUMeXVddMcFm0BtmHLp9UkVRtpp3SlxpvYJC0Eep6fkbA6KKvev/DPxlMw8hMY4Yy9mu0Lel12rPxLWuiya21XIlImqgyExXEIdLQbZJe9I9zf0tySdaA61hlYnYB5RWMhCnJrD8KtEu08uXRYV2y65XcoRuZ1rLuC5ZzUVuPU102LU4Eoyi0gpZV66XA2hBIWPKtHrkahDGxy9Qo3fDUn6nG9av3NJ7UuSUVqer0j5Z2mW9ob6xxjityw+dEy47RjuLU2tT64q0vNFJU0hRKtAf4pPRUEgUCS0Pw9pL3oJ0gB5CElLrqiFBPb9/cjoqaf7Hcg0y32kt0+s1Oc/NfYYTRX0JfhANoPatXaoNqVshIUkklPtvx1VwSvFFNzkSM4muyGpL1TfdWwh1f4rJRJnMgpUfRdUgJCSjWiClJGvI6ywflRSzoVdp8Gm24mFOjzIbsAszXK88tEtpXqf7mN+5UgoT2/R9X99Xt1qgO2ikLOqUe2r9kVCSmdOgSKipiZFqy/VfLK20pc8dqSSAR2p7fCUgdWopx0XMo1uHbLEGBJddhoVHqrFTcTGbjtgBlS2xseoU9vckffY6xYHJOKKVk1lxhlpyWr5OOpxTTIRuOHVp8lLZP71StDfZrqpU4PFFY5smNFiGbMSYcGG6iY2gtkqeUE7CyPcqJI8a+56IOOT86KYeY9Jui8YbqHjTVTpyIzK3V7RG9wHEK9gdeyfv3HraXmA45opaT6FVXZlSnSkmi0uNBcpsd15h1tupGKQ2l11tYBQVjuUFH+Ie3VYgVGDxRTcvt98gksJS6mE2yooOgne9aH6jz/LrdiD2ooQhtXrtxf3i1IX6je0HsUClOv8x1Siu9IkOquO0UyYyUoResQtqS4ArxIGzo/l7dLpOwueljimVVekG7GtP/LbyJGYstNNuOSXW8qXD82JGmktJNWl+iltSfJCfGyeu97kk6gtS8j4OKB01tIAeOgsfTrfuRobH5g/n03p6kHGOxpS6IZQFNKCMQkpBOiAR+Q3/Pp2VT1d1LReVTu+VGSlAjwd9XPc4rKjKA0HJEZJ0CFbO/8APqjDIoq6/wCASlCPincZlOjs/wDLlVS2VDtCiaPMAAP3+3t1ypjh/wAach+MVt//ALQ7k688a8UcQvWbeFy2c7cHIVil1eXa9Xcos2oxmbTueaIzjyPq9Mux2VqSCN+kPPW0HxGtLjsPvrSMd5dci6TO7oOb8rtJdUpltH9uqi62Bvx9Qd9xrXv0zS2KLbi5cckLqotStO4M0ZBuu36ihH4lbl0XPIrtvSiy6h5v14shS21em6224D5I7PHU/fU1CXJNEqGRpFJo6qLbt0reD8mJCccFpTQpSUKUG34yB52dfWDoDx79ZTKWA+lWUhck0zFQ4012MXVv4Yu5lDagPUp2QmpjKARsgd6Qtez52BrX59YCI5wa03r6GkdK48kk99j5JpyVrOh821LSkg/kpAJ/n7dAiJ7VcTIBjNAv9XqC3pS2MiRFIPYCqgsTgD+Xb46Okexo66UR1HBNPQ4sN1e6WVhRK25NogLUdkbI7tb2PsOo6ZqeunzoC5hKnJEVK7qq7LjSNOmbY7/ps/mUrCu4/wBT1PSNHXSgrmFEbWI980wNqTpP4jRZ1OWSPIBACkjZ+/R0mqBLH9Pz+FYf9CNeS0sJvWylMqAUG5NTmMsJUrZIS2WCBvX/ALeo6Z+dVaZCMCiqfiS+wWxTkR7phtMJV69FqTT7UPayOxz1g04VntVogH6QOgx471rE4OMUlJdi3fEJMq26qke3YGUuAf1Soj/HXVGG04qZSGOaQ8lKo7zrK0qQtpz03G1oILah7pO/y/Tx1FZV9TPlNxHYLUt5MaS56j0Q6VGcKfAUpWu5Kh+SfBPUEZ71snas6UMJVHbQ+l9UgAFCioqQVfwoJI9idD/1dAHPFSat9r3w37NYqtLotmXve14SpNzGzagKo7TrYdlzG24jlRbpbSWnnnd/NNKZDpAIBHsT03JCQOaQN6A2D3FTfp3wFmLkpLL9qZCypcFeYZYkm0HmbTo9ThrcCuztcU6WwpBTsMAJUsJJUEnpMRZkUHtQb/vg1A3ln8Pm0+MmL8k12Td+SYuR7FnUGJPsi8KfSHo82DcE5ynKlOT4qErQ828gupQouIUhYAUPt0oreNTx6/8Aasvemm4H1/zq/SoZtqlr4Ry5gj/Vlz9la3MpYzxveeMcx4gtaHX6PbdaotiUultqZcMoIeZcK5DLjZSSlUQnwddNtbZXilRK6uGPzqFeUeXHxRsjdtZr3GTKFxXnS6RTbOprkrCHp02RS6fHTGjl9bUvXelLaSFEEkqPt15HVPC8d4Djn769Jp+uy2gAB7U09Pzd8VmNPhv/AOphe7kVC0Oy2xjV71XWg6gqUyn5kNhxASpTZWPJ8E68deWj9nsaSCQCu5J4zmZemxp27uyN8QDLOT2LkyPw7zbW8fxroi1FMSm4/h0S4Kv8rEMeOl1Af7QfTDiPHjx5999ey0zRUsowoGMV5+81R7ok5P3VBf4sNAqlFsThVNumzrkxvXbptTJdyz7GuqMzHue3Uy77fkw2pTSFKCFmO8lQ+xA67NzxGM1y7VMzFzSk+DDinE951/Ol739ZM+9LjtCVZFnWLIp121uzJlqOXncaqDPmokUqRHfWssOI1Hcd0SP4Pv1najB3VvdymNTirj87YpolOsq/7xtOj3lbEeysvysVCDU8+ZMmVGrSY4jpckkqrwKCj51klop7f11rrDULuSA+SmdF0a21YdS44P31FGpY8vOBhynZpVV5SqLVsorxnNtuJmPIlFqzKmIMWQmUX/xtzysygkK1o6I1+WVhqk9xJ0G7GttY0mCxiMcfajzjlV6CxnGuTmhlq5sfXHxOsi+LesjI2fr6r9OtStXNetKtt+rMrYqUd9YQ1JkqQ0ta0lJ0U77ddXc2O1eaNsvzqYPIrFt346tzM9ag0Sz7R/0VZTk43Rb9Zu7IdSrdyMstxHGaitD9yJUyJCZSXAyB2p7f4t7A5mpX01oF6f8Aarp6dpUV0WLjIH5+dNxZdBmSMJ2zm693rYn0+v5sOD0WnR67e0SpRPlolOnOvvFdza06KilLadA7CtK+3WWn6hLPJiT1re/0uKFSqgdu9VIfFzyLW4VE40VmxZ94Ywo2YcQVl2/sdUPItzyrVuZ2k3VWKQ3NdgzqhI7C4zFjJUzspJSSR16Wdi8QJNcSzQJNtFUUpcPa2E/3FlJIUVbO/P1fnv8A59cDGJe9egySlbMfwQ+Y+HOMuOa5OuLNnH3GGW7D5J0vLVq2nyTk3PSbCvmlP2fX7Zndk2lwZShIaXVG3PTcCUEJB8+eupbRREEE/n/OuZdJtIkAz9KeHON7YV5N5IpV35U+JNwsxWxb9uVuNTnMFyrrbVUHp01+r0+JIhVKjKbcjpmr+pwa/dOePPUXUKOdo7Uvb3kqDAHFNBac60KJi+k4mR8Tb4en4XAvKvXXWrhn1C95Ferq7lMdMxsrTSEIaMVEVlLBb13BRCjrrOCBIzx2zTkk8rjOM1Wj8U3KGOstc5eQt/Ygumj3xYNerFIh0O8rYMl237rjwLepFOkTGUyENyAhb8JzQUhPlOyBsE63xX3YKp9am1LmXLDiq2pjrjbiw/IfS65++Qkdq2gD4AA140NdcmujRa04448A22lyQgBUf1FntUQdnuH5dFFWYfD35qZr+HllSmcr8HN20zWF0+qYlrhulKJVvy0VKIh5+NNa7VOoZPZHktPJT/v4rQJ7dglFWJzPjJfEL5Z3urM896gqomES3Or8xqhxZFsW89V2ZESmKmxFrRIkqUtlxLfYVJbU1tXjW24QDGaVuh5Kmn8HCPVck3PlPIVz1WPJrkfPOP8A5uqNtsxH6i5UJc9+cphlKdJcWopWFK0AFaCuvOapww59a1s8Y5qZM1p5qbWnW2VOn+0lS2ofUFAS3iQQP6eOjAHAqp78UWNNqbZUXFNFyYyStpDX72Ov1B2jx7HXRUqeRQeQ1GQpxoJUSgBxSnAQlJBBHv8Af/19FbUqGby+UjwqOumxXqctL0iZGedXFlvqWQlKkOJ9lD+Iflvfv0UUQVypmrS3agzTkQyhDcVDMZa31lpKCB3LV5Uog/UTvZ+/RRXKRdFdgxURWpKnYzEkIjxKk0h9tseF6R4BA9/borROxFF9dmzqjWJFTqDTYNRqS34/pNKQzrXagpHkgaTvf69FaUDS7KTNjKiqfSqM5v1YyDFfYO/JKvukEjXRWB4PFH1Oua5aEZcpiaFPzozcdVRnRzVZTSu/yW3ye8LI9yT7ePboqKB1Cs1Ssojv1Ke/OW+8VOudvotNlPgFKBob/n+Z6XooRSVwqfUKfUamy/JiRpSVPRUNlxTzel7BRsbHkeNg/l1eP4qKVEi6rdmqmznqc4alKiqhPx1BUmC8kJPoqZSpX7rtH0lJ8b61opEpSpNTQ+XA208j/dJJUlISlISk/YaJP36KKNY6nvxL0uxQI7iPIPYFDwn/AK66KKD0kLFxWp3NKUtu8YqQSB3KSXypWj99dix42fp6yVV94J9eK3jlIGw9q1QKpZ1EubkrlGj3Rc1Ptyh1HIdxT2qmE+qWiqrSlJac34QrR8g611vPfSwjYKajso5Mk8Uk5UCmUmdPhwJH4hDhzlMQpzY0mc0FFIcSPfXgHZHXptObdECe+K4Mgw5x2oa0iP2BPct4p9h64UnZ8+PH9f69MzYyKzbhTQln0ATttzwSCd+eopcDAxRrGeaadbWhBCvts+x9/HRU1cv8BiQ4fih8W3No0u8Jjaw4Fdw7qbMCe3X8yP69cO5/bj76bh+MEVtaftOy0I4kYB9VbrbJ5KOeoWR3OH/zDvDWk/fz05B3NaXJwoNaISFPuH0gCG23D6DWvU0QruKlE+2/PjptY2btSwYE4oXKcaTEAdZS48kKdCW2/r7j9KR+u99W6L1aj7EUOFNr8OszkOofQyGWo7zRCm1HzvX5HQ89BiY8YqGDYytT9hUWi1mMgPttx1lIBU2O0qIA0d+/9R1HTbuaxaQp8VAahj+ItP0ltbR+ntS65sb/AD6sI3I4HFLNOScg8Ukv9F9MbAWzH/id7n3GpLqHEnf3Ktjqek/aq9b6/wAqT9YxFTlqeWyh5SHFEkvBLr2ydnXj8+qbD8q1AlPrSUexCxId07FU6nylRejpUQPYn2/l1JRj3qdsme/5/dQGXhppaHI6qfTfTCB6ZdhNLdI2n763+fU9J6MSep/P7qIpOD2Fx3AmlxVqPlKEU9tXcdE6Hj/l1IicCjcyeZ+1R3uXD9JmXLdQNOWymn1VultMxgttI9KK0pegDofW6sf06gwv60zDKuQc0g38LwWUy5R+ehtRIL8taFy3UofLbS1htSQrXkJ++/J6VngckEUyXGM1V7W3ku1aoBsrBVKXttJLvpaUdJ7vyA6VZWU4argEjIolWvsV9QUvz/ElHjx9uq1sowKzQu1cuMyr1SHZLKUns8pJc/L9fHQM54oPAya2kpvKG08BX/GyfcNm1S4naFVLjtujw7f+Uoziau9TW2IFXkLc7gssJnD6EpCl/LN6OwD105ZFhQF6SjWKX4Kb/jt8RTHOP7AyzTMlY7unIGS61Nem4gvSJW6jS/7PLdYeCTVENS0JfLTywpCihekjWuky6sN8dRJbqPKtQv5YcqZuZcNXPEuisXDWr2qsO3IFWnVWO2kTFUesGcotO72lsNLUG0ubG06Pk9VSeRe9CWgUgmqqmryuFuOxFj1+4GosVpLcONFr0yNEaQAUpSllLobRpIG+wAEj263W6yPNWs0CsmB3rKb2udpQAue7nABvbl0TinZ99adHWnvYxj0oSKNe9ZWr5vRCXFIum6Slz6A2u555AHg+D639eqNdk8VsIYTz60o4F6VQyKch+9Miw47pCKtLiXFOdEEKd7VmO18yO8+kT+R7joH79V95o6aiiSqVo1qfJVcFcuatwI6XItMfq012dIU2hY9MFLrh7W1r0txtKgO4gHe9is8itEPnUIoV8LVz/wAGXIU6i3TyEx5athcgLtvK6rXtXJFsXXxwi21IvLHMizrgFWRWpLddcTCUz6zzDX77ej2ADrayUScKe9IX4bOGqenI222Lor12V7NLfxbG69c91Srhrrk678ZUeFVqrIZYU/K9CHUERm1dqGj4QRrWv4OstUaytmC3JqIH1KAYtMYpj6TaWHaU7RoNJoPxOqmxSazHumAzJyFja4qSzUXEdhedivTlR1KCW0JKVpKvOk+R1tYDSyvViOTWtzNfzRbZviP7qSuUOUUTh9neDXrg4y58t3G9/wDE+2MR44RcuQKFZ+Vw/aVbp9YbupmoQvmaeXUT4u/SCCgKc+pJA662YNhYjIrmBJSdrECmKzH8Qzjvnm8K9fuY8O8xL5uS4J5n1+bVuYEZRqq3O9SistQmwFgqJSW0J1vQ+kJA5V22nz4jZTx/Cunapew5fcMH76a97mTxHh1ak1Gz8T8vrMaoS2qhQIUDk3S5LdMlspCTLUp2EpLz6gnXqvJKk9qQd6GlIPc4myuc01L7xMm1jzTFc5+W9n8pX8ExLKx/c1iUDB2KHcbNKvG7mbwuu8pMmq1GtSa1NlMNttJfekVFwq7EAKCR10Zr+CRAEz+6kILKWKXe3aoO0+MtbC1lH7tsJdWsJCUqB+/8/wA+uSWy24V08eXBo+bfjwlwJUiCmeytpDzUASVMmYltZCk/T+Y8fyPUwSyxMd/asZoepjbRZUXqhXZ8qcGHo0Z1ai3FQ6p1ENhHlEcFSfqSnfv9+ommmdw6nitIre3jQ5+KssJh3bBSyZaynuitpWlDQG9K71Ae2tkj9OgzT5OKqkMQ4eh0yc/FalRu1tyVJHplbC09kVJ13pbV7pToDY++ugvI/D0wREFwneiWpOoUqMyHe5SWAoKDXb393gaUPtvqKrWFttTae895eS7vtIILYA+/8/PRRX1ybIZTLZZdUY0oafiOIC4bxUAFPOtqPaVpACUkDeh0UVbd8PZinz+M/wAQudNQX1UqysdSqe09KZi+mty6JzZJTrsVpCXR9iA6PfXTUByu31pS5YYwe1W3fCirljWJgfmBlRzNeNLHyJia8bLyDY+Pb/uw2nKvZuAqat8ltCFSHUoSEoAiDe3UBXv1x9StZGbPpWloygYzR9P+IjiKcqbIZg3DDTUqg/NDkWnRH4q1PyFr7UL7iR4X/eAP0kfY9Z9CTHAoPeuROZFp1plUyFBudUbRMeWimU6OyohJ0CougrKtaT4GyR0GCQDJFAIXk10c5Y29TW11CTAupUNKlMvSXKHEkRSQE+UkOnflQG/z346lYHYbvSrCVWOFrqrlfZbzhnSYNzpSpaYqv9ggsJZ8lQUE+uk+wBO/OteOgwOoBNXZgpxSfic5cOzVOIgVC55YZBS8luisOr8bK0kB4nxokkb6qIWPYiq9QfKnLtLOFNvSp0SDaVkZHuaZX0rk0SHS7MVKkSW2kLC1NpCtnWyd/p1Igc81InVByKS87m1hW2Jootzz70p9YpUtcWbT02zGWUqbUpt1pYL2w42QUlJ+489QIJCcCre8qew/nQiDy2xPX6ggW2cg1ITFdkaNHsUypS/O/wCFCyPH6Hqeg/0qnUDc4pXL5G2sllUOba2U4shycliK+/jR1LLhSoFaO3uISQP7xI9/fqeg5PpQXwM4pLO8wcS0rdEqv9vIsiDJU9JaVZ7hdY+ruSknvAO9fYn+Z6x92f0qnXX1BoW7zQw8Q4p1y+Ux5RbcRJ/setxkdv2HaonY+4PUrA6nmp66/KsbPM7CYMpSp16rQ/HSyhSrCfQ01tfd3BZIJ8ePb79a+7v9KBMpOMGsA5pYNgTZKZdcuxccxg3Cbcs15JClH6l9oV514Ouo6D9+KnqihjfMTD8oPTGKxXJMaM2FOzW7NlNrJ/NSQr2+2x0CL5mp6nrS4x5yOsC4Lpt6NbNPuOu11E4XBDhOW2qlxXhCbcmeqqVIWG22wI6gok78nx5O6Q20j3JHoaiSTYu7Fau94LRdORb6udmnriM3RfVVr0WG5IRJRGbmVCS+WnFpGllPqEdw8HW+uvJpqMgDd6x98lJxF3oc1DSwO1HchIHaQPYgAJ/5ADro2y9Fdr9hWLMu4k0LciBCQplPb3a7dr1rrZyrnioLIRgms3a4j00gJIH8aidqB/Ifn1FY0YMhaShSgNb2UpOyf16qzqnLGj61dx8AulCd8TXjfMbdQ3+EXC/NeZW2suPByG+0O0gEbBPkKI8HfXBvpUimQSHuR9fWm4s7xW0t+1BOBriHx+cJII5OdgI86CrEvBKjr7+Ceuhb92+7/Gr3XwitEuS6qIVl3ZR3hKVpaPnuOh/z6eQcUmnxV3L7nouI/dsraUk/MpYUtSUlQJ8/bz1atqB29c6qVcbUVx50hhllYJPo77kFQVofb+fRQKlHRMouo9MpdUltKu0lxffv7+D0UjL/AIUt28uMD6S42fCSrvOgsH7D9etoz5PxqsUeV3GjeNkhl5mSW3IrbaNOFLp2pzuPsNHx1atOn6ZrE9kKKhtS9tqUDvaV/Tr2GusCPMa0r41fUR7vX6iUHtO0lRCidb6B3FFC27rpj6fVddCPHZ2rV2kn9Ot6KPKfeVHjqY7Uh5QeRpPcEjyoAk/oAf8ALorKb4KijTLjgzXrnmyHkJkz71rK3lhW1KS3UHmG1J/QobTr+XRRFnFYrnlUZ20LoWuS2XmKBOkRgCEOKUmK4pKT/MpH+PS8/cGnaolqtDr8ASa3No0yPCdeKHJy0ajAqP0Akj9QN/p1zZsg/jTcWNoA+VJ57adJQlO0+6SQo715G/Y/fz1jWtZoTyjOhFSSCJbQKQATsOJHj/7of4dFQec/cf5VNjlLXapK5FZsT85JhQYVQhsxILbjhhxlKixkuOJb7u0OLKRtQHtrp6+GYxn6fypCz5wBTSN0+4Iq/VN1IiKQ2mUhyRLWx4UklJ8/r0nF+ypmT9oppN1GrVWoW7czdRnPzhFjNq33lxCT6gT3lZ0NH9B1Wt6Z5psqabcZQpxSj8uoISpSEKSAQO/QSd/pvoqDtz5qMFRX/H7lalFQQEpcDgBV7DYJGx0VOYaE/KSkKcbUwoOhCj2qSsJIR2gjfbsq7loGgD79FZuwBwlYkLdQ6o6G0rUgtqJ7ApJ7SQfy9vt9+iq9T6ijeTcFRnmktyFMluiRxEgahtgNoQsOAK0Nq+oDyon9T1pL+xAq8Jy2avy/Z8K5b9P5Rchrqva5HLZtykcap9dvqvJthdyQqJTmrvt5+ZLNKaQtcoABQ9JttZKUnx9unNOUtHtB5pS+43Z+lWX8t81YfuCnVu2bXuy8L9qtLyhW1xqjAwpd8Bq6qU/UDKp9YjJdgklgx3FNobGg2loJCNeBwPEOi3dyxKMTn91X0twR5+ajGi/LSRgqs2/TY1/0e/5l5vGO0cP3PHaZjmPTURZbrgpwR6bTi3XFKX4ASogH2Kmi6XfWlyrTMdtdW+EBtzt71V58QDH11WLx34DRbuptUp9QqNqZLmRVVVqVTn6m3/buQtEltElDThbcbWytHchP0uJ0PfXuAfs8fSvMj9p+NVZPNuFLjwW6hZHhJVr+IAfV5I8e/jrjTftDXYi4QUBI222hzsQoIKwUp7u7XnXWVaUoaRSlVN+Ot5tSIXpKUstgbISnuUfP5EAf16KKmVhrgZnHOlnWDfmN6tjOJYGS8qZMx9MuK9LvmW9ExdSsQWpbV7X7et2u/IuMRKBT6Rc8WSHozkqY8uK8w1BW+uI1K6F/ptxpdnHqV95bZrOS9MgV3CRJd+4qjKitIZprpo4YY0RzI8saggkhdIImubdpoSu4XMFqqtJHGXmnilmUKZGRAiRQyPK7uixopcnaGYPbiH4SPLTP+XcTWDgaZhTLtjZsxHVcy445K0O/qvbWBJ1AoVV/s7Xi47WaTBrkafT60pqkPUh+kpqC5EmO4zGeivsy18u5Z7GHUbi8TYtnbrdOQUffE8U0sZj6bPud/d7iPpna8bwTdZYkikdaR7LlbJrRhJ7xctagDKmOZGjEgl3hNipHNDPv5V4ZojEZJJEjMdr94d5axpw2wrzcvCu2TQsfcgqhPpmJrMTRL+mXZczdNrtXt6XLXWGraVacVXzFCqrqIEuuNVB2NFL7cNbakKVpqQk0vUYNKuUbryQxzkbSuyOVXdCxcIHJRUciEylUngZtofK7WttNd2dxqEIBgileEMCp3vGId20KWZVzNtV5RGjvFPGrF4ypcO3vh/ZnrVl2XmStXHgvF+Fbm4nw+Wd7Zlu+5bldsTFFt1C/bhxvQYVxx6fQ5lScrVXr9uSYsKmUOHUluolNvKU20zOXD6Gr6dJoTSjVZFQKbFVOSxlk1C3F3BFGqBnLrbdWabcqpFHBM7PsCF0rWZb5ITZ4Z5Dd+TciMiWTIk0r72VdhkkjjjCs0ksjqioWOKOXvhjZ2FyZftWVk3jBTL2x/jBWdsZ2icjVWRU+VViosGsZO/tpjpxqjORXaKq2qLMnGdcD1GQh9bdPX2VMqp6Odclraxv7xsM1i8i3SI8cjQCN7VDI5jdoyjm8t2g6cjvcxuZLZJUViH9PtZNUvbK0syNl4kbW8j5iSVpGuI+kvVCOJIpbaaGfeipbyJiZ0BDFj+RfGG78F4ewxm1nIfH7LeNcyVGfZtOrOD74qVymyLkolCtW5K1a1WXNpcJD02nw70oXzMmjqqFObkPvxvnzIjvMo11GGTTNTXTbgZDpJJFIvMcyRXElq7Ifi2iaJwjOqLMmJYDJEd4xsopb7RxrKAKoaNXjYr1I2mhE8auoJAYpkMqszROpSYRsVDF9hcKuVOR6Tje6qFj+24Vm5Xw1cHIihX/d2VrXsqx6HZNrXTNsitXHcVWnTmY9FitV2A7SmhVVR3Zkt+IzFbkOSoyHdby1fTpriHUGWMwxWkrlmAULff8AwiqwJDyznISFC0o2uWRQjlWEsL6W3gureF3SZ5o12KWObaNZZ2YDJSOKNg7SOFTHAYtxTgUj4ZnN64rxyTYNGxTZdWvTHNlwMjsW1Cz/AGG5XMt0KrW1VLypVUxpFFY9W9402hUOsVaO7aaakl1iA4AfUU20vk3OoWdnZz3124RYHmSVWIEkTW6xvOZI/jRI0mikaRlEZidZVZozuq1vp93c3Vraxpg3PQELN5Eka4kMMKI77ULvMph6ed6Sq0cio6sBI7BNsciOJfHa85tfwniu/MZ82azYWIo2UrKzpbGZnsO1f0X73o9LrdvW/LqD8KrVeky1SGINVTFk9kOUlKS9HlMsdeZZtN1FdOuY23M88YcKxiMlqYRcxpMAYneAzw7wjtgSAjIDY4nUtrqBp4plDqkUjRllWZY5+oIXeFiJUSQxSKpZANyFWwSoJZx74zIzXXMmryHScgUqPbdpCv2j+CQ3YU5cx6ftpqRGkMoeVFEZuQS6wO1JQnfsel9R/wAqmzwVOPpTh0DjBxCv7PFmY9sjMOXp9j1fF9Vu+5VRrOk1C/LSuFhhRpttPRVJAe+ZebV2y2u9vsfCgUkEdUHatm7mg2SuGGOrSyniLFtsZHvWXNv+sVA3HQ6lCfauW0qdFjLehvORkoU2pRWkApZWpfn+AdXRQzbao+AtCa5w4xzS5+MrKsfJV03RmS+czKx3VsP1qjOQq3RaIiMuWqutSO/5d1TYYd9RgEOIX2jS976518Hi3bPSmrJYyw30ZZN4eW5adBrjVKqN5US+K3kikWViG0MgUp2jTM0SavNVD7qU+E+i28yr0VelKW2Fokp7VdwUnrge8XLttBNeiWC0cdu1CsrcKIGI6ZlY3JMvPHt0Y9gsGBAu+CWUXRUnZCWHqUwUJUlt9O3FIS4oJcSCArXnq3Uuqsba19AKNq/wpfx3R689f1evrFcyg4zcuyLUbjkTYVtzJTcYz49KDze+wPt9xacSS13LSCr6vEGW6BxWElpbE5GKA23wRU9AxmnJVRvHGxyZjpWSIt01+nSZtvMRXojkunSHXWg48Y8sJSn1mwoMl5KnAlJOp6l3n1qnult8xRTi7hbcdctbEV6XPLvywLbzFUZMO0ch/Kux7DfgszFQlVZqawrvkMNOJUFmOFrT6bx7P3ZBDJdCmEtbQKAQK+WZxZvuuWsm6pF2ZSTY9w5Nn2Nbd306ZUKpatfj0yY1AmVIyQspUlhx5JWlvS1DQAJPUGW6xzmrNbWhB4FE44iXPNGaq1Gr143dYWJMgJx3GyDaiZNdty4pZYXIdaTLU52Jc7UBxCVdqiPBAUCCCa6PbP7qV9ztvXFYzw4r9QuLJood03Zf9h4otWiXBcl5203MmxaXMrUdh1mDUEkhLMgLeUwlDgAWto6IHR1bofOj3S3rtG4dV2RfEak0C47qrtIiYkdy5kCbRosudXMYREOfL+jWYrRJjq9VTfYs/ulJeZX3pCgDPUu/rR7pbd+KBx+IF0XTcGIqbaVy3HeVQv8ApVTuG4KLH+ZqV54+ptJKfmptWp7RKmovpqC0Sm+9pYSraklBPR1Lo1olpbD5UeWtxJvK7xadNxJcF63/AFm9LzqNnrsSiRpFVvilxKdHEp+uMU5B7lQkp7kKkAkNlGlAE9R1boc81uLa1A7Ck1kLCj9i2LeNywshZOZlWjfDFiT6VcrjlBeqUmSl5qT6SA76v7sMuIcb8FJUSUEb6Ysjdm4B5xSt5DbLDgYqP7dl1iDasK6nKLVG7ZqVXco1IuVUMtUGZJYQFPR0yiPS9RsFP0BW1FXgde6iRzGA/evJvtWTy0WuNpQQFe6foWE7UpJHg93j/Hq9Yt8RrGlxsqOlpPcdISCPc/16KiszbT61doZWoDeyDv2Hk9FFC46VlzaWXV6BGkI7u0j8+spV3Yoq939n2LbPxH8JOOyPlX589cdhl6Y1DblFDTri2wlSgpxYTtYQ2CdA78dcHWYsTRH6j+dORDzitmD9qKSV8R+OTaXkMKc5ToAW4dJV/wCYl4EoP/zXtvrp2/c/d/jVrr4RWipPDhfDYIRtRJKXVONOduz5JHjptGOcUmnxViakBtp5Djyg26PmFjZKFlBAABP5+/WtbU1jkxTl71tIkoLUT0IyVLc2sJQ3seP69VY4FFLqHXpDilRYgW4UI7+/tJbOvsSP06rv+lYvCHGM0AfrTs1XyiDLU+lXqgx1L0Cn3QAlJPd9gD4PW0cg24xV44xGuBRwLiqUNtuLJW81IfaCSH1KaWsp+rWyAN69+riQeoq9fVXrMb/dhxaiT9IJ2U/p1keTmqbBihsO8ag+kyJM0pUfeP3FB0PyI+/QODmo6Y9TQmq3xUlMxkxHw6GzvuWSFs/yI9/6/l1oJD61PTHoaLWMnVViSywXHfUCu4oUspKgPcjX2++/06Op9Kq0IcbSeKRkW6Ho1MjSiD6lQU7U5KS4U+mqS87IUEkDzpTxTv79vR1PpQsKqMA1nj1KsXu/EtOitPPz7iK6PFjstqeedLza0rUB+SUd6tfft6WuJdoBNMIqtkGkm/bUddJkQJlMW7CeaFKmQpJ74r4A9NxxO/CfI8KGztJ8dceW5Oe1bKQowBUHcsYskWJJbnU9Sptu1OR8rS5KTr5Zzt2GHvsNEOJB99IB+/UxuXXJrf0Bpp6akLqEJKVHtVUGUpV91BTrR2P8utKjFTR5OpaTn3PxJccKLuhoBSAFkCMztCf18ddKePrIATiubCTGTtppna9Q62puPPpFUlultuJpmQkP6H0gAa/UE+PbpJlESFadyHYGknPabRblyMuF5LhCIq2XwFqbAcBB/IHwP8esEJbg96u7bBmrEuEtlYRh4NuPKmV+ODWf3HMi1OhPPCrVGlzrZpsWhCUzMW4woN+giS4yh9LnaC0o6IV1v0ifh5pOeRpFGOKnFdGI+L1AvGpW05xo4002HAxpbN6UWfdEmtNLrsyvU5U12BDKawz/ALlwKbAHcEJbJV2lQHWMiyoMhahEcjlzS3qGC+JNBwJVszPcUePN13fFxrV79odsCu3Gi1ap+DXFPozjiVoqJkSIz0eC/ICmD3JUB5UnR6tErPjeMUSE265zmoE8nuBF15N+IxmjjVwkxD+K02mQ6Fdtu2RZ78uVQLZp9RtWjVl9Hz8srUw0l6e600uY59a1pb2FEDrWeNYRkGqQuZn24qGuT+G2asKylwcs0GRYU9qsSbfWzV6bKVH+dhFAmQ0ywj5Zx9oOtBTbTi9FXk6IPVB9rGCadU9M8UExY5mrFF1u1zBeYLzsO9p1L/s/DrOOK5U7RuaqodcRqmiTFcQvsWsNqU0B9R19/PTVvJ0EwBmsp065OTjNSjk318XCn2Vd+UKhmzmLDs6xYAqN2XBNztXoq6IwFIbWt1K55cSg9yQAEBQD4O+qm7Zhh+aIbYQ8I1MAxzy5vqlxgvmbyncCVhoKdz5c7qAgn6u9Pzelp0dKSdAjx1qL4svRC4+uauYGY5LVsMY54s8T+dvFbEd+8gM9cisiZ6ThaDNnX3cWUbiyTQrRrkunyKjJoLyqjFdjxlOegyflWJCAFBHj8ri54xiuY4Mc2K1OKkGWXpMdLfoMNulCGVlaVNbUShJ+x0nt7idfVsa8dISnL5rrxZ2DNF6PR7QVqQ2lP0pKlErd7vcjX2H5dZ1pThxmi3GYbp0kKU9AcQwpJAC9jtWdfn5J0fcjooqw/jV8QNnj/hW0eO9bwpdN94+l37nml5yVQr6hWpPv6xM7WLYNmz6dQpD1PlCnVaku2NHq8OoPtyY6pDbCHYzjXrIV3NV1K01jTrTR763Bt0sWtWOSZOquqpqtvcREbQvRngh3xOGE6LJHuQOGWbeR7O3LQKGuUvIbqMsXEZVbO7sriCQIysVngu5UEiupiJDbWKgGYXC7kZkw514KV7iXwnzRlXi78MGBfFyTadXL8oNOyFkC48pxpzdxV6u3KYiKLS+540KLBpLDLy2Ylvo7n3pD7r44t1BqupyX0ty/7XTpdNiUY2xQyRXp354Z3afULidskAK0cKgiPe/HWPSLeCGPTtq3Av4b6aQ72MkkMlntj278KqW9lDEMHLSNJM2BIsUZfSsIc0KLwJybxVszh5ynvXKWdrOsvHuQqnfXI22csY6tK3Mb3hWMgU9WNrQipbqFPfekziyYinpbMRuTXFs+ourKRFZ1i0k1N7bowjas1tcu8gEk4ktrC508RpL5SLeRLjfh1LRrFDApaONWqNPS0tZnuZ5yJFiu7dEi+ygMd5fW96zTRYfdIjQBW2siSyu1y4WTK03OG+Vt0Z4xlZnw8KrxHzfftmVThlQuMWQ6Riu46dGzJSLtxxlXIGU7cvikNTae5EYjQjelSpFRo9SSgPxZMkpnRXgw4lzxNDZeJ74XdxZlZIzp8sLbmLJNZaa2mSEgFVaKeCWbyEFopDFKGYI0b7abcnSYYzYz/aEXscgIykkF3c210FA27klintIXDhiJFVoyoD7lmbT65nO3Mpycszvh7Z0mrxJxbh8HuLuIa/yVxxdWDrtx1DsuoW5AoWaLfVTUO3I4/Wqii7pa4j8SM9NZbisQ4foxZsbharpNxqOkaylwrR3WpSyGQxu4ihRbWCytDbqxaRZ9OhgjaCZ3fq3AExWLaUbpWV9p9jfaSiqosrAxSYXIlnlF5Ne3iyuWdDb6hLPJDLCqfZWrNBum3M1Vd8mKpW67hvA/w1cWcQuRlt5Qxpmao31JichbmpOX832xVbhotMp0uxLFfg0SmOwrZl1GPVrichFtSZMyqNO9iVxnpk5zUtKlvfEUes2KusEcc0aqz72dJWhaJJiAqv7msRS2YKp/rFwwRBJsVfTL21tdJntbx1e6na3LFfLCht47hZHiQl2RrwzIbgGQ4W1tkDSbA1WkWHivP8/h3Y3BjJ3EflDSLZl8JKtxizRfWPabj257zse76byFuLOtk1S26RKuqIK1TFidGpFXp0yTSXm1PuyGVuLgMJkdjxI9xq11PLADGmNEkiLKS3vGmWl7ZTxyKsqhYZYdQmaKQFmSSOJni2l1plL3SGttOkkUvLCdTRsMiqI70WLoylopG6kc9hEXX7MGJpEWQMwYNxf3IHEnE7kPhKpckcM8x7LpfGDg3S+IWCcU3JiuznHOadg1C377YvH+3NYbutUizW7grd2uMMyLbfryqXSPmIqHJMhtLryGpy3mofru8u7dC2oRNbCJnZYkjt9PtLLS5WdArTTQTWkV/cIUiinlVIQQibn5Gm6fp1ium2GlXcsEcFwl28uEklMk1/LeahFHE4VEjkhme1t2ZmYLmdlDNhK8cwcuMKWXxl4bYU4MXzyUxXVsEXtEzpluNemKKTZVQv3Lk+m/K1vIbN4QbrmuFmlNNQaLb1IRSoZh0/5p92S5NlynH0dQ60viFbtJd9hbpJDars6LJHJ0TLLKitIJLm7lj3TO0rCGKK2tospGzP1bRIl0SSG7hRL+dled0XcHKNP0IVdzuSG1hk8gVR155bi4ZUEkccU9fhffEoxTatE5gXDzxzRkTIOSrqw5Fsvjs5e02Zdzkac+5PRKkLqCiTGZiNqbX6A+txSz7Dz0XB63J4rGGFYeAazYO598U8WczL2z43IYcshOColFiWhUIEiRCua6VFTMxhZQk9qCHRLDqvoKWe5JKh29WEfHerlMnNGfGvnjxQtrn9h/lFnCS6zZVpMVumz6LQ4K6vTGJcmNPjNvugpU9/BKjutFkEEpO9a6uiYYGqtH5TzSP5N8tOJ18Z4xFemMMgT4tKiZAqty3LWV0SU1U6NFnQpiiot9iUrDhdLayR3gLT2+R1pLAkww1ZKrL8LU33ITkjgW+bQxLSrTy7Tqi3ZHIqmXq/UUUKqoRQaZFaSlyQuPIGilkFXclIClemFdxV56TaxiiO/501HM68ZrnJvlniTI1j3xRaNl5FxSa7UKJNhxnYM4Qy4xKD899tpSFoUz2pIQlQToFQJ89U6MfyrbrP8AM/vpe5a5o4quDDmQ7DazQLyoVWx/MpltWmw7OR676pbTny7alp/2dKS26lKPKEIKQgb30dCM+lQ0jt3NC6DzgxdT8V2/aE3NaZdqQMNs0A2spMmdKtyc5Q3o7kCOlbfrIbVI9LuWhXarsA2BsdR0IvlVd7fOgeBuZtEpeK8D44rGeqXT7Nta3oEet2jcU2XMNqOsuupnxYQdQptpLxDZLbPahRTse/U9GL5VuHcgc0hePHLyxscY9ta3GM1u2zGTeFWq1wW1HflIpwCqw+UyCyQQla2HQkBJA17g+OpEEZ4Ao3P/AHjRThrlfjCx6ZkWRCy1VLVfunMNVuAQKa67GRUoj4iKS+9GSn03ELV3kLJ7kKK1AfUR1f3SPFZ4fOc12xvy/se0slch7ooWZ36Ku+bzpNQgzpSpIg3REj0ox5He56RU6kOOOpUh9C0j7EH2g2sQXOKMP6tRtF5i43ofIvIOU6BlyPbb1UwjbVCYuRVLkvfjM2K9GVNhpCWtLbWfWUsKHatLSAU/SOs+hH8qCr4718kcyrLf5KY9ynRs0U+06rSsBz7AqN60JqZSBFlyKlLWuIkpY7gJDD4Q42f3JToKSNdVaKJR2rWISHI3U5lk89IGK+RuAss42zFaNKumwmbmhVmfb4XbtJp8SrQ47S2Zig2htQmLBBSyralD6iB46gLGOy1ptcf2jQPk58Qq7qNasjIuEMu0Gj5PqORnKnW36U1TbgqMxVRiS26i89Gkx3WlqPqBIX296R59Q+3TNuyRYYJzSU4dmKFqhUPiwfEAciuQU8ia38rDT67EBy0re9BtZaS2pSO2Ckp2Eo326B7R4HT76gxUAJSqWwRtxOfz91CW/ioc9EttKXyIuJa3E9xLFr2+39RGz/8AET9yelzfPkjb/Gr+5jOc0JT8VXn4lKCeRd3BzY7Qi3qDsflr/Yug3r/3f41AsVJ+LH4UYI+Kn8QVKxrk7ejIKQCPwShpWO7x7/I9Hvz/AN3+Nafq0Z+P+FGUL4pPxAw44Vcnb6QjtKApmkUMqJJHv/sP5dUe+YDOzP41VtPCjO/+FWxfBY5f8l+Q/wATXhxbGas0XLkG36XkCpVul0muQ6dHjRZYos1sPD5eO0onsUpIBVob3o+3XNubtru4QYxgiri3CHcDWyr+1JsvyeJ/GOKzKEND/K/Uh5SuxAQnH16q0pWvAJA311rf4j93+NL3XwD760ZHyhlhZb9Bxxt9TLBQS62+d6UfI9iPbpuP4waTT4hRPJdeVEcU40Q43rTa/LbZKgEpV+e+tT3ramdjwGqre90etJ+TeTJZaUhoEJ7vRQfCft7n36o/ajilau03G2gE1l9IU4EhSdpBB/un8z9+sqKc60KjCtymOUlyA7Aqjj63f7TRdynVoc16XdtWu5sBQGgPfrdPgxRXy66gJNKpdCRUH6/IYluOqqkhlDLjIWCrsUAN+SrXufbqaKa9mK7EcU493sup32pdUHkKA/Toor4G29kOL2vX0KMfQ3v7ef5+eiihlWjdsNCIzo2WtrKvrH8x0UU30VqcxIcmp75iIu3C8E9y2dED2/Looo6q0RyMzDYWl5aY0FtLagsMpWDr6FD7qHuddFFST4IMxJPMXC8OrjtpIqdUmS+5QKW0sUCqv/vPHkd6UqI/JJ65eoPtKitYxwTXbKFtQbYgIproMttFwOIaCkeipPqkP+PzALp19tDXSajfgCr1AzkJr+xNQix3QGk3JAk+kr+FRSpwb/wHW4XaMVsnaoS0c+pVaYEp0XKux2j3QB6rXj/l/TqaluxqwXmPZdctvOeYJ5hTHIdw3XHrVEqXyKkM1GOhhDS3mO5P1NB1LqO/220r8um3lyormr3NRips8NJZlVWiznVR5LbrcumsFD6CFDw6ogNK7v4tBXeNHY657uWJpyMYxRHVG5Dlv3G8pmS0ZLqJSlqaLRR3nSVqC9EhR7gO38urREBvxq0p7/dVufAG0r+yBxKuW0VcbMm5Nxo3nKZUY+Q8XcjqPgKsIqDtGREl0KSJyViVFWwtt91nsPb6IV11bbaCS/aubO2xQTUj1cYahWX6bHVx+5W0FlbCPkql/r54+u14NNgNpdjmTHG0/wBxJRpJK9geOtX6YJxRFLz2paI4PS7idZl1vEXNuQ1QLaciTlyuXeMKdS6TSStRkNADTbcJS3FIWEgDudXs731koDNkdqtOS6lqV/HSm/EJzH8WrlhX+I8W4+MmZbax1SLcyRaKHKFedXoFoN0+3bXmKkRiVQKklLDdPqDzrQUvylxlPqe83kICVFpgS01vxX8X8m8XM0un5qzlc/InHAybKjY4vaVZ0CxLcm1uRQadMuxUSA00zIbV2P0lPrPtoQ6WU+kQQraKDCAV0G+KqUqxIVQ4jVVtt+RT6tSVuTk1CLJQqTGfZCVtyGSB9LgI8q8/w/b36vUDkiihHMDPMm07useo37ULktu+aQ5R7lbuBSZkye24lsJSt7QWSn029d5VrtHjpet6cCyrMtiRaOPXXnGfQqkFT1bqMxlppcVwaWtkqIO9d3v2jewPHVXOBkVI707NCkSqfR349Jve4aFC+ZQ89Ch1cxIDj6O5IfVHGgSAhsIUNaGx+fUdU/k0nJEOpuC0ymU7QpDNIDUKU0uRKiLkvPSUJCk6QXEpS4dE95CiBs+/v1Ktu5pzAUACojUwRXUITLHygYjlSigeotSiCAFj7Enz/I9WqKUVMmoMhhS2j6EWMqIh3yklR9tJ/I/9eiilfGjNKFRIV6u0JW402PqjpS0r6dH+8EqV7nqCMgj51OSO1bLmM+OELk9yWx98Myxp1KxDgLH1623Q49EpLbtQm5UuOsUCPUatd93SXyl2e+hpx9LERILLKQgtgE7HUnBgQMo5wP41yre2RpGb6n8/v5++rM/iZ/s+mHeEGAaVyR475ivGnXFYd50ndcqUZqlXnSKm88hNOqVImwkpIbYkIQ6Yy0khKDpa/I65sN3LPMBjI9a3ntEbuarOqGRH76tHirQLQtWzMVZY57YIlXpzAzljyloo+RssRbdn1KC7Ro8gbZp6quqmRn58iIlBfeUFE+FddO4uHjQkdv8AH/OoS2QHjvV3eVv2YnBtt8SriuygXBRk5nt3Hbl0zaBJtiBS7Nltxoapk2kxKihXzLbzbJKG5zizuQ0HFBKVKKeQ19NKwj9K292TZtHaqVsV3/cDvDSmZQuhi37xzjj7lFRuElg50uGiq/0t25YFaQJUqGmqJUHFTkNx0RGprhW+wy48lLqUOddeO5aKIEjGK55s4xIBj84xVvfDn9nKw1yf48HOl25aq9o3TlaVVavZdGtW0YL1FobSJDzEZVYeeKpEh1UhkFxIUntShIBV3dcqW+lkmBX8/j8q6AtwqbAaoL5YYXosPGHOHj5f1u0abVeEuIqRkrFFz0moS1T7UuBV7RrSrUWG687/APBVQjvPPuQVo02+sLQAseX4JGZDu4JFJJD7s277h+fwrWsde7VE7bQ65oKJHelJ1r38f46156Q3BjuFdU/EaGBZYmJS1IakJaKAp1AWFJK21JW3v+SiPHt2jXQe1FGMOQ8y8fRLrKkkgAK7lFpRWFII+/hZ1+Wkga6z6pHpRWR5/wBNZixUpbQ0ylDDqlFpwtJ2fTGvfROvz11ZJfNjFTjJxR7TaLUK2XGYyfRMeF83JkuuIb7UJWja1D+IdpUkDZH8XTJkBOat0z6UWrbmQVLfAKoa5RcXMZKllwtq0pokk7Tv2BGtEdZu26qldpo6pNuVuo0cVphCUUdx9UBuozZwhoDhX6bq0pI2oICfPbvt37eeq1FdDQ5w7yExXA2vtjoROSltbfcSSnf1fVvf3/Px0UVlNLqZb8ssesXht1Ez03/T8ApCgrQH/Z+/9eiisaqFJQ4lxtr1uxalIDs1I3vwCd/8I32pHtv36K0VgBigVSgyokeXOdiJjw2Y/qykIqapHeAUgr7QQSrZHt79Gcc1O8U7VK47ZyuG2uPd0UzEd1y7W5V5Fl4l4+VdDsaNTsn3HTqnTqPLp0FTkoFtxE2qQ4vqSgyytZcCXFBl4t/Nr72yezbTdS8S6NeaxEt14etUvdTjxIWtLWSKWdJZAIzkGKF3xH1HChdyjfGGYFvOdNk1cIfdo5OizjkCTprKFIHPmRtynG1sOFJKOFE3bxpz3ZMDkVUrxxHd9vw+Jl8UrG3IhypPwI7mMKxcE6pU+jwpLQlFbyZb9KnJafgpkMqShKy6EONLXho/tr9mHiK48MWmjazFNJ4it57rTAgkIu4LaOKSd0PTAQxJNGXSYxyAkrsLK4XqXHh7W7SW9huLZla0RHm7YRJGRI3znBWQyJ0ypYOrB1ynmpVVHilydo953FjmbhK96LeVo8ef9bC4aBKfpsWoUjH0ajM19241lcstmMiC8h1bCFKlJWFtFgPIW0nn23t+9jt7oVr4ns9fhewudTGjRSqsxV9Sac2y2gxFu3tMpVXIERGHEhjZXKv6r1D+o/Yn+uRCeD4R1IirsGUkgdo3GCQ25SpG7iklxk415/5h3nUMfcZ8VXblO56JR3LjuMUlMKk0W24DYV3zavV6hJjU6GhxQ9JtUuQ16rpS22FuKCS77WfbR7L/AGJaDD4l9qWsxafaSyCKMuJHklkOPJDBAks8zAHcwiifYmXfaoJpextbrUrxLHT4zJKwZgAP7KDczE9lUDuzELkqudzKC5FD4McwqxyWr/Dqn8aMrP8AI+2oz8+vY7doseBOt+mtljvrtQqb0lNIYpKvXilFYdkinuJlxy3KX6zfd5m9/SU9g+neymD23XXim0HhedlSK6DOwkmbOLeOFUNw90NrhrRYTcqY5A0Q2Ph+50PWbXVItHmgb3mUgIoIYPuO0MjKWRlBDbnDbF2uWYbGw33Irjhn3i1k2JiPkTiu9MUX/VqJHrdDptyxo4pNxU6Uj1WalSavDffgT4ylIcZMmC+82h1l9lSkuNOIR672V+172ae2rwz/AL2ey7WYdRsFkaJ2i3BopUOGimhlSOaCQDDBJo0YoySKCjqxV1PSNS0mRRqERXcMqchlbgE4ZSykgMNwByMjIFNKaXUE7UGkpLjSWVFMkO9xP3176Gt+T19KwPlXLoc3AmhttOwkpR4Sl8BKtjf3/n/PrExnJ4rUOtGKIq20tdiVJcQkEqU8HNn768e3UdM/KpEgBFDRGef/AHjiglZ19W9jx1XaBwRTQIIyKGx/XQspDix4KiU+B4+3UOBtNVcHbV4v7Py96HxVeIYQo9zl6S2lbO9hVMmJP8vf26Rj/wDiFP1pcnINbdv7VBJEbiJxpIKQ65yuS20HB3Nk/wBgbzUdj7+EnQ/Pr0dqAWbPy/xrn3XwitGL5lxSnH0oJjubT67atBpX/F2+P8h0+iKXApAnAyKAS1yEoabKlLbP75boSC4O0kju/rrz1EvlJ2mtI3LDmo1O3M/TMq3s0+2y4V1ZBKUO/Q4lLDQB8f3vcaH5dKu7ZxWxGFDfOnbiXjBcjoWNqWSVFHcCAd+Pc9XXnGaisy7ubU2oFRQlbnlJ7f8AHx/P263qjMVPFYf7Q+sl1Pqt+iR2hGu1R0NbJA8n9eio6jVmgV2BGksPSW3n0pkpU4wFBTDjY8KBPuNnorQcjNfXaw3IQnsUlpgn6Y/aCG/6+/8Aj0UUKFVjvgIcdSQlPa6QAlOvt0UUUzKnCih5z10JQGlJWEEJSRrY/mfbqrEgZFaIAc5FF9dqqHJbaGZAU4taXWgshXbpKB4H5+f6dU3tV9qeoqSnCybSp3Je2pVdmMUun0u0brqEyclpfd2ptaqsNtIDSfLjj8mMhPt5X0ldKsjBn5NUO4HI7UYcg3ZaEU2PV2XkT49XQ96TSlNgOdiUqACgFaHZ7HxrR+/WCgKcrU7n+VVh8hLspUhLtux5SX6o/NjyX2Y6goRQ3tQDivYK0SQB1J5OaYQ5UE1GSjxiqdRRtv8AfVZsNp2C66Q634cH2H6j9epAycVZuxrerwHwWwnzJtrJlHrtWseDmazK9Vm7UZvachmn01hKUgNoUAN9jrpV6J9inYA87bkTK9q5qDBNVK3Hiy6cY2ve/FWt4DptYjw6k5CmXI+Gna4ZiymQuZEeS3sJ22EtFOj6ZV431zpIjjjvTsTKMFu2KS/P3BuPbW4tVOv0m0KFSLrtKg42oNSnxvmVSY8+p1irImFHf9AU8y036hWNDs+kDe+ujaRIIwXHNKz3SGQov1/gM0oOBFn0+r/DytK55OPsw5HgWpzOuuoVOlYPsqoXzd7SXbKbTAVLZiHvREXIb9N2VsgBYA8nXTSLvYqlKORNHjBzxR1etyIum/p1cg8T+SEihmwbZsmnUi6eL9adl2+5SfmjUprCnIS3FrkKkBDYHa2tLSlLIUlO6SREcirpABilDdUjJC8ew7HsHj9y2oj9VxjdtrVVugcdLtfofqV2tuzINJqJcgn5hlUZTSEusn9wontII7zMEUgQ49KynWUSBR2pY43h/wBq/jp5exnXeV2QeE1oXxab8C9soWVfsewKsh237BpVSh0KfOkuJZQJEyMzGEeX9QcR2p7nE9vUT9V/LT1rEAu41G34iHGywsTx6hcuPeXUfk1adZyc3QYVKuK9qffeWrUTHo8eXGqFWTBfeiIjyUPllLrSv95F0fKRpMAAYp3auaq0di0uvSKbTZ8tFEp9RqDcCp1eXHZEekMPqbakSlemnuUlpCnHToEkNnQJOupo2qKf+8+KHDy3cG5Lue0+RFYufL1n0xVVolMjKpzmP7xCZCW+yn+BUEOejpxIkBP1KXsexC9WqXHCnBvHxngZcWbsl524+SLtvS/ZmJ6NhG5RKqmWrOprKmlP3G0kPsojrKUtuxSoPtLakKClFY0JVA7BTUM5Qbl71UJmtLNkZ8yDbVu1dNXtm27yXT6U5T6wmowJ8ZDiTGCXEn0lIdbUlJJJ7Rsn+E9X6SfKsi7Z71sOZcszhnY9oXRGfpvHm5XInGeVU7Gq2PHpEmoW1c9WpMaclupyVVBxE96AtBZCgjsCnV6QT1DIqjIq6sWPNatUdhJCWlh1sLaDriCghSSr69LJ9yCfHnwkDft1Sr0cwUOoCWYaH3fTc+alPtNAoWARpa3FnX0ntTpIGuiilnOqMt6MhTbbSVT5aZklbPYxrsUEq7z433oOv5dFFXo5LzfkfGWb6J8QPjVUa5kLDGYZVt1B2s2NRVqv/BV+WzSocVdPkt9ixEnR/RWuM+f9kmMOuIKSQOn7uVpol2qRwBXDinaKVjjuc/vp3eX/AMbDnn8QKzrQwRULSvWq1C4avFbty0bbxMu049eqT2orNTkIZbJefC1hTCypLDBdUo+AT1NqY4l2FDuPY/Wt5LiRz24pOZ1tG9rGxJxqq2Eb3xzlHOHw9cPv2Vy2xPZi3ZVRtyFWKhOmTnu5AH4hGjfiXykx+IoqjvHf1J0rrc2zkbX/ABoW4K4OadLKn7SVyLyNxqlcbadJuGFacy0kWbLlCjxBedep4ipQKVOuFD6nlQy0UMrUhgSH2Wuxbiy4s9UWyjVt1bG8UjFEGIbEylTOFTOO70TbP+tRenJKi85LS41pq4i5evCz6VBfVMVFpiv3bdQebIcjU1xSHXGGNjR0ksPAhXbSRd2cOKXuJf2jbPnHHF1axBhRqt0W1vnp0m2ouQcYRbmufHpklb0pVLWJaCyC44tZRJbdDS0k9g+rfOitEjbEnc104ZvKS3OKiXkPJcGXxV5fcgsxG4bRqPLXBNDwhiKj30zrIOY7kh3nFuiu3HHYGkt0nsZdSZqglHqnsQk+/ThiWPgdqpNdR3OFUEHIP7q13lAqSEIIKUntGmvTI17e/wCnjwddcuRQshUdh/jTmc8ihTRVGU1IG0OsqC0D9da7iP8A1/l1SiuNyVqlIcC1F3u7Uq7vbfnWv69V2L8qKHSVOqabQ1GRqGStpBV9ThJ3ruPnyf8ALoCqDkCipbYouSixsN3xaCrXo9UrN+oEZi6ZrJeq9uGGsvpajKBBAkBDaSDv/eJ6tVt7UztttUx+oVe2Lg3EaWl2XHEtXofKrP1hKU6/vkb++t/YdFQWJGDXITbkaDFgLkLdZhB5MVsPd8SOl15TqvTT/B5Uo7VrfjRPRUUIAA0AANfwgDt1/Ie4/l0UV96KK50UURXQQLcrhO//AINXrQ357ka/z11BGRiitie1/iBfDWpLGCOMjNw12k2TwnvLjJlPG/JWZWbqr2HswXBje8Ic3Jb1Hx+m22qjQpE+NkLI0l2a/wCsKsi1Kd6jbLoioX/H3Vv0bf0qb6XxH7V3to5L/wAUweLLO60pI7SO9sbbVLF00pZ9TN+1vexwSaZpcaxJsNo15OVeROsw9lHq9nB4UfwlGIzmy3h9ziNb7qteMqr0NxlkM89obl2VVVI0TMR3sJr/AMQL4fHJ+0OTtpZ+y9/ZS8Mx85cZ2lfWRqjY9xz6XnbBmNci3XXaBeK1QqK9N/H4tr15dtOM1FCX349Gt9SgXTMLeGnfo2fpLeyXW/CWs+zfRPeLLTfD+rTW1qlxaq+n+IdV0yytrixHVu0hNlJqNuNQV7dmjjknvgMJ0Q3q9f8AFGj68nizTGuelHcb4LSVYzzbSajDcR+UKG6lqgnYFyitA0MCjdCCxjO+JhwJ5TVW68s3JdiuIuSL7498ouI1YpOZaveXIKXGo2U4zd04/rSKpQ7V/wBnoUCuV68aW3RWW35VNjKjob9dhLZ6Wg/RP/SL9kdnZ+DdJsv949LtNT8I62j2MdjpoM2jubPUoDDd6ll7yezt7G5e7dooruXqM4jkL55767o15d28nvHTS1vLjYXDyM9rc2TwqUACrFHbyRRhLMEgC4kkWXJYCtDGcjiRZfHrlHwcqPPPGsSFmu48bcg7U5K2diDKj2Ea5UbJXedPm42venvUFi5EoUivQ61DlRKPPgiRFbC3EO6DP6r8UQ+2jW/aV4R/SAtfZ1dNJpUWq6bNpU97pA1COK/9xkj1WwkS9ksCQbZ7WaOW9tp+m5KqyftPPaRPYaSup6XJeF4r+2ijLoG2QyW8zTLuRlV2EuFV3X4D02COFYVKu4OaXDO8sa3xwHe5IXBTbGd+HvjvitbfPS4MZXROtOs3Jj3I9eySKXKt1lt25WLNnorot6O8mGZUc0qI65TVx+1DPx3TfYR7ctD8Uad+kYnheJ9QHiXU9Yl8OxXdoJo7TU9Lt9KMy3TsmnvqsLW/v8imboyiaSNLoTZZ72V1pmlNb6WLkuJLO6gkuY48NFJdXEVzsRndJHt0WIW8jlQWEkwjgMZ3GD3PTJnEm+Kxw6tXjK9b1WrmKsXVW1MsV7F9Vy3K49pkTK7UKzSKTYUPIlTlV+JAgtVCZ8w0qPCZXOmzHW21JcT2fpT9Frwn7aPD9z4v1n2sLLHb6hexTWcd2mijU9sdskE82ovoVvDZSzTNEnSbqTyLbxxRswKndnrUmhR6Bp+n6WFFwkl08nS6whCSurxqqzHiUt1ZZyqgM8oyzEELD4fwj33oa17/AKb/AE9+v1tXlK7f999FFfQCSABsk6AHueiipX404G8x8yWXT8l4w455ivKwKxA/EqVelGsSbLtaoRu5TZdizu0MOp7m1DaV7BSfBI11y5tRhjlaLZkjP4+vyrZHIXGaZq8sV5GxlU3KPfdoVy16nGBTJgVimvRXzogEkqSPI2Ngfn9+qRX8c7dMLgVopDsA3NW4fAKV6HxVeHSk96FO5EeShSiP4TTpewB/I/fz1nesIplaLiqvgEitvL9quUBxG4wJPu7yyLaDvt0r/R7exSe77exG/wBevS2nxH7v8a5t18IH1rRsejts9qwpamEoDiUN/Uh1w6BBV+m99dGP4xSLKdp4rDNUsttoadEeRKQPRCB+8PkAj+R876pN61aIeWoV3BblbjX7djy9KkquCR6p7OxWgpKU+f6a/l0m4JPApgnygffS1iUmWppKVoUlRHcXArwk+/nrVP7NV9aNE0qppSUPpUofxhaFH2Otb/X/ANfW9ZSfFxX0xpUVC3QX1hPlSC6df4b6KpWKIJstp590FlLshJaSk9qexI1/n79FMfQUOPzBAaDjwWk7Ok6/oT/h0UV8W/Pjt9yEKWkj6lb2oj2/n+vRRSanSZkxbyWu5DLcZS5Knk6SlIICgP18nXVX+E1pH3ovn1GS9IDwZcQhlpLbZ79q1pO1A/r29Y1pSus7MU/FVXhX3QGCuuUB1TzEZTIcalIWjtWHd+CAATo/kOlrjO4VZQDnNIPKnLGXkenvTmYlwu3RIdU9MqtVntqgNdxP71Gj3ex0B+g6wq+xahi447KcekynnpMiS560h+SD6ryidgq35OvsT9uirAADApQ287TGZNOcXCV+KwaoidHIc01UW2nW3jF1/wAaw2QD/wBo9HqMUHgZq8u7+evGqu5Iu3INmZt5yYV/tVVxccuzbLsu0Xqfb015tKKizGfXLS84krSD3EDztRHXZ2jaDXPUHJ4r4xz4w8qe/Pmc0PiLPPylgyZE3HFk1Oc/9vLqppUTrY2T4BP26TKKW3Vvk9PjvTacqOaGDMocdck42tfI3JvL+TcjX3Z9xyLkzfbNAtun23Atlc9wtRzT5Cy4XRJCAdeCNnXTARenkVy1gfqlsfMfvB/zqqq28k3/AGXEcas6/L0tJpx8uuN2tdNQoAcWoDuUpMd5AJPanyRv6R0pDciOc0/7sI4Q3rnFOBE5Ncko5LzHInOzClLL5LOW6+wpSidlR1L/AD89RNfAZGK3ij4HFGsXlnyoiIQ5C5LcgWksHSW05nuRaT487R85opIOtffq0N95flWjxByCRTS3beNfva4p90XRVZFbr9cWmRWKnLdXJlVN1KQC9IcWorccUUhSlrJUVednZJzlvgTkCqBCnGKLYNw1ilJlohTn4kSYtp+YhhlBCiy4p1orSr6TtS1K/mon79CvvG/51sO3NYJVxXA8++x+Kyk+qS52h1Ke0q2ToA6HufboPANTSFqdQmwHhFbKUtusBa21NJeDn7xSvIPg+QDo/cdYAZ7UUDTX6x27S4e1SvVBEVOiUknuB19jvz9upAYecdh61U7T5DQZNano7QkspShISgCKjtQB7aGvt9v5n8+rl2+VRsX1rKK/UktIZS6lLLayttlDCUsIUreyED6dnZ+336qzE96sFA5FfTcVU9L0UvIQ3skpQwlGyffZH5/fqtT2709HG3D2YeT+cMZ8fcKUynV7KeXbrjWNZFGqdUh2/TqnOllam2X5klaI7SFekolTqgDrXknXWF1PJbW7zxRNKwBwi7dzH5DeyKCfTcyr8yBW9rDFcXCQTSrErHBd9xVfqdiu+PoqsfkDTaVG57qnKTMmMICGj6xUijpjRm99qRtKUhGh4A+3t0C5t2fYrjJ7DI/cOc03Jo+rRQNcyWsgjAyWMbhQOBkkjAGSBnPqPnTn4i5X8iMCO1t3DGWbsxsbjbYTXW7Vm/IRqoYylLjreY0W1LbK1FLhT3Du9+uiLy4QbQRiuSYoyckU+I+KH8Qn0X4zPLPMbCJTCo76YleEZ11KkFCx3oQFjaVKBKSPc9DXtwO5AHrxQYYz3FR2xdyPzVhfIlKyxiy/qxZWRaPJckw7roy0oqavWSpt5p/vBRIacSpSVsvpWhQUdp6obmUVT3eIntU2R8Z74kwCCOSE0KQsPJc/0a2iHe/vLnf3fhm+7u0d/wDZTrWugXMnqRR7tF8qhfVuTOdK5l53PlUyXcsvMj1wt3V/pFVLLd0MzmlJW2+1IGi32lKdIR2oAGtaJHQbmUdiKPd4vl/GrkOG/Nb4kfLe8MltXTz5tDAOG8LYuk5w5B5vytYdKqdvWRbsas0ihMyE0qn0l2o1eozqtXqPT4lPhtrfkvz207Skk9ZSpq146W+kRJJcHJHVlFvEAql2MkzAhfKpChVZnfCgdyrltHpkJZtSkdIQBnpRmaViWCgJHuQE5YMzSSRxogLs4wAWk+JXiPJtzWHYvOm2+dNv/EU493hkidxmGa42Mq/g+5sd3ZQaJBuRNrVKza3GjuRmXqXU0y4smlmTEcEaQl1TLobQ6tDNrqSLBrUMKO670NtObmIgOyEM7RRPFIGUkRyxozIRIm5CWELHpE1ol5pjTZ5V0uIoopEIGRgQ3FxHIpGSWSQ7T5W2t5RWrxyw9lLlPnzEXHbFEejzMj5qyLS8b2ezWZLVHoqZ9WlIjNOzJRB9JhvvU66sJUoNtK7UqV2pN7qd40ecIXb0VRy3yAzgDv3YhV7swUE0WsMckqQSOEUkAseyj1JxycDnCgseygkgVYzk34cmHH8S5wvziD8RfBvM6/uLuPV5Z5C4qtHDN9YpkUG2Itdpdt1WvWpX61CbptwQoM2t0z1FtuRnXGZAdYaeHaleLWviqwlYazbWnRVxEWtb0XLqzBirNH0I90fkYNLbtMkbMnUIVga0juvDt6kn6uku1kC7095tY4Y5F8oO1kupnjkG7IiuY4XYA7QXDKKe11aay6pJLIWhWl/7OhWlD38/z302eDj/AKfwpf7q7KuGqLIProR2kKSEMpGtHY+36dRRSjhZHuODT2qW0aUuKxI+aY9ajR1vsOeNKS4B3bHaNbJ9uiinjo1XuC4GKDPmUKkVCvVSGFMVmrMFL89tp8taQ2kpSrQ0nuIJ+gjf26KKWVSqtNElVOpdvIpHyjolypbjAklbjxe7220r2AlASnaPI7lAjt2eqsTtO3vg+uPu/j+Hz70Yyfp8/l9frVluK6P8El7GGPHc2ZG+KZAzHIsynvZUg4wx/jiZjeHcC4yFVVmgOzIDktUBt8uIYXJcW6ptCVLUFKKU/jLxvqX+0Ui8Y6tH7N9J8FP4eW4lFk99c6st41qHIga6WKdIluGQAyiNFQOSqZUBm9RaL4MNtGb1rrrFQWCCMqGI525QnbnOOTxxS7/Af2fv/wC2j8Yj31/+rjFv/wCbevLfrX/ak+ui+Af/AN3rP/qaY/8AcE9nu/3Rf6dc/Af2fv8A+2j8Yj//AFxi3/8ANvU/rT/alHtovgH/APd6z/6mo/8AcDvvu/3Rf6dB5Vr/ALPlOjPw5eTvjFOxpLfpPtox5i5pS0nzruFN2N9vuPy6g6n/ALUsjA0XwCP/APq1n/1NSP8AcE9nu/3R/wCnSd/0Vfs54JV/pB+MkNnSlG0MbA+T4/8AiHnZ1oe5OgPJHVDqP+1HWMmTSPAWB/8A3Wsf65GaNngJsBGu/wB0frxj9n69v+lTuY+DN8OR6g5Zukcbv2gqPRcEMQ5WYXZ+KMYU2pWJ89QoF0tsSKe9GRMflNUaq02qSYcNl+TDjTWlSWWFK7euE/jv/aWeVl0vwO0ZBJdW8QvGiqD55JVYpFG3dJJCsci7WRipzXa/3f8ACIBUzSB87UT3qx6krbN+yGLdvmYAEFYg+GDL8SsBBBGLP2cxxttxvIfxj1tOIDjTjdpY1W0tKgClSVCBopOwQR4I156736w/2pSsd+j+Avr/AFrWPu5/rH1xXGB8AleGvMf/AOv7/wD6fr/OpZ4Z+Fr8LDkbRrcuvA2Av2hvL1mXbcC7Yt+/bGwDY9YsGZMaqKaVMbXXfwwQWURJRLMp995DUYtuF5baW1lPIuvGf+0qs7n3K6sfAQm77BNrzknaGAGx2BZgV2gEnLKMAnFdCPSPCcgEy+9dIkAMZLZAcnaTh9rABgQWKhfKxyQpIZrOPD/4FfGnJd8Ybz238bfFOVcdS3IV3WRd1jYxg1am9iVLZkIcTDUw/FlMo+YizWHVxpTDjbzLrjS0rV0YNd/2n9zai6ttJ8B7D6G41tWBwcgo8quGXkFSA2QQAaUuLXwNbXDW0jXW4E8q0DqfTIZFIYH+8Cfr9BGMuJnwOskxv7UYjpHx3cgxKZclJtF2rWNg6yL5p1OrdfTqiUh96JR3mUzqhtSYsVSvUkFJ9NK/G+ZqPjf/AGlOhzJFrVp7PoSw3ASXmsJkc9gbgH0OB3JBADHinLTRPDWox9XTra/kQbxuVEK+TBbnp4wNy5PwrkFyoIJ633iT4GOLrvr2Pcn1/wCNvje/rRmpgXTZF84dxxaN32xJUy2+I9Qp0mktvsuem604EuIG0OoUNpUknpWfiL/ad6jbC80zSvAEkJyA4u9aOcEqe9wDkEEEFQQRgilbiy8GWUghvFvUcgMARFyrcqwPTIKsOVYEqRyCRWG0MY/AmyDdVAsWw7q+NVe17XXUk0e1rOtDD+Nrkuq5pi0LWiJT6fGpK5Eh5SULUGmUKUQhR1oEgvfEn+060y0e/wBU0v2fxW643O95rKquWCjJ95J5JCgDJJIABJAqkNr4MvJRb2S3skpyQqrESQoLH/5YGAoJJJAABJIApxcqcWPg+8fZ1uRM8218evB0+6nnv7KxMw8cbFx29chhqa+a+QTPorXzHoes0XQz3FsOJ7gnY2tpnjL/AGlOsXDwaRp/s+mZAGcLd63lQTtyQ1wrAE8ZxgngHPFNXmi+FtPjEt/FeojcK32JVzjJCMqMCygglfiAYHBBzXoR/CXRhpj4bfC2Px7nZLn4SbwNRv8ARs/l5mnU/JMyjhUr5b8aZgAQvmlfWHPlwWyAggnZPX7T8Dt4zm8I6e/tRjtU18wr72ti0rWgmy273cz/AGpj7EdTzZJGK8Nem0W8cafuMGTt343Y/wDFjA59MAU2PxPPhiYK5x4Yun8Rs6jUrK9EokqRa9306lswKrJUhta/RfUlIKlE6CVkkgJOiAeu9ddCFVaBSDmqW7bnrRM+D3jCq4g+M/xmsKtshqo2xmSdRpSUj6AqPCltqUkfZK9BaR+SwOkLqQvMua1lPJrbM/af7dk3HxS41sMxag4xF5TmTOmU+iP11VMaOP70bDrjTST2pK1to9RekguD7669Wk3RJakZlJKn5GtGSValRQ/KYcivd7MMyUBbDlPSpP7pH+7UAjevJB60W+BbFasQqHisFBtCt3LVafSUMpjNesIzsh6c1CTFQSSXC+SEteAT3LIT+vTCyb65rkdz3pBRq3huZWqyxUrppka4Ga0/HnImKCl+r6h2PVO0r87+seDrpiNgrbmFKoHZjk8U4cOLi59sBi57bfUs6JVUWUuHWv4dEa+3v1r1FznA/P4VfY2OM0fs2rZspQMWs0lSVJA2icy6Bvx792+gyqPlR08980IkY1tySyhCJkSUt1IKA280of10egSCjpff+7/rQRvFNIX2obcipLSO1Y0ClJT7nft/XqwgJyc0uZXUkA1iXiGO4XFlMQdiO9xWthA1vZP2/u//AHQ6noH51KzvvHPFAkYbQtw+n6S0n2SWSgH8x3H+Y/x6g23pmnTdjPaius4Rdi0yrzG0gKZpclaUdmkbDSvY+xP5dZTQEIMmj3v1xTPO4lqQTpxoLcShCQO1RS5vatb/AEJ/y6X6NV96Ocg0jrwxrLty26jUJjSVtyY77IYA0ppQivrG9/8AzH36gR9Mc81dZOoO/aq1mu0ICd+mQO0oR9SToDXj9R5/r0rKP509HyAfpQlgtIkNd7SpDS1akJd8ED/iB/MDxrrGtaMZUBUcCfG9STTpDvoxZpSe5Cj4Shev4f0J0eiij8GBVWoqE/Mt1oRw3KXKbQW5r/qqLiFEeyUpPcD99De+jc2fU/jUYGMUTLQttDqFrAWh300jxvx9+pyfnRgVkU20o9/egLBAISrQSD7p10bnIwSaMDOawpKlKcSEkgHyQPH5dQOKBn1rM2WQNvJV2hsg6GtE+w6ggHvU18bVptQOkoB2NkDQPgAn9eporokFlSz2kga1saH59VKg9xRWLZcQslJ7VEEbG0k/y/p1YZHaiuOMKDiSpKk9/lBUk6Vr30fv0UUmKwn/AG1rRDh+SCkg+e8hbgCQPfyRr+XUj1H5/P8AKjIHetwjj7xWosXJHw9uJNifBwxXya4R8qsPYiubOvxAa/YV35IyfXV35SKdMyfdVJyhSJzNMs5uypk+tU5NFW2l2N/ZErkqcVMQoeavE8Gxaumj6vcXY11wQiJdTQuzyjdbPa2SiS3ngjV42ld4ZopFjkEkqBZJB1o7nxI+nnWNPktv1REGaQNb2skQjQ7Z1u7uRRdQ3DNFMI9lzA6M6BIm4jbUpzja9k2PmDK1mY0u4X9jq08l1+2bDvhMhmSi86LT6xOh0qrBxoBtXzkRiNJ7mwEH19pABHXpBFcwIsN4ytKvDFMbSRwxXDyDaSDtG9xjGGYYY8tpoZyZrZWWNuVDZLBTyA2UjO4DG7KIc91UnaFvxfxHizNmRn7EyzyQsDi1SJ1r1GVbmTMo2rcNzWA/XWUNGlUiqLo0WVMgMTXFrSupfLvNRUsqUtpYISZFtqt2ywaOsTTEgkTXC2y7ARvKySAx9QDlFcorkbS6Eg1KXGnWx62qNKsIByYYeuwOCVzGHRipI2nZuYZB2kA4ejk78N7k/wAXLDpWbblo1k5T413TchtWyeVHHnIlJzdx2vOf3S0iFHuGmur+UmEwZYNOqrMOaj5dffHQRrrl22ozyXRsNRsp7W5ALFJUBXGeClzC0tpMCDkGC4kBAPqrBehNpqrYx6pZ3Mc1s4GGXfG+SMkG3uEhuV2nyFmhCbwVDHFHnwl8g3tiz4kPC+/cb4hr+er9t3kHb8mz8P2xXItsVvINSdecixKczUpSTFhha3wtcqV2sMttOLdcbQlS09QT6fbHr6tI6Wy8uY4zLIB/4IgymR/RUDBnJ2jkiuW0d7KpSwVWlPYO2xSf/E+DtGM+bBC9yCBirVOQd6ftCmT+DWa7+z3ySuPJHFl1m5bVyRaC85Y+uytX9bdl3rAsu6ropFEguLqFWtqmXKul0yTXaUXY4XMZcDqozpeN7jVNQgaS2uPDcdtBvFvLMNHsrcw3GOoLZ5EgSeGYdPnyqitG0RcSKUrCy8K6ILSPV7LWRLJgSRRe+3kpmgYHbOoZmt3idSWj6jh3BV0jIZGOtA2VeufUBKyo94V77++/8+qKMnimO1bUGFMY/Bcxw3wCxTlrjfGurLWdeMVo5gyhmnl1ygv3jrgul/jsetV7I0i7KZEgQ5tPkU6JQWqfYLluibAr0a7IMuW7IfEZT6en6PDqd5IyarPeM+5VisrrToooZCWjKTvMrT2zWRHvF2tw2bkRgQJ0ZVVtLvVNV02BJksI7SE4JnurC8uJmVDhmtokkFtex3StiF4wptJBsmIdZGj1ueQFPw7Sc+5spXHmu3FdHH+mZduWn4Nue72VR7tuOzmazNbtmfVW1MR1JmSKamC6+lUdghxxe2Wz9AcWCS1ItpJhKyeUyKCFcjguo4IDfEBgEA4wKzEwuv6wYTDv83TJyY887M7nyU+HO9u3xN3MluG/HPjVyaTdePcj8nLl4853l1CGnDEKfx5uXNeKchJVGkiXAqku2RMr9Nl/MfKei7GpE5j0g6XAg60rqBks9Pk1U6jYW8SFFZL24ezDK55lW6eJ7SMRKMFLh4uozrskGCG6OkQPqepJpUem3tyzhnMllFHdGNEXLB7XqRTvuzkNCZCCGDRjIai7nf8ADw5LfDryfRsX8kKJadOqd2W9/bCxazaN7Qropt40UvfLsVVEIFuq05DytFESuQoE4DffFQUqCb2pvprZLi8sprfd8IkVSrY79OeJpLacDjc0E0ijcuT5hSMz6cLuaysb6G4khIWURPlopNoJjlRgskbrnB3IFYhijOoJqWnwYM04lxVmrOlsZsyJxusmws6YBRiSdQOUPE7IHMSw8pSl3zZ9egW/Gte0ahDqCJxlUWLOYlPKcZCqb6QaLrrK0K6zbSXWl3H2cDQoheVp9QfTUiRCGMguI4nbKYBKqUIG5i+1WBb095Vv4TA84mLAIILW2vHkZvKF6N2wiYMG4BDEnG0bsGrNfj0OW5hbiZgTi9bF/cBLSj3Bnp/khVeKfF3htkHiJmmyJc2z10Fu5L8ty47iqUijuSojdPjt0upw6fUHULiSAhbSXQk0PRtV03SUu7ixjhtZzvjk/Wd1fSScbS0aXlvDKLby4WZfsWkVhECeo1IT61putXxW2v5p7iJdskfuen28cXOQjyac7xG5BJ3xFjKiMOvtIjQUA/DwzHD4+84+Lma6hkKy8TwcY5uol5y8kZDx9XMrWTZLcKSXF1Kp25RpEeqVGOyCVLiQH2X3PAQ4g+R01juppOnZRxvKfhWWboRk+gaYpIIwf75RwvcgjNDCI8Su6pkZaNUdwM91V2VWP0LDjODnFbW/LV7A+J/hpckM3YWvv4U+ILe5KYOlYTst7G/wyMy8QM68oKTUqrb1XlQMev3LdZdqlND1Mpzz9bZpk2mR3YrSHHUKJU35rw54f1RHuNSs7CFraNnikmXXb69ijdWw0aC4tRbzXKupXoxSdZAHLlEVwXtX1y1kkj0jUb65W6IjkSBtM0e3kdWXKyye4yNcQ27LuAlmWOKVsCISSBCuj9IPqSXSClXqOkhSQUoVs+437A/r16I8dqTJycmrbsF/BJ5w8kKViidh5zi1dtVzXacK8sd2KxzbxNDyfWos2npqiGVWu5XhVGZbMYlciE7HS/GLbiHm21tuJTve6R40sdMOuT+HL4afxtuDCqwspOFZXeRQVf8AsHjcCCBgiutpsPhDVLgWFv4osPfApLwZu3mjK5Lq6x2jgGPB37SyjB8xwarJytjS68L5SyRh2/I9Ph3vie/6xjW8otIrMW46VFqtCqMil1FuLUIy1xpTSZEV5KJEda2nUgLQpSVAnJ4riFzDdxNFKpIdHGHRhwyMOcMp4YZOCO9cktauS9lOk0J5SWMkxyL/AGZELBWKOMMpKqSCMgHinApNRTGte2ajBfemyKVGLSi88SiiPKdeKEIQE7CV/SoeQO8+/wBurRw9YkZwKo5wKXCGXGY8H1p0KoSJFOYnSZEBz1GUOSGkuuMqPaAHGiooWkbAUFDZ9zV0MT9OhckZNW4cUeBPGHL/AAzq/J7PfI3K2HvxHkRL45ovmybAtm+sCcWZwh0dy2K5mlD1SauNik3XKqzsSDMo0RTMRNMkvPvH6U9JvZ69cajaR2M8MMUvVCdaCdo5pI0BMbXkbdGyO5o1DTRsD1FZgI8uHI7zQ4LSU30EkjoydRo7mFJYo5cgPFYvGZL7hHdlSaMgIyrllCsx/wARvhPB4FZkxZhhq+UZArtycS8a5uv2s06qU+4rSh3Ld1OqL9chW3VYSQzPorL9P/2Gb9S3mXQpTjmwozaR6pFEy6wpSfcxMbRiN4QW4hkxJKGljHlkdHCMwO1FA5pczabOySaTIJINqgSK/USUjvLGSkZWOT4kVhuVcAk5Jo8+HRw84y80Lwv7G2cOaqeJeR4tPiysG2tJxHHv5vP0kxam/UKNT6rMqlOp0Oroci09iFT5kpk1F2ppQy53oKeml03X9ScLoHQdk5dJEuZZShI3PBDaq89wUAJaGCKa4I80cTANlGfVNJ0pDPrCSiIjiRJLeKJGGMJPNcYigWTPlnmeK3QgiWUEqKP/AIqnC7j7wSzpYmE8KZjzVky5X8KWvf2Y7Uzphf8A0Q3fiyq3BblBrMOOU7HqKqKZ9TkOU5TZdoqoggvypj6VvdL29rdQW6y3V3b3AcnaYYrmEqBn4kuUVsMCrREYlCblniikyCw86PK0HussDrjIkkt5VbIP7N7d3GU5SXI6bMA9u7RONtYyfXLjHybhZnfORxTpAfEUxpJkNCK6HSFJR2PFlfqKSoICSopUAUlgByfsxlvQYByflgkA/wCeB8xVSEP7T4eck5AAwctx8u/Y8ZIGRW+05SMxycj3pg60cufDbjfE3xO5mLI9vZBsPhpm2hZIxrlKu48pKM0X3eP4hV49uWhTrigu24mkXtKpsugXHJqrEun0pshxk1kv7lra01QWUfvMkjmOBtdnuo7lwHi92ishalHmtIeqPc7q7aK1ChFfZIN1Zp95k0k30vu/TjFxONMsoGto41EiTyXgustHc7ViaW1tUnYMwkcSxkDQapxZVTqYqKlbcZdMjKhtuEKdbaLDfopUfP1JSUA+fcHz9+pABIU5/J9cfP8AnjjFW788f5f9j/05raE+ExTs48eeNGLuQd88+cL4t4mZazfXrko3DnMtrX3k+m5Fk4or1Jfq9Tsw0CZEdp9/PVpdHTSbXpkyNMuCJ81JkIqERiVDLkfiHxXbh9KhEcVoIpJTPNqEunyx26HN1LHLbxSTGzQSNHcROZo5ZXce6M7LKULrR/DUipqTpLNel+msUFlBeRyTdLFvBcR3EiQpcSBQ1tPsjaLbGqXcbbUFRvxibJyZY3xAuYMbLl5yL+vG+q+7nWPXpdBuG0KjFoeRKUb3tyjyqBXAKvRX6RT63Epi6JO/eU75AMbIA0kmoX+ool1qDAybVC7ZWmQRoNsYildUZ4RGFWLKoQMjaBTNva2llH7vZDAyWcbI0YSuczdRYHliLmRmLMkjq7MH3EHNXHfBQzDn3HfBF+nUlnjFbWInMz5Jl0a6Mz/EEyXw/u64befsK005/kQbctZLjNbctigJo9Rp9blJNSt95+TKpcGc6lTiHLOK/uTJDpNreO48ryWtzpsCKZMCG5cXqSSqLJkDSSRAxKHRZSACjczWLSxxHc6lcWiQsHj/AKzY3N5wQpa2jeB0SOS8VSsULuslwEdVKpgGuf43FwZKufmVaNXvSj2FEx4/xFxT/qtXJYGSq/mOJknEi6LNfsm56rdVdiQ65UqtO+YrHzr9WhxZXfFSlSHUoRLlJmSZpnF2knviHZcSyywzNczphXuRNAscMqTkBleJQMYBAbco6dtFHDbxiJo1iIzHFHC9vHbx89O2EErPLD01Aykru+TkkZ2ri+CfV8s0TmBe07GtuYxqlp/6oeUGOSN05UzBV+PNFxRi002mLu67IF+0iJNq1AqUJxuisxqjTYMx9P4i8gspacdkR5STpzxiCKY3TnZBJbvbxy208gKJdLLd4tY+iGY7p2ROQN6kjNrlN9nN1mQ2wRmnhljkmjuYU80lu0EJE83VA4jhIfK7vhVhVhnxirr5C1njLdNJvKqcf7jtSk808XUnLVtY85g5C5XX3xdqNFw6qiYtsudUK6wzRqhOqlJi3DVbgu6hqkyKvUZDUeaGzAadc1uo9WR4R4ltbmO5VCIfe7iyluYEGPeGubW3QtZSXs26ZI0kNqY0LIBM7u+dpbaGsMlz4bubeSzZgrNbWdxBbTFf2QtrqRiLuC3hMS4dFmgZ8ZdCETc++BkpKPhC/DzO09yeLtulSfCikH5rR17j7+esCinuK0c81ahWqlFplOqlSnutsQqXSn6lNkOED5Zlpla3Fjf27QfJ8dAjjOVK1aIkNmvOG4fX9Qb8/aH8aXbbJT+A1DklUGKf2aCFJ9KYgLKgSNK8AEbB8eevLOh94wfnTec816O97WNa2QKKqg3dRotbpanhI+WkggtuBKkhaFj6kK0tQ7kkHSj569S6K4w1L1Ei4fh78cq/JekuW9VqW44CkfhkyK6Eb87CpEVxXv8A9r7dYSRoi7lqrDK7RVG/xxeNWNeH/DOdm7GNIhzblF9U+z5EK5KDTZsOVGlU6sSHlqUyw04VD5NobUrtAUTo7GmLRJSMkVz5QEO0960D7Qu+wshZis6n1TEtq0tV933TqJXGIVRlx0LVVKhHiLlt9pJHplzvCE7H1DrotIijJPP76xhARiZDgGvvKFiycE8isz4cg2uJkXF+SapYsaWZ7qZkn8PluR/UWlXjauwFOvcA9Ym4jAyf5UyoUjymmgj5XsdlQLtq1NtwjwqNUSVA/kAd+R9+oF1Cfn+6p284Joxayxj1ZQt6DdkYnyttTgfbQfyCQQddSLiI/P8AdVcr86PIuT8dhPqivXnT1hZLzCHVLKUgHz2k+APPjf8Aj1uJ3Iyoo6Ct5zjmpn4HwFXs8XPbNEtbK1ctukXZSZtWo12XLHdMJKI0R2X2PNMuIe08phuMyVkpK3U/kejryAHig23yFSHb+Hdy5bZdqVMvKpNqjRm1uR6nSa0hctSySosobZf0ddp+ojR0D1UXUhGdp/P40dA0kLs4e82bTtW4K5Uq7GqNr06hyKjWWPnVNyGWNacQpp2Ih5aiSkBCFd/knXgkUkvCoy4wKOgM+n7qYqvYr5E0OwqBkNVNqMCxrobKLYr9QkD5CpJ71J7GA6kuD6goFC/I0fPt1mt2X5XtVWiQdyKae3I195Tbu23m5tNu1Vu2fXbsrkCLNaU/SIlJolQekyXPT12ttK9JKlL+6xrrdXaTO6s98MflBFVcR4ji22nCSjuZQsIKSO0doGk/cjx7n/p0vL9fnXRhO4eU5oexEB7itXcANtpJIK/5DrHBPYVqeDg0Zx1SmWXGVdyokgFT8X+42UnwQPYn9egAn0orq82ltJdSfC/o2DtSdj2/mP16rkZxRWNbyZAQXWgiQgempxQ+haN6BP69WII70V1U33FISGypZHalCdKPUUViCloKkp7grXkex/keiis7cgtpA7Eq7ye5Cz5Vob/776KK7xwH3FtB1iOoJU8hTqSGQU+UhQ15/T36KKDNL13KccCySe8E72fuAPsN+36dFFdvUR6RAOifIAG0j+o6KK69yyWu5wr9E/u/Pkb/AC6KCcc0kq4UfiCAhSilMPai4rZJCnVEAjXjfj+vVl+VQrZG5a288CUbGOLL54G/CHRxE5S5Ww5z3wzi258n8iLf5c5cx87eS8029Eq1w3lZFpUKabIVQrJVXp7Mpip0ucxLFi1EVF5QC3m9ovEtvp2nTaHe+IL6DUgSIxHPHBb26zsDFbraSxs1xHcqQJJjMjPLPIIUTpiNl38IXGsXyeLNO0KznsoypklNobmaRrZsyvJdo6G1kibyLGoBhiRGZiZi1anmb7DpGLcwZXxnb93U6/6Fj7JNesaj31SW2W6XecSj1ebTY1WjJaeeaDUxqK3JQGnnUBL6e1xY0o5PBdWzG3vk2zKdrjBGGXhhhgCMNkYIBHqM011rS4HXsWzC3KHIOVPKnK8HK4JI4J5HGKk38Pup8irWytkDIvGPBuL845CxRgG8sp1JnK+LqDl+g4roVBgMzqze8SiVlRpztQozLaXYqpDEvtcf0iI+tSEheSfRoGj/AF7ZC7t2YL0nE5iYsCAZRbvGxRcknewiBw0mQMHSH9aiQS6NfNazIQ/URokfCEMyo0qvhnwF+zCysMhHU81L34oeEPjHwLbt/OHxIahkW67SfuxrHkP18w2vkCysPXAacqoMWtOtW3ag9T7PnKhrceZpT0OCtSEvhDZU06lDsWpalYaLZ+HFsJtO0t40ltoPcTp1pKig7ZoYUihheQhm3SFOs43O3fNce307w1Lqt5qNhfwX2pwu0V1KLv326jkdjvSaeR5JmDPEQxEjx7kGTkrmFfw4Y/JWVzp4px+HsyiU/kw9nOgNYZnXOqOi1odbMv8AcOVX10qbMFLfzBkp7FqUwHUoQpZQk4e+vpytepb9coCelgEycEbBlkALZxvMkYTO/qR7d46Rs0v/AOqNP0d3HUzjp8g7/hfO3GduyTdjbsfdtOw9zbVzyj8duUHIPIWXvhcU7h9l/htbXGnjnlfi6qXS8W1W1rav552oYOwJbb3y9STOm1yjuTrhkT6fKEeJQIzgnx2Uxkhro3tvcS6Ja6IIxYokbSi8M9rGkw6hl94WW5hvL+fplfO4lQxTEiMvC0i6LoYtodSXWppjduWRJbQQ3srQ5XbNAI4msrKAPndHtglMtuoEjNMseognZkK+vvKlq+tPj1CSfI/n0qBk4NNA45reE4XYu5b0bhPx0ott8bOeXxTLEy9g6n3HaeGOcbGNMRfDMsRD9JptPg0m3n7seqdzBVOqNVjQqIukzLTNdVBafpvzULvSpI3vh/xFdyWfiVzqRt42MKadpFx75F0lYzodb2JKotoos3KWsF1bofsHlEi86Il54Z26noxh0pZhtme91RDDI80o6TNo0TLHILtwRBLeOWIm6pjAy50xM1s1eNmrLTFwYqi4JrzOUK81W8IQaVU6BDw3LTVpaZNqNQak69UYyKS4F09LFQddlNiGEvOLcC1Ha1awe3jbSyxtSo6ZaQysY8eQtK3mlYrjMh5c+Y8mrXAuhcyC+K9fcd+xVRN2fNsRMoq5ztVCVUYC5AFWr/DQt/4otaxTk2jcDM7xOO+MMh5modgZryJT8qUbAFVoL8GwshX3+LV6+Chqq0226Tblm3lUZxbmNxyqM3qPJkllIsNVbSroXFhpC3N+yNHHIIIJZ/OyfYQNcN9k8rKr9RAhAjO+ZEwrXXRbbWrX3bUL8xW4kQtEz3fSYbH+0kit0dJVUHpFGDuTKgWN13FYgc2+G2a+Kl02RcmT8hYuztanIa3Z2UMZ8k8HZTGaMU5pZZq0mlV6VDuFaG5Ls2DVGZcKfHntNSmZKFeokhSVqsdZ1bV764k12KVL1SA/WkinZgPIrCaCa4hkUhDt2TNhQMhRgUrb2emW2m2p0eRDbFcIqRzQGMLx0zBNFBLGVGMfZhCD5CcNiZPwRsu5i445p5N8nMQSeJ9uSeO3DK6cm3VkLlfYtWvukWbFTV7fpVKj2oxSpceox69Xa1VKJbbc2KvuYi3FOPa4opacl4EuZot2nR3jKwcLNL0UiCZkeYPhiZUjV+gq+eSYogKhmYDyOltMyalPZgqVJt4klaYuQiQOkisoiZ2UyM2ERFLsGC7DYd8frCcyzsBYfve2LU+HHWaJGz85Y2eMi8POID3GnJVmZEqmM7ZyJFtet1yRdNaXdMCZRLvbqJqUNXpNzqe4iQ4iQfSHIsNO1LTdUuP15pzQ3Enm3m+1G7Y+YlhOl+oEUj7kkXZ1Cy7uVIYMtpsz3FgXXVnuYFcqsZg0+GIrtGJIDYQxqVU7oZFcR7Sq4V0CMlC3w5bVyNfHPLiTaOJLQw7fWSrk5CWxR7LtXkDQ/wC02E6pUH6m0hkXTTwtC5NMb2p6QyyS8tDBS0lThQlXQuxAbaQXFt7whBBiJ2iTI+AkZAVjw2QVxncCuQehbdUXCGG7a1fIxMgUvFz+0QMCN6904+LGCDgja156XLV+Yvw/eSPJ2ZWvhL57ztd2Ob/vlqq2BwVuWi59reK8Y5dpGK6lkS18n1a7JSaQ+lc2hVCHQ5kFh5UCqPtxG3wgLcTvdG1m11W3vNU0lIrcKsaGLVNQnjjaNSjrbQBRZSWsc24B4yiMv2pXO9Tx9Nuhc3k8FnrlxLHhnZZLPTYS24hoxdGKFbxZ5ojvxK0jKwCs42xuNHt4ESnA4lKCHdLQn6UIO/IHv4Ht11B6Zro1uacYjhuj8CsYWBw94N1HP1avDAFHujmJdXw4vib23ROcOUKlUaXCTcds3tZk+zXMhwqZHkokB23bV9egqC3S49UewyA0ugaPodjJ401O61eyljeMDUodN0/UIbUStvVYbpbmdNL7KjyyQWF20QCTysm7d0YPEGn6rAnhZ4NPvEYuPcLqS+sGma3jy8rRboI9TC9YmNuteIj5aCKDIij1DszwqJTcv5Upts4+u/Ett07JFdg2/irINRdrF+4ygtVSUiLb1cluRozj9QpzYRDkuuRo6lvRnFFhokoTzrWbT7i0huNJuzdWjKpinPTBnjIykxERMQMq4ciImPzeQlcGsL6O5ivZory2FvMrsHhG/ETAndEOpmT7M5T7Ql+PN5s0FpUl5umRYqUrU0+kOOoA2FoCyfP8j5H69MrM8XwjOaSZSe1PBQXPVpUZe3DtbqQp47cUEuqAJ6GdpDvapUcVfLwhxzd1n8FGuR3Fn4d2JviJ8irr5W3LhjO6cnYKqHMJ7jZadJt6hVGxmIGNae6iTFTdTtRuN1y4nUONJNHTGDjanWwjl6nPoGm2/vXihpBbTeVA1zc2tlmM+f3hrV4zNOHeJ4BNJ9mgYxREktI5bvrsySW/hu8W2liIaRkW2e6O/wDZ9I3aOiQgLJ1ukuXbHUfarIsXviyYbxjg7luxamOrEo2F61cXHbGeUc58b7ZrLtatTi7kq6bZbq98Y9pRdeecjRKbMdbktwFPuiIawtpBQ16TTXTxc9KIySTtAUVrcXLs9xHakfYRSs+2QlEOF6kUTlCrMnIkdZ5oZp5mCQicNsna3VEhknjwkkkaxkx8kKpKvKoZSokGCgdX4ZGMnKxhfmtnHF3DvHfPblbhCXjak4p47ZOsmRnK27bs+651wRL3yMjFsVaJt0yKVIg27TEJZ9RunCvGS40UpUVJX66PBb/rHxEJWslIUhJZIIhKfOjXM0LLKsOxJF2iSJSzeZiQNloG1KaVtP0W4SC6dWbeUiaXppwy2/vCvAsxZk5ZWkZMogBYFh3xbMZ0e3qJwZzJfWD6JxN5hch8CXLcvKfipbVJq9kUTH7Ft3g7bmOLmZs+pyZM221XHQ2ZKlUcvIYb/AEqajR1ev6u8U51CNNbtbiaWzuB9ibieW5fEY2SGGe5c3MlmzD+qmQFQgKRSzIuRmpFsBpcvR95iA6hgjgiQ71EiCVLVFtxc7PNP02yzMpkji8qimxTaXUoireZYalOtQHZMpKXo0RD7qGFvvJWoIU20lxTi0rKUqS2QVAHfWuC3lUZP4gc8YyOec4x6/fipJAGc/X0GAO5yQcY757fMgZrbOZwnge6udPJj4UDnFjPeIosbAdzYovT4mVx8m8ny801+3seWDGrtCv/ACDDlShZtTx7VVWtb0WPb0kMU1qHU6SIzjLjLHVVvohO9rZavdnxRI3RcvJGFnlwS9r7gI+tDGqsVE8UjXcsKDqTNHcSGmHsb1bGLVbjSbNPC8X9YUx2wOyNs7bn9YB1WSQyZmZXXopNmMR/YhRqVwnlS4MCUUhC5tPYmLaRvtbLzKHC2N/YFfb5+w89SQCCqDg9uM/d6fxxjPpS+Cp2t39fTn8+lXqYZGJuIvw5+LnKOscY7l5zXZyC5aZEkRaVU865JxxiHiRXMbmh0iis0ql2fKb9O+rkjPpq8Wu1JxqWzBojDcRkobLxhr7TNPkT/enULiG2H29rBDcx2iboiBLdGSWOQuY2Xp9FVNuykddWZPOza6ZrmqSPJ4OsIJroIbe5lkshfPtlIaKHYGHTUjDBuJNzttba6gQf+K9iKk4T5o8hLWo4yrDTdlp23nWtWznW65N+5pxxWMjWNS71rFo3XXJKlTahU6HMrEinuy55+cdDDZkFbgU6u5a8dUOoXD3BIXbLKnSkliH7F5IwSquY9uVTEQOekiJhAsrWBLR6bBHBGhKmKGQSQxSL5ZI4nByyK+7G4sRk7izYYvxx1lYFw18NWzMw8sofKPkHijKvNmpUHEHFfF2cofHzAlh3fjqw6QalkW4rhl06pK/tBLYu+FT6ZBiR47T0SmzHJTkkstNt0dP1mraPqOp+52/lkQQ21vPdSuH2y496QRpaqrBZkVm6sjxeVdpddrZ49NuBrVtpiXT46UjTS3McUYxviXNq6SGZtshi3cRr1Ch5O9OfF1s64aZy1o2Wa1mjMOdKZyy40425iWLdPIOoxqhnO17eyDRH5tLtS5zEbapyZNGMKTGbbpTLMJLC4/pMNEubZnvLu9uJLieRZYtzdF0iWFJIcnYywr9nFklsrCWjLbnBy+1FIbG206FbWCJopFA60bSSSlJsAOrSv9tKAQNpmXeFIRvhDMA+FLjSZe/I7I99OZZy5iCzONXD/K/KDLVTwBVGaPm++rPtW3mo9es62pEhtyGiTWkVpiOtyc24w3Hafc7PVbZWjOOa4idVjdEt38lw0kKXCLbtxKWgkHSlPwhFkKoshWQtlArae721yRHLA003eCNZGiaSftGvVj+1RTk9TpBpGj3xqBvLK7XIe6sQ5w+GhYWQOLyuU2B8AcTeYVNwhUeIGUs1wOQGAJFUyJQLguqFedp3LDplMccrMd+i15mpRKkzMEdmvRlw34oecYXRQ2mxJodhqPvdrhp5jNa21teCRm2xvMbWPZcwtEuyFpnEkHSdFDqVNb3Ih1G5bXJ9PS2lx0YTFLdS25T45UiF5LI0DhmRpREFSUFXbzk42cvhM/tBvw8uOvw+uLXHbN1eytZmScGYfpuPrjap2OJdzUGoyae5KSp6HKjq/eIdStshDiUqSokAeO5VdyltueaUI3c4qKnxSv2m6k5yxvdeBuFdqXRatrXXFcp90ZgvqP8AgVy1KMQsKZp8BCv3CFhST3PEuEoAGtnpmEHk/StIl83NUxfA3nSKl8Vjh9NcdcUteWm6iovJckOvlUd4dql6JUtSlE6148n9evNSYF4Nvzpg8jmvWL671YV8V/Cr+R6wn+CpGAeaoB/aN75jY8+H3DuSTZlk360nNtLYFu5BpTtZtl8LoNxrDjsdt1tS1J9MADfgLV107Qjbx8q512QGBNedU1z+iW9VqfcNJ4bcKqdV6JNZq1PqcPD0lNShSYzgcjvsuGoHQbUlKgkjySOoS5ht5CJvWs5I98YNF96/EYlZAuKs3jd/ELhdXbqu+uPVSvV2dh6U7UKxUJLinHVKcE3S1uLWo69x/LXTEdzZyDtUKemcCm9kczbbkvejN4ZcOpsZbhCY8PH9XpTru9A+m7HqbZVo7G0nxo/lvqkstqrZxgU7G0bx5evsLk/i5xma+eB/FmWiIFy5CEtX09GhtpWlCnFlqvntQVL0FHQJ8Anqqy2hGcZrCSOLuKznlziZoSW1cDOIKW2lBClOi+To+B29xuHZGylB8b2sfn1fnGfQ1nuUDipb4mao2RrLqEGD8nY9Pv6wp9JTFtqfMgwbKTLcWqOxDccdee+VjOlKUMyHHXFoB0oeD1HcYNSJADUyeMddx/iHijeWLLvyHVq5mo5CRUqRkShXLXlUyRSlEofiIAWlxmQw8n1EhW0ud6goaCQKBBW5kXPAq2af8RTBN1cb6fi3IFDsqXelFojEI1m08e1G3a/cbbLPolqs1J0rDinEq73FsJBcUke2jsNukw2N2qDKAKqGy/yElV/F9u4UoP4XUbHkXciq0EOx3BEocRKXQP3rob7EJ2PVA0nQ8fV561W1jTgCl2JkPaqpXOdjVm2/lizcb8XON2Pq1knHNaw1cWTrQpNc/tfUKTVdMzn2XpFRcZDsj0EkuemO3tAT4J6rIViANZi1LYz2FV+s016QlS47ZcU2f9yp0KWE+CBvXn7nQ/4vfrnyy85NdGBDGoxS1tux7huypxaLQLfqtYqklZZjU2mwVzZ8pxIBCG20ArUT3+ABo69/HSMl6EXZn8+lOiAsolHrU7GvhR8/XbPVfSOJ2dP7KhgSTVhj2aW0oKQsHsDZWQQQfAPSEl/Ju2qOKyYFSVNQju7HVyWO6/Tq1S61TZjKDHuGJWKUqmuU+Ug6LTqHEhxs/bynRPgHrqxZOCe9RTbCnSZCZS2EFYiMGTIIWElpAIB2D5PkgaG+nR8HNFBWmw6th1QW22lZPd2/UCBoaH+XWVFBh+6CkpBUUlSVEp0kAnfRRRhE/AlU+rGaav8Aix+X/BjGKTBSPXBlfMpPkko/hI+w10UVgYS06QSstOIb7Ehaz++UD4Cft58Door66Az6zMpl5uXtOkIUhTYSQCPPtvR8joooOXA2lbKEH03FbbUvQUkfkdeP8Oiiuw7O36QSQPH6/wDf/r0VIGTih8DFd+3s1U6za1vv1OnUJtmJUJfz0SnpjvvdymmUh91Bdc0oHtaC1efboClO9EqrAe/FXx4X+Jpj/CfHe0+N1NwL8Sul44jWdHt68rBxt8aCVjnE1xSHGVC5XIltM2a9+EQaxLk1OVJprMj0j+IOJcU7rvPsLKCG208xx+Kb+Pdhtw0nRZZoSdnkt7qbddxpEVAi2SIcKGIVnamY73w27rJP4aspX2lXzPqiJMSqq7zQx3yQSO4XktGdoOFAUAVQ3e+P6nMuSv1SzbFqFs2XVK3NqNpW9NvKDe0+3qWuU85Cgyqq0llMp2NHUwy5JLDHqqaU56TQWEJ8gyxwsYUkLgcBmUKzY4yyqSoJABIBIBOAcclXqNId0iqrHkhNwUepC7mdtoycbmZsYBYnJL78O+RHKng3l5OaeO9ToFs3s9a1Vx/V2rqt62r+tm5KHW2kRqvSqhSaql6K/GkoZbQ5tAICPC0+d9CyMMRY31lHcwspVo5d+xgR69N434OCMOBkYYMpIpO8WSSIG2uZIJFOVkiI3q3oQGV0P3MjAHDDzKpEjeUvOHlfyrx5kqzrlxXxsxzSc+cj3uVGcq9hGxqBY95ZvvAQ5FPpki4p4qD8l2LTl1C4pkSE16TRm3VV5LokOvpW3R1s0eeWytBEZWy32s0oXkkLGJ5ZOmuTyFOcALnaCGzghuswm4vZJRGmwArFGCScl36MUe9z2y3AAGFB5EaOGuWsr8LeUOFOUto2FQLtujBGQ4eQKPbd2VQRrbqsmCHgmPNcYkNuoQQtZ2hYO0D3BIMWSWy3KPfxM8II3KjqjsPUK7JIqk+jGN8f3a3umcQsIXCv6EruAP1UEEj5gMpx2IPNT75IfEbtzkRxnsviz/4MniPja3sM2dcNm8ebotDLeQKnXcEi7rlTddel0dFQuqRFkvSqiuS6VVBEn0xIU2goZHpHoXtj4LeySKws7+OSLmIvqfUjDepki91Tqhl4YMwJwh3fZptZTxB4juZbhriSyIn2iQx6dBG5VBhRE4JMHzJiC7izMRuZmNOb+NL0huhTtHYKXDpHytagTWx3AkAKQ+oeBv3P289ccRP6rx++oLAHBODVmlofEJ5hUi7+M123HZuFcsQOLOLLbxDRcd5EpcSo4ry/EsqNddPxlUsg23FqseHcVSsti6ZDFGnPtpXGapsNL/r/AO0KkdSS/MqJDcwnoKI90aSyxLL0XEkYk6TqwQyKrTpGVFwFxLknIUihuLbdNZ3bpMC5jkKQyvbiQYkELSxvg92j37zC7bodm1AsDcpRs5Zuyhf+aMmOt3ZkfMeQ6tke/bo+fokBy5q/cNQk1aqTVRorjcZhUmVLkO+iy220j1O1CEpASOXJKLmdpVUAMScAYAyc4A5wB6DnAreBEhhSOMkqoABJJbA4GWJLE/NiSSeSalRxX5XfEQ+H7Ivmn8Zcw1nEMTIEOO7kWzkVW0Lzsy82Y7T8dgVS3qp85AlEMzJLOnGFLLb7iDtJI66lvcyW9nJZ3Fnbz28hG9Z7eCYkBWUhZHQyxB0dkfoyRkqxBY8Y5d5aWVxeQ3kk80U0R3K0M88BBzkbujIgkwfMm8MFbJUDOaZjPWY+UPJz/RVTsv1+PX6RhLFlMwziG0aQxb1m2fj+3KW3tiFTqPA9CK0p1fdIlS1NmRKeWXJDri9EIvJAIY7Kyto7e3TcRHEpVS7kvNK2WLPLPKWkmkdmZmbA2xqiL040kaWS8upnmmfbueRtzbUURxovG1Y44wEjjQKoALYLszM6XDbJ+beJmQrzlw8N4rzRYWZMV1DDGb8D5nqkJ7HuXrSqkqDPegyHo9TizYMyJOpdMqdPqtNkMTIM6lxnm16SpCrWsOnysYNXtzNbNt3qr9KQbZFkBilw3TcFRhtjjBKlSKrNc3cEsF3p9wYbiJtyHAdG8rIUlibyTROGYPG/DA9wQCHP5ecnr/z5ibHPGXDHGHDvEHiZiS96zlWjYPwzkyZkCJdV31yLFps+6bquWr1mZMrFTbhxWadFcdWkRIncw0gJJHW89tpFrC1todtKqOwd5LmdbmdnCBMK6xW8cMQA3CGGGNWkZpJTI5QovbzapdSR3ms3EckyJ0wIIPdocbtzMYg7l5GPBklkkYIoRCoL74h8fn+Q/H7NOL874dkQbSybiG/KZkiwq7OuKiRo8OpUma1JiqWzKlJZktFaA29GX3NuNOOIcSUKV0vbGSG4WXprJtOSrjKsPkcEHB7ZUhh3UhgCNrnpyxvbF2UsCMqSGGfUHHBH/cYyKsczBzirlbxRnfGXGf4eHFDhpdHKelM27ylypx/vStXbXb6pCawxcky1rVYqVwTYNqW/OnQ4b0yjURKW3m6bDjqUlhltoMSWvhbTIUfR7S5EwQx5ubwXMaKwTJjiEEIMmU8stw1xLGHfY6sQwg3fiTUHKaxdwvEH3r0bVLeRiF2gSyh2ZwfiYIIldsFlILBqj42Gsk1F551q32ghEhCH5E2v02nxEKcUQnvfdkpQASCO4q1+o65oVnOVFMSSpH5nOKs7t7n9yww7i2xsX8UsI8Z+I1WsSxI9n3LyE4645t17lbkCQuCiJVa7UMrz5VQr1PlVFfruuJt6VTI7SJK2Gm22P3Zf0q307RWe/sdPR7xmMhnuXkumQsrIyww3Ej2sMZU8IkBYPlw4O3bW4u9a1KJrOfUpVsSqo1vBttYn6bh0aUwKks7jGHaWVlkBKujLgCtq5LEzNftzVu7rpTW7xvK8qzMui5bkuC7o9x3TdVSnPOTZ9QnS3pS5EmTIdddfefdUpxxx1alEqJJRkleaRppGLMxJJPJJJzk/U+tEEEFtCltbIEjQBVVRtVVAwFUDgADAAHA7CgFAqdTtCRTpkdlEKs0dSkd0iOzOLZKnULR6Tm2zvyCVA60NaPVK1p2LWt6uP0FD6IDq0MR3anKdU43FAbW+f3vatYPkuJ8J2fPga6KqXVe9WAcUOZlncWreqVJHETGGT8kTqvPNQzBO5T5gwJkGRS5aWSxb77Vn3LTIjsKKUvFBdQpavm195Otn1Ph3WbPQ1knD6hHO5AZrTURaxlEzsBiNvKCyksd+c+bgDANJX7SX1uthNBYTQKS6i60y3u3R2ADFZpfOEO1cIPKDn58R1zxkG1My5Km3rj7AOPuO9LqdJjR5mPcb5AufItGnVFtyW9UK5Iqtx1KbUnZk9chBf73ij/ZG1AFa3Vr4WoPZS3ss1ibja53n3m4FzKXbJdjMIotwY+bDLlSSAxXCq771cXCqbsQgqAqi3torWJUUYVVii8gwBye5+4CnU4m8ibY4w1W47vrnF7HWeLrlvQZ1mXtc+fsjYMu7FTUdqU1Obo02za7TZK0z/Xjrf+ZUsp+RbCBpSh11dAvLfSbh7+b31ZsbUazvfcyFJy4cdGYS7sKQDjbt7HNLXU0k1q2niO0lt5CpdLuwgvRlc7TGZuYiNzbtnxeUnsMkPKXkDZfI+56FeVrcYsa8ea+0xPVfNZsrMuQ8zXDlqVLXAEOZXKld9ZqMv1YDUN1lj0Fp7kVB71CvsYS2rr1/ZajqD6hA940kg+0N3di8ZivwlXEEJQbfKVO5SFUrtIYttbyXXusdnMlqkUQxGlrZQWaKCctlYfjLMc5bkc/3jUaGqRLdClPQ2n4rL7SZ8RdRjQ3pLKloLzae9e9LbK0d/YtCSsFQOu08oRM4IA+np2PB4PGfUA4BxgkVYyqvJP3Y9SCOD8x+IPyI71enc/xSMF3FhGfxpqPHr4k9RwCxbhtGPh6V8aapXLjWHS0REMwaQunizVfMUyIhqOW6W465GbEdCQ0Bsdekd7VNPOnp4k1D1G/9U6IszDDZR7pW96ZHDMjqZSDGSvI4LvvOi73mtPDlgjHJC9bVWhVtxcSCA3gi6iyYk3bAzMMlge1D7MKb8ohx3tfW0ERpTqVNpceeDTi1uJZ33BBLDqu4JKE+ElQJTvzOGI3Y5+nPP0/ln5UkHQHYT+fw/OecelW18HfiD2HwsxbU7do+Lec0C/LprE6bkm9+OvxL5vF6yb3Stak0cv2g1a9QYbl0+nqjxUz/AFlPudi3ELbC0tt9/SpFsbcs+sXUI5+wXTNJvbdSNuHjOob3WRwq72VExtVcsqBgws9gUCXuk2075BErT6jbzFRlhHKbW6jRlVywUYwQ2GBIZmr35N3naOa8vZKv7FmP8lWRScjtGsf2Xyxm9/khlGq1yXD7KzVateUmJCkVOTU563pRceYStsv9hUsDu64kyQRztHb3k10p56s8UMUr8Z8yQFo1CHyptblQpYA8VExtzj3S0itYgFCxQGXpIFA+Hqu7DJG48kZJVcLVpXwzuZmD+F+DrvtLLt9/ESsy6ci3qis3FYWFMQYCzfxvq8al0qFDo1UNDyJElli4We+psSJ0Npv1GG4SO9xKO0Z3VhJqlqLHUZbCSyD9QW17pl1eBZdhQzJJb3Vs0ZdThkVsN3lDYTCkOo32j6quq6NbSe89MxtNDqT2TlC4fpPGtndJKqsMxu5DJuYIFyTUH+e+X7G5Jcor+zljS9OWOVY2R6XTq/eF7cxG7ROaKxXWYrkWooTHtj/yPHo8aNFpjFPiRUNCKzHW2Gmm0Mjq7Jdokcd1dx3GxQqtDbPaRqgyFRYWd9u0DJYEAlycFi7NhYRQ29skMVr0NueDcPdux7l3nkjidmYYUllJ8o59F5wEzJYXG7k1ZWe8kXny5xlT8cUmp1izb84ZwbTlZeplekNIgwkLZuYGjS6LJjP1eNUYj6HkvodZaU0ttbo6r072aGSGyuooN6MrGa1a8idGwGjaBXTduHmBJ2qyA8OEZZvo45rcxva9fPYC5e0ZTzh0njildHAyoKqOHbnGQ00/iUc4+PnMXE2ObYxbkT4ht1XbjbIP47QLFzvhnBODeOFCp9Qgy49eqrFCx3Chl+4HS1S2WZ0tlwJjqmo70BaUGtvZfqy09xsZrGOzLlzb2OnXVkDLhUEzyT3Vy0hCLtVWchQxMQTz52uNQv8AWdVbVNZtZPeSgjE02pSXrLHu3dNEaytkiDMdzsnmbapbeVFUuSIFxU+E1VZVKrFPpcqSuPEmSID0WI+toIKglwpCCQlwHX5J+/S5HmJPf8/nNMEk8mjOkU6VVJCW0lTvcvtQlTvcFuAhbQ7D/ECrXgg+RvXuDc3OxCKle9b7P7PR8D6vWHNsHnjycplWtu5aa4xc+AMavPrp9TY72lkXDXGge5HelwJjxPskqUtOlJHXMSI+8CWrswHBrdS67NZV8V7H+XWUq7lxR3rW0/ajXiPhuUlpJ0VZ3pSEjeioJt65v/X10LVNox9B/lXPuR1CB+fSvL1rDa21unSFpU0e5vZ7iN+w6Sn6Rl+0GaaihLR4Jq8H4b1pVZ7iHUqxZfHDGOd7gvfnFbeL8mf2/wAUw8hu0Gx5NAhyaskznklVIjpC5ElU5taChaAdnXb11rOG0I5Fc+7HTBA5o/5h4kiY7tq/LD458Vcb5D4dU3A798QORM2hRRc8GsPV2axNrTd3lBeTNgu+hTUUJtztWwpC0p+onrWZLLqbQtKJK4i+X5/P8avb4DcdOPVrcVMVUu5MbYctu87nwBQXcrpuqx6a7cMyNNUiTIkVtLyS5ITIbLHaXwVNoUg7+3W0djayjy1z57p0POTVIeGsH8Tsv89c4SqvEuWo3ZZt837KcxJj3AUGZxdpNApcOsRLdmPVlD6fRYeaisrQ+/DAVIjp2rylRHsSgODTdvI0kYI7VSBgbN9dxBWGWvXkybSrDbKLgprLgbfCNFKnY+zpt1B0okEd4T2nXjpIlUbaTzXSFrIRv3VZBQLqo9cs+PcUOqt1FqqVL1KO23PQx6aC+HFPON94UFJ2Eq7vfR1vq25MdqnDHnNZK7cjn4lPnmW2iR8u228r8Rb+Wc8Dyn95saCfJ1vx0GVYxuxVTFI4wDUKc+cjjWaKMZ2RHisU+PIkC6rwR3Irt0l0gJjB4KPpsNJ34RolX210u9zkZXvWkcLpwx71DQJWpoPKSpLLWmwooV6DWz4SpetDWgQCdn310t53JJNOxlUBOKV1MgPO+mWwlKdHT7aQpKi5oIR378k60P59c28k6CkvyK3hQzHatenT+z6/COxXxj43495N5IsyhXNyDzFbbNxQahXKY3UjYFJkLW7BZhB1JSl9xstOreSNgOgJJ865UUbXcplHwnFPM4ijEDdx61syBt7SVl1wlKFJLaHVekon9dfz868fb2112FtzEojc1zJXDMSta7/x0PhaYq5K8fMgckbGsG1qbn7D9ozLrr8ylUFthWWbcjtiRVabUOxIS6+wyH5MWSR3hxrSvBHTawkENRvBHavLxypZhsy765bqShbFLqBNOm9pAlQJSG5EN4K8KIWhxB+offrfAVcCgOCcCmuUg+sAhS/RDidpV58ex8D+p/r1jVq7PBALqG2m1toIWoSARrXnwB5PjoortIUzIeStlltptTKSAjet6OweiisAQra0JcLQV4LhSHezX3Sk+N/r0UUI+R9WSW4jLZAZDikNfuwkJSApRBPue3fj79FFASUuoUCNgnbZ1rtH59FFdWlIBAQpLhSfYA9o/RR146kEKwJo7VM7DfzkDHDzneU+tOYTTQ0nucjONOyHvXDh8BZV3JKiArtQkew6ZCrcg84+6lLtix5qJl+1KSbyuB55xS1TagZUlLijtanUpSda9gPftHgk+esGU20oRSSD86Zt33RHjkU6GHpTMqVX1uR2m3E2xLZbSyksNuJUW0ubA+6gkbI6skEbPuPcVBTJJpJZbcUxUYLjfaHFxiknXZsdwJ0RogkKIOvf79b3JJiGOKugVDkjNFmOau9IuWix3WysO3JT1ONemEhZTKab7ijWh9Oh4GjrfueqQNjOKnPOQO9O7lkoagVqWEdkn8cddWFFQU4PmFjRUNfSQANfkOt5AH83aqFNwwajtCrDrkpcSO38sxIfQXWFBC0pSkkgIWR3Ab2PB8j36RkZ1HfNCKqHIFSoWiOq2KM3pAfRZsbRHjsPy6xvtHjZB/iHnx04hJjDUMu47qiK9UXWXHWUEllDSmUtOEuNoCiN6H2/Ma8+ffpZnOcGpwCNvpUncassyLDrTzjbay7dbKO91sO/xwSDtJGtAnfW2/5CoiXpDC0xd8yF026KnEbUkBuSh4AErKNNKQOwk+PK1K/mf06rJK2zAqJo1mGHFOxgOIxU69WVuBAQxZdWmLS+9sH90lPgnzvajrz46rD5mw1WQBBtHakfld70KlDdZ7Btvbqj3JP0qPb2q++tnqZgFAUVGxQ2SKIbKkIm1qlrdW0X13JDSiIUqdaeHqJPeQDreyRrx7Dx1SJGbueKsMYwBT2ZfR6EOrGE040qPWCXVIAStxfdIQpRIHj6VpGh40hPW5bacLWTRK0m81GuFMXJktx1Ap9NWmz6YBaJI7inx9Pdog6/M9UlJlGGqQgqUSoEA2dbnosd4NkoaUvtCXWf3j/d2ePff94+fHv1cooTIqJIUkABqNFGekVG4KVSlzZrSahNbpSnGgXnG2lLCe1LYKQrQ9hvydeR0mQ7Py1WVREpxUrcT0yD/ZGXNLjMmVTsoojR1PMFx+YwiG2VbSQoNt9zY2FK3vu+3WvTGKxSZmODUUbtcXIuWuSi202qTVpSC2wO1ptK31DtSPsB2gj9T1Rl20zT446kzzTK1HqD0x+QuiRflnJL2m47KHNpQE+5J7U+2x46ske/1paU8E00eQJT7V2TnUF09npNrB+guqDSApX9Sknf69ZSRurYzWkG0ryacLDbrLlXqMqay6gi3JzrSQ4XktuJ7AhXaR9u4/49SM+tWKAng0U5TW9HRRlpkFsqbKUIb72vWKgPB0R4HnfWolAGCKywAaSdjzDJrULvSlTiZ8c/7wqA/eo8gE+fz89Zk5OTVw+BinqyO4pFKrPpJcDZfJj9j3p/Lnv7e5R1vSiASjeh1dnyMCrqoFMBTqjIentJZccJS0FLe+ZK3VJKf3iQRoJ+r2A90gDx1UsSNpquNh3VIaV8u5RaCl2OhHq2wUy4yVfMMKQpx5R+rWz4I/8Ant/y6ssgUYrPpB335qOCqspUv5ZTzy46nAjv2UlISVBII17AED29gB1bq+Uqec/OtpkI2FaealRPXtJbiGQEprqYQcWO0qR6PcpJOvqBUEkJI143vpNEdX3ZrR50ddu2mqrU5VMqsphnsjgOhxfotpQlB13AI0kKGz7o32kHpne27JOfvrBVUjgYpxrJD8hyoqqjfrFFA+ZjxnNLLSlNtlt1B9x/EryDsb9/bq3UGPrUhOaKrlqc6GmFFbflriNtuLMNuQpqNH71JI7UkqCfbzrQPv79aE+lLwYRjuo/tIVWqP0Oc8qQaVMqLUdtxJU9HkgPIQ6hSfuPOj/TrMJzuJpphubcDT2XGzUKvaNDobCZopsO+Z5XTpUxUyJHfQhKWi0hY+gekpGwNjuT4Ht1zrq4SNuKtW6P8Ab4Ar0c2JzR5pWd6UJEaJc+EsKXLB75NVUQh6HcVxR3EeEJB9SLCWklYcQ4sAaSVuk0/Zsf41ZSAcmt4hiMWUemCjtShKEBKQgNpSNBICQAANnWh4B1rpuKEqctUZ5yKG9NVFY3DpJ/Ua6o4BXmitaT9qaKx8OS3SkHQz5SyspTtKe+hXGkbV9h5J/p10YPgJH0rmy8vg15itXaUt54EDRQps6/u6IP896V0g4+1NOgt0gVoPT7hr1ERIh0mu1ulwZa3PXjU2sy6c0+HEemsLS04kKCkjtV3bJT49umI5zGKBHv+Kurdy3KaI7abVw1w2u3NTVVWyqrylW45LaCvTluQVOFlTyNlSXAkLSoJV3bA6l7gM4apaKNBtHapn0r4nXPag0aPSaZyry3HhoZbixYy66l9pmOwgMR4yStvyhppCEp79+EjplL4LgNST2sUncUyE3lbyNqN+X1lKZmzIaL/wAqW+9Z+TLqgV5ynVe+aS+yiM7T6gpsJbXHW222lTZQAexKhojfVpL4N3OahLbZ2XAqNr7LZdWlpa0oClduvpKUgDtSP5a/l/LpR5953Y5pteF296BoUfSCQ6/vfZ2IcLbQ0e4aSnQHnyQB56DNz3oEIxjFZ1B9KfUEh/v7SlbiXnApQOx793/PqjyblxUdNU9KDtMhKWmuxtCUN9rZQnsCQfJ7h+e/v1lRQ1t+Q025CblOojuOBx+KNKZklI0lS0nySBsb/LqVYKwqwPlNOFa0mMzU6LNciF2NFnsLfSkbQEIPev6fbYA2B9z46Xv4epHnFP2HMvPevZw4GZEtfKPCzi/fVnT40yhVbA9vR4UiK6HA0uBTo8OShfaO1K21suJUk+QrY/Prn2ceyTb61e8J67g/SpflelAHSUeQNed/l566sx5Ga5r53VFLmrlG1MPcRuTWSb1mw4ds2phC5npq57yYsF952mSIUSKFLIHc+8+1HSP76lAAEjpnBwKivGWzBVnK/dMqepD7e4MJiO28B3tNNQYjYQof9lSFJH5aP5dDdjQvcUzOlNpUvY2FDR7d9YVvWViZKiSPm20R1uJ2lHrNB1Ce4aJ19z0UUHLSkLC+7ZWO8o12pBPuQPy6KK+ei6tLikpUAn/0hbUpsn31sff9Oiiu8dh4reWlavVZZBQ4n6Czv7KB+x8/49FFfFttoKQHAtJ7T6iPpQf+LX8uiisyXn2Y0yL6ixHmK7n/AKQXND27PG/8Oqt8JoqbuAsdX1k2wZlu2RTZdyXN+IR49KtmhvokVOcELmPOuNRioKc7UtvLUseEpR5103Yng5pa8ADHA/PFNjWuP1SXPqkytsSEz1xETh6M2L8oyhTimESHHA+e1BcQtAGie5ogjyD1W5x1lqYcrExzxThWDxryhRLbbvmnWNclYtG4KqrGtMuKG7Ecp0mtSEIWmAl0r7fmXSUKbjlJUUuDf31tGB61n1B8qSeU8D3hSLkXQL1otXtW57elu0uu0KrR2GZ9vyI/ap6PKaU6D6yNFK06SO5Cu0a89FyPslqTICeKFWHx+uetzajkKkUK6a3SsesxLqvOXbtIiyINEprclCkSZikv9jCVKQUqcXtIB9t9Zw9qjqgHkUsMr4GyeKXQrhumx7lte0simVVrDrVQcgsU27mGn1qccpr630pfS13aWpA7SUkA7B6iWQK4UipEgpmqHx7rN9XDQrSsih1iu3vNkIpUSkUSAmdIrryyoNKYaS+T5U2vuQnuIQO7wPayjdwDUdQfKnluPFl/RrWi1VNj3NTLaoRZx1UK3NpSGWU1iI24zLh+oV6LiVNOns8LAbPdvrbaEG30HFHUHoKjo7hNLMp1mY7UnJLiU+ihlhsJVsg7Kg7ryD7/AJ66TfG4YqeoPlUhmMA5kxna94Uqr43vWNItxqnXxca6nQQxGodNmM9sWdJ05pthxC0qQ8SpKgAfv1rR1BnkUx72J37qrTtQMepzFSEKk/KRo7MaQUJQVBxSlPDbagCruQRoJ9+qP8NHUHyp0cf4HyVbFWt9TFiXlUncm0OfRcdwYdvuSFXk5J7WWPkVjYkI9QaUY/foAjuKiOph70GX0ApK3FiW4bjlT4NSoE+NPhB2n/JzGlRKlSVx3ymSVMJd7e5B/dll3S0kfUkK31afGBR1F9RRbbeDbjjRod20y2rqdodsV+C3XK1TqQ/LohfkPtCLFclDbLUpxLgSllah3HXaCT1MXagyAdhSlyZYV6vVWt2tXrbr9qVcVdcuXS69Sn4NZhd3dJaL0VSQ4hLrRb0Vj+94HUyEbqOqD6fxpAWvx1vW5qnFi2lTqnc9Uc9d5VNotIfqkstspBdc9JlKnSGtgKUEhKfdSuqcCo6g+VOjWLPuai0CzI8ujVWnx6lbCoVJqdWpi6XTa+G3nmVOxS8lIcAdJbBaUtPelQUtPgdbN8NAlGeB/GmooWALpq1y0yi0NipVK5Zsv0qPSaNFE2sTnVDvSI8ZouOOOAfSEI2SrpU/tPxoMnBxwafC2LMqFjB+wawiaxXG7oRNluPMtOMU0mAAY76ku9ofK0ubZWkEdw3o6HWuDUQ5DE5qHFx0xyHX7lhuJCzHrjzRQFd6j+82jQSSrz3gjrGQeYGnan5ifinnm8sfVuq0+zY7NNpdEaEWu3DPYtpExpA9UlCnyE60oa8jZ8Dz4O0I4GKXl7GkJdXEy5RWfna0qOhVVHey29VIbSklCUIUUlTgJR/EpBUkKcSRoDq7RBm3GsBP0hg05Ns8I8yW5cMO3Itp1Fy6rotNVctehIq1Lcm16BJZTITJYCXztJbbJBPgK0lXaT1XoDPNX96X84ojunhnl+rP038YtNpxKqe5Ihsxbtoqn0ILgaVIcaVLSpsNOfQptYSs/wB0HoMK54qOrn0/jRBH4V5ctiRZ06djy6KULhmBFtSX26eId1liSlpxMB0yQl0hRTtSSR56joj5VIlGe1G2TONGXqM7WaDdljV+16qiYELo9RjtN1DsUUuA7DhAJ2NJPk62D1PRHyqwmH1pnInGG82Ib9bjWve8miRVNRJ1bYs6oyaVCeUhSwy7IDfpB0FOggqAUN9u9a6jojPaqvNx3pRVDHN3UpNIo820bzjOpoLLaF1S0qlRFSWnu8tPtIdZCnGFpV3Ida7krA2CejogcVeOYGmsqHH2sxpEtbCKtUWac389UZlNtepvxqS2DtapI9HvSE/8atJBA2rqej9BTXUUfHS4o1mXGzbjjMejV+tpaqiZZNNtyfJQ0kNhHYVJb7VePUV+egPf36OkPkKOrH9KbmtYduuo1R+YaTVSHkeoptduz2H2gP4FLSpoa8p7fB8fn1HRHypd5lzhTR1b1tVKlGqy5qlyVLpXyDaGY7jr7JISjsU2E7CUJQSpR++h0dEVXqqRzQSdaTlYW0TLhQOyJ++aqZUyp47/AHfaNbOzr3+x6iQFQcVmh82W70f2taMuHPt2K3UoH4dSaqiezFjvKSlG1pWsqHue78tEdcxrok4pwdq2RvgGcQ8c5w+INimlZlp0K5KDj+PcWbqXas2OJlJrtQpsWMmnqlIc0HGm33g8pspIUWEj2J0jKQ8gDVNel9DiJjpABKgP4e4AFH20gAAJToaCR7AADxodPQDsTRQxKdKJ37jQGta6borv0UV0WSE+NeTr8+oIB71I71rpftOkGbO+GhNjx6eiU3/pqoS5MgJPdACqZX2UuJX/AAo+paQCshKiQne1JB3SQxqNtce6aVZcKOK8w2tUKT82+ktuOpfKQChvtQ0ChJ+rf95WiVb12KJSR46XLIh3P6110ysQIFJr8IljQSx3IQfqVsOq2P1/PqGljPAoYbu3ArG7Q3mErU2FNrUR3gkb2fJ/6dSrwAcmsHHm5NYTQnVaZUNn0+5ISO5xB/n1UtBnufz+NQBgYNYFUOQtKUBsqDZ2D2lJH3/Lz/TquYhyDTA4GDXJFHWuR2tN9jnp7WHklvZA86BHVxJH86psFF6reeUUqVpISrvPajWugyR/Or1nXQZCkFACkq17qQAjX6k+OoEsfz/l/nUFc8UFdoMpppLvcFLB7QlJ8+fzHt1bqR/3qr0xQiDQCt8uyQ4EJaKlFCQCR+h356gSRBt3rU7QFwKUFLhlpCWw08hRV3kdp+hXcFBQ0k+QAR/I9aPcJIuxq1hd4TuTvWyl8Gv472RvhxU5/DmT7Qm5b421ad+IR6PEqBiXRYL7jhL8ilrdPprbVtRUwUnZJIKek0EKS5U1MkjSvvbvW167+06/CrRZqrkRfOXn6u3BDybJbw/VBX3JBRtMX5kp+U7iSU93qee3f26a3JLjJ7ViVBrUt+Mn8dzI3xJYMLDmPbSnYc410Gr/AI0i1p1Q/EbtyHOSR8vOrTqCGVNMkEtRGApKFOKWskhJE9dR60FBWtlVID77inFIeQtKw139q3FLSCVAEnf56/x6DcIRg0BADmikUaUB3Fn92rwVLBbAP20SBvfVOpH86tQU0CWtzu8pSrSSCNoH8vPno6kfbNFCF0WQpxJUh1TaUHZRG8ePy89HUj+dFYnaZJLQaaTJUy4O5aFbQkK3reujqR/OihDdGefCVqSlaFtdg70qC0dvjwd+f6/boMkY9aK+xLbmS3UtI9FPataO95Xpd49NRSd7+5A/w6oZD/ZorC1RX0Ah4ICOwoOkl5QJGiQepDsSA3aj7qcXH+QcgYlvm0Mg45umtWveVkVRmt2zWqUv5R+nPtK7kJKNacSQtxC0LCkuocWlQIPXRiaKJMIaXbDd6m1L59VSsTXqjVOH3Bep1qrTH5tUnyOPjTMuoSF6CnVpQ+lCHHHCp4pSns2olIGzqxaFmDHGahjhCo7Gmkzrywytmyh2RZUmlWVijG+Pp7tVtXHGE7WGOLHg1aSrtkVb5ZpRWuatRG5Di1LSQO1SR1frR9wKwz8qfmqfENyXcvyKspYO4u5cvKnUGDSqxknJGHma/kG6RT2ExI8qqz0OASpPaltKpBBcUGyV9xJPUNMjDDUZps8oc3MnZBx3ceJLVx/hfB9h3lVI0y8qHg3HzViS8h/JhwRmqw+lRefjNuOurDA00S4ruSfGrK6DJGKKz2BzhzJirGFGwfUKHinOGNrVmP12x6DnrHEPJ8axH53pmcihuvEuRIzqmgtUVKwgOLcUE7Wequ0TeZgM1GSaVFL+I/mSz5NQr2MMR8YMRXxUKZJo0HIGL8E0+gX1bzctBQ+9S5qiv5V5SVKQHUJCwk6BT79AlQdgKmmbwjyvyTiW08g47rtr2dm7GGVqi3dV5YwzXTplz2y5XYrq1NXDHfacblRJ6A66hxxt1PrB093cfIkzxk5op06HzEsikVGFVqbwK4Rxp9NqTdQhzJlm16pOIkNOpeZdUl6pFKu1aEK7VpUggaUCCR1TfHnPFFJy3OcvIaj51yDnqv16nZFuHK9KftPJ1nZBpKa1ja/qK+wpBosmjf7puEwHUpYTH7fSDX0FPUh4uwAopWnmPZCHGlngZwbjMIDbjyGcZVgNlDWwEHc1R7dLKda0Qo78dSXjHcCimRzFyrzrmLKVu5UrNzP2lWsdw4cPFVLsJsW5auIIdHIVTYNuwGlBmKlohCiE9q19v1FRJ6BJGDkAUelSKq/xAaveVw1K7L/4ucMrxvK4XxU7wu2rYNCLguqctDfr1CYuOtCFSJKwp1xaG0hajtXkk9SzxEZYCjimczTzCyrmDHNCwzTLbx7hXD1GuJd5Ixnguz02DbNfq61IS3V6qltRclSWENlLRdJ9PYUhO/PUCWJRgUU4U/nPJyHSbTe5CcZsGckL6tO1o1lR8uZFqFz0S/KzTYSAzAiVlymTGWZrjDCW2UuvpDxS2nuWsjZbQwlASBRWZjnVVLGsvINuYB48YH4u1zJNITa10ZKxUiu1rJC6Y4nT1LhzqlMfTCafT9DzjIbWoeCpPVz7vnkDFFIXFXNLK+NMR0zEc62cU5Xs+3bilVewLezRjSNfy7DExKBUY9JmSEB5iPJKELdYbdKVLSFBIOyUmmTJxiil+38RLL9EeqM3HuKOL2KLnXS36VFyFizAtMtK+6MJkZcWSqmVIdyornpLKUvNgOIKtpIIB6xkljClqsg3MBUB0/PzpE+dKXKmyZc9c+RUX1uLkyX3HS86447vbhKytXcolW1HyeucJJMcmnAiDnFAqpRZMipVSaG3X2JIRMLiFq7PrCUeR4/vpB2BvqVkPPUPFWqW/GrkxUsNf2wtTI9nM5xwvkmgCkZHxXc9ZnUGHVQxtVOn0+qsH14EuE79bLjRHn+NKx462W5CcDtVWjVxzTyvcg+F0l1hVQ4K3hNf+lLLn+t5cqp7TKQQlgD0N/UPqDgIUdEDQGum47iN0znFYNaQuwLZoY7zvv2nZ7xxlW0cbWZbOPcc2X/oqtLBbqX6zaaraXHLdRplSqpPz7siWtSpLs0uJe9fRQUpBQb9SP51X3K3+ZrtUeRfD2bKdmJ4Q3O3848kqCuUtyPpaQhRUhtHdFOglXkH3Gt9HUj+dWFrFjuaT+aOaNWveDgy1sWYrt7D9gcfK69dln0OdVH8l1Sr1t6YxNfk1mrTk+rMbUWEIEcJQ2lBUAN+eo6kWeTQbeMDIp0Lz5P8UMpXbcGSL1w3yXtG+b19OqXZTcS59pNNx8Kj2IDztKYmUaVJYjvrQlRjqkOBonSe0DXVjJB86wx8qAX/AM0LDY4/3jg/BuMcmUN7IVZgyrvv3MuTGsl15qFSz6rEenQmo8WEl31gO9xbK1FsaSRskheEDINWVQ/Bo/ujlPxvz7RbHrefaXyfsvIVvWbAtGuMYEuikzMc3CKaltpifEi1ZSpFOcdS2kvRYzio4WT6aWx9PRvi9Gq4iVeRWGNyq444dtrLT2BqHyNvDI+TLFesCA5nutUdNjWzGlgolz0waW4l6bLabUr0GZCiwFHuWlXgAEkXzzVJVDHmkBx75oUnHeGpuHslWJki6aem/lXrQbwxRl+Riq84y5MZMZ+JUZK4kuNLjhttCm0oaQ4hbhT3FKUgT1YgeDWXSUjBJp97d+IviuyatT7opeHuQ9z1ehwXWKbQ8m8o0XdY01x1taEJqdNZokeRIbbK9lCHmlBSf4ugyQnuasAAMCoqcceZ07Bd15Qq152A7fdByzSJdOqTNv3K/ad22U49NXNadt+qKRIaaKiotKTIYfUW0geD56N8BPc1I5NPXW+c+O7lhyY8XF2cYFRdgvUyPVZ2eadWmIz6k9qFvsi32y6EhwKLYUkq7e3YJ30tqjRxr9ke9bBFU5Fei5xK4rcIORXA7AVRlY+xtfNnz8KUuBWr8pzdPjVVD8NhInuy6rHCFIktONrLvqAFATo9ciCOOVNxPpWyZ4Fa/nwfqJakH472aqfjqtw7kxrQbAvhiyFUyqprkOiwUvQ4qUKWjw0VL9RI7z7JH/GD1zZWZbgbRxg/yNaVvNNkkef0/TruQ/sxRWTrWiudFFdVJ7klO9b8bHRQODmm4yriHGmb7GreMst2RbmQ8fXK03Hr9o3XTkVWi1JLTgda72leykOJStK06UCkEEdTk4xWTR7mzVOlc/Z6fh01mpTJjOGrKpsSRIU4iAxbr7oaRskILpmBS9d38Stk/n1jLGZMYrUcLtovP7O38O9IaQ1iOxEtoO1pXZq3S5/Uzes+gfU0Vxz9ng+HsQtLeJ8ftNEfQk2KXS3+Z2Zvno6DfOqFMnNF8n9nU+H3IQgf6MLBS+2jsDpsRYH6fSmeB1HQb51HT+tEb/7Nt8PKSE9+O7WSvv73izbEplK9+dBIqOh0C3OO/NaUcMfs5Hw62XEqXimzJCUDQQ/a0hzz+ZJqG+p93Pz/AIf9aOfWsn/i5vw7VJWh3E9iuJWfYWc6gpG96B+f6joN86KBTf2bz4cMpSVIxPacZQT2n0qBMAP28AVEAdHQb50UUPfs0nw3H0qQ5jenI7vHdHbqrBSfzAFT1/TXU9A570V1jfs0fw4IyllOOqc96iQhRkMVJ5RSPts1Lx/TqOg3zoo4P7N58OUIShvGFvp7T5KqZPWSPy2aj0GBvnRQlP7OJ8OdtvsbxhQUAK7zqn1Ap2N/UB+I+D5Pt1Q2rFs7qKxf+LhfDuWorexvRFK7ysqRAqCVrJO+5R/EvKv111qkBU5JoxRd/wCLZfDqKys48oyz37JcptQJJPgkkVIeSPBP36j3c+horK3+za/DiQfoxdbHZvakqok9ZP8AU1LfR0D86K4j9mz+HH6hWvGNvlBCh6aKTOQAT4B81E+38uo6DfOiip39mi+HA66Vox5TW0keUJi1JHYP+zqpDz+vQYGx3ooqf/Zh/htvLCxZb7Z0QoJkVTsOzvwPxHx1PQPzorNC/Zj/AIb0FXcLFakIA3qT+KuKB/n+J+39Oo6DZ4IooYr9mf8Ahxle0WDT2yBoJMWprA/xqfR0Gx3ooC7+zH/DkeJUuzG99xWkIZqCUI7h2kJH4j4Gjrq4iYDANFBZH7ML8ON/RFqPtKSkJBbNRSBoa8AVHoMTejUfdWFj9l8+G6wVqTas5wr/AIi9Jqbn2IP/AO8f1+3UdF/71Z9P60NT+zGfDdQkA2O24v6NLe/FnCAjfn/4UB3o+Cf8+gROBjNATHrXR/8AZifhvvSA5/YpJbKQVodcrDj+wdgpdFVBSP011Jif+9R0/rRFW/2Yf4fkiS65R7Hill4JLol1+v09wKGtlIamqH93+v36DG/96jZ9aTf/AIr7wdQ8Fx7VixUNyUy0Pxb0uRiYh1PsQfmDr8jr36Om/wAxRs+tDk/sw3Bc+XbBobqgoKK3LtuVS3SPdSyJI2T9/wA+jpyfOjZ9aDL/AGYbg4ogCwLXDQUVhs3Hci0r3/xJMnR1511HSk/vUbPrQSX+zAcJ5KlrZsm10OKSApa7guNSlFI0lR/2j+IDQCvfQ10GNx3ajZ9aLh+y38KlNlLlp0RCz5UqNddyNBw/moev0CN/RqNh+dYGf2WbhM06t9VtQe9WtNi9LlLI9/Hl/YG1ew/IdAjf+9R0/rRiP2XnhN2IKrFtx11s6SXbyulbevz18x/F7aP26OlJ/eo6f1rD/wCK58JX1Ev2bRQlSdL9G9rqPrfl3hUkg68631PTf+9U7D86JVfsrHCVxX1UNEZAPaFQ78udLqUefp2X/Pv1HTk/vCo2HvmgT37KPwjWshhqpssqAPi+a+p1KtD6gS7oEfZXuOjpvnG6jZ9aENfsqHCJlSVFiqS1pP8AFLvqvFQJO/BC/H/f+fVwJQMBqOmPWh6f2WDhI3/DRxsoLYJvS4SQCdnX77Q2ff8APqSJj/ao6Y9Kwufsr/C1et0KCdHY/wDPG5AR+o/f+5+59+shE/YNR0/rWBX7KvwpWB304tqBJS2xetxNtgn779Xq3Tk7bqkJjuaDM/sqnDFl4LDEtpveilu/rjII15T2lzXnf+fQInAxmr0bxf2WDhLFX3GkPSUDaUIkZAuYpSk60NB4fl1DRM2ADQayf+KxcISgH+zzaX0KJQtF+XMGwN70U+vojf211XoP6EUUCc/ZYOGDinN01xIWe5xxrIVztvD8u0+sQNeda9tnqeiw7EUUXSv2UzhY8ghpNbjrJ2CnJdwuJKt73pW9fzHR0X/vUc5zRWj9lB4gJQ731a4VKWsqQ2MgVkNI8/c9ncfy89R02xkNRRo3+yrcO2CClua44UBv1XMjXGh3Q/7SSD7+d+/UiJ+4ajn0oSf2WHh6Y7kVMNAQt0PnV8XCHELH95Kyokb9zrwSfbqTE/ctWfT+tFTn7KhxBdUe8zEoOyS1kO4UuIOh9SCd9p/Mj36OlIRjdR0/rRXL/ZPOH7hUY1TrzBdUFOrTkWupWNe3b9BGz9z999T03+Yo6f1rMz+yhcPV9wlz68EFKUFlnJVfW2sD7naAdnx7fl0dOT50dP60bf8AipPCwtlP/l5xWtBxzJ1xFaDsHaTvYII8EeR9uo6Un96jp/Wgjv7KNw2LvqIdriVrH71X+lG5UqX+ajo/UT9+736OlJnO6jZ9aLx+yd8QFnTlUriW0KKmWUZArbrQJ91ELSdK1ryOjpuOd1Gz60NY/ZQ+ILXY2ur3A6wju7ELvysKIKvKlE9nk+B5PUTRSTcFqNnPen/sn9nfxZjyzK3ju0czZotixLibU3XrTt7Pd20i3KyFgpIkwWlpaWNEjWus0tWQYBoCYOanh8Pz4R3GP4elfuq+8VU+t1LIl8UUW9W7juOvP14w4IebfVHhB0Ao9RbTZccP1r7ACo9HuhJyTzWnJ71aqAAAB7DptRtUCivvVqK//9k=;" vertex="1" parent="1">
          <mxGeometry x="100" y="510" width="496" height="375" as="geometry" />
        </mxCell>
      </root>
    </mxGraphModel>
  </diagram>
</mxfile>
